<?xml version="1.0" encoding="UTF-8"?>
<svg width="24px" height="24px" viewBox="0 0 24 24" version="1.1" xmlns="http://www.w3.org/2000/svg" xmlns:xlink="http://www.w3.org/1999/xlink">
    <!-- Generator: Sketch 59.1 (86144) - https://sketch.com -->
    <title>Icon/Categories/Alert/alert</title>
    <desc>Created with Sketch.</desc>
    <g id="Icon/Categories/Alert/alert" stroke="none" stroke-width="1" fill="none" fill-rule="evenodd">
        <path d="M12,3 C7.02836538,3 3,7.02836538 3,12 C3,16.9716346 7.02836538,21 12,21 C16.9716346,21 21,16.9716346 21,12 C21,7.02836538 16.9716346,3 12,3 Z M12.7442308,7.74230769 L12.6100962,12.7225962 C12.6014423,13.0774038 12.3548077,13.3629808 12,13.3629808 C11.6451923,13.3629808 11.3985577,13.0774038 11.3899038,12.7225962 L11.2557692,7.74230769 C11.2471154,7.32692308 11.5802885,6.98076923 12,6.98076923 C12.4153846,6.98076923 12.7528846,7.32259615 12.7442308,7.74230769 Z M12,16.2403846 C11.5370192,16.2403846 11.1735577,15.8899038 11.1735577,15.4442308 C11.1735577,14.9985577 11.5370192,14.6480769 12,14.6480769 C12.4629808,14.6480769 12.8264423,14.9985577 12.8264423,15.4442308 C12.8264423,15.8899038 12.4629808,16.2403846 12,16.2403846 Z" id="Shape" fill="#091D42"></path>
    </g>
</svg>