<?xml version="1.0" encoding="UTF-8"?>
<svg width="24px" height="24px" viewBox="0 0 24 24" version="1.1" xmlns="http://www.w3.org/2000/svg" xmlns:xlink="http://www.w3.org/1999/xlink">
    <!-- Generator: Sketch 59.1 (86144) - https://sketch.com -->
    <title>Icon/Categories/Navigation/arrowRoundForward</title>
    <desc>Created with Sketch.</desc>
    <g id="Icon/Categories/Navigation/arrowRoundForward" stroke="none" stroke-width="1" fill="none" fill-rule="evenodd">
        <path d="M14.4789858,6.22976258 C14.160125,6.54223969 14.160125,7.0609517 14.4727336,7.37967835 L18.2740535,11.1856496 L3.80653005,11.1856496 C3.36262591,11.1856496 3,11.548123 3,11.9980901 C3,12.4480571 3.36262591,12.8105306 3.80653005,12.8105306 L18.2678013,12.8105306 L14.4664814,16.6165018 C14.1538729,16.9352284 14.160125,17.4476909 14.4727336,17.7664176 C14.7915943,18.0788947 15.2980201,18.0788947 15.6168809,17.760168 L20.7686697,12.573048 C20.8374436,12.4980534 20.8937131,12.4168094 20.9374783,12.3168167 C20.9812435,12.216824 21,12.1105818 21,12.0043396 C21,11.7918552 20.9187218,11.5918698 20.7686697,11.4356313 L15.6168809,6.24851121 C15.3105245,5.92353501 14.7978465,5.91728547 14.4789858,6.22976258 L14.4789858,6.22976258 Z" id="Path" fill="#091D42"></path>
    </g>
</svg>