<?xml version="1.0" encoding="UTF-8"?>
<svg width="24px" height="24px" viewBox="0 0 24 24" version="1.1" xmlns="http://www.w3.org/2000/svg" xmlns:xlink="http://www.w3.org/1999/xlink">
    <!-- Generator: Sketch 59.1 (86144) - https://sketch.com -->
    <title>Icon/Categories/Navigation/arrowRoundUp</title>
    <desc>Created with Sketch.</desc>
    <g id="Icon/Categories/Navigation/arrowRoundUp" stroke="none" stroke-width="1" fill="none" fill-rule="evenodd">
        <path d="M17.7702374,9.52101424 C17.4577603,9.83987496 16.9390483,9.83987496 16.6203216,9.52726641 L12.8143504,5.73219868 L12.8143504,20.19347 C12.8143504,20.6373741 12.451877,21 12.0019099,21 C11.5519429,21 11.1894694,20.6373741 11.1894694,20.19347 L11.1894694,5.73219868 L7.38349821,9.53351858 C7.06477156,9.84612713 6.5523091,9.83987496 6.23358244,9.52726641 C5.92110533,9.2084057 5.92110533,8.70197985 6.23983198,8.38311914 L11.426952,3.23133032 C11.5019466,3.16255644 11.5831906,3.10628691 11.6831833,3.06252171 C11.783176,3.01875651 11.8894182,3 11.9956604,3 C12.2081448,3 12.4081302,3.08127822 12.5643687,3.23133032 L17.7514888,8.38311914 C18.076465,8.68947551 18.0827145,9.20215353 17.7702374,9.52101424 Z" id="Path" fill="#091D42"></path>
    </g>
</svg>