<?xml version="1.0" encoding="UTF-8"?>
<svg width="24px" height="24px" viewBox="0 0 24 24" version="1.1" xmlns="http://www.w3.org/2000/svg" xmlns:xlink="http://www.w3.org/1999/xlink">
    <!-- Generator: Sketch 59.1 (86144) - https://sketch.com -->
    <title>Icon/Categories/Navigation/arrowDropleftCircle</title>
    <desc>Created with Sketch.</desc>
    <g id="Icon/Categories/Navigation/arrowDropleftCircle" stroke="none" stroke-width="1" fill="none" fill-rule="evenodd">
        <path d="M12,3 C7.02836538,3 3,7.02836538 3,12 C3,16.9716346 7.02836538,21 12,21 C16.9716346,21 21,16.9716346 21,12 C21,7.02836538 16.9716346,3 12,3 Z M13.8778846,15.5091346 C14.2024038,15.8336538 14.2024038,16.3658654 13.8778846,16.6903846 C13.7134615,16.8548077 13.5014423,16.9326923 13.2894231,16.9326923 C13.0774038,16.9326923 12.8610577,16.8504808 12.6966346,16.6860577 L8.62932692,12.6057692 C8.33076923,12.2769231 8.33942308,11.7706731 8.65528846,11.4548077 L12.7831731,7.31394231 C13.1076923,6.98942308 13.6355769,6.98509615 13.9644231,7.31394231 C14.2889423,7.63846154 14.2932692,8.16634615 13.9644231,8.49519231 L10.4206731,12 L13.8778846,15.5091346 Z" id="Shape" fill="#091D42"></path>
    </g>
</svg>