<?xml version="1.0" encoding="UTF-8"?>
<svg width="24px" height="24px" viewBox="0 0 24 24" version="1.1" xmlns="http://www.w3.org/2000/svg" xmlns:xlink="http://www.w3.org/1999/xlink">
    <!-- Generator: Sketch 59.1 (86144) - https://sketch.com -->
    <title>Icon/Categories/Navigation/arrowDropright</title>
    <desc>Created with Sketch.</desc>
    <g id="Icon/Categories/Navigation/arrowDropright" stroke="none" stroke-width="1" fill="none" fill-rule="evenodd">
        <path d="M12,3 C16.9716346,3 21,7.02836538 21,12 C21,16.9716346 16.9716346,21 12,21 C7.02836538,21 3,16.9716346 3,12 C3,7.02836538 7.02836538,3 12,3 Z M12,4.38461538 C9.96634615,4.38461538 8.05384615,5.17644231 6.61730769,6.61730769 C5.17644231,8.05384615 4.38461538,9.96634615 4.38461538,12 C4.38461538,14.0336538 5.17644231,15.9461538 6.61730769,17.3826923 C8.05384615,18.8235577 9.96634615,19.6153846 12,19.6153846 C14.0336538,19.6153846 15.9461538,18.8235577 17.3826923,17.3826923 C18.8235577,15.9461538 19.6153846,14.0336538 19.6153846,12 C19.6153846,9.96634615 18.8235577,8.05384615 17.3826923,6.61730769 C15.9461538,5.17644231 14.0336538,4.38461538 12,4.38461538 Z M11.2211538,7.30961538 L15.3490385,11.4504808 C15.6649038,11.7663462 15.6735577,12.2769231 15.375,12.6014423 L11.3076923,16.6817308 C11.1432692,16.8461538 10.93125,16.9283654 10.7149038,16.9283654 C10.5028846,16.9283654 10.2865385,16.8461538 10.1264423,16.6860577 C9.80192308,16.3615385 9.79759615,15.8336538 10.1264423,15.5048077 L13.5836538,11.9956731 L10.0399038,8.48653846 C9.71105769,8.16634615 9.71105769,7.63846154 10.0399038,7.30961538 C10.3644231,6.98509615 10.8966346,6.98509615 11.2211538,7.30961538 Z" id="Combined-Shape" fill="#091D42"></path>
    </g>
</svg>