<?xml version="1.0" encoding="UTF-8"?>
<svg width="24px" height="24px" viewBox="0 0 24 24" version="1.1" xmlns="http://www.w3.org/2000/svg" xmlns:xlink="http://www.w3.org/1999/xlink">
    <!-- Generator: Sketch 59.1 (86144) - https://sketch.com -->
    <title>Icon/Categories/Navigation/arrowDroprightCircle</title>
    <desc>Created with Sketch.</desc>
    <g id="Icon/Categories/Navigation/arrowDroprightCircle" stroke="none" stroke-width="1" fill="none" fill-rule="evenodd">
        <path d="M3,12 C3,16.9716346 7.02836538,21 12,21 C16.9716346,21 21,16.9716346 21,12 C21,7.02836538 16.9716346,3 12,3 C7.02836538,3 3,7.02836538 3,12 Z M13.5793269,12 L10.0355769,8.49086538 C9.71105769,8.16634615 9.71105769,7.63413462 10.0355769,7.30961538 C10.3600962,6.98509615 10.8923077,6.98509615 11.2168269,7.30961538 L15.3447115,11.4504808 C15.6605769,11.7663462 15.6692308,12.2769231 15.3706731,12.6014423 L11.3033654,16.6817308 C11.1389423,16.8461538 10.9269231,16.9283654 10.7105769,16.9283654 C10.4985577,16.9283654 10.2822115,16.8461538 10.1221154,16.6860577 C9.79759615,16.3615385 9.79326923,15.8336538 10.1221154,15.5048077 L13.5793269,12 L13.5793269,12 Z" id="Shape" fill="#091D42"></path>
    </g>
</svg>