<?xml version="1.0" encoding="UTF-8"?>
<svg width="24px" height="24px" viewBox="0 0 24 24" version="1.1" xmlns="http://www.w3.org/2000/svg" xmlns:xlink="http://www.w3.org/1999/xlink">
    <!-- Generator: Sketch 59.1 (86144) - https://sketch.com -->
    <title>Icon/Categories/Navigation/arrowRoundBack</title>
    <desc>Created with Sketch.</desc>
    <g id="Icon/Categories/Navigation/arrowRoundBack" stroke="none" stroke-width="1" fill="none" fill-rule="evenodd">
        <path d="M9.52101424,6.22976258 C9.83987496,6.54223969 9.83987496,7.0609517 9.52726641,7.37967835 L5.73219868,11.1856496 L20.19347,11.1856496 C20.6373741,11.1856496 21,11.548123 21,11.9980901 C21,12.4480571 20.6373741,12.8105306 20.19347,12.8105306 L5.73219868,12.8105306 L9.53351858,16.6165018 C9.84612713,16.9352284 9.83987496,17.4476909 9.52726641,17.7664176 C9.2084057,18.0788947 8.70197985,18.0788947 8.38311914,17.760168 L3.23133032,12.573048 C3.16255644,12.4980534 3.10628691,12.4168094 3.06252171,12.3168167 C3.01875651,12.216824 3,12.1105818 3,12.0043396 C3,11.7918552 3.08127822,11.5918698 3.23133032,11.4356313 L8.38311914,6.24851121 C8.68947551,5.92353501 9.20215353,5.91728547 9.52101424,6.22976258 L9.52101424,6.22976258 Z" id="Path" fill="#091D42"></path>
    </g>
</svg>