<?xml version="1.0" encoding="UTF-8"?>
<svg width="24px" height="24px" viewBox="0 0 24 24" version="1.1" xmlns="http://www.w3.org/2000/svg" xmlns:xlink="http://www.w3.org/1999/xlink">
    <!-- Generator: Sketch 59.1 (86144) - https://sketch.com -->
    <title>Icon/Categories/Navigation/arrowRoundDown</title>
    <desc>Created with Sketch.</desc>
    <g id="Icon/Categories/Navigation/arrowRoundDown" stroke="none" stroke-width="1" fill="none" fill-rule="evenodd">
        <path d="M17.7702374,14.4789858 C17.4577603,14.160125 16.9390483,14.160125 16.6203216,14.4727336 L12.8143504,18.2678013 L12.8143504,3.80653005 C12.8143504,3.36262591 12.451877,3 12.0019099,3 C11.5519429,3 11.1894694,3.36262591 11.1894694,3.80653005 L11.1894694,18.2678013 L7.38349821,14.4664814 C7.06477156,14.1538729 6.5523091,14.160125 6.23358244,14.4727336 C5.92110533,14.7915943 5.92110533,15.2980201 6.23983198,15.6168809 L11.426952,20.7686697 C11.5019466,20.8374436 11.5831906,20.8937131 11.6831833,20.9374783 C11.783176,20.9812435 11.8894182,21 11.9956604,21 C12.2081448,21 12.4081302,20.9187218 12.5643687,20.7686697 L17.7514888,15.6168809 C18.076465,15.3105245 18.0827145,14.7978465 17.7702374,14.4789858 L17.7702374,14.4789858 Z" id="Path" fill="#091D42"></path>
    </g>
</svg>