<?xml version="1.0" encoding="UTF-8"?>
<svg width="24px" height="24px" viewBox="0 0 24 24" version="1.1" xmlns="http://www.w3.org/2000/svg" xmlns:xlink="http://www.w3.org/1999/xlink">
    <!-- Generator: Sketch 59.1 (86144) - https://sketch.com -->
    <title>Icon/Categories/Navigation/arrowDropdown</title>
    <desc>Created with Sketch.</desc>
    <g id="Icon/Categories/Navigation/arrowDropdown" stroke="none" stroke-width="1" fill="none" fill-rule="evenodd">
        <path d="M12,3 C16.9716346,3 21,7.02836538 21,12 C21,16.9716346 16.9716346,21 12,21 C7.02836538,21 3,16.9716346 3,12 C3,7.02836538 7.02836538,3 12,3 Z M12,4.38461538 C9.96634615,4.38461538 8.05384615,5.17644231 6.61730769,6.61730769 C5.17644231,8.05384615 4.38461538,9.96634615 4.38461538,12 C4.38461538,14.0336538 5.17644231,15.9461538 6.61730769,17.3826923 C8.05384615,18.8235577 9.96634615,19.6153846 12,19.6153846 C14.0336538,19.6153846 15.9461538,18.8235577 17.3826923,17.3826923 C18.8235577,15.9461538 19.6153846,14.0336538 19.6153846,12 C19.6153846,9.96634615 18.8235577,8.05384615 17.3826923,6.61730769 C15.9461538,5.17644231 14.0336538,4.38461538 12,4.38461538 Z M7.30961538,10.0399038 C7.63846154,9.71105769 8.16634615,9.71105769 8.49086538,10.0355769 L8.49086538,10.0355769 L12,13.5793269 L15.5048077,10.1264423 C15.8336538,9.79759615 16.3615385,9.80192308 16.6860577,10.1264423 C16.8461538,10.2865385 16.9283654,10.5028846 16.9283654,10.7149038 C16.9283654,10.93125 16.8461538,11.1432692 16.6817308,11.3076923 L16.6817308,11.3076923 L12.6014423,15.375 C12.2769231,15.6735577 11.7663462,15.6649038 11.4504808,15.3490385 L11.4504808,15.3490385 L7.30961538,11.2211538 C6.98509615,10.8966346 6.98509615,10.3644231 7.30961538,10.0399038 Z" id="Combined-Shape" fill="#091D42"></path>
    </g>
</svg>