<?xml version="1.0" encoding="UTF-8"?>
<svg width="24px" height="24px" viewBox="0 0 24 24" version="1.1" xmlns="http://www.w3.org/2000/svg" xmlns:xlink="http://www.w3.org/1999/xlink">
    <!-- Generator: Sketch 59.1 (86144) - https://sketch.com -->
    <title>Icon/Categories/Navigation/arrowDropupCircle</title>
    <desc>Created with Sketch.</desc>
    <g id="Icon/Categories/Navigation/arrowDropupCircle" stroke="none" stroke-width="1" fill="none" fill-rule="evenodd">
        <path d="M12,21 C16.9716346,21 21,16.9716346 21,12 C21,7.02836538 16.9716346,3 12,3 C7.02836538,3 3,7.02836538 3,12 C3,16.9716346 7.02836538,21 12,21 Z M12,10.4206731 L8.49086538,13.9644231 C8.16634615,14.2889423 7.63413462,14.2889423 7.30961538,13.9644231 C6.98509615,13.6399038 6.98509615,13.1076923 7.30961538,12.7831731 L11.4504808,8.65528846 C11.7663462,8.33942308 12.2769231,8.33076923 12.6014423,8.62932692 L16.6817308,12.6966346 C16.8461538,12.8610577 16.9283654,13.0730769 16.9283654,13.2894231 C16.9283654,13.5014423 16.8461538,13.7177885 16.6860577,13.8778846 C16.3615385,14.2024038 15.8336538,14.2067308 15.5048077,13.8778846 L12,10.4206731 L12,10.4206731 Z" id="Shape" fill="#091D42"></path>
    </g>
</svg>