<?xml version="1.0" encoding="UTF-8"?>
<svg width="24px" height="24px" viewBox="0 0 24 24" version="1.1" xmlns="http://www.w3.org/2000/svg" xmlns:xlink="http://www.w3.org/1999/xlink">
    <!-- Generator: Sketch 59.1 (86144) - https://sketch.com -->
    <title>Icon/Categories/Navigation/arrowDropdownCircle</title>
    <desc>Created with Sketch.</desc>
    <g id="Icon/Categories/Navigation/arrowDropdownCircle" stroke="none" stroke-width="1" fill="none" fill-rule="evenodd">
        <path d="M3,12 C3,16.9716346 7.02836538,21 12,21 C16.9716346,21 21,16.9716346 21,12 C21,7.02836538 16.9716346,3 12,3 C7.02836538,3 3,7.02836538 3,12 Z M15.5091346,10.1221154 C15.8336538,9.79759615 16.3658654,9.79759615 16.6903846,10.1221154 C16.8548077,10.2865385 16.9326923,10.4985577 16.9326923,10.7105769 C16.9326923,10.9225962 16.8504808,11.1389423 16.6860577,11.3033654 L12.6057692,15.3706731 C12.2769231,15.6692308 11.7706731,15.6605769 11.4548077,15.3447115 L7.31394231,11.2168269 C6.98942308,10.8923077 6.98509615,10.3644231 7.31394231,10.0355769 C7.63846154,9.71105769 8.16634615,9.70673077 8.49519231,10.0355769 L12.0043269,13.5793269 L15.5091346,10.1221154 L15.5091346,10.1221154 Z" id="Shape" fill="#091D42"></path>
    </g>
</svg>