<?xml version="1.0" encoding="UTF-8"?>
<svg width="24px" height="24px" viewBox="0 0 24 24" version="1.1" xmlns="http://www.w3.org/2000/svg" xmlns:xlink="http://www.w3.org/1999/xlink">
    <!-- Generator: Sketch 59.1 (86144) - https://sketch.com -->
    <title>Icon/Categories/Navigation/arrowDropup</title>
    <desc>Created with Sketch.</desc>
    <g id="Icon/Categories/Navigation/arrowDropup" stroke="none" stroke-width="1" fill="none" fill-rule="evenodd">
        <path d="M12,3 C16.9716346,3 21,7.02836538 21,12 C21,16.9716346 16.9716346,21 12,21 C7.02836538,21 3,16.9716346 3,12 C3,7.02836538 7.02836538,3 12,3 Z M12,4.38461538 C9.96634615,4.38461538 8.05384615,5.17644231 6.61730769,6.61730769 C5.17644231,8.05384615 4.38461538,9.96634615 4.38461538,12 C4.38461538,14.0336538 5.17644231,15.9461538 6.61730769,17.3826923 C8.05384615,18.8235577 9.96634615,19.6153846 12,19.6153846 C14.0336538,19.6153846 15.9461538,18.8235577 17.3826923,17.3826923 C18.8235577,15.9461538 19.6153846,14.0336538 19.6153846,12 C19.6153846,9.96634615 18.8235577,8.05384615 17.3826923,6.61730769 C15.9461538,5.17644231 14.0336538,4.38461538 12,4.38461538 Z M12.6014423,8.625 L16.6817308,12.6923077 C16.8461538,12.8567308 16.9283654,13.06875 16.9283654,13.2850962 C16.9283654,13.4971154 16.8461538,13.7134615 16.6860577,13.8735577 C16.3615385,14.1980769 15.8336538,14.2024038 15.5048077,13.8735577 L12,10.4206731 L8.49086538,13.9644231 C8.16634615,14.2889423 7.63846154,14.2889423 7.30961538,13.9600962 C6.98509615,13.6355769 6.98509615,13.1033654 7.30961538,12.7788462 L11.4504808,8.65096154 C11.7663462,8.33509615 12.2769231,8.32644231 12.6014423,8.625 Z" id="Combined-Shape" fill="#091D42"></path>
    </g>
</svg>