<?xml version="1.0" encoding="UTF-8"?>
<svg width="24px" height="24px" viewBox="0 0 24 24" version="1.1" xmlns="http://www.w3.org/2000/svg" xmlns:xlink="http://www.w3.org/1999/xlink">
    <!-- Generator: Sketch 59.1 (86144) - https://sketch.com -->
    <title>Icon/Categories/Navigation/arrowDropleft</title>
    <desc>Created with Sketch.</desc>
    <g id="Icon/Categories/Navigation/arrowDropleft" stroke="none" stroke-width="1" fill="none" fill-rule="evenodd">
        <path d="M12,3 C16.9716346,3 21,7.02836538 21,12 C21,16.9716346 16.9716346,21 12,21 C7.02836538,21 3,16.9716346 3,12 C3,7.02836538 7.02836538,3 12,3 Z M12,4.38461538 C9.96634615,4.38461538 8.05384615,5.17644231 6.61730769,6.61730769 C5.17644231,8.05384615 4.38461538,9.96634615 4.38461538,12 C4.38461538,14.0336538 5.17644231,15.9461538 6.61730769,17.3826923 C8.05384615,18.8235577 9.96634615,19.6153846 12,19.6153846 C14.0336538,19.6153846 15.9461538,18.8235577 17.3826923,17.3826923 C18.8235577,15.9461538 19.6153846,14.0336538 19.6153846,12 C19.6153846,9.96634615 18.8235577,8.05384615 17.3826923,6.61730769 C15.9461538,5.17644231 14.0336538,4.38461538 12,4.38461538 Z M12.7788462,7.30961538 C13.1033654,6.98509615 13.6355769,6.98509615 13.9600962,7.30961538 C14.2889423,7.63846154 14.2889423,8.16634615 13.9644231,8.49086538 L13.9644231,8.49086538 L10.4206731,12 L13.8735577,15.5048077 C14.2024038,15.8336538 14.1980769,16.3615385 13.8735577,16.6860577 C13.7134615,16.8461538 13.4971154,16.9283654 13.2850962,16.9283654 C13.06875,16.9283654 12.8567308,16.8461538 12.6923077,16.6817308 L12.6923077,16.6817308 L8.625,12.6014423 C8.32644231,12.2769231 8.33509615,11.7663462 8.65096154,11.4504808 L8.65096154,11.4504808 Z" id="Combined-Shape" fill="#091D42"></path>
    </g>
</svg>