<?xml version="1.0" encoding="UTF-8"?>
<svg width="24px" height="24px" viewBox="0 0 24 24" version="1.1" xmlns="http://www.w3.org/2000/svg" xmlns:xlink="http://www.w3.org/1999/xlink">
    <!-- Generator: Sketch 59.1 (86144) - https://sketch.com -->
    <title>Icon/Categories/File/attachXlsx</title>
    <desc>Created with Sketch.</desc>
    <g id="Icon/Categories/File/attachXlsx" stroke="none" stroke-width="1" fill="none" fill-rule="evenodd">
        <path d="M17.9930027,3.40548892 C18.3289936,3.71331742 18.5,4.12503969 18.5,4.61325948 L18.4998171,18.9833418 C18.4804728,19.6081931 18.3225495,20.0901671 18.0080998,20.4139699 C17.6434878,20.789427 17.1484955,20.982986 16.5327236,21 L7.36916399,21 C6.75863723,20.9804969 6.26341842,20.7870871 5.90240573,20.413239 C5.60620042,20.1065024 5.48132483,19.6433345 5.50224129,19.0548591 L5.50224129,7.2373654 L9.52813083,3.00541292 L9.6765706,3.00541292 L16.7009591,3.006307 C17.2208097,2.96866276 17.6587544,3.09925688 17.9930027,3.40548892 Z M16.7256829,3.74195918 L10.036,3.741 L10.0361042,6.80078716 C10.0409117,7.03106111 9.98893142,7.23436097 9.8745151,7.39738724 L9.7983278,7.49026377 C9.63637218,7.6600705 9.41254206,7.74907421 9.11462142,7.77103787 L9.11462142,7.77103787 L6.212,7.771 L6.21205766,19.0682752 C6.19743556,19.4843526 6.26987104,19.7530183 6.40406206,19.8919803 C6.62780555,20.1236788 6.95042819,20.2496804 7.37999607,20.2635864 L16.5231966,20.2635864 C16.9584184,20.2514672 17.2802633,20.1256148 17.507859,19.8912495 C17.6760352,19.718071 17.7761083,19.4126529 17.789948,18.9715214 L17.789948,4.61325948 C17.789948,4.33189557 17.7029579,4.12245457 17.522956,3.95754022 C17.3412116,3.79102941 17.0909585,3.71640452 16.7256829,3.74195918 Z M15.6046315,9.3871537 C15.8660654,9.3871537 16.0779995,9.6069957 16.0779995,9.87818454 L16.0779995,16.8508225 C16.0779995,17.1220113 15.8660654,17.3418533 15.6046315,17.3418533 L8.45677441,17.3418533 C8.19534047,17.3418533 7.98340639,17.1220113 7.98340639,16.8508225 L7.98340639,9.87818454 C7.98340639,9.6069957 8.19534047,9.3871537 8.45677441,9.3871537 L15.6046315,9.3871537 Z M11.675,14.837 L8.693,14.837 L8.69345842,16.6053071 L11.675,16.605 L11.675,14.837 Z M15.367,14.837 L12.385,14.837 L12.385,16.605 L15.3679475,16.6053071 L15.367,14.837 Z M11.675,12.627 L8.693,12.627 L8.693,14.101 L11.675,14.101 L11.675,12.627 Z M15.367,12.627 L12.385,12.627 L12.385,14.101 L15.367,14.101 L15.367,12.627 Z M11.675,10.123 L8.69345842,10.1237 L8.693,11.891 L11.675,11.891 L11.675,10.123 Z M15.3679475,10.1237 L12.385,10.123 L12.385,11.891 L15.367,11.891 L15.3679475,10.1237 Z M9.326,4.266 L6.692,7.034 L9.08829383,7.03550562 C9.17360417,7.0289251 9.23077421,7.0130276 9.26575725,6.99319157 L9.29356513,6.97224191 C9.31395859,6.95085983 9.32809655,6.90668441 9.32613544,6.80876062 L9.32613544,6.80876062 L9.326,4.266 Z" id="Combined-Shape" fill="#091D42"></path>
    </g>
</svg>