<?xml version="1.0" encoding="UTF-8"?>
<svg width="24px" height="24px" viewBox="0 0 24 24" version="1.1" xmlns="http://www.w3.org/2000/svg" xmlns:xlink="http://www.w3.org/1999/xlink">
    <!-- Generator: Sketch 59.1 (86144) - https://sketch.com -->
    <title>Icon/Categories/File/attach</title>
    <desc>Created with Sketch.</desc>
    <g id="Icon/Categories/File/attach" stroke="none" stroke-width="1" fill="none" fill-rule="evenodd">
        <path d="M15.8960654,8.18589601 C15.561002,8.18589601 15.288276,8.46708324 15.288276,8.81254184 L15.288276,16.6215131 C15.288276,17.436956 14.9765891,18.2443651 14.4311371,18.8348583 C13.8895811,19.4213345 13.0597148,19.7868779 12.2688093,19.7868779 L11.7389416,19.7868779 C10.9753088,19.7868779 10.1999876,19.4293684 9.60388647,18.7987056 C9.01168139,18.1760768 8.6727219,17.3686677 8.6727219,16.5813435 L8.6727219,6.50680652 C8.6727219,5.9082794 8.91427924,5.34590493 9.34674479,4.92010712 C9.77921034,4.49832627 10.3480389,4.26534256 10.9441401,4.26534256 C11.5324491,4.26534256 12.0856933,4.49832627 12.4947823,4.91609016 C12.9038713,5.33787101 13.1337404,5.90426244 13.1337404,6.50680652 L13.1337404,15.914528 C13.1337404,16.6014283 12.6038727,17.2079893 12.0038755,17.2079893 C11.4740078,17.2079893 10.9051792,16.6898014 10.9051792,15.914528 L10.9051792,10.5478688 C10.9051792,10.2024102 10.6324532,9.92122294 10.2973898,9.92122294 C9.96232638,9.92122294 9.68960036,10.2024102 9.68960036,10.5478688 L9.68960036,15.914528 C9.68960036,17.340549 10.6831023,18.4170944 12.0038755,18.4170944 C12.6467297,18.4170944 13.2389347,18.1720598 13.6675042,17.7221602 C14.1077619,17.2642267 14.3493193,16.6215131 14.3493193,15.914528 L14.3493193,6.50680652 C14.3493193,5.56683776 13.9947754,4.68310645 13.3480252,4.02432493 C12.705171,3.36152644 11.848032,3 10.9324518,3 C10.0168716,3 9.15973266,3.36152644 8.50908629,4.02432493 C7.85843992,4.68712341 7.5,5.56683776 7.5,6.51082348 L7.5,16.5853604 C7.5,17.7382281 7.9753225,18.9111805 8.77012405,19.7185896 C9.58440604,20.5460835 10.6363493,21 11.7350455,21 L12.2649132,21 C13.340233,21 14.4194488,20.5300156 15.2220425,19.7105557 C15.6194433,19.3048427 15.9311302,18.8388753 16.1532071,18.3206873 C16.3830762,17.7783977 16.5,17.2079893 16.5,16.629547 L16.5,8.81254184 C16.5038549,8.46708324 16.2311288,8.18589601 15.8960654,8.18589601 Z" id="Path" fill="#091D42"></path>
    </g>
</svg>