<?xml version="1.0" encoding="UTF-8"?>
<svg width="24px" height="24px" viewBox="0 0 24 24" version="1.1" xmlns="http://www.w3.org/2000/svg" xmlns:xlink="http://www.w3.org/1999/xlink">
    <!-- Generator: Sketch 59.1 (86144) - https://sketch.com -->
    <title>Icon/Categories/File/attachTxt</title>
    <desc>Created with Sketch.</desc>
    <g id="Icon/Categories/File/attachTxt" stroke="none" stroke-width="1" fill="none" fill-rule="evenodd">
        <path d="M17.9929913,3.40560902 C18.3289527,3.71383894 18.5,4.12531716 18.5,4.61344085 L18.4998093,18.9831436 C18.4800426,19.6085604 18.3222512,20.0903153 18.0078236,20.4139356 C17.6430868,20.7892816 17.1486198,20.9827145 16.5328104,21 L7.36901902,21 C6.7588223,20.9804381 6.26345054,20.786783 5.90272238,20.4131799 C5.60649967,20.1065619 5.4816621,19.643829 5.502159,19.0550413 L5.502159,7.38872649 C5.502159,7.29190317 5.53891606,7.19897489 5.60447377,7.13005684 L9.42383208,3.11492757 C9.49053859,3.04480185 9.58154956,3.00532683 9.67652024,3.00532683 L16.7131618,3.00532683 C17.227056,2.97104187 17.6600827,3.10200218 17.9929913,3.40560902 Z M16.7495037,3.74098822 L16.7249853,3.7418676 L10.036,3.741 L10.0361749,6.80092664 C10.0409324,7.03103338 9.98872172,7.23448187 9.87466234,7.39704776 L9.79876581,7.48956758 C9.63689562,7.66000611 9.41255124,7.74945823 9.14076542,7.77024028 L9.14076542,7.77024028 L9.11466892,7.77123666 L6.212,7.771 L6.21193869,19.0681855 C6.19760804,19.4844399 6.27003392,19.7528995 6.40429238,19.8918695 C6.62789878,20.1234567 6.95069956,20.2496489 7.37988789,20.2635961 L16.5231321,20.2635961 C16.958426,20.2512808 17.2799566,20.1254997 17.5077724,19.8910574 C17.6758102,19.7181068 17.7758459,19.4126864 17.7899941,18.9710757 L17.7899941,4.61344085 C17.7899941,4.3321641 17.7029555,4.12278064 17.5234145,3.95805737 C17.3405544,3.79129338 17.0901417,3.71652425 16.7495037,3.74098822 Z M15.7934576,11.0566995 C16.0548745,11.0566995 16.2667948,11.2765399 16.2667948,11.5477267 L16.2667948,14.984917 C16.2667948,15.2561038 16.0548745,15.4759442 15.7934576,15.4759442 L8.22006151,15.4759442 C7.95864457,15.4759442 7.74672426,15.2561038 7.74672426,14.984917 L7.74672426,11.5477267 C7.74672426,11.2765399 7.95864457,11.0566995 8.22006151,11.0566995 L15.7934576,11.0566995 Z M10.8880149,12.0502624 L8.91908911,12.0502624 L8.91908911,12.5050859 L9.61314759,12.5050859 L9.61314759,14.4938898 L10.1810136,14.4938898 L10.1810136,12.5050859 L10.8880149,12.5050859 L10.8880149,12.0502624 Z M11.6209019,12.0502624 L10.9737611,12.0502624 L11.630609,13.2620062 L10.9559647,14.4938898 L11.6095769,14.4938898 L12.0059506,13.6664803 L12.4023244,14.4938898 L13.0575544,14.4938898 L12.3812923,13.2620062 L13.039758,12.0502624 L12.3909994,12.0502624 L12.0059506,12.8625671 L11.6209019,12.0502624 Z M15.0911943,12.0502624 L13.1222685,12.0502624 L13.1222685,12.5050859 L13.8163269,12.5050859 L13.8163269,14.4938898 L14.384193,14.4938898 L14.384193,12.5050859 L15.0911943,12.5050859 L15.0911943,12.0502624 Z M9.326,4.265 L6.692,7.034 L9.10057615,7.03469589 C9.17991791,7.02757849 9.23353627,7.01197018 9.26684988,6.9925414 L9.29359593,6.97201212 C9.3139384,6.95069623 9.3281848,6.90632107 9.32625068,6.80882339 L9.32625068,6.80882339 L9.326,4.265 Z" id="Combined-Shape" fill="#091D42"></path>
    </g>
</svg>