<?xml version="1.0" encoding="UTF-8"?>
<svg width="24px" height="24px" viewBox="0 0 24 24" version="1.1" xmlns="http://www.w3.org/2000/svg" xmlns:xlink="http://www.w3.org/1999/xlink">
    <!-- Generator: Sketch 59.1 (86144) - https://sketch.com -->
    <title>Icon/Categories/File/attachImage</title>
    <desc>Created with Sketch.</desc>
    <g id="Icon/Categories/File/attachImage" stroke="none" stroke-width="1" fill="none" fill-rule="evenodd">
        <path d="M17.9930547,3.40560902 C18.3289741,3.71383894 18.5,4.12531716 18.5,4.61344085 L18.4998094,18.9831436 C18.4800451,19.6085604 18.3222734,20.0903153 18.0078853,20.4139356 C17.6431941,20.7892816 17.148789,20.9827145 16.5330566,21 L7.37041253,21 C6.7602922,20.9804381 6.26498246,20.786783 5.90429946,20.4131799 C5.60811383,20.1065619 5.48329189,19.643829 5.50378624,19.0551653 L5.5,7.38885049 C5.5,7.2716192 5.55272385,7.16716659 5.63496751,7.09969344 L9.42496834,3.11492757 C9.4916665,3.04480185 9.58266608,3.00532683 9.67762487,3.00532683 L16.7133855,3.00532683 C17.2272153,2.97104187 17.6601878,3.10200218 17.9930547,3.40560902 Z M16.7497229,3.74098822 L16.7252075,3.7418676 L10.037,3.741 L10.0372345,6.80092664 C10.0419914,7.03103338 9.98978727,7.23448187 9.87574216,7.39704776 L9.79985514,7.48956758 C9.63800521,7.66000611 9.41368892,7.74945823 9.14193712,7.77024028 L9.14193712,7.77024028 L9.11584389,7.77123666 L6.209,7.771 L6.21347706,19.0681855 C6.1991482,19.4844399 6.27156501,19.7528995 6.40580666,19.8918695 C6.62938508,20.1234567 6.95214543,20.2496489 7.38128004,20.2635961 L16.5233796,20.2635961 C16.958619,20.2512808 17.2801094,20.1254997 17.5078966,19.8910574 C17.6759133,19.7181068 17.7759366,19.4126864 17.790083,18.9710757 L17.790083,4.61344085 C17.790083,4.3321641 17.7030553,4.12278064 17.5235367,3.95805737 C17.3406996,3.79129338 17.0903182,3.71652425 16.7497229,3.74098822 Z M15.2495267,9.38720712 C15.7069491,9.38720712 16.0777632,9.77192775 16.0777632,10.2465047 L16.0777632,16.4825499 C16.0777632,16.9571269 15.7069491,17.3418475 15.2495267,17.3418475 L8.81294597,17.3418475 C8.35552359,17.3418475 7.98470948,16.9571269 7.98470948,16.4825499 L7.98470948,10.2465047 C7.98470948,9.77192775 8.35552359,9.38720712 8.81294597,9.38720712 L15.2495267,9.38720712 Z M14.1770389,12.7146784 L12.1563027,15.3422696 C12.033323,15.5021817 11.8082915,15.527454 11.6551785,15.3985487 L11.6551785,15.3985487 L10.4078091,14.348392 L8.71873882,15.9674051 C8.71125871,15.974575 8.70356114,15.9813475 8.69567026,15.9877237 L8.69462647,16.4825499 C8.69462647,16.5503466 8.74759992,16.6053067 8.81294597,16.6053067 L15.2495267,16.6053067 C15.3148728,16.6053067 15.3678462,16.5503466 15.3678462,16.4825499 L15.367,14.139 L14.1770389,12.7146784 Z M15.2495267,10.1237479 L8.81294597,10.1237479 C8.74759992,10.1237479 8.69462647,10.178708 8.69462647,10.2465047 L8.694,14.987 L10.1518743,13.5909481 C10.2629716,13.4844587 10.4242372,13.4644053 10.5543351,13.5334958 L10.6164103,13.5754822 L11.8245942,14.5926487 L13.8882583,11.909238 C14.0266729,11.7292555 14.288551,11.7237139 14.4339242,11.897691 L14.4339242,11.897691 L15.367,13.014 L15.3678462,10.2465047 C15.3678462,10.178708 15.3148728,10.1237479 15.2495267,10.1237479 Z M10.8243775,10.4920183 C11.5431841,10.4920183 12.1258919,11.0965793 12.1258919,11.842343 C12.1258919,12.5881068 11.5431841,13.1926678 10.8243775,13.1926678 C10.1055709,13.1926678 9.52286297,12.5881068 9.52286297,11.842343 C9.52286297,11.0965793 10.1055709,10.4920183 10.8243775,10.4920183 Z M10.8243775,11.2285591 C10.4976472,11.2285591 10.23278,11.5033595 10.23278,11.842343 C10.23278,12.1813266 10.4976472,12.456127 10.8243775,12.456127 C11.1511077,12.456127 11.415975,12.1813266 11.415975,11.842343 C11.415975,11.5033595 11.1511077,11.2285591 10.8243775,11.2285591 Z M9.327,4.266 L6.693,7.034 L9.10175289,7.03469589 C9.18108471,7.02757849 9.23469635,7.01197018 9.26800579,6.9925414 L9.2947485,6.97201212 C9.31508843,6.95069623 9.32933304,6.90632107 9.32739916,6.80882339 L9.32739916,6.80882339 L9.327,4.266 Z" id="Combined-Shape" fill="#091D42"></path>
    </g>
</svg>