<?xml version="1.0" encoding="UTF-8"?>
<svg width="24px" height="24px" viewBox="0 0 24 24" version="1.1" xmlns="http://www.w3.org/2000/svg" xmlns:xlink="http://www.w3.org/1999/xlink">
    <!-- Generator: Sketch 59.1 (86144) - https://sketch.com -->
    <title>Icon/Categories/File/attachCsv</title>
    <desc>Created with Sketch.</desc>
    <g id="Icon/Categories/File/attachCsv" stroke="none" stroke-width="1" fill="none" fill-rule="evenodd">
        <path d="M17.9929913,3.40560902 C18.3289527,3.71383894 18.5,4.12531716 18.5,4.61344085 L18.4998093,18.9831436 C18.4800426,19.6085604 18.3222512,20.0903153 18.0078236,20.4139356 C17.6430868,20.7892816 17.1486198,20.9827145 16.5328104,21 L7.36901902,21 C6.7588223,20.9804381 6.26345054,20.786783 5.90272238,20.4131799 C5.60649967,20.1065619 5.4816621,19.643829 5.502159,19.0550413 L5.502159,7.38823546 C5.502159,7.29140434 5.53892197,7.19846922 5.60448902,7.12954979 L9.42384733,3.11491154 C9.49055268,3.04479561 9.58155709,3.00532683 9.67652024,3.00532683 L16.7131618,3.00532683 C17.227056,2.97104187 17.6600827,3.10200218 17.9929913,3.40560902 Z M16.7495037,3.74098822 L16.7249853,3.7418676 L10.036,3.741 L10.0361749,6.80092664 C10.0409324,7.03103338 9.98872172,7.23448187 9.87466234,7.39704776 L9.79876581,7.48956758 C9.63689562,7.66000611 9.41255124,7.74945823 9.14076542,7.77024028 L9.14076542,7.77024028 L9.11466892,7.77123666 L6.212,7.771 L6.21193869,19.0681855 C6.19760804,19.4844399 6.27003392,19.7528995 6.40429238,19.8918695 C6.62789878,20.1234567 6.95069956,20.2496489 7.37988789,20.2635961 L16.5231321,20.2635961 C16.958426,20.2512808 17.2799566,20.1254997 17.5077724,19.8910574 C17.6758102,19.7181068 17.7758459,19.4126864 17.7899941,18.9710757 L17.7899941,4.61344085 C17.7899941,4.3321641 17.7029555,4.12278064 17.5234145,3.95805737 C17.3405544,3.79129338 17.0901417,3.71652425 16.7495037,3.74098822 Z M15.7934576,11.0566995 C16.0548745,11.0566995 16.2667948,11.2765399 16.2667948,11.5477267 L16.2667948,14.984917 C16.2667948,15.2561038 16.0548745,15.4759442 15.7934576,15.4759442 L8.22006151,15.4759442 C7.95864457,15.4759442 7.74672426,15.2561038 7.74672426,14.984917 L7.74672426,11.5477267 C7.74672426,11.2765399 7.95864457,11.0566995 8.22006151,11.0566995 L15.7934576,11.0566995 Z M9.93914476,12.016696 C9.74284441,12.016696 9.5705449,12.0645276 9.42224107,12.160192 C9.27393723,12.2558565 9.15987981,12.3931973 9.08006538,12.5722185 C9.00025095,12.7512397 8.96034434,12.9582299 8.96034434,13.1931953 L8.96034434,13.3425653 C8.96034434,13.7106777 9.04689855,14.0001843 9.22000958,14.2110937 C9.3931206,14.422003 9.63067282,14.5274561 9.93267335,14.5274561 C10.2087881,14.5274561 10.4312406,14.4519327 10.6000373,14.3008835 C10.768834,14.1498344 10.8623988,13.9428442 10.8807346,13.6799068 L10.395379,13.6799068 C10.3845933,13.8287182 10.3422599,13.9386467 10.2683776,14.0096958 C10.1944954,14.0807448 10.0825951,14.1162688 9.93267335,14.1162688 C9.76657306,14.1162688 9.64496574,14.0552906 9.56784774,13.9333324 C9.49072975,13.8113742 9.45217133,13.6183699 9.45217133,13.3543136 L9.45217133,13.1696988 C9.45432848,12.9168314 9.49558329,12.7302605 9.575937,12.6099806 C9.65629072,12.4897007 9.77735876,12.4295617 9.93914476,12.4295617 C10.0879879,12.4295617 10.1988096,12.4650857 10.2716133,12.5361347 C10.344417,12.6071838 10.3867504,12.7215878 10.3986147,12.8793502 L10.8839703,12.8793502 C10.8580845,12.6063429 10.7620929,12.3943178 10.5959927,12.2432687 C10.4298924,12.0922195 10.2109452,12.016696 9.93914476,12.016696 Z M12.0423523,12.016696 C11.8751734,12.016696 11.7244451,12.0457866 11.5901627,12.1039685 C11.4558803,12.1621504 11.3528781,12.2429884 11.281153,12.3464851 C11.2094278,12.4499817 11.1735658,12.5677423 11.1735658,12.6997705 C11.1735658,12.9537568 11.3073069,13.1557121 11.5747931,13.3056424 C11.6729433,13.3604677 11.8061451,13.4161312 11.9744025,13.4726348 C12.1426599,13.5291384 12.2591441,13.5828439 12.3238585,13.6337531 C12.3885729,13.6846623 12.4209296,13.7576683 12.4209296,13.8527733 C12.4209296,13.9400461 12.3885729,14.0080172 12.3238585,14.0566886 C12.2591441,14.10536 12.1690846,14.1296953 12.0536773,14.1296953 C11.7430481,14.1296953 11.5877359,13.994872 11.5877359,13.7252213 L11.1007625,13.7252213 C11.1007625,13.8829837 11.1398602,14.0217231 11.2180567,14.1414436 C11.2962533,14.261164 11.4097714,14.3554284 11.5586146,14.4242397 C11.7074577,14.493051 11.8724769,14.5274561 12.0536773,14.5274561 C12.314692,14.5274561 12.5223143,14.4673171 12.6765503,14.3470372 C12.8307862,14.2267573 12.9079031,14.0608855 12.9079031,13.8494166 C12.9079031,13.6592066 12.8448075,13.5003276 12.7186144,13.372775 C12.5924213,13.2452224 12.3912704,13.1383707 12.1151556,13.0522168 C11.9652339,13.0052237 11.8517158,12.9548747 11.7745978,12.9011684 C11.6974798,12.847462 11.6589214,12.7808895 11.6589214,12.7014488 C11.6589214,12.6164137 11.6918174,12.5478832 11.7576103,12.4958551 C11.8234033,12.4438271 11.91562,12.4178135 12.034263,12.4178135 C12.1572204,12.4178135 12.2526727,12.448862 12.3206228,12.51096 C12.3885729,12.573058 12.4225475,12.6600498 12.4225475,12.7719381 L12.9079031,12.7719381 C12.9079031,12.6253644 12.8715018,12.4944571 12.7986981,12.3792122 C12.7258944,12.2639673 12.6237011,12.1747377 12.4921151,12.1115209 C12.3605292,12.048304 12.2106097,12.016696 12.0423523,12.016696 Z M13.5760759,12.0502624 L13.0373312,12.0502624 L13.8543465,14.4938898 L14.3607341,14.4938898 L15.1809851,12.0502624 L14.6406225,12.0502624 L14.1067314,13.8880179 L13.5760759,12.0502624 Z M9.326,4.265 L6.692,7.034 L9.10057615,7.03469589 C9.17991791,7.02757849 9.23353627,7.01197018 9.26684988,6.9925414 L9.29359593,6.97201212 C9.3139384,6.95069623 9.3281848,6.90632107 9.32625068,6.80882339 L9.32625068,6.80882339 L9.326,4.265 Z" id="Combined-Shape" fill="#091D42"></path>
    </g>
</svg>