<?xml version="1.0" encoding="UTF-8"?>
<svg width="24px" height="24px" viewBox="0 0 24 24" version="1.1" xmlns="http://www.w3.org/2000/svg" xmlns:xlink="http://www.w3.org/1999/xlink">
    <!-- Generator: Sketch 59.1 (86144) - https://sketch.com -->
    <title>Icon/Categories/Action/card</title>
    <desc>Created with Sketch.</desc>
    <g id="Icon/Categories/Action/card" stroke="none" stroke-width="1" fill="none" fill-rule="evenodd">
        <path d="M21,6.8 C21,6.085 20.4214286,5.5 19.7142857,5.5 L4.28571429,5.5 C3.57857143,5.5 3,6.085 3,6.8 L3,8.75 L21,8.75 L21,6.8 Z M3,17.2 C3,17.915 3.57857143,18.5 4.28571429,18.5 L19.7142857,18.5 C20.4214286,18.5 21,17.915 21,17.2 L21,10.7 L3,10.7 L3,17.2 Z M8.70535714,15.25 L15.2946429,15.25 C15.6040179,15.25 15.8571429,15.5059375 15.8571429,15.81875 C15.8571429,16.1315625 15.6040179,16.3875 15.2946429,16.3875 L8.70535714,16.3875 C8.39598214,16.3875 8.14285714,16.1315625 8.14285714,15.81875 C8.14285714,15.5059375 8.39598214,15.25 8.70535714,15.25 Z M5.8125,15.25 L6.29464286,15.25 C6.60401786,15.25 6.85714286,15.5059375 6.85714286,15.81875 C6.85714286,16.1315625 6.60401786,16.3875 6.29464286,16.3875 L5.8125,16.3875 C5.503125,16.3875 5.25,16.1315625 5.25,15.81875 C5.25,15.5059375 5.503125,15.25 5.8125,15.25 Z" id="Shape" fill="#091D42"></path>
    </g>
</svg>