<?xml version="1.0" encoding="UTF-8"?>
<svg width="24px" height="24px" viewBox="0 0 24 24" version="1.1" xmlns="http://www.w3.org/2000/svg" xmlns:xlink="http://www.w3.org/1999/xlink">
    <!-- Generator: Sketch 59.1 (86144) - https://sketch.com -->
    <title>Icon/Categories/Action/chatBubbles</title>
    <desc>Created with Sketch.</desc>
    <g id="Icon/Categories/Action/chatBubbles" stroke="none" stroke-width="1" fill="none" fill-rule="evenodd">
        <path d="M6.29230293,9.21153846 C6.24230303,9.38076923 6.19614928,9.55384615 6.15768782,9.72692308 C6.11922636,9.88846154 6.09230334,10.0538462 6.06922647,10.2192308 C6.0384573,10.4653846 6.01153428,10.7884615 6.01153428,11.0423077 C6.01153428,14.5923077 8.88845138,17.5461538 12.5884437,17.5461538 C12.9769044,17.5461538 13.492288,17.4576923 13.8961333,17.3730769 C14.0884406,17.3307692 14.2653633,17.2884615 14.4038245,17.25 L14.4038245,17.25 C14.5653627,17.2076923 14.7269008,17.1576923 14.8692082,17.1076923 C14.7269008,17.3076923 14.6038241,17.4769231 14.6038241,17.4769231 C13.4615188,18.8230769 11.7769069,19.5961538 9.98460294,19.5961538 C9.18075846,19.5961538 8.37691398,19.4192308 7.64999241,19.1346154 C7.54999747,19.0961538 7.47563703,19.0867521 7.43717396,19.0847578 L7.40768522,19.0846154 C7.33076231,19.0846154 7.25768554,19.1 7.18845491,19.1269231 L7.18845491,19.1269231 L5.03076709,19.9769231 C4.99615178,19.9923077 4.95769032,20 4.91922886,20 C4.84999823,20 4.78076761,19.9769231 4.72307542,19.9307692 C4.63846021,19.8576923 4.59615261,19.7461538 4.61922948,19.6346154 C4.61922948,19.6346154 5.06153626,17.3192308 5.07692084,17.25 C5.09230542,17.1807692 5.04230553,17.0769231 4.95384417,16.9423077 C4.3269224,16 4,14.9153846 4,13.7884615 C4,12.1538462 4.72307542,10.5846154 5.98461126,9.48461538 L5.98461126,9.48461538 Z M13.3192114,4 C17.0192037,4 20.0115052,6.87692308 20,10.4230769 C20,11.7 19.6076599,12.8961538 18.9384305,13.8961538 C18.9115075,13.9346154 18.8807383,13.9730769 18.8576614,14.0153846 C18.7768924,14.1538462 18.7307386,14.3153846 18.7307386,14.4846154 L18.7307386,14.4846154 L19.3615065,16.7269231 C19.3615065,16.7269231 19.3807373,16.7923077 19.3807373,16.8307692 C19.3807373,17.0038462 19.242276,17.1384615 19.0730456,17.1384615 C19.0153534,17.1384615 18.9230459,17.1 18.9230459,17.1 L18.9230459,17.1 L16.7422812,16.3269231 C16.6230507,16.2769231 16.4922817,16.25 16.3538205,16.25 C16.2307438,16.25 16.1076671,16.2730769 15.9961289,16.3153846 C15.8845907,16.3576923 15.4538223,16.5153846 15.0192079,16.6346154 C14.5845934,16.7538462 13.7922873,16.9307692 13.203827,16.9307692 C9.50383471,16.9307692 6.62691762,13.9769231 6.62691762,10.4269231 C6.62691762,9.97307692 6.67691751,9.53846154 6.76922501,9.11153846 C7.39999293,6.19615385 10.092295,4 13.3192114,4 Z" id="Combined-Shape" fill="#091D42"></path>
    </g>
</svg>