<?xml version="1.0" encoding="UTF-8"?>
<svg width="24px" height="24px" viewBox="0 0 24 24" version="1.1" xmlns="http://www.w3.org/2000/svg" xmlns:xlink="http://www.w3.org/1999/xlink">
    <!-- Generator: Sketch 59.1 (86144) - https://sketch.com -->
    <title>Icon/Categories/Action/chatExtension</title>
    <desc>Created with Sketch.</desc>
    <g id="Icon/Categories/Action/chatExtension" stroke="none" stroke-width="1" fill="none" fill-rule="evenodd">
        <path d="M8,12 C10.2096154,12 12,13.7903846 12,16 C12,18.2096154 10.2096154,20 8,20 C5.79038462,20 4,18.2096154 4,16 C4,13.7903846 5.79038462,12 8,12 Z M6.04769602,4 L17.9576551,4 C19.0372346,4 19.9250379,4.84771327 19.9955144,5.92784307 L20,6.07651631 L20,14.4806847 C20,15.580672 18.9624199,16.4712243 17.8844517,16.5465842 L17.7372993,16.5517508 L17.683554,16.5517508 C17.3933294,16.5517508 17.1988789,16.635629 17.162891,16.8907953 L17.15685,16.9823146 L17.15685,19.7401027 C17.15685,19.9828832 16.8992279,20.068014 16.7110588,19.9422628 L16.6570187,19.8981577 L13.2823262,16.7408284 C13.3159523,16.4987127 13.3333333,16.2513913 13.3333333,16 C13.3333333,13.0538462 10.9461538,10.6666667 8,10.6666667 C6.40626645,10.6666667 4.97610622,11.3652298 3.99892416,12.4729512 L4,6.07651631 C4,4.98400415 4.83739401,4.0851646 5.89515486,4.00570917 L6.04769602,4 L17.9576551,4 Z M8,13.875 C7.79173884,13.875 7.61754632,14.0260524 7.581408,14.2241716 L7.57453052,14.3004695 L7.57453052,15.5745305 L6.30046948,15.5745305 C6.06617567,15.5745305 5.875,15.7657062 5.875,16 C5.875,16.1139714 5.92061,16.2213304 5.99987456,16.3005949 C6.05932299,16.3600433 6.13457448,16.4005611 6.21656641,16.4171044 L6.30046948,16.4254695 L7.57453052,16.4254695 L7.57453052,17.6995305 C7.57453052,17.813502 7.62014051,17.9208609 7.69940508,18.0001254 C7.77866964,18.07939 7.88602856,18.125 8,18.125 C8.20826116,18.125 8.38245368,17.9739476 8.418592,17.7758284 L8.42546948,17.6995305 L8.42546948,16.4254695 L9.69953052,16.4254695 C9.93382433,16.4254695 10.125,16.2342938 10.125,16 C10.125,15.7917388 9.97394762,15.6175463 9.77582839,15.581408 L9.69953052,15.5745305 L8.42546948,15.5745305 L8.42546948,14.3004695 C8.42546948,14.0661757 8.23429381,13.875 8,13.875 Z" id="Combined-Shape" fill="#091D42"></path>
    </g>
</svg>