<?xml version="1.0" encoding="UTF-8"?>
<svg width="24px" height="24px" viewBox="0 0 24 24" version="1.1" xmlns="http://www.w3.org/2000/svg" xmlns:xlink="http://www.w3.org/1999/xlink">
    <!-- Generator: Sketch 59.1 (86144) - https://sketch.com -->
    <title>Icon/Categories/Navigation/checkmark</title>
    <desc>Created with Sketch.</desc>
    <g id="Icon/Categories/Navigation/checkmark" stroke="none" stroke-width="1" fill="none" fill-rule="evenodd">
        <path d="M19.9154576,7.40448757 L18.6077449,6.08732565 C18.5557336,6.02910855 18.4740016,6 18.3996997,6 C18.3179677,6 18.2436658,6.02910855 18.1916545,6.08732565 L9.12682808,15.0309278 L5.82782566,11.7998787 C5.76838418,11.7416616 5.69408232,11.7125531 5.61978047,11.7125531 C5.54547861,11.7125531 5.47117675,11.7416616 5.41173527,11.7998787 L4.08916223,13.0952092 C3.97027926,13.2116434 3.97027926,13.3935719 4.08916223,13.5100061 L8.25006618,17.5852032 C8.51755286,17.8471801 8.84448103,18 9.1193979,18 C9.51319774,18 9.85498627,17.7161916 9.98129943,17.5997574 L9.98872962,17.5997574 L19.9228878,7.81928441 C20.0269104,7.69557307 20.0269104,7.51364463 19.9154576,7.40448757 L19.9154576,7.40448757 Z" id="Path" fill="#091D42"></path>
    </g>
</svg>