<?xml version="1.0" encoding="UTF-8"?>
<svg width="24px" height="24px" viewBox="0 0 24 24" version="1.1" xmlns="http://www.w3.org/2000/svg" xmlns:xlink="http://www.w3.org/1999/xlink">
    <!-- Generator: Sketch 59.1 (86144) - https://sketch.com -->
    <title>Icon/Categories/Navigation/checkmarkCircleOutline</title>
    <desc>Created with Sketch.</desc>
    <g id="Icon/Categories/Navigation/checkmarkCircleOutline" stroke="none" stroke-width="1" fill="none" fill-rule="evenodd">
        <path d="M12,3 C16.9716346,3 21,7.02836538 21,12 C21,16.9716346 16.9716346,21 12,21 C7.02836538,21 3,16.9716346 3,12 C3,7.02836538 7.02836538,3 12,3 Z M12,4.21153846 C9.91875,4.21153846 7.96298077,5.02067308 6.49182692,6.49182692 C5.02067308,7.96298077 4.21153846,9.91875 4.21153846,12 C4.21153846,14.08125 5.02067308,16.0370192 6.49182692,17.5081731 C7.96298077,18.9793269 9.91875,19.7884615 12,19.7884615 C14.08125,19.7884615 16.0370192,18.9793269 17.5081731,17.5081731 C18.9793269,16.0370192 19.7884615,14.08125 19.7884615,12 C19.7884615,9.91875 18.9793269,7.96298077 17.5081731,6.49182692 C16.0370192,5.02067308 14.08125,4.21153846 12,4.21153846 Z M15.7298077,8.43461538 C15.7730769,8.43461538 15.8206731,8.45192308 15.8509615,8.48653846 L15.8509615,8.48653846 L16.6125,9.26971154 C16.6774038,9.33461538 16.6774038,9.44278846 16.6168269,9.51634615 L16.6168269,9.51634615 L10.8317308,15.3317308 C10.7538462,15.4009615 10.5548077,15.5697115 10.3254808,15.5697115 C10.1653846,15.5697115 9.975,15.4788462 9.81923077,15.3230769 L9.81923077,15.3230769 L7.39615385,12.9 C7.32692308,12.8307692 7.32692308,12.7225962 7.39615385,12.6533654 L7.39615385,12.6533654 L8.16634615,11.8831731 C8.20096154,11.8485577 8.24423077,11.83125 8.2875,11.83125 C8.33076923,11.83125 8.37403846,11.8485577 8.40865385,11.8831731 L8.40865385,11.8831731 L10.3298077,13.8043269 L15.6086538,8.48653846 C15.6389423,8.45192308 15.6822115,8.43461538 15.7298077,8.43461538 Z" id="Combined-Shape" fill="#091D42"></path>
    </g>
</svg>