<?xml version="1.0" encoding="UTF-8"?>
<svg width="24px" height="24px" viewBox="0 0 24 24" version="1.1" xmlns="http://www.w3.org/2000/svg" xmlns:xlink="http://www.w3.org/1999/xlink">
    <!-- Generator: Sketch 59.1 (86144) - https://sketch.com -->
    <title>Icon/Categories/Navigation/checkmarkCircle</title>
    <desc>Created with Sketch.</desc>
    <g id="Icon/Categories/Navigation/checkmarkCircle" stroke="none" stroke-width="1" fill="none" fill-rule="evenodd">
        <path d="M12,3 C7.02836538,3 3,7.02836538 3,12 C3,16.9716346 7.02836538,21 12,21 C16.9716346,21 21,16.9716346 21,12 C21,7.02836538 16.9716346,3 12,3 Z M16.6081731,9.51201923 L10.8230769,15.3230769 L10.81875,15.3230769 C10.7451923,15.3966346 10.5461538,15.5610577 10.3168269,15.5610577 C10.1524038,15.5610577 9.96634615,15.4701923 9.81057692,15.3144231 L7.3875,12.8913462 C7.31826923,12.8221154 7.31826923,12.7139423 7.3875,12.6447115 L8.15769231,11.8745192 C8.19230769,11.8399038 8.23557692,11.8225962 8.27884615,11.8225962 C8.32211538,11.8225962 8.36538462,11.8399038 8.4,11.8745192 L10.3211538,13.7956731 L15.6,8.47788462 C15.6346154,8.44326923 15.6778846,8.42596154 15.7211538,8.42596154 C15.76875,8.42596154 15.8120192,8.44326923 15.8423077,8.47788462 L16.5995192,9.26105769 C16.6774038,9.33461538 16.6774038,9.44278846 16.6081731,9.51201923 L16.6081731,9.51201923 Z" id="Shape" fill="#091D42"></path>
    </g>
</svg>