<?xml version="1.0" encoding="UTF-8"?>
<svg width="24px" height="24px" viewBox="0 0 24 24" version="1.1" xmlns="http://www.w3.org/2000/svg" xmlns:xlink="http://www.w3.org/1999/xlink">
    <!-- Generator: Sketch 59.1 (86144) - https://sketch.com -->
    <title>Icon/Categories/Navigation/closeCircleOutline</title>
    <desc>Created with Sketch.</desc>
    <g id="Icon/Categories/Navigation/closeCircleOutline" stroke="none" stroke-width="1" fill="none" fill-rule="evenodd">
        <path d="M12,3 C16.9716346,3 21,7.02836538 21,12 C21,16.9716346 16.9716346,21 12,21 C7.02836538,21 3,16.9716346 3,12 C3,7.02836538 7.02836538,3 12,3 Z M12,4.21153846 C9.91875,4.21153846 7.96298077,5.02067308 6.49182692,6.49182692 C5.02067308,7.96298077 4.21153846,9.91875 4.21153846,12 C4.21153846,14.08125 5.02067308,16.0370192 6.49182692,17.5081731 C7.96298077,18.9793269 9.91875,19.7884615 12,19.7884615 C14.08125,19.7884615 16.0370192,18.9793269 17.5081731,17.5081731 C18.9793269,16.0370192 19.7884615,14.08125 19.7884615,12 C19.7884615,9.91875 18.9793269,7.96298077 17.5081731,6.49182692 C16.0370192,5.02067308 14.08125,4.21153846 12,4.21153846 Z M8.74182692,8.74182692 C9.04471154,8.43461538 9.45144231,8.47355769 9.71971154,8.74182692 L9.71971154,8.74182692 L12,11.0221154 L14.2802885,8.74182692 C14.5485577,8.47355769 14.9899038,8.47355769 15.2581731,8.74182692 C15.5264423,9.01009615 15.5264423,9.45144231 15.2581731,9.71971154 L15.2581731,9.71971154 L12.9778846,12 L15.2581731,14.2802885 C15.5307692,14.5485577 15.5307692,14.9899038 15.2581731,15.2581731 C14.9899038,15.5264423 14.5485577,15.5264423 14.2802885,15.2581731 L14.2802885,15.2581731 L12,12.9778846 L9.71971154,15.2581731 C9.45144231,15.5264423 9.01875,15.5350962 8.74182692,15.2581731 C8.46490385,14.9855769 8.45192308,14.5701923 8.74182692,14.2802885 L8.74182692,14.2802885 L11.0221154,12 L8.74182692,9.71971154 C8.48221154,9.46009615 8.43461538,9.04903846 8.74182692,8.74182692 Z" id="Combined-Shape" fill="#091D42"></path>
    </g>
</svg>