<?xml version="1.0" encoding="UTF-8"?>
<svg width="24px" height="24px" viewBox="0 0 24 24" version="1.1" xmlns="http://www.w3.org/2000/svg" xmlns:xlink="http://www.w3.org/1999/xlink">
    <!-- Generator: Sketch 59.1 (86144) - https://sketch.com -->
    <title>Icon/Categories/Navigation/close</title>
    <desc>Created with Sketch.</desc>
    <g id="Icon/Categories/Navigation/close" stroke="none" stroke-width="1" fill="none" fill-rule="evenodd">
        <path d="M13.6588112,12 L18.6590731,6.9984285 C19.1136423,6.54374018 19.1136423,5.79570456 18.6590731,5.34101624 C18.2045038,4.88632792 17.456664,4.88632792 17.0020948,5.34101624 L12.0018329,10.3425877 L7.00157109,5.34101624 C6.54700183,4.88632792 5.79916208,4.88632792 5.34459283,5.34101624 C5.1173082,5.5683604 5,5.86904138 5,6.16972237 C5,6.47040335 5.1173082,6.77108434 5.34459283,6.9984285 L10.3448547,12 L5.34459283,17.0015715 C5.1173082,17.2289157 5,17.5295966 5,17.8302776 C5,18.1309586 5.1173082,18.4316396 5.34459283,18.6589838 C5.79916208,19.1136721 6.54700183,19.1136721 7.00157109,18.6589838 L12.0018329,13.6574123 L17.0020948,18.6589838 C17.456664,19.1136721 18.2045038,19.1136721 18.6590731,18.6589838 C19.1136423,18.2042954 19.1136423,17.4562598 18.6590731,17.0015715 L13.6588112,12 Z" id="Path" fill="#091D42"></path>
    </g>
</svg>