<?xml version="1.0" encoding="UTF-8"?>
<svg width="24px" height="24px" viewBox="0 0 24 24" version="1.1" xmlns="http://www.w3.org/2000/svg" xmlns:xlink="http://www.w3.org/1999/xlink">
    <!-- Generator: Sketch 59.1 (86144) - https://sketch.com -->
    <title>Icon/Categories/Navigation/closeCircle</title>
    <desc>Created with Sketch.</desc>
    <g id="Icon/Categories/Navigation/closeCircle" stroke="none" stroke-width="1" fill="none" fill-rule="evenodd">
        <path d="M12,3 C7.02836538,3 3,7.02836538 3,12 C3,16.9716346 7.02836538,21 12,21 C16.9716346,21 21,16.9716346 21,12 C21,7.02836538 16.9716346,3 12,3 Z M14.2802885,15.2581731 L12,12.9778846 L9.71971154,15.2581731 C9.45144231,15.5264423 9.01009615,15.5264423 8.74182692,15.2581731 C8.60769231,15.1240385 8.53846154,14.9466346 8.53846154,14.7692308 C8.53846154,14.5918269 8.60769231,14.4144231 8.74182692,14.2802885 L11.0221154,12 L8.74182692,9.71971154 C8.60769231,9.58557692 8.53846154,9.40817308 8.53846154,9.23076923 C8.53846154,9.05336538 8.60769231,8.87596154 8.74182692,8.74182692 C9.01009615,8.47355769 9.45144231,8.47355769 9.71971154,8.74182692 L12,11.0221154 L14.2802885,8.74182692 C14.5485577,8.47355769 14.9899038,8.47355769 15.2581731,8.74182692 C15.5264423,9.01009615 15.5264423,9.45144231 15.2581731,9.71971154 L12.9778846,12 L15.2581731,14.2802885 C15.5264423,14.5485577 15.5264423,14.9899038 15.2581731,15.2581731 C14.9899038,15.5307692 14.5485577,15.5307692 14.2802885,15.2581731 Z" id="Shape" fill="#091D42"></path>
    </g>
</svg>