<?xml version="1.0" encoding="UTF-8"?>
<svg width="24px" height="24px" viewBox="0 0 24 24" version="1.1" xmlns="http://www.w3.org/2000/svg" xmlns:xlink="http://www.w3.org/1999/xlink">
    <!-- Generator: Sketch 59.1 (86144) - https://sketch.com -->
    <title>Icon/Categories/File/cloudDownload</title>
    <desc>Created with Sketch.</desc>
    <g id="Icon/Categories/File/cloudDownload" stroke="none" stroke-width="1" fill="none" fill-rule="evenodd">
        <path d="M18.3667969,8.77963831 C18.0820312,6.0933244 15.8460937,4 13.125,4 C11.325,4 9.73945313,4.91448984 8.78671875,6.31123019 C8.49492187,6.1897745 8.175,6.12190221 7.84101562,6.12190221 C6.46640625,6.12190221 5.35195312,7.35074793 5.33085937,8.74391605 C3.928125,9.19758875 3,10.5907569 3,12.0553695 C3,13.8486269 4.43085937,15.431123 6.19570312,15.431123 L11.5429688,15.431123 L11.5429688,10.3942844 C11.5429688,10.1370842 11.746875,9.92989507 12,9.92989507 C12.253125,9.92989507 12.4570312,10.1370842 12.4570312,10.3942844 L12.4570312,15.431123 L17.8042969,15.431123 C19.5691406,15.431123 21,13.8486269 21,12.0553695 C21,10.4585845 19.8644531,9.05112748 18.3667969,8.77963831 Z M11.5429688,18.4282206 L9.85898437,16.7421299 C9.6796875,16.5635186 9.39140625,16.5635186 9.21210938,16.7457022 C9.03632812,16.9278857 9.03632812,17.2208082 9.215625,17.4029917 L11.6765625,19.8678276 C11.7644531,19.9535611 11.8804687,20 11.9964844,20 C12.05625,20 12.1160156,19.9892833 12.1722656,19.9642777 C12.225,19.9428444 12.2742187,19.9071221 12.3164062,19.8678276 L14.7773438,17.4029917 C14.9566406,17.2243804 14.9601563,16.9278857 14.7808594,16.7457022 C14.6050781,16.5635186 14.3132812,16.5599464 14.1339844,16.7421299 L12.4570312,18.4282206 L12.4570312,15.431123 L11.5429688,15.431123 L11.5429688,18.4282206 Z" id="Shape" fill="#091D42"></path>
    </g>
</svg>