<?xml version="1.0" encoding="UTF-8"?>
<svg width="24px" height="24px" viewBox="0 0 24 24" version="1.1" xmlns="http://www.w3.org/2000/svg" xmlns:xlink="http://www.w3.org/1999/xlink">
    <!-- Generator: Sketch 59.1 (86144) - https://sketch.com -->
    <title>Icon/Categories/Action/code</title>
    <desc>Created with Sketch.</desc>
    <g id="Icon/Categories/Action/code" stroke="none" stroke-width="1" fill="none" fill-rule="evenodd">
        <path d="M15.5592294,6.54646874 C15.502994,6.49274017 15.4326998,6.46343368 15.3670919,6.46343368 C15.301484,6.46343368 15.2265035,6.49274017 15.1749544,6.54646874 L14.5282479,7.1912115 C14.4720125,7.24494006 14.4392085,7.3230907 14.4392085,7.40124134 C14.4392085,7.47939197 14.4720125,7.55754261 14.5282479,7.61127118 L19.0177037,12.0805108 L14.5282479,16.5497504 C14.4720125,16.6034789 14.4392085,16.6816296 14.4392085,16.7597802 C14.4392085,16.8379309 14.4720125,16.9160815 14.5282479,16.9698101 L15.1749544,17.6145528 C15.2311898,17.6682814 15.2967977,17.6975879 15.3670919,17.6975879 C15.4373861,17.6975879 15.5076803,17.6682814 15.5592294,17.6145528 L20.9109607,12.2905406 C20.967196,12.2368121 21,12.1586614 21,12.0805108 C21,12.0023601 20.967196,11.9242095 20.9109607,11.8704809 L15.5592294,6.54646874 Z M13.3322203,6.0075046 L13.9235606,6.17706342 C13.9722183,6.18915736 14.0111708,6.23647333 14.0285474,6.29348032 C14.045924,6.35048731 14.0454483,6.42940111 14.0253378,6.51096152 L11.0123424,17.7556135 C10.9889784,17.8363022 10.9499334,17.9048813 10.9063814,17.9455626 C10.8773466,17.9726834 10.8421609,17.9912794 10.8076526,17.9965582 L10.7572517,17.9938891 L10.1603566,17.8450612 C10.1090599,17.8341118 10.0669692,17.7878066 10.0466545,17.7211607 C10.0331114,17.6767301 10.0292465,17.6232593 10.0350974,17.5686411 L10.0511652,17.4868398 L11.5529143,11.8744685 L13.0585471,6.26313781 C13.0786575,6.1815774 13.1208852,6.10551424 13.1718012,6.05795457 C13.2227171,6.01039491 13.2823214,5.99133874 13.3322203,6.0075046 Z M8.6329081,6.46343368 C8.69851601,6.46343368 8.76881021,6.49274017 8.82504556,6.54646874 L8.82504556,6.54646874 L9.47175215,7.1912115 C9.5279875,7.24494006 9.56079146,7.3230907 9.56079146,7.40124134 C9.56079146,7.47939197 9.5279875,7.55754261 9.47175215,7.61127118 L9.47175215,7.61127118 L4.98229628,12.0805108 L9.47175215,16.5497504 C9.5279875,16.6034789 9.56079146,16.6816296 9.56079146,16.7597802 C9.56079146,16.8379309 9.5279875,16.9160815 9.47175215,16.9698101 L9.47175215,16.9698101 L8.82504556,17.6145528 C8.77349649,17.6682814 8.70320229,17.6975879 8.6329081,17.6975879 C8.56730018,17.6975879 8.49700599,17.6682814 8.44077063,17.6145528 L8.44077063,17.6145528 L3.08903931,12.2905406 C3.03280396,12.2368121 3,12.1586614 3,12.0805108 C3,12.0023601 3.03280396,11.9242095 3.08903931,11.8704809 L3.08903931,11.8704809 L8.44077063,6.54646874 C8.49231971,6.49274017 8.56730018,6.46343368 8.6329081,6.46343368 Z" id="Shape" fill="#091D42"></path>
    </g>
</svg>