<?xml version="1.0" encoding="UTF-8"?>
<svg width="24px" height="24px" viewBox="0 0 24 24" version="1.1" xmlns="http://www.w3.org/2000/svg" xmlns:xlink="http://www.w3.org/1999/xlink">
    <!-- Generator: Sketch 59.1 (86144) - https://sketch.com -->
    <title>Icon/Categories/User/contact</title>
    <desc>Created with Sketch.</desc>
    <g id="Icon/Categories/User/contact" stroke="none" stroke-width="1" fill="none" fill-rule="evenodd">
        <path d="M12,3 C7.34855769,3 3.52355769,6.52644231 3.05192308,11.0524038 C3.01730769,11.3639423 3,11.6798077 3,12 C3,12.3201923 3.01730769,12.6360577 3.05192308,12.9475962 C3.52355769,17.4735577 7.34855769,21 12,21 C16.9716346,21 21,16.9716346 21,12 C21,7.02836538 16.9716346,3 12,3 Z M17.8759615,17.1100962 C16.89375,16.7379808 15.3014423,16.1927885 14.3105769,15.8985577 C14.2067308,15.8682692 14.19375,15.8596154 14.19375,15.4355769 C14.19375,15.0850962 14.3365385,14.7302885 14.4793269,14.4274038 C14.6350962,14.1028846 14.8125,13.5533654 14.8774038,13.0600962 C15.0591346,12.8480769 15.3100962,12.4326923 15.4658654,11.6365385 C15.6043269,10.9355769 15.5394231,10.6802885 15.4485577,10.4423077 C15.4399038,10.4163462 15.4269231,10.3903846 15.4225962,10.36875 C15.3879808,10.2043269 15.4355769,9.35192308 15.5567308,8.68990385 C15.6389423,8.23557692 15.5350962,7.27067308 14.9120192,6.47019231 C14.5182692,5.96394231 13.7610577,5.34519231 12.3807692,5.25865385 L11.6235577,5.25865385 C10.2649038,5.34519231 9.51201923,5.96394231 9.11394231,6.47019231 C8.48653846,7.27067308 8.38269231,8.23557692 8.46490385,8.68990385 C8.58605769,9.35192308 8.63365385,10.2043269 8.59903846,10.36875 C8.59038462,10.3990385 8.58173077,10.4206731 8.57307692,10.4466346 C8.48221154,10.6846154 8.41298077,10.9399038 8.55576923,11.6408654 C8.71586538,12.4370192 8.9625,12.8524038 9.14423077,13.0644231 C9.20913462,13.5576923 9.39086538,14.1028846 9.54230769,14.4317308 C9.65480769,14.6697115 9.70673077,14.9942308 9.70673077,15.4528846 C9.70673077,15.88125 9.68942308,15.8855769 9.59423077,15.9158654 C8.56875,16.21875 7.04567308,16.7552885 6.13269231,17.11875 C4.88653846,15.6951923 4.21153846,13.8995192 4.21153846,12 C4.21153846,9.91875 5.02067308,7.96298077 6.49182692,6.49182692 C7.96298077,5.02067308 9.91875,4.21153846 12,4.21153846 C14.08125,4.21153846 16.0370192,5.02067308 17.5081731,6.49182692 C18.9793269,7.96298077 19.7884615,9.91875 19.7884615,12 C19.7884615,13.8995192 19.1134615,15.6951923 17.8759615,17.1100962 Z" id="Shape" fill="#091D42"></path>
    </g>
</svg>