<?xml version="1.0" encoding="UTF-8"?>
<svg width="24px" height="24px" viewBox="0 0 24 24" version="1.1" xmlns="http://www.w3.org/2000/svg" xmlns:xlink="http://www.w3.org/1999/xlink">
    <!-- Generator: Sketch 59.1 (86144) - https://sketch.com -->
    <title>Icon/Categories/File/copy</title>
    <desc>Created with Sketch.</desc>
    <g id="Icon/Categories/File/copy" stroke="none" stroke-width="1" fill="none" fill-rule="evenodd">
        <path d="M6.89583333,5.4 L6.89583333,17.85 C6.89583333,18.51 7.42083333,19.05 8.0625,19.05 L8.0625,19.05 L16.6666667,19.05 L16.6666667,19.8 C16.6666667,20.46 16.1416667,21 15.5,21 L15.5,21 L6.16666667,21 C5.525,21 5,20.46 5,19.8 L5,19.8 L5,6.6 C5,5.94 5.525,5.4 6.16666667,5.4 L6.16666667,5.4 L6.89583333,5.4 Z M13.859375,3 L13.859375,6 C13.859375,6.93 14.5958333,7.6875 15.5,7.6875 L15.5,7.6875 L19,7.6875 L19,16.8 C19,17.46 18.475,18 17.8333333,18 L17.8333333,18 L9.08333333,18 C8.44166667,18 7.91666667,17.46 7.91666667,16.8 L7.91666667,16.8 L7.91666667,4.2 C7.91666667,3.54 8.44166667,3 9.08333333,3 L9.08333333,3 L13.859375,3 Z M15.0734375,3.00375 C15.3067708,3.00375 15.6458333,3.1275 15.8244792,3.28125 L15.8244792,3.28125 L18.6354167,5.68875 C18.8651042,5.8875 19,6.18 19,6.4875 C19,6.61125 18.9015625,6.7125 18.78125,6.7125 L18.78125,6.7125 L15.5,6.7125 C15.1171875,6.7125 14.8072917,6.39375 14.8036458,6 L14.8036458,6 L14.8036458,3.28125 C14.8036458,3.1275 14.9239583,3.00375 15.0734375,3.00375 Z" id="Combined-Shape" fill="#091D42"></path>
    </g>
</svg>