<?xml version="1.0" encoding="UTF-8"?>
<svg width="24px" height="24px" viewBox="0 0 24 24" version="1.1" xmlns="http://www.w3.org/2000/svg" xmlns:xlink="http://www.w3.org/1999/xlink">
    <!-- Generator: Sketch 59.1 (86144) - https://sketch.com -->
    <title>Icon/Categories/Action/create</title>
    <desc>Created with Sketch.</desc>
    <g id="Icon/Categories/Action/create" stroke="none" stroke-width="1" fill="none" fill-rule="evenodd">
        <path d="M15.0348137,6.5519106 C15.1754073,6.5519106 15.2477126,6.72758952 15.1472886,6.82972843 L15.1472886,6.82972843 L9.21825485,12.8600096 L9.18611917,12.8926941 C9.06561035,13.0152608 8.99732203,13.1827686 8.99732203,13.3543619 L8.99732203,13.3543619 L8.99732203,15.0498678 C8.99732203,15.4093968 9.28654318,15.7035568 9.64003571,15.7035568 L9.64003571,15.7035568 L11.3030574,15.7035568 C11.4717697,15.7035568 11.6364651,15.6341024 11.7569739,15.5115357 L11.7569739,15.5115357 L11.7891096,15.4788512 L17.7261772,9.44857006 C17.8266012,9.34643115 17.9993305,9.4158856 17.9993305,9.56296563 L17.9993305,9.56296563 L17.9993305,18.1017784 C17.9993305,19.4254987 16.9428699,20.5 15.6413747,20.5 L15.6413747,20.5 L5.35795581,20.5 C4.05646061,20.5 3,19.4254987 3,18.1017784 L3,18.1017784 L3,8.95013218 C3,7.62641192 4.05646061,6.5519106 5.35795581,6.5519106 L5.35795581,6.5519106 Z M17.9551439,5.05251142 C18.0796697,4.92585917 18.2805177,4.92585917 18.4050435,5.05251142 L18.4050435,5.05251142 L19.469538,6.13518385 C19.5940638,6.2618361 19.5940638,6.46611391 19.469538,6.59276616 L19.469538,6.59276616 L11.3512609,14.84559 C11.2910065,14.9068733 11.2066503,14.9395578 11.1222941,14.9395578 L11.1222941,14.9395578 L10.0658335,14.9395578 C9.89310422,14.9395578 9.74849364,14.7965633 9.74849364,14.6167988 L9.74849364,14.6167988 L9.74849364,13.5341264 C9.74849364,13.4483297 9.78062932,13.3666186 9.84088373,13.3053353 L9.84088373,13.3053353 Z M19.7708101,3.5 C19.9435394,3.5 20.1082348,3.56945446 20.2327605,3.67976448 L20.2327605,3.67976448 L20.2407945,3.68793559 L20.8192368,4.27625571 C20.9317117,4.40290795 20.995983,4.57450132 21,4.7542658 C21,4.93811584 20.9357286,5.10153809 20.8232537,5.22819034 L20.8232537,5.22819034 L20.3693372,5.68985821 C20.3050658,5.75522711 20.2046418,5.75522711 20.1403705,5.68985821 L20.1403705,5.68985821 L19.26869,4.80329248 L18.8509261,4.37839462 C18.7906717,4.31711127 18.7906717,4.21497236 18.8509261,4.14960346 L18.8509261,4.14960346 L19.3048427,3.68385004 C19.4293684,3.56945446 19.5940638,3.5 19.7708101,3.5 Z" id="Combined-Shape" fill="#091D42"></path>
    </g>
</svg>