<?xml version="1.0" encoding="UTF-8"?>
<svg width="24px" height="24px" viewBox="0 0 24 24" version="1.1" xmlns="http://www.w3.org/2000/svg" xmlns:xlink="http://www.w3.org/1999/xlink">
    <!-- Generator: Sketch 59.1 (86144) - https://sketch.com -->
    <title>Icon/Categories/File/document</title>
    <desc>Created with Sketch.</desc>
    <g id="Icon/Categories/File/document" stroke="none" stroke-width="1" fill="none" fill-rule="evenodd">
        <path d="M12.5065789,3 L12.5065789,6.6 C12.5065789,7.716 13.4368421,8.625 14.5789474,8.625 L14.5789474,8.625 L19,8.625 L19,19.56 C19,20.352 18.3368421,21 17.5263158,21 L17.5263158,21 L6.47368421,21 C5.66315789,21 5,20.352 5,19.56 L5,19.56 L5,4.44 C5,3.648 5.66315789,3 6.47368421,3 L6.47368421,3 L12.5065789,3 Z M14.0447368,3.0045 C14.3947368,3.0045 14.7263158,3.1215 14.9934211,3.3375 L14.9934211,3.3375 L18.5072368,6.1995 C18.8203947,6.4515 19,6.8295 19,7.23 C19,7.356 18.8986842,7.455 18.7697368,7.455 L18.7697368,7.455 L14.5789474,7.455 C14.0953947,7.455 13.7039474,7.0725 13.7039474,6.6 L13.7039474,6.6 L13.7039474,3.3375 C13.7039474,3.153 13.8559211,3.0045 14.0447368,3.0045 Z" id="Combined-Shape" fill="#091D42"></path>
    </g>
</svg>