<?xml version="1.0" encoding="UTF-8"?>
<svg width="24px" height="24px" viewBox="0 0 24 24" version="1.1" xmlns="http://www.w3.org/2000/svg" xmlns:xlink="http://www.w3.org/1999/xlink">
    <!-- Generator: Sketch 59.1 (86144) - https://sketch.com -->
    <title>Icon/Categories/Action/earth</title>
    <desc>Created with Sketch.</desc>
    <g id="Icon/Categories/Action/earth" stroke="none" stroke-width="1" fill="none" fill-rule="evenodd">
        <path d="M4.88303461,7.31550802 L4.23377161,7.83002292 L4.74263793,8.16348358 L5.75406705,8.16348358 L7.25545191,7.89591291 L8.20098055,9.43315508 L8.20098055,10.8695569 L9.49091083,12.61822 L9.70981503,12.61822 L9.70981503,12.0011459 L10.2066474,13.0404889 L11.7034478,13.3762414 L12.379071,14.0546218 L12.9807711,14.2345302 L12.379071,15.4881589 L13.0346375,16.7033995 C13.0346375,16.7033995 13.4478049,18.1014133 13.448378,18.1569901 C13.448378,18.2119939 13.0352106,19.8311688 13.0352106,19.8311688 L13.0352106,19.8311688 L13.1291904,20.921505 C12.7578555,20.9661956 12.3825093,21 11.9997135,21 C7.02909809,21 3,16.9698243 3,12.000573 C3,10.3441558 3.45499984,8.79774637 4.23549075,7.46504966 L4.23549075,7.46504966 L4.88303461,7.31550802 Z M13.9801662,4.81512605 L14.8265576,4.98071047 L15.5440132,5.62414057 L15.7657827,6.19480519 L15.9313935,6.72994652 L17.0729044,7.75897632 L17.3668778,7.85236822 L17.7720225,7.20550038 L19.2063608,7.07773109 L19.4756932,6.99236058 C20.4372672,8.42303285 20.9988539,10.1470588 21,11.999427 C21,16.2404507 18.0619847,19.7876241 14.1125402,20.7387319 L14.1125402,20.7387319 L14.2770049,20.1440031 L15.8219414,19.1126814 L16.2270861,18.0085943 L17.2946738,17.5124141 L18.306103,15.5804049 L16.7422559,14.6608098 L15.9319665,13.7412147 L15.4540448,13.6850649 L14.4970552,13.4278075 L13.6730126,13.2977464 L12.9515456,13.500573 L12.5097259,13.0043927 L12.0673331,12.8749045 L12.1045812,12.2137128 L11.5705008,12.2303285 L11.2667855,12.5804049 L11.0931521,11.8441558 L11.7911241,11.512987 L12.5097259,11.8441558 L12.895387,11.8441558 L13.0352106,11.2734912 L14.109675,9.98491215 L15.6018911,9.23147441 L16.4654739,9.34148205 L16.5439814,8.91921314 L15.4729553,7.8328877 L15.0689567,7.02387319 L14.4787176,7.02387319 L14.110821,6.80844156 L13.3194422,6.69155844 L13.1538315,7.63177998 L12.1951227,7.44728801 L12.1223457,6.85886173 L12.8581389,6.6921314 L13.100538,5.63731856 L13.8306007,5.93754775 L13.8116902,6.38617265 L14.3681194,6.61822002 L14.7394543,6.7276547 L15.1956003,6.48930481 L14.7898825,6.01145913 L13.9606826,5.20244461 L13.9801662,4.81512605 Z M11.9991404,3 C13.3715896,3 14.6666773,3.31684492 15.8305371,3.86459129 L15.8305371,3.86459129 L15.5084843,3.91329259 L14.6248448,3.78036669 L14.0002229,4.19747899 L13.557257,4.68563789 L11.9498583,4.83632544 L11.2879883,4.72746371 L10.8341345,5.4407945 L9.50924835,5.51413293 L8.68004839,5.27521008 L7.9431091,5.67914439 L6.34430613,5.90202445 L5.06297157,6.27215432 C6.70761835,4.27310924 9.20553309,3 11.9991404,3 Z M10.5940276,3.96886937 L10.0628124,4.13789152 L9.65709465,3.96886937 C9.64391455,4.07601222 9.06685556,4.44728801 9.06742818,4.44728801 L9.06742818,4.44728801 L9.65709465,4.79220779 L10.8834166,4.47020626 L10.5940276,3.96886937 Z M13.2988125,3.38903743 L12.3796441,3.89495798 L11.8512941,4.22383499 L12.2186177,4.46218487 L13.0346375,4.3802521 L13.8890516,3.72994652 L13.2988125,3.38903743 Z" id="Combined-Shape" fill="#091D42"></path>
    </g>
</svg>