<?xml version="1.0" encoding="UTF-8"?>
<svg width="24px" height="24px" viewBox="0 0 24 24" version="1.1" xmlns="http://www.w3.org/2000/svg" xmlns:xlink="http://www.w3.org/1999/xlink">
    <!-- Generator: Sketch 59.1 (86144) - https://sketch.com -->
    <title>Icon/Categories/Social/facebook</title>
    <desc>Created with Sketch.</desc>
    <g id="Icon/Categories/Social/facebook" stroke="none" stroke-width="1" fill="none" fill-rule="evenodd">
        <path d="M19.1166667,4 L4.88333333,4 C4.39583333,4 4,4.39583333 4,4.88333333 L4,19.1166667 C4,19.6041667 4.39583333,20 4.88333333,20 L12,20 L12,13.6666667 L10.0875,13.6666667 L10.0875,11.3333333 L12,11.3333333 L12,9.60833333 C12,7.54166667 13.4333333,6.41666667 15.2791667,6.41666667 C16.1625,6.41666667 17.1125,6.48333333 17.3333333,6.5125 L17.3333333,8.67083333 L15.8625,8.67083333 C14.8583333,8.67083333 14.6666667,9.14583333 14.6666667,9.84583333 L14.6666667,11.3333333 L17.0583333,11.3333333 L16.7458333,13.6666667 L14.6666667,13.6666667 L14.6666667,20 L19.1166667,20 C19.6041667,20 20,19.6041667 20,19.1166667 L20,4.88333333 C20,4.39583333 19.6041667,4 19.1166667,4 Z" id="Path" fill="#091D42"></path>
    </g>
</svg>