<?xml version="1.0" encoding="UTF-8"?>
<svg width="24px" height="24px" viewBox="0 0 24 24" version="1.1" xmlns="http://www.w3.org/2000/svg" xmlns:xlink="http://www.w3.org/1999/xlink">
    <!-- Generator: Sketch 59.1 (86144) - https://sketch.com -->
    <title>Icon/Categories/Action/flag</title>
    <desc>Created with Sketch.</desc>
    <g id="Icon/Categories/Action/flag" stroke="none" stroke-width="1" fill="none" fill-rule="evenodd">
        <path d="M19.0595127,3.78749911 C18.9142455,3.81093659 18.7596064,3.83437406 18.5955951,3.85312404 C17.9770384,3.93281145 16.5899719,4.09687377 15.7558575,4.09687377 C14.4578257,4.09687377 13.2816307,3.77812412 12.0913777,3.52499941 C10.8823805,3.2671872 9.63589503,3 8.31443299,3 C5.68088097,3 4.78584817,3.56718686 4.69212746,3.62812429 L4.5,3.76406164 L4.5,20.3249805 C4.5,20.6624801 4.74367385,20.9531048 5.07638238,20.9952923 C5.47469541,21.0421672 5.81208997,20.7327925 5.81208997,20.3437305 L5.81208997,13.1062386 C5.81208997,12.9281138 5.93861293,12.7734265 6.11199625,12.7359265 C6.60402999,12.6374892 7.32099344,12.5531143 8.31443299,12.5531143 C9.54217432,12.5531143 10.690253,13.0218637 11.9039363,13.2796759 C13.1410497,13.5421756 14.1813496,13.8187378 15.81209,13.8187378 C17.4428304,13.8187378 19.1766635,13.5093632 19.1766635,13.5093632 C19.3594189,13.4812382 19.5,13.3265509 19.5,13.1390511 L19.5,4.1578112 C19.495314,3.92812396 19.2891284,3.74999916 19.0595127,3.78749911 Z" id="Path" fill="#091D42"></path>
    </g>
</svg>