<?xml version="1.0" encoding="UTF-8"?>
<svg width="24px" height="24px" viewBox="0 0 24 24" version="1.1" xmlns="http://www.w3.org/2000/svg" xmlns:xlink="http://www.w3.org/1999/xlink">
    <!-- Generator: Sketch 59.1 (86144) - https://sketch.com -->
    <title>Icon/Categories/Social/google</title>
    <desc>Created with Sketch.</desc>
    <g id="Icon/Categories/Social/google" stroke="none" stroke-width="1" fill="none" fill-rule="evenodd">
        <path d="M19.9058824,10.7670113 L19.8235294,10.4246213 L12.2352941,10.4246213 L12.2352941,13.5753787 L16.7686275,13.5753787 C16.2980392,15.7682135 14.1137255,16.9223371 12.3294118,16.9223371 C11.0313725,16.9223371 9.6627451,16.3875932 8.75686275,15.5258476 C7.82745098,14.6410195 7.23529412,13.3368598 7.23529412,11.9942294 C7.23529412,10.6669873 7.84313725,9.33974513 8.72941176,8.46645828 C9.61176471,7.59701851 10.9490196,7.10459245 12.2784314,7.10459245 C13.8,7.10459245 14.8901961,7.89709065 15.2980392,8.25871604 L17.5803922,6.03125751 C16.9098039,5.45419572 15.0705882,4 12.2039216,4 C9.99215686,4 7.87058824,4.83096898 6.32156863,6.34671796 C4.79215686,7.83938447 4,9.99759558 4,11.9980765 C4,13.9985573 4.74901961,16.0528973 6.23137255,17.5571051 C7.81568627,19.1613369 10.0588235,20 12.3686275,20 C14.4705882,20 16.4627451,19.1921135 17.8823529,17.7263765 C19.2784314,16.283722 20,14.2870882 20,12.1942775 C20,11.3132965 19.9098039,10.7900938 19.9058824,10.7670113 Z" id="Path" fill="#091D42"></path>
    </g>
</svg>