<?xml version="1.0" encoding="UTF-8"?>
<svg width="24px" height="24px" viewBox="0 0 24 24" version="1.1" xmlns="http://www.w3.org/2000/svg" xmlns:xlink="http://www.w3.org/1999/xlink">
    <!-- Generator: Sketch 59.1 (86144) - https://sketch.com -->
    <title>Icon/Categories/Time/hourglass</title>
    <desc>Created with Sketch.</desc>
    <g id="Icon/Categories/Time/hourglass" stroke="none" stroke-width="1" fill="none" fill-rule="evenodd">
        <path d="M18.8786074,19.776699 L18.6588023,19.776699 C18.3786585,19.776699 18.1416137,19.7373786 18.1114444,19.4533981 L18.1114444,19.4490291 C17.4821984,13.5116505 13.7929202,13.3980583 13.7929202,12 C13.7929202,10.6019417 17.4865083,10.4883495 18.1114444,4.55097087 L18.1114444,4.54660194 C18.1416137,4.26262136 18.3786585,4.22330097 18.6588023,4.22330097 L18.8786074,4.22330097 C19.2018502,4.22330097 19.481994,3.96990291 19.4992336,3.64223301 C19.5164732,3.29271845 19.2406394,3 18.895847,3 L5.1213926,3 C4.79814977,3 4.51800599,3.25339806 4.50076637,3.58106796 C4.48352675,3.93058252 4.75936063,4.22330097 5.10415299,4.22330097 L5.34119773,4.22330097 C5.62134151,4.22330097 5.85838625,4.26262136 5.88855558,4.54660194 L5.88855558,4.55097087 C6.51780162,10.4883495 10.2070798,10.6019417 10.2070798,12 C10.2070798,13.3980583 6.51349172,13.5116505 5.88855558,19.4490291 L5.88855558,19.4533981 C5.85838625,19.7373786 5.62134151,19.776699 5.34119773,19.776699 L5.1213926,19.776699 C4.79814977,19.776699 4.51800599,20.0300971 4.50076637,20.357767 C4.48352675,20.7072816 4.75936063,21 5.10415299,21 L18.895847,21 C19.2406394,21 19.5164732,20.7116505 19.4992336,20.357767 C19.481994,20.0300971 19.2018502,19.776699 18.8786074,19.776699 Z M8.00471864,18.2825243 C9.24166119,14.7961165 11.4354025,15.2199029 11.4354025,13.8436893 L11.4354025,11.4145631 C11.4354025,10.5669903 9.84935771,9.97718447 8.8580797,8.60097087 C8.69430334,8.37378641 8.8580797,8.0592233 9.13822349,8.0592233 L14.8660864,8.0592233 C15.1462302,8.0592233 15.3143165,8.36504854 15.15485,8.59223301 C14.1808116,9.97281553 12.5645975,10.5669903 12.5645975,11.4145631 L12.5645975,13.8436893 C12.5645975,15.2067961 14.6721407,14.8354369 16.0039012,18.2825243 C16.1245785,18.5927184 16.0340705,18.9815534 15.7065178,18.9815534 L8.30210204,18.9815534 C7.9702394,18.9815534 7.89266112,18.5970874 8.00471864,18.2825243 L8.00471864,18.2825243 Z" id="Shape" fill="#091D42"></path>
    </g>
</svg>