<?xml version="1.0" encoding="UTF-8"?>
<svg width="24px" height="24px" viewBox="0 0 24 24" version="1.1" xmlns="http://www.w3.org/2000/svg" xmlns:xlink="http://www.w3.org/1999/xlink">
    <!-- Generator: Sketch 59.1 (86144) - https://sketch.com -->
    <title>Icon/Categories/File/images</title>
    <desc>Created with Sketch.</desc>
    <g id="Icon/Categories/File/images" stroke="none" stroke-width="1" fill="none" fill-rule="evenodd">
        <path d="M15.4773333,4.03919822 C16.0106667,3.98930958 16.48,4.38129176 16.5262222,4.91224944 L16.5262222,4.91224944 L16.7431111,7.29977728 L19.0826667,7.50289532 C19.616,7.54922049 20.0071111,8.01959911 19.9644444,8.54699332 L19.9644444,8.54699332 L19.04,19.1162584 C18.9937778,19.647216 18.5244444,20.0391982 17.9946667,19.9928731 L17.9946667,19.9928731 L7.424,19.0699332 C6.89066667,19.023608 6.49955556,18.5567929 6.54577778,18.0258352 L6.54577778,18.0258352 L6.59911111,17.430735 L6.04088889,17.4806236 C5.50755556,17.5305122 5.03822222,17.1385301 4.992,16.6075724 L4.992,16.6075724 L4.03911111,6.04187082 C3.99288889,5.51091314 4.384,5.04053452 4.91377778,4.99420935 L4.91377778,4.99420935 Z M8.73955556,7.65256125 C8.608,7.64187082 8.49066667,7.74164811 8.48,7.87349666 L8.48,7.87349666 L7.99288889,13.4360802 L7.85777778,15.0004454 C7.84711111,15.132294 7.94666667,15.2498886 8.07822222,15.2605791 L8.07822222,15.2605791 L17.3475556,16.0694878 L18.0088889,16.1265033 C18.1404444,16.1371938 18.2577778,16.0374165 18.2684444,15.9055679 L18.2684444,15.9055679 L18.8906667,8.77861915 C18.9048889,8.6467706 18.8053333,8.52917595 18.6702222,8.522049 L18.6702222,8.522049 L16.8355556,8.36169265 L15.7795556,8.26904232 Z M15.68,12.2815145 C15.7546667,12.1924276 15.8968889,12.2066815 15.9537778,12.3064588 L15.9537778,12.3064588 L17.5715556,15.1002227 C17.6391111,15.2178174 17.5466667,15.3639198 17.4115556,15.3532294 L17.4115556,15.3532294 L15.8151111,15.2142539 C15.7582222,15.2106904 15.712,15.1786192 15.6835556,15.132294 L15.6835556,15.132294 L14.7804444,13.3683742 C14.744907,13.3069759 14.7520406,13.2297614 14.7982222,13.1759465 L14.7982222,13.1759465 Z M11.9502222,9.9688196 C12.0248889,9.87973274 12.1671111,9.89398664 12.224,9.99376392 L12.224,9.99376392 L14.6844444,14.8436526 C14.752,14.9612472 14.6595556,15.1073497 14.5244444,15.0966592 L14.5244444,15.0966592 L8.79644444,14.5977728 C8.66133333,14.5870824 8.59377778,14.4267261 8.68266667,14.3233853 L8.68266667,14.3233853 Z M15.2533333,5.11180401 L5.32622222,6.00623608 C5.19466667,6.0169265 5.09866667,6.13452116 5.10933333,6.26636971 L5.10933333,6.26636971 L5.74933333,13.3933185 C5.76355556,13.525167 5.88088889,13.6213808 6.01244444,13.6106904 L6.01244444,13.6106904 L6.94044444,13.525167 L7.47022222,7.45657016 C7.51644444,6.92561247 7.98577778,6.53363029 8.51555556,6.57995546 L8.51555556,6.57995546 L15.6871111,7.21069042 L15.5164444,5.32917595 C15.5022222,5.19732739 15.3848889,5.10111359 15.2533333,5.11180401 L15.2533333,5.11180401 Z M16.3164444,9.20623608 C16.8533333,9.19910913 17.2586667,9.68017817 17.1591111,10.2075724 C17.0844444,10.5959911 16.7395556,10.888196 16.3413333,10.8917595 C15.8044444,10.8988864 15.3991111,10.4178174 15.4986667,9.89042316 C15.5733333,9.50200445 15.9182222,9.20979955 16.3164444,9.20623608 Z" id="Combined-Shape" fill="#091D42"></path>
    </g>
</svg>