<?xml version="1.0" encoding="UTF-8"?>
<svg width="24px" height="24px" viewBox="0 0 24 24" version="1.1" xmlns="http://www.w3.org/2000/svg" xmlns:xlink="http://www.w3.org/1999/xlink">
    <!-- Generator: Sketch 59.1 (86144) - https://sketch.com -->
    <title>Icon/Categories/Alert/informationCircle</title>
    <desc>Created with Sketch.</desc>
    <g id="Icon/Categories/Alert/informationCircle" stroke="none" stroke-width="1" fill="none" fill-rule="evenodd">
        <path d="M12,3 C7.02836538,3 3,7.02836538 3,12 C3,16.9716346 7.02836538,21 12,21 C16.9716346,21 21,16.9716346 21,12 C21,7.02836538 16.9716346,3 12,3 Z M12.8221154,16.1538462 L11.1692308,16.1538462 L11.1692308,9.91875 L12.8221154,9.91875 L12.8221154,16.1538462 Z M11.9956731,9.23942308 C11.5067308,9.23942308 11.1086538,8.86730769 11.1086538,8.37403846 C11.1086538,7.88076923 11.5110577,7.51298077 11.9956731,7.51298077 C12.4889423,7.51298077 12.8913462,7.88076923 12.8913462,8.37403846 C12.8913462,8.86730769 12.4889423,9.23942308 11.9956731,9.23942308 L11.9956731,9.23942308 Z" id="Shape" fill="#091D42"></path>
    </g>
</svg>