<?xml version="1.0" encoding="UTF-8"?>
<svg width="24px" height="24px" viewBox="0 0 24 24" version="1.1" xmlns="http://www.w3.org/2000/svg" xmlns:xlink="http://www.w3.org/1999/xlink">
    <!-- Generator: Sketch 59.1 (86144) - https://sketch.com -->
    <title>Icon/Categories/Alert/informationCircleOutline</title>
    <desc>Created with Sketch.</desc>
    <g id="Icon/Categories/Alert/informationCircleOutline" stroke="none" stroke-width="1" fill="none" fill-rule="evenodd">
        <path d="M12,3 C16.9716346,3 21,7.02836538 21,12 C21,16.9716346 16.9716346,21 12,21 C7.02836538,21 3,16.9716346 3,12 C3,7.02836538 7.02836538,3 12,3 Z M12,4.21153846 C9.91875,4.21153846 7.96298077,5.02067308 6.49182692,6.49182692 C5.02067308,7.96298077 4.21153846,9.91875 4.21153846,12 C4.21153846,14.08125 5.02067308,16.0370192 6.49182692,17.5081731 C7.96298077,18.9793269 9.91875,19.7884615 12,19.7884615 C14.08125,19.7884615 16.0370192,18.9793269 17.5081731,17.5081731 C18.9793269,16.0370192 19.7884615,14.08125 19.7884615,12 C19.7884615,9.91875 18.9793269,7.96298077 17.5081731,6.49182692 C16.0370192,5.02067308 14.08125,4.21153846 12,4.21153846 Z M12.8221154,9.91875 L12.8221154,16.1538462 L11.1692308,16.1538462 L11.1692308,9.91875 L12.8221154,9.91875 Z M11.9956731,7.51298077 C12.4889423,7.51298077 12.8913462,7.88076923 12.8913462,8.37403846 C12.8913462,8.86730769 12.4889423,9.23942308 11.9956731,9.23942308 C11.5110577,9.23942308 11.1086538,8.86730769 11.1086538,8.37403846 C11.1086538,7.88076923 11.5110577,7.51298077 11.9956731,7.51298077 Z" id="Combined-Shape" fill="#091D42"></path>
    </g>
</svg>