<?xml version="1.0" encoding="UTF-8"?>
<svg width="24px" height="24px" viewBox="0 0 24 24" version="1.1" xmlns="http://www.w3.org/2000/svg" xmlns:xlink="http://www.w3.org/1999/xlink">
    <!-- Generator: Sketch 59.1 (86144) - https://sketch.com -->
    <title>Icon/Categories/Social/instagram</title>
    <desc>Created with Sketch.</desc>
    <g id="Icon/Categories/Social/instagram" stroke="none" stroke-width="1" fill="none" fill-rule="evenodd">
        <path d="M15.3333333,4 C17.9,4 20,6.1 20,8.66666667 L20,8.66666667 L20,15.3333333 C20,17.9 17.9,20 15.3333333,20 L15.3333333,20 L8.66666667,20 C6.1,20 4,17.9 4,15.3333333 L4,15.3333333 L4,8.66666667 C4,6.1 6.1,4 8.66666667,4 L8.66666667,4 Z M15.3333333,5.33333333 L8.66666667,5.33333333 C7.78333333,5.33333333 6.94166667,5.67916667 6.3125,6.3125 C5.68333333,6.94583333 5.33333333,7.78333333 5.33333333,8.66666667 L5.33333333,8.66666667 L5.33333333,15.3333333 C5.33333333,16.2166667 5.67916667,17.0583333 6.3125,17.6875 C6.94583333,18.3166667 7.78333333,18.6666667 8.66666667,18.6666667 L8.66666667,18.6666667 L15.3333333,18.6666667 C16.2166667,18.6666667 17.0583333,18.3208333 17.6875,17.6875 C18.3166667,17.0541667 18.6666667,16.2166667 18.6666667,15.3333333 L18.6666667,15.3333333 L18.6666667,8.66666667 C18.6666667,7.78333333 18.3208333,6.94166667 17.6875,6.3125 C17.0541667,5.68333333 16.2166667,5.33333333 15.3333333,5.33333333 L15.3333333,5.33333333 Z M12,8 C14.2083333,8 16,9.79166667 16,12 C16,14.2083333 14.2083333,16 12,16 C9.79166667,16 8,14.2083333 8,12 C8,9.79166667 9.79166667,8 12,8 Z M12,9.33333333 C10.5291667,9.33333333 9.33333333,10.5291667 9.33333333,12 C9.33333333,13.4708333 10.5291667,14.6666667 12,14.6666667 C13.4708333,14.6666667 14.6666667,13.4708333 14.6666667,12 C14.6666667,10.5291667 13.4708333,9.33333333 12,9.33333333 Z M16.3333333,6.66666667 C16.8833333,6.66666667 17.3333333,7.1125 17.3333333,7.66666667 C17.3333333,8.22083333 16.8833333,8.66666667 16.3333333,8.66666667 C15.7791667,8.66666667 15.3333333,8.22083333 15.3333333,7.66666667 C15.3333333,7.1125 15.7791667,6.66666667 16.3333333,6.66666667 Z" id="Combined-Shape" fill="#091D42"></path>
    </g>
</svg>