<?xml version="1.0" encoding="UTF-8"?>
<svg width="24px" height="24px" viewBox="0 0 24 24" version="1.1" xmlns="http://www.w3.org/2000/svg" xmlns:xlink="http://www.w3.org/1999/xlink">
    <!-- Generator: Sketch 59.1 (86144) - https://sketch.com -->
    <title>Icon/Categories/Action/journal</title>
    <desc>Created with Sketch.</desc>
    <g id="Icon/Categories/Action/journal" stroke="none" stroke-width="1" fill="none" fill-rule="evenodd">
        <path d="M14.5,3 L14.5,18.4251283 L6.375,18.4251283 C6.0078125,18.4251283 5.7109375,18.758536 5.75390625,19.1481812 C5.79296875,19.473555 6.07421875,19.7145726 6.39453125,19.7145726 L6.39453125,19.7145726 L18.875,19.7145726 C19.21875,19.7145726 19.5,20.0037938 19.5,20.3572863 C19.5,20.7107788 19.21875,21 18.875,21 L18.875,21 L5.59765625,21 C4.9921875,21 4.5,20.493863 4.5,19.8712341 L4.5,19.8712341 L4.5,4.1287659 C4.5,3.50613702 4.9921875,3 5.59765625,3 L5.59765625,3 L14.5,3 Z M18.4023438,3 C19.0078125,3 19.5,3.50613702 19.5,4.1287659 L19.5,4.1287659 L19.5,17.7824146 C19.5,18.1359072 19.21875,18.4251283 18.875,18.4251283 L18.875,18.4251283 L16.375,18.4251283 L16.375,3 Z" id="Combined-Shape" fill="#091D42"></path>
    </g>
</svg>