<?xml version="1.0" encoding="UTF-8"?>
<svg width="24px" height="24px" viewBox="0 0 24 24" version="1.1" xmlns="http://www.w3.org/2000/svg" xmlns:xlink="http://www.w3.org/1999/xlink">
    <!-- Generator: Sketch 59.1 (86144) - https://sketch.com -->
    <title>Icon/Categories/Action/levelBeginner</title>
    <desc>Created with Sketch.</desc>
    <g id="Icon/Categories/Action/levelBeginner" stroke="none" stroke-width="1" fill="none" fill-rule="evenodd">
        <path d="M20.6473214,4.5 C20.84375,4.5 21,4.734375 21,5.02901786 L21,5.02901786 L21,18.9709821 C21,19.265625 20.84375,19.5 20.6473214,19.5 L20.6473214,19.5 L16.3526786,19.5 C16.15625,19.5 16,19.265625 16,18.9709821 L16,18.9709821 L16,5.02901786 C16,4.734375 16.15625,4.5 16.3526786,4.5 L16.3526786,4.5 Z M7.64732143,12 C7.84375,12 8,12.1640625 8,12.3703125 L8,12.3703125 L8,19.1296875 C8,19.3359375 7.84375,19.5 7.64732143,19.5 L7.64732143,19.5 L3.35267857,19.5 C3.15625,19.5 3,19.3359375 3,19.1296875 L3,19.1296875 L3,12.3703125 C3,12.1640625 3.15625,12 3.35267857,12 L3.35267857,12 Z M14.1473214,9.11538462 C14.34375,9.11538462 14.5,9.27764423 14.5,9.48162775 L14.5,9.48162775 L14.5,19.1337569 C14.5,19.3377404 14.34375,19.5 14.1473214,19.5 L14.1473214,19.5 L9.85267857,19.5 C9.65625,19.5 9.5,19.3377404 9.5,19.1337569 L9.5,19.1337569 L9.5,9.48162775 C9.5,9.27764423 9.65625,9.11538462 9.85267857,9.11538462 L9.85267857,9.11538462 Z M13.9375,9.67788462 L10.0625,9.67788462 L10.0625,18.9375 L13.9375,18.9375 L13.9375,9.67788462 Z M20.4375,5.0625 L16.5625,5.0625 L16.5625,18.9375 L20.4375,18.9375 L20.4375,5.0625 Z" id="Combined-Shape" fill="#091D42"></path>
    </g>
</svg>