<?xml version="1.0" encoding="UTF-8"?>
<svg width="24px" height="24px" viewBox="0 0 24 24" version="1.1" xmlns="http://www.w3.org/2000/svg" xmlns:xlink="http://www.w3.org/1999/xlink">
    <!-- Generator: Sketch 59.1 (86144) - https://sketch.com -->
    <title>Icon/Categories/Social/linkedin</title>
    <desc>Created with Sketch.</desc>
    <g id="Icon/Categories/Social/linkedin" stroke="none" stroke-width="1" fill="none" fill-rule="evenodd">
        <path d="M18.7204787,4 L5.36702067,4 C4.63766513,4 4,4.52513675 4,5.24615785 L4,18.6288096 C4,19.3539984 4.63766513,20 5.36702067,20 L18.7163109,20 C19.4498342,20 20,19.3498307 20,18.6288096 L20,5.24615785 C20.0041444,4.52513675 19.4498342,4 18.7204787,4 Z M8.95961767,17.3368065 L6.6673574,17.3368065 L6.6673574,10.2099505 L8.95961767,10.2099505 L8.95961767,17.3368065 Z M7.89267471,9.12633498 L7.87600372,9.12633498 C7.14248044,9.12633498 6.6673574,8.58035947 6.6673574,7.89684814 C6.6673574,7.20083355 7.15498367,6.66736129 7.90517794,6.66736129 C8.65537221,6.66736129 9.11382427,7.1966658 9.13049525,7.89684814 C9.13049525,8.58035947 8.65537221,9.12633498 7.89267471,9.12633498 Z M17.336787,17.3368065 L15.0445267,17.3368065 L15.0445267,13.4399583 C15.0445267,12.5063819 14.7111071,11.8687158 13.8817256,11.8687158 C13.2482282,11.8687158 12.8731311,12.2979943 12.7064213,12.7147695 C12.6439051,12.8648085 12.6272341,13.0690284 12.6272341,13.277416 L12.6272341,17.3368065 L10.3349738,17.3368065 L10.3349738,10.2099505 L12.6272341,10.2099505 L12.6272341,11.2018755 C12.9606538,10.7267518 13.481622,10.0432404 14.6944361,10.0432404 C16.1989924,10.0432404 17.336787,11.0351654 17.336787,13.1732222 L17.336787,17.3368065 L17.336787,17.3368065 Z" id="Shape" fill="#091D42"></path>
    </g>
</svg>