<?xml version="1.0" encoding="UTF-8"?>
<svg width="24px" height="24px" viewBox="0 0 24 24" version="1.1" xmlns="http://www.w3.org/2000/svg" xmlns:xlink="http://www.w3.org/1999/xlink">
    <!-- Generator: Sketch 59.1 (86144) - https://sketch.com -->
    <title>Icon/Categories/Action/list</title>
    <desc>Created with Sketch.</desc>
    <g id="Icon/Categories/Action/list" stroke="none" stroke-width="1" fill="none" fill-rule="evenodd">
        <path d="M4.3125,16.4210526 C5.03737373,16.4210526 5.625,16.9983697 5.625,17.7105263 C5.625,18.422683 5.03737373,19 4.3125,19 C3.58762627,19 3,18.422683 3,17.7105263 C3,16.9983697 3.58762627,16.4210526 4.3125,16.4210526 Z M20.25,16.9736842 C20.6625,16.9736842 21,17.3052632 21,17.7105263 C21,18.1157895 20.6625,18.4473684 20.25,18.4473684 L20.25,18.4473684 L8.9765625,18.4473684 C8.5640625,18.4473684 8.2265625,18.1157895 8.2265625,17.7105263 C8.2265625,17.3052632 8.5640625,16.9736842 8.9765625,16.9736842 L8.9765625,16.9736842 Z M4.3125,10.7105263 C5.03737373,10.7105263 5.625,11.2878433 5.625,12 C5.625,12.7121567 5.03737373,13.2894737 4.3125,13.2894737 C3.58762627,13.2894737 3,12.7121567 3,12 C3,11.2878433 3.58762627,10.7105263 4.3125,10.7105263 Z M20.25,11.2631579 C20.6625,11.2631579 21,11.5947368 21,12 C21,12.4052632 20.6625,12.7368421 20.25,12.7368421 L20.25,12.7368421 L8.9765625,12.7368421 C8.5640625,12.7368421 8.2265625,12.4052632 8.2265625,12 C8.2265625,11.5947368 8.5640625,11.2631579 8.9765625,11.2631579 L8.9765625,11.2631579 Z M4.3125,5 C5.03737373,5 5.625,5.57731703 5.625,6.28947368 C5.625,7.00163034 5.03737373,7.57894737 4.3125,7.57894737 C3.58762627,7.57894737 3,7.00163034 3,6.28947368 C3,5.57731703 3.58762627,5 4.3125,5 Z M20.25,5.55263158 C20.6625,5.55263158 21,5.88421053 21,6.28947368 C21,6.69473684 20.6625,7.02631579 20.25,7.02631579 L20.25,7.02631579 L8.9765625,7.02631579 C8.5640625,7.02631579 8.2265625,6.69473684 8.2265625,6.28947368 C8.2265625,5.88421053 8.5640625,5.55263158 8.9765625,5.55263158 L8.9765625,5.55263158 Z" id="Combined-Shape" fill="#000000"></path>
    </g>
</svg>