<?xml version="1.0" encoding="UTF-8"?>
<svg width="24px" height="24px" viewBox="0 0 24 24" version="1.1" xmlns="http://www.w3.org/2000/svg" xmlns:xlink="http://www.w3.org/1999/xlink">
    <!-- Generator: Sketch 59.1 (86144) - https://sketch.com -->
    <title>Icon/Categories/Navigation/menu</title>
    <desc>Created with Sketch.</desc>
    <g id="Icon/Categories/Navigation/menu" stroke="none" stroke-width="1" fill="none" fill-rule="evenodd">
        <path d="M20.25,16 C20.6625,16 21,16.45 21,17 C21,17.55 20.6625,18 20.25,18 L3.75,18 C3.3375,18 3,17.55 3,17 C3,16.45 3.3375,16 3.75,16 L20.25,16 Z M20.25,11 C20.6625,11 21,11.45 21,12 C21,12.55 20.6625,13 20.25,13 L3.75,13 C3.3375,13 3,12.55 3,12 C3,11.45 3.3375,11 3.75,11 L20.25,11 Z M20.25,6 C20.6625,6 21,6.45 21,7 C21,7.55 20.6625,8 20.25,8 L3.75,8 C3.3375,8 3,7.55 3,7 C3,6.45 3.3375,6 3.75,6 L20.25,6 Z" id="Shape" fill="#091D42"></path>
    </g>
</svg>