<?xml version="1.0" encoding="UTF-8"?>
<svg width="24px" height="24px" viewBox="0 0 24 24" version="1.1" xmlns="http://www.w3.org/2000/svg" xmlns:xlink="http://www.w3.org/1999/xlink">
    <!-- Generator: Sketch 59.1 (86144) - https://sketch.com -->
    <title>Icon/Categories/Action/moneyBag</title>
    <desc>Created with Sketch.</desc>
    <g id="Icon/Categories/Action/moneyBag" stroke="none" stroke-width="1" fill="none" fill-rule="evenodd">
        <path d="M8.48199021,3.22824264 C9.16606755,2.48008632 10.3847771,3.82231196 11.5037431,3.68783526 C12.2926704,3.5714441 13.9249071,2.91083529 14.6765582,3.06149154 C15.2422539,3.17483315 14.3230303,5.76623079 12.9473438,6.91650418 C18.1329019,9.04144769 25.7058798,22.0332092 10.5821791,20.9341428 C-0.3479521,20.1398621 5.91733847,9.19307811 10.3748198,7.0124803 C8.88075164,6.04873773 7.92578376,3.83654319 8.48199021,3.22824264 Z M12.1312374,10.0458243 C11.9558127,9.96233986 11.7435682,9.99497382 11.5990232,10.1270196 C11.493891,10.2230705 11.432556,10.3634452 11.432556,10.5084959 L11.432556,10.5084959 L11.432556,11.0714072 C10.9489006,11.1421304 10.4667067,11.3346707 10.1036941,11.67986 C9.93392674,11.841325 9.79546336,12.0361059 9.69928858,12.2530486 C9.59660787,12.4847497 9.54984053,12.7368104 9.55167917,12.9911117 C9.55347066,13.2415651 9.59755076,13.4937233 9.70395589,13.7200666 C9.80479797,13.9345252 9.95877189,14.1157167 10.1402311,14.2615467 C10.5136155,14.5614868 10.980346,14.7176914 11.4325088,14.8386319 L11.4325088,14.8386319 L11.4325088,16.8532671 C11.2012651,16.7862457 10.9794502,16.6735855 10.8052985,16.5002359 C10.7208155,16.4161182 10.6474587,16.3191905 10.5889052,16.21408 C10.5592513,16.1606967 10.534029,16.1046344 10.513144,16.0469649 C10.4920704,15.9889057 10.4793414,15.928752 10.4605779,15.8700596 C10.3996672,15.6795163 10.2300885,15.5407977 10.0366075,15.5230682 C9.84001491,15.504949 9.64747678,15.6140049 9.55611075,15.7945632 C9.51165349,15.8823339 9.49274855,15.982866 9.50250746,16.081401 C9.50830623,16.1401421 9.52508967,16.197422 9.54135452,16.2537765 C9.55931658,16.3160245 9.57982443,16.3775907 9.60283095,16.4380366 C9.69089686,16.669348 9.81823415,16.8836118 9.97442386,17.0724504 C10.2879819,17.4512965 10.7172325,17.7073512 11.1800029,17.8387151 C11.2633072,17.8623382 11.3476016,17.8821621 11.4325088,17.89882 L11.4325088,17.89882 L11.4325088,18.4914916 C11.4325088,18.6883668 11.5462685,18.8718476 11.7194302,18.9541631 C11.8948078,19.0376476 12.1071466,19.0050623 12.2516445,18.8729679 C12.3567767,18.7769169 12.4181117,18.6365909 12.4181117,18.4914916 L12.4181117,18.4914916 L12.4181117,17.9492321 C12.9132703,17.9077822 13.4116348,17.7598091 13.8089686,17.4416524 C14.185276,17.1403485 14.4370276,16.6965267 14.4885565,16.205751 C14.5274507,15.8357209 14.4686615,15.4462079 14.2897482,15.1204528 L14.2897482,15.1204528 L14.292,15.125 L14.2871552,15.1155821 C14.0903859,14.7604809 13.766887,14.5190444 13.4130818,14.3517902 L13.2598766,14.2845366 C12.9872872,14.1734837 12.7025344,14.0967208 12.4180174,14.0263387 L12.4180174,14.0263387 L12.4180174,12.0984026 C12.6574171,12.142288 12.8970055,12.2208043 13.0945409,12.371505 C13.1857655,12.4410104 13.2656754,12.5253716 13.3273404,12.6237606 C13.3590687,12.6743675 13.386601,12.7279457 13.4078632,12.7841053 C13.4289368,12.839583 13.4392614,12.8984703 13.4599107,12.9540941 C13.5292603,13.1411305 13.7047321,13.2714228 13.8984017,13.2801414 C14.0955128,13.28886 14.2828651,13.1713778 14.3664051,12.9868742 C14.4071851,12.8968142 14.4217056,12.7951132 14.407468,12.6966755 C14.3985577,12.635012 14.3797941,12.5741764 14.3611249,12.5150944 C14.3410885,12.451726 14.3179406,12.3895754 14.2914925,12.3288373 C14.1967792,12.1111152 14.0620874,11.9114636 13.8975531,11.7439102 C13.5502396,11.3901484 13.0857249,11.1875256 12.6107912,11.0987321 C12.5468633,11.08675 12.4826053,11.0767163 12.4181588,11.0683386 L12.4181588,11.0683386 L12.4181588,10.5084959 C12.4181588,10.3116206 12.304352,10.1281885 12.1312374,10.0458243 Z M12.4181588,15.0762265 C12.6494497,15.1390591 12.8823907,15.2086619 13.0953895,15.3234166 C13.1932143,15.3761667 13.2878805,15.4394863 13.3626988,15.5241397 C13.4324255,15.6030944 13.4753741,15.6988531 13.4961649,15.8031844 C13.5344933,15.9957247 13.515777,16.2082351 13.4216766,16.381195 L13.4216766,16.381195 L13.3477075,16.4938653 C13.129475,16.7733701 12.751858,16.8889209 12.4181588,16.9278868 L12.4181588,16.9278868 Z M11.4325088,12.1049781 L11.4325088,13.7805124 C11.3184663,13.7443716 11.212674,13.7069643 11.1186208,13.6678522 C11.0065112,13.621288 10.8964288,13.566346 10.796341,13.4960126 C10.7071436,13.43318 10.6207278,13.3551508 10.5794763,13.2494557 C10.5361505,13.138549 10.5298803,13.0074774 10.5410536,12.8896542 C10.5522268,12.7720746 10.5927239,12.6614601 10.6572647,12.564094 C10.829625,12.3040939 11.1444088,12.1684925 11.4325088,12.1049781 L11.4325088,12.1049781 Z" id="Combined-Shape" fill="#091D42"></path>
    </g>
</svg>