<?xml version="1.0" encoding="UTF-8"?>
<svg width="24px" height="24px" viewBox="0 0 24 24" version="1.1" xmlns="http://www.w3.org/2000/svg" xmlns:xlink="http://www.w3.org/1999/xlink">
    <!-- Generator: Sketch 59.1 (86144) - https://sketch.com -->
    <title>Icon/Categories/Navigation/more</title>
    <desc>Created with Sketch.</desc>
    <g id="Icon/Categories/Navigation/more" stroke="none" stroke-width="1" fill="none" fill-rule="evenodd">
        <path d="M12,10 C10.8947368,10 10,10.8947368 10,12 C10,13.1052632 10.8947368,14 12,14 C13.1052632,14 14,13.1052632 14,12 C14,10.8947368 13.1052632,10 12,10 Z M5,10 C3.89473684,10 3,10.8947368 3,12 C3,13.1052632 3.89473684,14 5,14 C6.10526316,14 7,13.1052632 7,12 C7,10.8947368 6.10526316,10 5,10 Z M19,10 C17.8947368,10 17,10.8947368 17,12 C17,13.1052632 17.8947368,14 19,14 C20.1052632,14 21,13.1052632 21,12 C21,10.8947368 20.1052632,10 19,10 Z" id="Shape" fill="#091D42"></path>
    </g>
</svg>