<?xml version="1.0" encoding="UTF-8"?>
<svg width="24px" height="24px" viewBox="0 0 24 24" version="1.1" xmlns="http://www.w3.org/2000/svg" xmlns:xlink="http://www.w3.org/1999/xlink">
    <!-- Generator: Sketch 59.1 (86144) - https://sketch.com -->
    <title>Icon/Categories/Action/multipleSkills</title>
    <desc>Created with Sketch.</desc>
    <g id="Icon/Categories/Action/multipleSkills" stroke="none" stroke-width="1" fill="none" fill-rule="evenodd">
        <path d="M8.01126074,9.04389248 L8.02254027,9.0440239 C8.88050693,9.05588932 9.580366,9.75613297 9.59115593,10.613364 C9.5959329,10.9934749 9.44776341,11.3290945 9.24880106,11.6192217 C9.14591254,11.76925 9.05633606,11.9010213 8.99568862,12.0068255 L8.99568862,12.0068255 L11.4989362,12.0068255 L11.4968985,14.0948733 C11.2247784,13.9701612 10.9267692,13.9039919 10.6237825,13.9039919 C10.6148633,13.9039919 10.6060276,13.9040252 10.5971083,13.9041754 C10.0507302,13.9110343 9.53563622,14.1285671 9.14661405,14.5167551 C8.75757519,14.9049264 8.53917092,15.4192951 8.53160461,15.9651046 C8.52378775,16.5292714 8.7377157,17.0610794 9.13398683,17.4625179 C9.32636832,17.6574046 9.55125322,17.8105704 9.80234464,17.9177598 C10.0625724,18.0288208 10.338935,18.085144 10.6237658,18.085144 C10.9267191,18.085144 11.2247617,18.019008 11.4968651,17.8942625 L11.4968651,17.8942625 L11.4968651,20 L4.66810727,20 C4.29912833,20 4,19.7011114 4,19.3324322 L4,19.3324322 L4,12.67436 C4,12.3056974 4.29912833,12.0068255 4.66810727,12.0068255 L4.66810727,12.0068255 L7.00429468,12.0068255 C6.94361383,11.9009379 6.84528515,11.756133 6.75019678,11.6179533 C6.55464178,11.3337672 6.40871045,11.0054237 6.40871045,10.6337906 C6.40871045,9.7556657 7.12109653,9.0438737 8,9.0438737 C8.00745775,9.0438737 8.01505747,9.0438737 8.02254027,9.0440239 Z M14.0985918,12.4937586 C13.9700813,12.7735723 13.9039053,13.0805881 13.907797,13.392844 C13.9146618,13.9386703 14.132398,14.4533393 14.5209024,14.842028 C14.9094401,15.2307166 15.4242168,15.4489336 15.9705114,15.4564934 L15.9705114,15.4564934 L16.0000251,15.4566937 C16.5589469,15.4566937 17.0843966,15.2392777 17.479582,14.8444311 C17.8747508,14.4495845 18.09237,13.9245853 18.09237,13.3661427 C18.09237,13.0634492 18.0261606,12.765662 17.9013247,12.4937586 L17.9013247,12.4937586 L19.9979122,12.4937586 L19.9979122,19.3236207 C19.9979122,19.6922833 19.6988005,19.9911552 19.3298049,19.9911552 L19.3298049,19.9911552 L11.9979122,19.9911552 L11.9979122,16.9894363 C11.9094214,17.0400521 11.7714238,17.1425186 11.5947428,17.2541971 C11.3079912,17.4354828 10.989304,17.5845099 10.6237157,17.5845099 C10.0303697,17.5845099 9.51295397,17.2600214 9.23933064,16.778996 C9.10422265,16.5414372 9.02850939,16.2657455 9.03258484,15.972047 C9.04447715,15.1148326 9.74530498,14.4155569 10.6032716,14.4047762 L10.6032716,14.4047762 L10.6237157,14.4046427 C10.989304,14.4046427 11.3154907,14.5424218 11.5948096,14.7349554 C11.7456015,14.8388572 11.9094548,14.9490671 11.9979456,14.9996829 L11.9979456,14.9996829 L11.9976449,12.4937586 Z M19.331876,4 C19.7008717,4 20,4.29887187 20,4.66753446 L20,4.66753446 L20,11.9931411 L16.995722,11.9931411 C16.9966908,11.9948099 16.9975927,11.9963452 16.9985782,11.9980141 C17.047968,12.0839425 17.1402002,12.2203531 17.2622467,12.3979674 C17.4538599,12.6768132 17.5912896,13.0018357 17.5912896,13.366176 C17.5912896,13.8331664 17.3898385,14.2531124 17.06898,14.5440072 C16.7865042,14.8000401 16.4115123,14.9561096 16.0000251,14.9561096 C15.9925088,14.9561096 15.9849258,14.9561096 15.977443,14.9559427 C15.1194931,14.9440439 14.4196173,14.243817 14.4088274,13.3866193 C14.404184,13.014619 14.5381729,12.6795501 14.7372856,12.3985848 C14.8469387,12.2438337 14.9810947,12.0405694 15.0042947,11.9931578 L15.0042947,11.9931578 L11.9999833,11.9931578 L11.9999833,8.92637095 C11.9999833,8.92637095 12.2686292,9.15880645 12.3545645,9.21968559 C12.6302757,9.44871666 12.9845563,9.58647909 13.3711399,9.58647909 L13.3711399,9.58647909 L13.391634,9.58634558 C14.2496007,9.57558159 14.9504452,8.87630586 14.9623208,8.01909149 C14.9745973,7.13066987 14.2575011,6.40662862 13.3711566,6.40662862 C12.9846231,6.40662862 12.6302924,6.54440773 12.3545812,6.77342212 C12.268696,6.83431795 11.9999833,7.06675345 11.9999833,7.06675345 L11.9999833,7.06675345 L11.9999833,4 Z" id="Combined-Shape" fill="#091D42"></path>
    </g>
</svg>