<?xml version="1.0" encoding="UTF-8"?>
<svg width="24px" height="24px" viewBox="0 0 24 24" version="1.1" xmlns="http://www.w3.org/2000/svg" xmlns:xlink="http://www.w3.org/1999/xlink">
    <!-- Generator: Sketch 59.1 (86144) - https://sketch.com -->
    <title>Icon/Categories/Alert/notification</title>
    <desc>Created with Sketch.</desc>
    <g id="Icon/Categories/Alert/notification" stroke="none" stroke-width="1" fill="none" fill-rule="evenodd">
        <path d="M11.9911981,21 C13.3522662,21 14.0962583,20.0102539 14.0962583,18.6156116 L9.88176151,18.6156116 C9.88176151,20.0102539 10.6257537,21 11.9911981,21 L11.9911981,21 Z M18.8227968,16.3301977 C18.1488274,15.416932 16.8227708,14.8815693 16.8227708,10.7921181 C16.8227708,6.59469469 15.0196839,4.90762739 13.3391369,4.50273124 C13.1815856,4.46224162 13.0677986,4.40825547 13.0677986,4.23729931 L13.0677986,4.10683278 C13.0677986,3.50398739 12.5863919,2.99561778 11.999951,3 C11.4135101,2.99111894 10.9321034,3.50398739 10.9321034,4.10683278 L10.9321034,4.23729931 C10.9321034,4.40375662 10.8183164,4.46224162 10.6607651,4.50273124 C8.97584163,4.91212623 7.17713115,6.59469469 7.17713115,10.7921181 C7.17713115,14.8815693 5.85107451,15.4124331 5.17710513,16.3301977 C4.74383911,16.9195466 5.15522301,17.7608308 5.87295664,17.7608308 L18.1313217,17.7608308 C18.8446789,17.7608308 19.2560629,16.9150477 18.8227968,16.3301977 L18.8227968,16.3301977 Z" id="Shape" fill="#091D42"></path>
    </g>
</svg>