<?xml version="1.0" encoding="UTF-8"?>
<svg width="24px" height="24px" viewBox="0 0 24 24" version="1.1" xmlns="http://www.w3.org/2000/svg" xmlns:xlink="http://www.w3.org/1999/xlink">
    <!-- Generator: Sketch 59.1 (86144) - https://sketch.com -->
    <title>Icon/Categories/User/people</title>
    <desc>Created with Sketch.</desc>
    <g id="Icon/Categories/User/people" stroke="none" stroke-width="1" fill="none" fill-rule="evenodd">
        <path d="M11.9919822,6 C13.6797327,6 14.5817372,7.20493489 14.5817372,8.4304318 C14.5817372,9.61891707 14.3492205,9.96847156 14.3492205,9.96847156 C14.3492205,9.96847156 14.5336303,9.88622344 14.5817372,10.2316655 C14.6258352,10.5771076 14.457461,10.823852 14.369265,11.2926662 C14.2650334,11.8355038 14.0004454,11.7203564 14.0004454,11.7203564 C14.0004454,11.7203564 13.9242762,12.5510624 13.8080178,12.851268 C13.6917595,13.155586 13.4111359,13.4270048 13.4111359,13.4270048 C13.4111359,13.4270048 13.4111359,14.4551062 13.5273942,14.5990404 C13.6436526,14.7429746 14.0004454,14.8416724 14.2249443,14.9321453 C14.5496659,15.0596299 15.2832962,15.0678547 15.732294,15.2323509 C16.1812918,15.3968472 17.5683742,16.145305 17.5643739,18 L17.5643739,18 L6.40757238,18 C6.40757238,16.1494174 7.79465479,15.4009596 8.24365256,15.2364633 C8.69665924,15.0719671 9.43028953,15.0555175 9.75100223,14.9280329 C9.97550111,14.8416724 10.332294,14.7429746 10.4485523,14.5990404 C10.5469248,14.47725 10.562059,13.7224167 10.5643874,13.4930429 L10.5648107,13.4270048 C10.5648107,13.4270048 10.2841871,13.155586 10.1679287,12.851268 C10.0516704,12.54695 9.97550111,11.7203564 9.97550111,11.7203564 C9.97550111,11.7203564 9.71091314,11.8396162 9.60668151,11.2926662 C9.51447661,10.823852 9.34610245,10.5771076 9.39420935,10.2316655 C9.43830735,9.88622344 9.62672606,9.96847156 9.62672606,9.96847156 C9.62672606,9.96847156 9.39821826,9.61891707 9.39821826,8.4304318 C9.39821826,7.20904729 10.3082405,6 11.9919822,6 Z M6.40356347,8.02330363 C7.56614699,8.02330363 8.14743875,8.65250171 8.27572383,9.70116518 C8.40400891,10.7539411 8.06726058,11.8807402 8.68864143,12.8471556 C8.3077951,13.1967101 7.34966592,13.2296093 7.34966592,13.2296093 C7.34966592,13.2296093 7.29755011,13.7847841 7.37371938,13.875257 C7.45389755,13.9739548 8.14342984,14.1507882 8.14342984,14.1507882 C8.64454343,14.2453735 8.4922049,14.4921179 8.4922049,14.4921179 C8.21959911,14.5291295 7.86280624,14.5167923 7.50200445,14.705963 C6.91269488,15.0143934 6.30734967,15.6024674 6.21915367,15.9314599 L6.21915367,15.9314599 L3,15.9314599 C3,15.1089788 3.59331849,14.5126799 3.90601336,14.401645 C4.21870824,14.29061 4.59153675,14.1836875 4.94432071,14.1055517 C5.10868597,14.0726525 5.34521158,13.9780672 5.42538976,13.8793694 C5.50556793,13.7806717 5.46547884,13.1884853 5.46547884,13.1884853 C5.46547884,13.1884853 4.50334076,13.2008225 4.12249443,12.8471556 C4.75991091,12.0041124 4.40311804,10.7498286 4.53140312,9.70116518 C4.6596882,8.64838931 5.26503341,8.02330363 6.38752784,8.02330363 L6.38752784,8.02330363 Z M17.6124722,8.02330363 C18.7349666,8.02330363 19.3403118,8.64838931 19.4685969,9.70116518 C19.596882,10.7498286 19.2400891,12.0041124 19.8775056,12.8471556 C19.4966592,13.2008225 18.5345212,13.1884853 18.5345212,13.1884853 C18.5345212,13.1884853 18.4944321,13.7806717 18.5746102,13.8793694 C18.6547884,13.9780672 18.891314,14.0726525 19.0556793,14.1055517 C19.4084633,14.1836875 19.7812918,14.29061 20.0939866,14.401645 C20.4066815,14.5126799 21,15.1089788 21,15.9314599 L17.7808463,15.9314599 C17.6926503,15.6024674 17.0873051,15.0143934 16.4979955,14.705963 C16.1371938,14.5167923 15.7804009,14.5291295 15.5077951,14.4921179 C15.5077951,14.4921179 15.3554566,14.2453735 15.8565702,14.1507882 C15.8565702,14.1507882 16.5461024,13.9739548 16.6262806,13.875257 C16.7024499,13.7847841 16.6503341,13.2296093 16.6503341,13.2296093 C16.6503341,13.2296093 15.6922049,13.1967101 15.3113586,12.8471556 C15.9327394,11.8807402 15.5959911,10.7539411 15.7242762,9.70116518 C15.8525612,8.65250171 16.433853,8.02330363 17.5964365,8.02330363 L17.6124722,8.02330363 Z" id="Combined-Shape" fill="#091D42"></path>
    </g>
</svg>