<?xml version="1.0" encoding="UTF-8"?>
<svg width="24px" height="24px" viewBox="0 0 24 24" version="1.1" xmlns="http://www.w3.org/2000/svg" xmlns:xlink="http://www.w3.org/1999/xlink">
    <!-- Generator: Sketch 59.1 (86144) - https://sketch.com -->
    <title>Icon/Categories/Action/pin</title>
    <desc>Created with Sketch.</desc>
    <g id="Icon/Categories/Action/pin" stroke="none" stroke-width="1" fill="none" fill-rule="evenodd">
        <path d="M20.9909824,10.229338 C20.9677067,10.117646 20.8899685,10.0250602 20.7839708,9.98278814 C19.8458102,9.60974763 18.845045,9.41917515 17.8354052,9.42130237 C16.2441158,9.42130237 15.0164469,9.87660974 14.5412202,10.081768 L9.48653637,5.78424229 C9.59420452,4.84209283 9.3450262,3.8937917 8.78809714,3.12618305 C8.72733489,3.0513087 8.63777694,3.00556106 8.54148328,3.00020867 C8.44579952,2.99691878 8.3528867,3.03264521 8.28406883,3.09918854 L3.09977769,8.27853485 C3.03144683,8.34647474 2.99532987,8.4403167 3.00048519,8.53652454 C3.00564052,8.63273237 3.0515791,8.72217963 3.12677921,8.78243234 C3.86842086,9.37091262 4.77387171,9.49508737 5.40210699,9.49508737 C5.54251487,9.49508737 5.66132155,9.48788883 5.7531267,9.48069029 L10.0769696,14.5574575 C9.78175294,15.3133037 8.88170239,18.0433484 9.97256366,20.7841908 C10.0142778,20.8915275 10.1077363,20.9702831 10.2206125,20.9932165 C10.3334885,21.01615 10.4502821,20.9801117 10.530595,20.8975678 L15.480873,15.9503742 L20.094532,20.5574369 C20.1803878,20.6432703 20.3055253,20.6767921 20.4228064,20.6453747 C20.5400876,20.6139577 20.6316946,20.5223745 20.6631198,20.4051237 C20.6945453,20.287873 20.6610148,20.162768 20.575159,20.0769347 L15.9633,15.4698718 L20.9009773,10.538875 C20.9817325,10.4577156 21.016234,10.3413879 20.9927825,10.229338 L20.9909824,10.229338 Z" id="Shape" fill="#091D42"></path>
    </g>
</svg>