<?xml version="1.0" encoding="UTF-8"?>
<svg width="24px" height="24px" viewBox="0 0 24 24" version="1.1" xmlns="http://www.w3.org/2000/svg" xmlns:xlink="http://www.w3.org/1999/xlink">
    <!-- Generator: Sketch 59.1 (86144) - https://sketch.com -->
    <title>Icon/Categories/Action/power</title>
    <desc>Created with Sketch.</desc>
    <g id="Icon/Categories/Action/power" stroke="none" stroke-width="1" fill="none" fill-rule="evenodd">
        <path d="M17.278125,5.034375 C17.4796875,5.034375 17.6765625,5.1046875 17.83125,5.2359375 C19.8421875,6.9421875 21,9.421875 21,12.0375 C21,16.978125 16.9640625,21 12,21 C7.0359375,21 3,16.978125 3,12.0375 C3,9.421875 4.1578125,6.9421875 6.178125,5.2359375 C6.3328125,5.1046875 6.5296875,5.034375 6.73125,5.034375 C6.9796875,5.034375 7.2140625,5.146875 7.378125,5.334375 C7.528125,5.5078125 7.5984375,5.7328125 7.5796875,5.9578125 C7.5609375,6.1875 7.453125,6.39375 7.2796875,6.5390625 C5.6484375,7.9171875 4.7109375,9.9234375 4.7109375,12.0421875 C4.7109375,16.040625 7.9828125,19.2984375 12.0046875,19.2984375 C16.0265625,19.2984375 19.2984375,16.0453125 19.2984375,12.0421875 C19.2984375,9.928125 18.3609375,7.921875 16.7296875,6.5390625 C16.55625,6.39375 16.4484375,6.1828125 16.4296875,5.9578125 C16.4109375,5.728125 16.48125,5.5078125 16.63125,5.334375 C16.790625,5.1421875 17.0296875,5.034375 17.278125,5.034375 Z M12.0421875,3 C12.5203125,3 12.909375,3.3890625 12.909375,3.8671875 L12.909375,3.8671875 L12.909375,12 C12.909375,12.478125 12.5203125,12.8671875 12.0421875,12.8671875 C11.5640625,12.8671875 11.175,12.478125 11.175,12 L11.175,12 L11.175,3.8671875 C11.175,3.3890625 11.5640625,3 12.0421875,3 Z" id="Combined-Shape" fill="#091D42"></path>
    </g>
</svg>