<?xml version="1.0" encoding="UTF-8"?>
<svg width="24px" height="24px" viewBox="0 0 24 24" version="1.1" xmlns="http://www.w3.org/2000/svg" xmlns:xlink="http://www.w3.org/1999/xlink">
    <!-- Generator: Sketch 59.1 (86144) - https://sketch.com -->
    <title>Icon/Categories/Action/refresh</title>
    <desc>Created with Sketch.</desc>
    <g id="Icon/Categories/Action/refresh" stroke="none" stroke-width="1" fill="none" fill-rule="evenodd">
        <path d="M18.3995361,12 C17.921936,12 17.7301186,12.382058 17.7002563,12.6559871 C17.4007568,15.4033203 14.9040494,17.6602783 11.9989339,17.6602783 C8.90124512,17.6602783 6.29931641,15.3127232 6.29931641,11.8877497 C6.29931641,8.46277614 8.90394778,6.13302676 11.8597787,6.11541748 C11.9383877,6.1118454 11.9999078,6.17614283 11.9999078,6.25830065 L11.9999078,7.48389048 C11.9999078,7.93397248 12.4749796,8.20545051 12.8406824,7.96612119 L15.4971193,6.13327788 C15.8388976,5.90823688 15.8388976,5.11484686 15.4971193,4.88980586 L12.8441001,3.08894988 C12.4783974,2.84962057 12.0033255,3.1210986 12.0033255,3.57118059 L12.0033255,4.63261615 C12.0033255,4.7112019 11.9452232,4.77549933 11.870032,4.77549933 C8.30963837,4.77549933 5,7.86768299 5,11.8877497 C5,15.9078163 8.22249344,19 11.9989339,19 C15.4440591,19 18.7176095,16.2602152 18.9978678,12.7452891 C19.02521,12.4345182 18.8771362,12 18.3995361,12 Z" id="Path" fill="#091D42"></path>
    </g>
</svg>