<?xml version="1.0" encoding="UTF-8"?>
<svg width="24px" height="24px" viewBox="0 0 24 24" version="1.1" xmlns="http://www.w3.org/2000/svg" xmlns:xlink="http://www.w3.org/1999/xlink">
    <!-- Generator: Sketch 59.1 (86144) - https://sketch.com -->
    <title>Icon/Categories/Action/repeat</title>
    <desc>Created with Sketch.</desc>
    <g id="Icon/Categories/Action/repeat" stroke="none" stroke-width="1" fill="none" fill-rule="evenodd">
        <path d="M15.778125,7.29218266 L14.203125,5.69501558 C14.0390625,5.52764777 13.8046875,5.46070065 13.565625,5.52286584 C13.509375,5.53721165 13.453125,5.56112133 13.4015625,5.5945949 C13.18125,5.73327108 13.0640625,5.96758601 13.0828125,6.22102869 C13.0921875,6.38361456 13.171875,6.53663656 13.284375,6.65618499 L14.034375,7.41651303 L6.65625,7.41651303 C5.68125,7.41651303 4.7671875,7.80384996 4.0734375,8.51157669 C3.3796875,9.21452148 3,10.1469993 3,11.1416422 L3,11.9067522 C3,12.2749614 3.2953125,12.5762235 3.65625,12.5762235 C4.0171875,12.5762235 4.3125,12.2749614 4.3125,11.9067522 L4.3125,11.1416422 C4.3125,10.5056446 4.55625,9.9079024 5.0015625,9.45361835 C5.446875,8.9993343 6.0328125,8.75067356 6.65625,8.75067356 L13.940625,8.75067356 L13.190625,9.5110016 C13.078125,9.6257681 13.003125,9.76922622 12.9890625,9.92703015 C12.9703125,10.1278715 13.040625,10.323931 13.18125,10.4673891 C13.303125,10.5917194 13.471875,10.6634485 13.6453125,10.6634485 C13.81875,10.6634485 13.9828125,10.5965014 14.109375,10.4673891 L15.778125,8.77458325 C15.975,8.57852381 16.0828125,8.31073532 16.0828125,8.03338295 C16.078125,7.75124865 15.9703125,7.48824209 15.778125,7.29218266 L15.778125,7.29218266 Z M19.6875,12.0980297 L19.6875,12.8631397 C19.6875,13.4991374 19.44375,14.0968795 18.9984375,14.5511636 C18.553125,15.0054476 17.9671875,15.2541084 17.34375,15.2541084 L10.059375,15.2541084 L10.809375,14.4937803 C10.921875,14.3790138 10.996875,14.2355557 11.0109375,14.0729698 C11.0296875,13.8721285 10.959375,13.676069 10.81875,13.5326109 C10.696875,13.4082806 10.528125,13.3365515 10.3546875,13.3365515 C10.18125,13.3365515 10.0171875,13.4034986 9.890625,13.5326109 L8.221875,15.2254168 C8.025,15.4214762 7.9171875,15.6892647 7.9171875,15.966617 C7.9171875,16.2487514 8.025,16.5117579 8.221875,16.7078173 L9.796875,18.3049844 C9.9609375,18.4723522 10.1953125,18.5392994 10.434375,18.4771342 C10.490625,18.4627884 10.546875,18.4388787 10.5984375,18.4054051 C10.81875,18.2667289 10.9359375,18.032414 10.9171875,17.7789713 C10.9078125,17.6163854 10.828125,17.4633634 10.715625,17.343815 L9.965625,16.583487 L17.34375,16.583487 C19.359375,16.583487 21,14.9098089 21,12.8535758 L21,12.0884658 C21,11.7298205 20.7046875,11.4285585 20.34375,11.4285585 C19.9828125,11.4285585 19.6875,11.7298205 19.6875,12.0980297 Z" id="Shape" fill="#091D42"></path>
    </g>
</svg>