<?xml version="1.0" encoding="UTF-8"?>
<svg width="24px" height="24px" viewBox="0 0 24 24" version="1.1" xmlns="http://www.w3.org/2000/svg" xmlns:xlink="http://www.w3.org/1999/xlink">
    <!-- Generator: Sketch 59.1 (86144) - https://sketch.com -->
    <title>Icon/Categories/Action/search</title>
    <desc>Created with Sketch.</desc>
    <g id="Icon/Categories/Action/search" stroke="none" stroke-width="1" fill="none" fill-rule="evenodd">
        <path d="M19.812307,18.8419682 L15.3623613,14.351471 C16.233184,13.2600885 16.7581776,11.8771153 16.7581776,10.3733403 C16.7581776,6.85342359 13.9040458,4 10.3790888,4 C6.85413183,4 4,6.85758917 4,10.3775059 C4,13.8974225 6.85413183,16.7508461 10.3790888,16.7508461 C11.9040702,16.7508461 13.2998865,16.2176517 14.399873,15.3262171 L18.8206524,19.7875553 C18.9539841,19.9291851 19.1373152,20 19.3164797,20 C19.4873109,20 19.6581422,19.9375163 19.7873073,19.8125488 C20.0623039,19.5501172 20.0706372,19.1168966 19.812307,18.8419682 Z M10.3790888,15.3803697 C9.04160512,15.3803697 7.78328715,14.859672 6.83746536,13.9140849 C5.89164358,12.9684978 5.3708166,11.7104921 5.3708166,10.3775059 C5.3708166,9.04035407 5.89164358,7.78234835 6.83746536,6.84092684 C7.78328715,5.89533976 9.04160512,5.37464202 10.3790888,5.37464202 C11.7165725,5.37464202 12.9748904,5.89533976 13.9207122,6.84092684 C14.866534,7.78651393 15.387361,9.04451966 15.387361,10.3775059 C15.387361,11.7146576 14.866534,12.9726634 13.9207122,13.9140849 C12.9748904,14.859672 11.7165725,15.3803697 10.3790888,15.3803697 Z" id="Shape" fill="#091D42"></path>
    </g>
</svg>