<?xml version="1.0" encoding="UTF-8"?>
<svg width="24px" height="24px" viewBox="0 0 24 24" version="1.1" xmlns="http://www.w3.org/2000/svg" xmlns:xlink="http://www.w3.org/1999/xlink">
    <!-- Generator: Sketch 59.1 (86144) - https://sketch.com -->
    <title>Icon/Categories/Action/setting</title>
    <desc>Created with Sketch.</desc>
    <g id="Icon/Categories/Action/setting" stroke="none" stroke-width="1" fill="none" fill-rule="evenodd">
        <path d="M19.5140625,11.9976569 C19.5140625,11.0135381 20.128125,10.1746941 21,9.83728196 C20.7703125,8.87659464 20.390625,7.97682895 19.8890625,7.1614163 C19.5890625,7.29263213 19.2703125,7.36292632 18.946875,7.36292632 C18.35625,7.36292632 17.765625,7.1379849 17.3109375,6.68810206 C16.6125,5.98984639 16.4578125,4.96355116 16.8328125,4.11064827 C16.021875,3.60921635 15.1171875,3.2296277 14.1609375,3 C13.828125,3.86696173 12.984375,4.48555064 12,4.48555064 C11.015625,4.48555064 10.171875,3.86696173 9.8390625,3 C8.878125,3.2296277 7.978125,3.60921635 7.1625,4.11064827 C7.5421875,4.95886488 7.3828125,5.98984639 6.684375,6.68810206 C6.234375,7.1379849 5.6390625,7.36292632 5.0484375,7.36292632 C4.725,7.36292632 4.40625,7.29731841 4.10625,7.1614163 C3.609375,7.98151523 3.2296875,8.88128092 3,9.84196824 C3.8671875,10.1746941 4.4859375,11.0135381 4.4859375,12.0023431 C4.4859375,12.9864619 3.871875,13.8253059 3.0046875,14.162718 C3.234375,15.1234054 3.6140625,16.023171 4.115625,16.8385837 C4.415625,16.7073679 4.734375,16.64176 5.053125,16.64176 C5.64375,16.64176 6.234375,16.8667014 6.6890625,17.3165842 C7.3828125,18.0101536 7.5421875,19.0411351 7.1671875,19.8893517 C7.9828125,20.3907837 8.8875,20.7703723 9.84375,21 C10.1765625,20.1330383 11.015625,19.5191356 12,19.5191356 C12.984375,19.5191356 13.8234375,20.1330383 14.15625,21 C15.1171875,20.7703723 16.0171875,20.3907837 16.8328125,19.8893517 C16.4578125,19.0411351 16.6171875,18.0148399 17.3109375,17.3165842 C17.7609375,16.8667014 18.3515625,16.64176 18.946875,16.64176 C19.265625,16.64176 19.5890625,16.7073679 19.884375,16.8385837 C20.3859375,16.023171 20.765625,15.1187191 20.9953125,14.162718 C20.1328125,13.8253059 19.5140625,12.9864619 19.5140625,11.9976569 Z M12.0421875,15.7419943 C9.965625,15.7419943 8.2921875,14.0596199 8.2921875,11.9929706 C8.2921875,9.92632127 9.965625,8.24394689 12.0421875,8.24394689 C14.11875,8.24394689 15.7921875,9.92632127 15.7921875,11.9929706 C15.7921875,14.0596199 14.11875,15.7419943 12.0421875,15.7419943 Z" id="Shape" fill="#091D42"></path>
    </g>
</svg>