<?xml version="1.0" encoding="UTF-8"?>
<svg width="24px" height="24px" viewBox="0 0 24 24" version="1.1" xmlns="http://www.w3.org/2000/svg" xmlns:xlink="http://www.w3.org/1999/xlink">
    <!-- Generator: Sketch 59.1 (86144) - https://sketch.com -->
    <title>Icon/Categories/Action/speedometer</title>
    <desc>Created with Sketch.</desc>
    <g id="Icon/Categories/Action/speedometer" stroke="none" stroke-width="1" fill="none" fill-rule="evenodd">
        <path d="M12,4.5 C7.02991071,4.5 3,8.4140625 3,13.2460938 C3,15.4726562 3.85580357,17.5039062 5.26205357,19.046875 C5.30625,19.09375 5.34642857,19.140625 5.390625,19.1835938 C5.58348214,19.3828125 5.85267857,19.5 6.13392857,19.5 C6.41919643,19.5 6.68839286,19.3828125 6.88125,19.1796875 C8.15089286,17.8359375 9.975,16.9960938 12,16.9960938 C14.025,16.9960938 15.8491071,17.8398438 17.11875,19.1796875 C17.3116071,19.3828125 17.5808036,19.5 17.8660714,19.5 C18.1473214,19.5 18.4165179,19.3867188 18.609375,19.1835938 C18.6535714,19.1367188 18.69375,19.09375 18.7379464,19.046875 C20.1441964,17.5039062 21,15.4726562 21,13.2460938 C21,8.4140625 16.9700893,4.5 12,4.5 Z M11.4375,6.29296875 C11.4375,5.9921875 11.690625,5.74609375 12,5.74609375 C12.309375,5.74609375 12.5625,5.9921875 12.5625,6.29296875 L12.5625,7.69921875 C12.5625,8 12.309375,8.24609375 12,8.24609375 C11.690625,8.24609375 11.4375,8 11.4375,7.69921875 L11.4375,6.29296875 Z M6.29464286,13.7929687 L4.84821429,13.7929687 C4.53883929,13.7929687 4.28571429,13.546875 4.28571429,13.2460937 C4.28571429,12.9453125 4.53883929,12.6992187 4.84821429,12.6992187 L6.29464286,12.6992187 C6.60401786,12.6992187 6.85714286,12.9453125 6.85714286,13.2460937 C6.85714286,13.546875 6.60401786,13.7929687 6.29464286,13.7929687 Z M8.36383929,9.7109375 C8.146875,9.921875 7.78526786,9.921875 7.56830357,9.7109375 L6.54375,8.71875 C6.32678571,8.5078125 6.32678571,8.15625 6.54375,7.9453125 C6.76071429,7.734375 7.12232143,7.734375 7.33928571,7.9453125 L8.36383929,8.94140625 C8.58080357,9.15234375 8.58080357,9.5 8.36383929,9.7109375 Z M14.8165179,11.0585937 L12.9080357,14.0078125 C12.8316964,14.109375 12.7352679,14.2070312 12.6267857,14.28125 C12.084375,14.6601562 11.3290179,14.5351562 10.9392857,14.0078125 C10.5495536,13.4804687 10.678125,12.7460937 11.2205357,12.3671875 L14.2540179,10.5117187 C14.390625,10.4179687 14.5794643,10.4140625 14.7241071,10.5117187 C14.9049107,10.6367187 14.9450893,10.8828125 14.8165179,11.0585937 Z M16.4316964,9.7109375 C16.2147321,9.921875 15.853125,9.921875 15.6361607,9.7109375 C15.4191964,9.5 15.4191964,9.1484375 15.6361607,8.9375 L16.6607143,7.94140625 C16.8776786,7.73046875 17.2392857,7.73046875 17.45625,7.94140625 C17.6732143,8.15234375 17.6732143,8.50390625 17.45625,8.71484375 L16.4316964,9.7109375 Z M19.1517857,13.7929687 L17.7053571,13.7929687 C17.3959821,13.7929687 17.1428571,13.546875 17.1428571,13.2460937 C17.1428571,12.9453125 17.3959821,12.6992187 17.7053571,12.6992187 L19.1517857,12.6992187 C19.4611607,12.6992187 19.7142857,12.9453125 19.7142857,13.2460937 C19.7142857,13.546875 19.4611607,13.7929687 19.1517857,13.7929687 Z" id="Shape" fill="#091D42"></path>
    </g>
</svg>