<?xml version="1.0" encoding="UTF-8"?>
<svg width="24px" height="24px" viewBox="0 0 24 24" version="1.1" xmlns="http://www.w3.org/2000/svg" xmlns:xlink="http://www.w3.org/1999/xlink">
    <!-- Generator: Sketch 59.1 (86144) - https://sketch.com -->
    <title>Icon/Categories/Action/starOutline</title>
    <desc>Created with Sketch.</desc>
    <g id="Icon/Categories/Action/starOutline" stroke="none" stroke-width="1" fill="none" fill-rule="evenodd">
        <path d="M20.3169643,9.38461538 L14.4066964,9.38461538 L12.6107143,3.93317308 C12.5223214,3.66754808 12.2772321,3.5 12,3.5 C11.7227679,3.5 11.4776786,3.66754808 11.3892857,3.93317308 L9.59330357,9.38461538 L3.64285714,9.38461538 C3.28928571,9.38461538 3,9.67884615 3,10.0384615 C3,10.0752404 3.00401786,10.1161058 3.01205357,10.1487981 C3.02008929,10.2918269 3.084375,10.4512019 3.28125,10.6105769 L8.13883929,14.0923077 L6.27455357,19.6050481 C6.18214286,19.8706731 6.27455357,20.1689904 6.49553571,20.340625 C6.61205357,20.4264423 6.72053571,20.5 6.85714286,20.5 C6.98973214,20.5 7.14642857,20.4305288 7.25892857,20.3528846 L12,16.9161058 L16.7410714,20.3528846 C16.8535714,20.4346154 17.0102679,20.5 17.1428571,20.5 C17.2794643,20.5 17.3879464,20.4305288 17.5004464,20.340625 C17.7254464,20.1689904 17.8138393,19.8747596 17.7214286,19.6050481 L15.8571429,14.0923077 L20.6745536,10.5778846 L20.7910714,10.4757212 C20.8955357,10.3612981 21,10.2060096 21,10.0384615 C21,9.67884615 20.6705357,9.38461538 20.3169643,9.38461538 Z M15.20625,13.1646635 C14.8044643,13.4588942 14.6357143,13.9901442 14.7964286,14.4641827 L16.0058036,18.0480769 C16.0580357,18.1992788 15.8892857,18.3259615 15.7607143,18.2360577 L12.6508929,15.9802885 C12.4540179,15.8372596 12.225,15.7677885 11.9959821,15.7677885 C11.7669643,15.7677885 11.5379464,15.8372596 11.3450893,15.9802885 L8.23526786,18.2319712 C8.10669643,18.3259615 7.93794643,18.1951923 7.99017857,18.0439904 L9.19955357,14.4600962 C9.36026786,13.9778846 9.19151786,13.4466346 8.78571429,13.1524038 L5.53125,10.8189904 C5.40267857,10.7290865 5.46696429,10.5206731 5.62366071,10.5206731 L9.58928571,10.5206731 C10.0714286,10.5206731 10.5013393,10.2060096 10.6540179,9.74014423 L11.8433036,6.13581731 C11.8915179,5.98870192 12.1004464,5.98870192 12.1486607,6.13581731 L13.3379464,9.74014423 C13.490625,10.2060096 13.9205357,10.5206731 14.4026786,10.5206731 L18.3120536,10.5206731 C18.46875,10.5206731 18.5330357,10.725 18.4044643,10.8149038 L15.20625,13.1646635 L15.20625,13.1646635 Z" id="Shape" fill="#091D42"></path>
    </g>
</svg>