<?xml version="1.0" encoding="UTF-8"?>
<svg width="24px" height="24px" viewBox="0 0 24 24" version="1.1" xmlns="http://www.w3.org/2000/svg" xmlns:xlink="http://www.w3.org/1999/xlink">
    <!-- Generator: Sketch 59.1 (86144) - https://sketch.com -->
    <title>Icon/Categories/Action/star</title>
    <desc>Created with Sketch.</desc>
    <g id="Icon/Categories/Action/star" stroke="none" stroke-width="1" fill="none" fill-rule="evenodd">
        <path d="M20.3169643,9.38461538 L14.4066964,9.38461538 L12.6107143,3.93317308 C12.5223214,3.66754808 12.2772321,3.5 12,3.5 C11.7227679,3.5 11.4776786,3.66754808 11.3892857,3.93317308 L9.59330357,9.38461538 L3.64285714,9.38461538 C3.28928571,9.38461538 3,9.67884615 3,10.0384615 C3,10.0752404 3.00401786,10.1161058 3.01205357,10.1487981 C3.02008929,10.2918269 3.084375,10.4512019 3.28125,10.6105769 L8.13883929,14.0923077 L6.27455357,19.6050481 C6.18214286,19.8706731 6.27455357,20.1689904 6.49553571,20.340625 C6.61205357,20.4264423 6.72053571,20.5 6.85714286,20.5 C6.98973214,20.5 7.14642857,20.4305288 7.25892857,20.3528846 L12,16.9161058 L16.7410714,20.3528846 C16.8535714,20.4346154 17.0102679,20.5 17.1428571,20.5 C17.2794643,20.5 17.3879464,20.4305288 17.5004464,20.340625 C17.7254464,20.1689904 17.8138393,19.8747596 17.7214286,19.6050481 L15.8571429,14.0923077 L20.6745536,10.5778846 L20.7910714,10.4757212 C20.8955357,10.3612981 21,10.2060096 21,10.0384615 C21,9.67884615 20.6705357,9.38461538 20.3169643,9.38461538 Z" id="Path" fill="#091D42"></path>
    </g>
</svg>