<?xml version="1.0" encoding="UTF-8"?>
<svg width="24px" height="24px" viewBox="0 0 24 24" version="1.1" xmlns="http://www.w3.org/2000/svg" xmlns:xlink="http://www.w3.org/1999/xlink">
    <!-- Generator: Sketch 59.1 (86144) - https://sketch.com -->
    <title>Icon/Categories/Action/thumbsDown</title>
    <desc>Created with Sketch.</desc>
    <g id="Icon/Categories/Action/thumbsDown" stroke="none" stroke-width="1" fill="none" fill-rule="evenodd">
        <path d="M5.15268369,6.89930305 C4.85956227,7.14155251 4.5,7.518385 4.5,8.10670512 C4.5,8.63350156 4.72277228,8.98341745 4.92600313,9.22566691 C4.94945284,9.27180966 4.96899427,9.31410719 4.9885357,9.35640471 L4.99635227,9.39870224 C5.02371027,9.53328527 4.99635227,9.67171353 4.91818656,9.78322519 C4.78530485,9.97548666 4.69150599,10.2561884 4.69150599,10.7714492 C4.69150599,11.2174958 4.8791037,11.4789714 5.07060969,11.6635424 C5.24257426,11.8288873 5.30901511,12.1441961 5.2308494,12.3672194 C5.04325169,12.9017063 5.22303283,13.4592646 5.55132882,13.8207162 C5.9616988,14.2744533 6.34471079,14.3282865 7.36477332,14.270608 C8.06826472,14.2283105 9.53387181,14.0052872 10.4992183,13.8553232 C10.8939552,13.7937996 11.2378843,13.7399664 11.343408,13.7322759 C11.8397603,13.6822879 11.9374674,13.7322759 11.9843669,13.9206921 C12.0039083,14.001442 11.9101094,14.186013 11.7928609,14.420572 C11.6365294,14.7320356 11.4215737,15.158856 11.2261595,15.7971641 C10.8314226,17.0737803 10.8744138,18.458063 11.3316832,19.2655612 C11.5466389,19.6462389 11.9101094,20 12.3595623,20 C12.8090151,20 13.2701928,19.9077145 13.4499739,19.6962269 C13.5828557,19.5424177 13.5398645,19.2501802 13.6922876,18.6657054 C13.8134445,18.1888969 13.9658676,17.4775294 14.1612819,17.050709 C14.4544033,16.4124009 15.7128713,15.3165105 16.3890047,14.7281903 C16.5492444,14.5897621 16.6860344,14.47056 16.7837415,14.3782745 C17.1237624,14.0668109 17.4715998,13.566931 17.7803544,13.1208844 C17.9914018,12.8209565 18.1868161,12.5364095 18.3157895,12.4095169 C18.5932777,12.1365056 18.9645649,11.9903869 19.1873372,11.9903869 C19.3593017,11.9903869 19.5,11.8519587 19.5,11.6827686 L19.5,5.54962749 C19.5,5.37274694 19.3553934,5.23047344 19.1756123,5.23047344 C17.7881709,5.23047344 17.2019281,5.00745013 16.5805107,4.77673636 C16.1036998,4.59601057 15.6073476,4.41143956 14.7670662,4.31146359 C13.5007817,4.15765441 11.8671183,4 10.3663366,4 C9.56904638,4 8.80693069,4.07690459 8.154247,4.14996395 C6.94267848,4.28839221 5.64512767,4.56524874 5.21521626,5.57269887 C5.05497655,5.94568613 5.12923398,6.24945926 5.23475769,6.48401826 C5.25039083,6.5147801 5.26211569,6.54938717 5.26602397,6.58399423 C5.28947368,6.71088681 5.24257426,6.82624369 5.15268369,6.89930305 Z" id="Path" fill="#091D42"></path>
    </g>
</svg>