<?xml version="1.0" encoding="UTF-8"?>
<svg width="24px" height="24px" viewBox="0 0 24 24" version="1.1" xmlns="http://www.w3.org/2000/svg" xmlns:xlink="http://www.w3.org/1999/xlink">
    <!-- Generator: Sketch 59.1 (86144) - https://sketch.com -->
    <title>Icon/Categories/Action/thumbsUp</title>
    <desc>Created with Sketch.</desc>
    <g id="Icon/Categories/Action/thumbsUp" stroke="none" stroke-width="1" fill="none" fill-rule="evenodd">
        <path d="M18.8473163,17.1006969 C19.1404377,16.8584475 19.5,16.481615 19.5,15.8932949 C19.5,15.3664984 19.2772277,15.0165826 19.0739969,14.7743331 C19.0505472,14.7281903 19.0310057,14.6858928 19.0114643,14.6435953 L19.0036477,14.6012978 C18.9762897,14.4667147 19.0036477,14.3282865 19.0818134,14.2167748 C19.2146952,14.0245133 19.308494,13.7438116 19.308494,13.2285508 C19.308494,12.7825042 19.1208963,12.5210286 18.9293903,12.3364576 C18.7574257,12.1711127 18.6909849,11.8558039 18.7691506,11.6327806 C18.9567483,11.0982937 18.7769672,10.5407354 18.4486712,10.1792838 C18.0383012,9.72554674 17.6552892,9.67171353 16.6352267,9.72939197 C15.9317353,9.7716895 14.4661282,9.99471281 13.5007817,10.1446768 C13.1060448,10.2062004 12.7621157,10.2600336 12.656592,10.2677241 C12.1602397,10.3177121 12.0625326,10.2677241 12.0156331,10.0793079 C11.9960917,9.99855804 12.0898906,9.81398702 12.2071391,9.57942802 C12.3634706,9.26796443 12.5784263,8.84114396 12.7738405,8.20283586 C13.1685774,6.92621966 13.1255862,5.54193703 12.6683168,4.73443884 C12.4533611,4.35376112 12.0898906,4 11.6404377,4 C11.1909849,4 10.7298072,4.09228551 10.5500261,4.30377313 C10.4171443,4.45758231 10.4601355,4.74981975 10.3077124,5.33429464 C10.1865555,5.8111031 10.0341324,6.52247056 9.83871808,6.94929104 C9.54559666,7.58759913 8.28712871,8.68348955 7.61099531,9.27180966 C7.4507556,9.41023792 7.31396561,9.52944004 7.21625847,9.62172555 C6.87623762,9.93318914 6.52840021,10.433069 6.21964565,10.8791156 C6.00859823,11.1790435 5.81318395,11.4635905 5.68421053,11.5904831 C5.40672225,11.8634944 5.03543512,12.0096131 4.81266285,12.0096131 C4.64069828,12.0096131 4.5,12.1480413 4.5,12.3172314 L4.5,18.4503725 C4.5,18.6272531 4.64460657,18.7695266 4.8243877,18.7695266 C6.21182908,18.7695266 6.79807191,18.9925499 7.41948932,19.2232636 C7.89630016,19.4039894 8.39265242,19.5885604 9.23293382,19.6885364 C10.4992183,19.8423456 12.1328817,20 13.6336634,20 C14.4309536,20 15.1930693,19.9230954 15.845753,19.850036 C17.0573215,19.7116078 18.3548723,19.4347513 18.7847837,18.4273011 C18.9450234,18.0543139 18.870766,17.7505407 18.7652423,17.5159817 C18.7496092,17.4852199 18.7378843,17.4506128 18.733976,17.4160058 C18.7105263,17.2891132 18.7574257,17.1737563 18.8473163,17.1006969 Z" id="Path" fill="#091D42"></path>
    </g>
</svg>