<?xml version="1.0" encoding="UTF-8"?>
<svg width="24px" height="24px" viewBox="0 0 24 24" version="1.1" xmlns="http://www.w3.org/2000/svg" xmlns:xlink="http://www.w3.org/1999/xlink">
    <!-- Generator: Sketch 59.1 (86144) - https://sketch.com -->
    <title>Icon/Categories/Time/timer</title>
    <desc>Created with Sketch.</desc>
    <g id="Icon/Categories/Time/timer" stroke="none" stroke-width="1" fill="none" fill-rule="evenodd">
        <path d="M11.9977494,3 C16.9624906,3 21,7.0365 21,12 C21,16.9635 16.9669917,21 12.0022506,21 C7.03750938,21 3,16.9635 3,12 C3,9.534 3.97674419,7.2345 5.75468867,5.52 C6.04276069,5.241 6.50187547,5.25 6.77644411,5.538 C7.05551388,5.826 7.04651163,6.285 6.75843961,6.5595 C5.26856714,7.9995 4.44936234,9.93 4.44936234,12 C4.44936234,16.1625 7.83870968,19.551 12.0022506,19.551 C16.1657914,19.551 19.5551388,16.1625 19.5551388,12 C19.5551388,8.0805 16.5528882,4.845 12.7224306,4.4805 L12.7224306,7.2975 C12.7224306,7.698 12.3983496,8.022 11.9977494,8.022 C11.5971493,8.022 11.2730683,7.698 11.2730683,7.2975 L11.2730683,3.7245 C11.2730683,3.324 11.5971493,3 11.9977494,3 Z M8.39684921,7.7655 L12.8754689,10.983 C13.4831208,11.4195 13.6271568,12.2655 13.1905476,12.873 C12.7539385,13.4805 11.9077269,13.6245 11.300075,13.188 C11.1740435,13.098 11.0660165,12.99 10.9849962,12.873 L7.76669167,8.3955 C7.62265566,8.193 7.66766692,7.9095 7.87021755,7.7655 C8.03225806,7.6485 8.24381095,7.6575 8.39684921,7.7655 Z" id="Combined-Shape" fill="#091D42"></path>
    </g>
</svg>