<?xml version="1.0" encoding="UTF-8"?>
<svg width="24px" height="24px" viewBox="0 0 24 24" version="1.1" xmlns="http://www.w3.org/2000/svg" xmlns:xlink="http://www.w3.org/1999/xlink">
    <!-- Generator: Sketch 59.1 (86144) - https://sketch.com -->
    <title>Icon/Categories/Time/time</title>
    <desc>Created with Sketch.</desc>
    <g id="Icon/Categories/Time/time" stroke="none" stroke-width="1" fill="none" fill-rule="evenodd">
        <path d="M12,3 C7.02836538,3 3,7.02836538 3,12 C3,16.9716346 7.02836538,21 12,21 C16.9716346,21 21,16.9716346 21,12 C21,7.02836538 16.9716346,3 12,3 Z M12.6057692,12.7788462 C12.6057692,13.1120192 12.3331731,13.3846154 12,13.3846154 L7.84615385,13.3846154 C7.51298077,13.3846154 7.24038462,13.1120192 7.24038462,12.7788462 C7.24038462,12.4456731 7.51298077,12.1730769 7.84615385,12.1730769 L11.3942308,12.1730769 L11.3942308,6.46153846 C11.3942308,6.12836538 11.6668269,5.85576923 12,5.85576923 C12.3331731,5.85576923 12.6057692,6.12836538 12.6057692,6.46153846 L12.6057692,12.7788462 Z" id="Shape" fill="#091D42"></path>
    </g>
</svg>