<?xml version="1.0" encoding="UTF-8"?>
<svg width="24px" height="24px" viewBox="0 0 24 24" version="1.1" xmlns="http://www.w3.org/2000/svg" xmlns:xlink="http://www.w3.org/1999/xlink">
    <!-- Generator: Sketch 59.1 (86144) - https://sketch.com -->
    <title>Icon/Categories/Social/twitter</title>
    <desc>Created with Sketch.</desc>
    <g id="Icon/Categories/Social/twitter" stroke="none" stroke-width="1" fill="none" fill-rule="evenodd">
        <path d="M21,6.27734375 C20.3363001,6.578125 19.6268277,6.78125 18.8792117,6.875 C19.6420852,6.40625 20.2294978,5.6640625 20.5041322,4.78125 C19.7908455,5.21484375 19.0012715,5.53125 18.1582962,5.69921875 C17.4831532,4.9609375 16.5219326,4.5 15.4615385,4.5 C13.4208519,4.5 11.7692308,6.1953125 11.7692308,8.28515625 C11.7692308,8.58203125 11.7997457,8.87109375 11.86459,9.1484375 C8.79402416,8.9921875 6.0705658,7.484375 4.25111252,5.19140625 C3.93452003,5.75 3.75143039,6.40234375 3.75143039,7.09375 C3.75143039,8.40625 4.40750159,9.56640625 5.39923713,10.2460938 C4.78893833,10.2304688 4.21678322,10.0585938 3.72091545,9.7734375 L3.72091545,9.8203125 C3.72091545,11.65625 4.99491418,13.1835938 6.68467896,13.53125 C6.37571519,13.6171875 6.04767959,13.6640625 5.71201526,13.6640625 C5.47552448,13.6640625 5.24284806,13.640625 5.01780038,13.59375 C5.48696758,15.0976562 6.85251113,16.1914062 8.46980292,16.2226562 C7.2072473,17.2382812 5.6128417,17.84375 3.88111888,17.84375 C3.58359822,17.84375 3.28989193,17.8242188 3,17.7890625 C4.6287349,18.875 6.57024793,19.5 8.65289256,19.5 C15.4539097,19.5 19.1691036,13.7304688 19.1691036,8.7265625 C19.1691036,8.5625 19.1652893,8.3984375 19.1576605,8.23828125 C19.878576,7.703125 20.5041322,7.0390625 21,6.27734375 Z" id="Path" fill="#091D42"></path>
    </g>
</svg>