<?xml version="1.0" encoding="UTF-8"?>
<svg width="24px" height="24px" viewBox="0 0 24 24" version="1.1" xmlns="http://www.w3.org/2000/svg" xmlns:xlink="http://www.w3.org/1999/xlink">
    <!-- Generator: Sketch 59.1 (86144) - https://sketch.com -->
    <title>Icon/Categories/File/videoCam</title>
    <desc>Created with Sketch.</desc>
    <g id="Icon/Categories/File/videoCam" stroke="none" stroke-width="1" fill="none" fill-rule="evenodd">
        <path d="M19.81875,8 C19.6861607,8 19.5575893,8.03515625 19.4450893,8.10546875 L15.9696429,10.2382812 C15.8691964,10.3007812 15.8089286,10.40625 15.8089286,10.5195312 L15.8089286,13.4882812 C15.8089286,13.6015625 15.8691964,13.7070312 15.9696429,13.7695312 L19.4450893,15.9023438 C19.5575893,15.96875 19.6861607,16.0078125 19.81875,16.0078125 L20.6544643,16.0078125 C20.8473214,16.0078125 21,15.859375 21,15.6757812 L21,8.33203125 C21,8.1484375 20.8433036,8 20.6544643,8 L19.81875,8 Z M12.703125,17 L5.06919643,17 C3.93214286,17 3,16.09375 3,14.9921875 L3,9.0078125 C3,7.90234375 3.93214286,7 5.06517857,7 L12.6991071,7 C13.8361607,7 14.7642987,7.90625 14.7642987,9.0078125 L14.7642987,14.9882812 C14.7683036,16.09375 13.8401786,17 12.703125,17 L12.703125,17 Z" id="Shape" fill="#091D42"></path>
    </g>
</svg>