<?xml version="1.0" encoding="UTF-8"?>
<svg width="24px" height="24px" viewBox="0 0 24 24" version="1.1" xmlns="http://www.w3.org/2000/svg" xmlns:xlink="http://www.w3.org/1999/xlink">
    <!-- Generator: Sketch 59.1 (86144) - https://sketch.com -->
    <title>Icon/Categories/Alert/warning</title>
    <desc>Created with Sketch.</desc>
    <g id="Icon/Categories/Alert/warning" stroke="none" stroke-width="1" fill="none" fill-rule="evenodd">
        <path d="M10.8265322,4.6625 L3.16443024,18.1291667 C2.67987043,18.9708333 3.32450803,20 4.33689192,20 L19.6654223,20 C20.6734797,20 21.3181173,18.9708333 20.837884,18.1291667 L13.1714556,4.6625 C12.6652636,3.77916667 11.3327241,3.77916667 10.8265322,4.6625 Z M12.760445,10.25 L12.6046936,15.3333333 L11.3932941,15.3333333 L11.2375428,10.25 L12.760445,10.25 Z M11.9989939,18.1 C11.5360662,18.1 11.1726464,17.7625 11.1726464,17.3333333 C11.1726464,16.9041667 11.5360662,16.5666667 11.9989939,16.5666667 C12.4619216,16.5666667 12.8253414,16.9041667 12.8253414,17.3333333 C12.8253414,17.7625 12.4619216,18.1 11.9989939,18.1 Z" id="Shape" fill="#091D42"></path>
    </g>
</svg>