<?xml version="1.0" encoding="UTF-8"?>
<svg width="24px" height="24px" viewBox="0 0 24 24" version="1.1" xmlns="http://www.w3.org/2000/svg" xmlns:xlink="http://www.w3.org/1999/xlink">
    <!-- Generator: Sketch 59.1 (86144) - https://sketch.com -->
    <title>Icon/Categories/Social/youtube</title>
    <desc>Created with Sketch.</desc>
    <g id="Icon/Categories/Social/youtube" stroke="none" stroke-width="1" fill="none" fill-rule="evenodd">
        <path d="M20.8831569,8.09149473 C20.8831569,6.45096097 19.7193244,5.1312427 18.2812353,5.1312427 C16.3333101,5.03645631 14.3467077,5 12.317912,5 L11.6850122,5 C9.65973258,5 7.6696141,5.03645631 5.72168895,5.1312427 C4.28711591,5.1312427 3.12328337,6.45825223 3.12328337,8.09878599 C3.03538061,9.39663048 2.99670339,10.694475 3.0002195,11.9923195 C2.99670339,13.2901639 3.03538061,14.5880084 3.11976726,15.8894985 C3.11976726,17.5300323 4.2835998,18.8606875 5.71817283,18.8606875 C7.76454908,18.9591195 9.86366698,19.0028671 11.997946,18.9992214 C14.1357411,19.0065127 16.2278268,18.9627651 18.2777191,18.8606875 C19.7158083,18.8606875 20.8796408,17.5300323 20.8796408,15.8894985 C20.9640275,14.5880084 21.0027047,13.2901639 20.9991886,11.9886738 C21.0062208,10.6908293 20.9675436,9.39298485 20.8831569,8.09149473 Z M10.278568,15.5686831 L10.278568,8.40501896 L15.3769281,11.9850282 L10.278568,15.5686831 L10.278568,15.5686831 Z" id="Shape" fill="#091D42"></path>
    </g>
</svg>