<?xml version="1.0" encoding="UTF-8"?>
<svg width="40px" height="40px" viewBox="0 0 40 40" version="1.1" xmlns="http://www.w3.org/2000/svg" xmlns:xlink="http://www.w3.org/1999/xlink">
    <title>Logos/Experts for Microsoft/Spot/White@svg</title>
    <g id="Logos" stroke="none" stroke-width="1" fill="none" fill-rule="evenodd">
        <g id="Combined-Shape" transform="translate(0.000000, -0.000000)" fill="#FFFFFF">
            <path d="M30,0 C35.4292399,0 39.8479317,4.32667079 39.9961582,9.72009516 L40,10 L40,40 L10,40 L9.72009516,39.9961582 C4.41966086,39.8504873 0.149512653,35.5803391 0.00384179753,30.2799048 L0,30 L0,10 L0.00384179753,9.72009516 C0.149512653,4.41966086 4.41966086,0.149512653 9.72009516,0.00384179753 L10,0 L30,0 Z M23,9 L12.3171875,9 L12.1904743,9.00632464 C11.5231834,9.07327053 11,9.66337608 11,10.3796028 L11,10.3796028 L11,29.6203972 L11.0060385,29.7531148 C11.0699557,30.4520254 11.633364,31 12.3171875,31 L12.3171875,31 L28.25,31 L28.3514106,30.9927947 C28.7164063,30.9405391 29,30.6105036 29,30.2144611 C29,29.7824146 28.6625,29.4289221 28.25,29.4289221 L28.25,29.4289221 L13.2734375,29.4289221 L13.1699533,29.4217624 C12.8301007,29.3745106 12.5473011,29.0981924 12.5046875,28.7366659 C12.453125,28.2604329 12.809375,27.8529346 13.25,27.8529346 L13.25,27.8529346 L23,27.8529346 L23,9 Z M27.6828125,9 L25.25,9 L25.25,27.8529346 L28.25,27.8529346 L28.3514106,27.8457293 C28.7164063,27.7934737 29,27.4634382 29,27.0673957 L29,27.0673957 L29,10.3796028 L28.9939615,10.2468852 C28.9300443,9.54797457 28.366636,9 27.6828125,9 L27.6828125,9 Z"></path>
        </g>
    </g>
</svg>