<?xml version="1.0" encoding="UTF-8"?>
<svg width="267px" height="40px" viewBox="0 0 267 40" version="1.1" xmlns="http://www.w3.org/2000/svg" xmlns:xlink="http://www.w3.org/1999/xlink">
    <title>Logos/Experts for Microsoft</title>
    <g id="Logos/Experts-for-Microsoft" stroke="none" stroke-width="1" fill="none" fill-rule="evenodd">
        <path d="M9.72009516,39.9961582 C4.32667079,39.8479317 0,35.4292399 0,30 L0,30 L0,10 L0.00384179753,9.72009516 C0.152068282,4.32667079 4.57076009,0 10,0 L10,0 L30,0 C35.5228475,0 40,4.4771525 40,10 L40,10 L40,40 L40,40 L10,40 Z" id="Chat-shape" fill="#375DE7"></path>
        <g id="Group-2" transform="translate(49.600000, 11.000000)" fill="#091D42">
            <path d="M121.230689,16.6599988 L121.230689,7.31674724 L125.927536,14.2281936 L126.871099,14.2281936 L131.567946,7.31674724 L131.567946,16.6599988 L134.419604,16.6599988 L134.419604,0.895928234 L132.595382,0.895928234 L126.409802,10.0898584 L120.203254,0.895928234 L118.4,0.895928234 L118.4,16.6599988 L121.230689,16.6599988 Z M139.032578,3.69037106 C140.018078,3.69037106 140.75196,2.96509582 140.75196,1.94117784 C140.75196,0.938591483 140.018078,0.191984622 139.032578,0.191984622 C138.047079,0.191984622 137.271261,0.938591483 137.271261,1.94117784 C137.271261,2.96509582 138.026111,3.69037106 139.032578,3.69037106 Z M140.374535,16.6599988 L140.374535,5.07692666 L137.627718,5.07692666 L137.627718,16.6599988 L140.374535,16.6599988 Z M148.510145,16.9159783 C150.8376,16.9159783 152.850535,15.7214073 153.836034,13.865556 L151.613419,12.5429953 C151.047281,13.6309081 149.810165,14.3561834 148.552081,14.3561834 C147.58755,14.3561834 146.790763,14.0148774 146.161721,13.353597 C145.532679,12.6923166 145.218158,11.8603833 145.218158,10.8577969 C145.218158,9.85521057 145.532679,9.02327721 146.182689,8.36199685 C146.8327,7.70071649 147.650454,7.35941049 148.635953,7.35941049 C149.894037,7.35941049 150.984377,8.0633541 151.655355,9.19393021 L153.87797,7.97802761 C152.955375,5.95152327 150.921473,4.79961554 148.594017,4.79961554 C146.790763,4.79961554 145.322999,5.3755694 144.190723,6.50614551 C143.058447,7.63672161 142.49231,9.08727209 142.49231,10.8577969 C142.49231,12.6283218 143.058447,14.0788722 144.169755,15.2094484 C145.302031,16.3400245 146.748827,16.9159783 148.510145,16.9159783 Z M158.449009,16.6599988 L158.449009,11.0071183 C158.449009,8.59664472 159.623221,7.44473699 161.321634,7.44473699 C161.740996,7.44473699 162.181325,7.53006349 162.642622,7.67938486 L162.873271,5.01293178 C162.45391,4.86361041 161.992612,4.77828391 161.510347,4.77828391 C160.105486,4.77828391 159.036115,5.41823265 158.344169,6.6767985 L158.344169,5.07692666 L155.72316,5.07692666 L155.72316,16.6599988 L158.449009,16.6599988 Z M169.83467,16.9586416 C171.616955,16.9586416 173.063752,16.3826877 174.196028,15.2094484 C175.349271,14.036209 175.915409,12.5856585 175.915409,10.8577969 C175.915409,9.15126696 175.349271,7.72204811 174.196028,6.54880876 C173.063752,5.3755694 171.616955,4.77828391 169.83467,4.77828391 C168.052384,4.77828391 166.605587,5.3755694 165.452343,6.54880876 C164.320068,7.72204811 163.75393,9.15126696 163.75393,10.8577969 C163.75393,12.5856585 164.320068,14.036209 165.452343,15.2094484 C166.605587,16.3826877 168.052384,16.9586416 169.83467,16.9586416 Z M169.83467,14.377515 C168.891107,14.377515 168.115288,14.036209 167.465278,13.353597 C166.815268,12.670985 166.500747,11.8390517 166.500747,10.8577969 C166.500747,9.89787382 166.815268,9.06594046 167.465278,8.38332847 C168.115288,7.70071649 168.891107,7.35941049 169.83467,7.35941049 C170.778233,7.35941049 171.554051,7.70071649 172.204061,8.38332847 C172.854071,9.06594046 173.168592,9.89787382 173.168592,10.8577969 C173.168592,11.8390517 172.854071,12.670985 172.204061,13.353597 C171.554051,14.036209 170.778233,14.377515 169.83467,14.377515 Z M181.723564,16.9586416 C183.044552,16.9586416 184.113924,16.6173356 184.931678,15.913392 C185.749433,15.2094484 186.147826,14.3348517 186.147826,13.2896021 C186.147826,12.0310363 185.497816,11.0497816 184.218764,10.3458379 C184.030051,10.2391798 183.107456,9.85521057 181.471947,9.19393021 C180.821937,8.95928234 180.486448,8.5753131 180.486448,8.0633541 C180.486448,7.44473699 181.01065,6.97544125 181.87034,6.97544125 C182.834871,6.97544125 183.694562,7.38074212 184.428445,8.17001223 L185.854273,6.39948738 C184.868774,5.26891128 183.568754,4.69295742 181.954213,4.69295742 C180.717097,4.69295742 179.710629,5.01293178 178.955779,5.65288052 C178.200928,6.29282926 177.823503,7.12476262 177.823503,8.12734898 C177.823503,9.4499097 178.452545,10.4311644 179.731597,11.0711132 C179.983214,11.1991029 180.46548,11.4124192 181.178394,11.6897303 C181.912276,11.9670414 182.373574,12.159026 182.562287,12.2656842 C183.128424,12.5429953 183.421977,12.9269645 183.421977,13.3749286 C183.421977,14.0575406 182.730031,14.5908312 181.744532,14.5908312 C180.633224,14.5908312 179.438044,13.9722141 178.683194,12.9482961 L177.131557,14.6548261 C178.200928,16.1693715 179.878374,16.9586416 181.723564,16.9586416 Z M193.69633,16.9586416 C195.478616,16.9586416 196.925413,16.3826877 198.057688,15.2094484 C199.210932,14.036209 199.77707,12.5856585 199.77707,10.8577969 C199.77707,9.15126696 199.210932,7.72204811 198.057688,6.54880876 C196.925413,5.3755694 195.478616,4.77828391 193.69633,4.77828391 C191.914045,4.77828391 190.467248,5.3755694 189.314004,6.54880876 C188.181729,7.72204811 187.615591,9.15126696 187.615591,10.8577969 C187.615591,12.5856585 188.181729,14.036209 189.314004,15.2094484 C190.467248,16.3826877 191.914045,16.9586416 193.69633,16.9586416 Z M193.69633,14.377515 C192.752767,14.377515 191.976949,14.036209 191.326939,13.353597 C190.676929,12.670985 190.362408,11.8390517 190.362408,10.8577969 C190.362408,9.89787382 190.676929,9.06594046 191.326939,8.38332847 C191.976949,7.70071649 192.752767,7.35941049 193.69633,7.35941049 C194.639893,7.35941049 195.415712,7.70071649 196.065722,8.38332847 C196.715732,9.06594046 197.030253,9.89787382 197.030253,10.8577969 C197.030253,11.8390517 196.715732,12.670985 196.065722,13.353597 C195.415712,14.036209 194.639893,14.377515 193.69633,14.377515 Z M214.434998,1.01985481 L214.434998,5.12418774 L217.4,5.12418774 L217.4,7.56880906 L214.434998,7.56880906 L214.434998,13.3498006 C214.434998,14.0149471 214.95942,14.5553787 215.604863,14.5553787 L215.604863,14.5553787 L217.4,14.5553787 L217.4,17 L215.011862,17 C213.156215,17 211.663629,15.4410628 211.663629,13.5495524 L211.663629,13.5495524 L211.663629,7.56880906 L209.888662,7.56880906 L209.888662,5.12418774 L211.663629,5.12418774 L211.663629,1.01985481 L214.434998,1.01985481 Z M207.451383,0 C208.478818,0 209.506253,0.255979495 210.51272,0.789270111 L210.51272,0.789270111 L209.65303,2.96509582 C208.940115,2.64512145 208.332041,2.49580008 207.828808,2.49580008 C206.423947,2.49580008 205.648129,3.24240694 205.648129,4.60763092 L205.648129,4.60763092 L205.648129,5.07692666 L209.2127,5.07692666 L209.2127,7.42340537 L205.648129,7.42340537 L205.648129,16.6599988 L202.92228,16.6599988 L202.92228,7.42340537 L201.119026,7.42340537 L201.119026,5.07692666 L202.92228,5.07692666 L202.92228,4.54363604 C202.92228,1.62120347 204.746502,0 207.451383,0 Z" id="ExpertsforMicrosoft" fill-rule="nonzero"></path>
            <g id="Group" transform="translate(0.000000, 0.308800)">
                <polygon id="Path" points="10.3229218 16.4199631 -3.85469434e-13 16.4199631 -3.85469434e-13 0.883019785 10.3229218 0.883019785 10.3229218 3.5741277 2.88032644 3.5741277 2.88032644 7.23235252 9.75526619 7.23235252 9.75526619 9.90243616 2.88032644 9.90243616 2.88032644 13.7288552 10.3229218 13.7288552"></polygon>
                <polygon id="Path" points="18.9008283 10.6593103 22.6221259 16.4199631 19.4684838 16.4199631 17.1347887 12.5514955 14.7380207 16.4199631 11.5633543 16.4199631 15.3897734 10.5752131 11.9628157 5.00377878 15.1164577 5.00377878 17.1978615 8.61995504 19.405411 5.00377878 22.5170045 5.00377878"></polygon>
                <path d="M30.4971074,4.73046313 C32.115977,4.73046313 33.461531,5.31914299 34.5337693,6.47547842 C35.6060076,7.63181386 36.1316146,9.04044065 36.1316146,10.7013588 C36.1316146,12.3833013 35.5849833,13.8129523 34.512745,14.9692878 C33.4405067,16.1256232 32.0949527,16.6932788 30.4760831,16.6932788 C29.0254078,16.6932788 27.7849752,16.1256232 26.796834,14.9903121 L26.796834,21.1083777 L24.0426533,21.1083777 L24.0426533,5.00377878 L26.7758097,5.00377878 L26.7758097,6.51752698 C27.7639509,5.31914299 29.0043835,4.73046313 30.4971074,4.73046313 Z M30.0555975,7.2533768 C29.0674563,7.2533768 28.2685337,7.58976529 27.6588295,8.26254227 C27.0491254,8.93531925 26.7337612,9.75526619 26.7337612,10.7223831 C26.7337612,11.7105243 27.0491254,12.5304712 27.6588295,13.2032482 C28.2685337,13.8550009 29.0674563,14.1913894 30.0555975,14.1913894 C31.0437387,14.1913894 31.8426614,13.8550009 32.4523655,13.2032482 C33.0620696,12.5304712 33.3774338,11.7105243 33.3774338,10.7223831 C33.3774338,9.73424191 33.0620696,8.91429497 32.4523655,8.26254227 C31.8426614,7.58976529 31.0437387,7.2533768 30.0555975,7.2533768 Z" id="Combined-Shape" fill-rule="nonzero"></path>
                <path d="M43.0212317,4.73046313 C44.6821498,4.73046313 46.0277038,5.25607015 47.0789178,6.2862599 C48.1511561,7.31644965 48.6767632,8.70405217 48.6767632,10.4700917 C48.6767632,10.7854559 48.6557389,11.1849173 48.592666,11.6895 L39.8886139,11.6895 C40.2460266,13.2663211 41.4233864,14.3175351 43.3786444,14.3175351 C44.766247,14.3175351 46.0277038,13.9180738 47.1419907,13.1401754 L48.2352533,15.0954335 C46.8266265,16.1466475 45.1657083,16.6722545 43.273523,16.6722545 C38.9845698,16.6722545 37.0923845,13.7288552 37.0923845,10.7013588 C37.0923845,8.97736781 37.6390158,7.54771673 38.7322784,6.43342986 C39.8465653,5.29811871 41.2762164,4.73046313 43.0212317,4.73046313 Z M43.0212317,7.02210972 C41.4233864,7.02210972 40.2460266,8.01025091 39.8886139,9.60809623 L45.9856552,9.60809623 C45.7543882,8.01025091 44.5980527,7.02210972 43.0212317,7.02210972 Z" id="Combined-Shape" fill-rule="nonzero"></path>
                <path d="M53.1366874,16.4199631 L50.403531,16.4199631 L50.403531,5.00377878 L53.031566,5.00377878 L53.031566,6.58059983 C53.7253673,5.34016727 54.7976056,4.70943885 56.2062324,4.70943885 C56.6897909,4.70943885 57.152325,4.79353598 57.5728106,4.94070594 L57.3415436,7.56874101 C56.8790094,7.42157105 56.4374995,7.33747393 56.0170139,7.33747393 C54.3140471,7.33747393 53.1366874,8.47278508 53.1366874,10.8485288 L53.1366874,16.4199631 Z" id="Path"></path>
                <path d="M63.4695263,7.3707235 L66.4446604,7.3707235 L66.4446604,4.97369474 L63.4695263,4.97369474 L63.4695263,0.949266103 L60.6886867,0.949266103 L60.6886867,4.97369474 L58.9076541,4.97369474 L58.9076541,7.3707235 L60.6886867,7.3707235 L60.6886867,13.2350321 C60.6886867,15.0897181 62.1863733,16.6183054 64.0483619,16.6183054 L66.4446604,16.6183054 L66.4446604,14.2212766 L64.6433887,14.2212766 C63.9957405,14.2212766 63.4695263,13.6913664 63.4695263,13.0391691 L63.4695263,7.3707235 Z" id="Shape-Copy-2" fill-rule="nonzero"></path>
                <path d="M72.2898071,16.7143031 C70.4396704,16.7143031 68.7577279,15.9364047 67.6854896,14.4436808 L69.2412864,12.7617383 C69.9981605,13.7709038 71.1965445,14.3806079 72.3108313,14.3806079 C73.2989725,14.3806079 73.9927738,13.8550009 73.9927738,13.1822239 C73.9927738,12.740714 73.6984339,12.362277 73.1307783,12.0889613 C72.9415598,11.9838399 72.4790256,11.7946214 71.7431758,11.5213058 C71.0283502,11.2479901 70.5447918,11.0377473 70.2925004,10.9116016 C69.0100193,10.2808732 68.3792909,9.3137563 68.3792909,8.01025091 C68.3792909,7.02210972 68.7577279,6.20216277 69.514602,5.57143436 C70.2714761,4.94070594 71.2806416,4.62534173 72.5210741,4.62534173 C74.1399437,4.62534173 75.4434491,5.19299731 76.4315903,6.30728418 L75.0019392,8.05229947 C74.2660894,7.27440108 73.4040939,6.87493975 72.436977,6.87493975 C71.5749815,6.87493975 71.0493745,7.33747393 71.0493745,7.94717806 C71.0493745,8.4517608 71.385763,8.83019785 72.0375157,9.06146494 C73.6774096,9.71321763 74.6024779,10.0916547 74.7916964,10.1967761 C76.0741776,10.8905773 76.7259303,11.8576943 76.7259303,13.0981268 C76.7259303,14.1283166 76.3264689,14.9903121 75.506522,15.6841133 C74.686575,16.3779146 73.6143367,16.7143031 72.2898071,16.7143031 Z" id="Path"></path>
                <path d="M89.4364963,2.45984083 C88.0278695,2.45984083 87.2499711,3.19569065 87.2499711,4.54124461 L87.2499711,5.00377878 L90.8240988,5.00377878 L90.8240988,7.31644965 L87.2499711,7.31644965 L87.2499711,16.4199631 L84.5168146,16.4199631 L84.5168146,7.31644965 L82.7087265,7.31644965 L82.7087265,5.00377878 L84.5168146,5.00377878 L84.5168146,4.47817177 C84.5168146,1.59784533 86.345927,-1.95399252e-14 89.0580592,-1.95399252e-14 C90.088249,-1.95399252e-14 91.1184387,0.252291367 92.1276042,0.777898382 L91.2656087,2.922375 C90.5507831,2.60701079 89.941079,2.45984083 89.4364963,2.45984083 Z" id="Path"></path>
                <path d="M97.4915725,4.70943885 C99.2786364,4.70943885 100.729312,5.29811871 101.864623,6.45445414 C103.020958,7.61078957 103.588614,9.01941637 103.588614,10.7013588 C103.588614,12.4043255 103.020958,13.8339766 101.864623,14.9903121 C100.729312,16.1466475 99.2786364,16.7143031 97.4915725,16.7143031 C95.7045087,16.7143031 94.2538333,16.1466475 93.0974979,14.9903121 C91.9621867,13.8339766 91.3945312,12.4043255 91.3945312,10.7013588 C91.3945312,9.01941637 91.9621867,7.61078957 93.0974979,6.45445414 C94.2538333,5.29811871 95.7045087,4.70943885 97.4915725,4.70943885 Z M97.4915725,7.2533768 C96.5454799,7.2533768 95.7675815,7.58976529 95.1158288,8.26254227 C94.4640761,8.93531925 94.1487119,9.75526619 94.1487119,10.7013588 C94.1487119,11.6684757 94.4640761,12.4884227 95.1158288,13.1611997 C95.7675815,13.8339766 96.5454799,14.1703651 97.4915725,14.1703651 C98.4376652,14.1703651 99.2155635,13.8339766 99.8673162,13.1611997 C100.519069,12.4884227 100.834433,11.6684757 100.834433,10.7013588 C100.834433,9.75526619 100.519069,8.93531925 99.8673162,8.26254227 C99.2155635,7.58976529 98.4376652,7.2533768 97.4915725,7.2533768 Z" id="Combined-Shape" fill-rule="nonzero"></path>
                <path d="M107.87122,16.4199631 L105.138064,16.4199631 L105.138064,5.00377878 L107.766099,5.00377878 L107.766099,6.58059983 C108.4599,5.34016727 109.532138,4.70943885 110.940765,4.70943885 C111.424324,4.70943885 111.886858,4.79353598 112.307343,4.94070594 L112.076076,7.56874101 C111.613542,7.42157105 111.172032,7.33747393 110.751547,7.33747393 C109.04858,7.33747393 107.87122,8.47278508 107.87122,10.8485288 L107.87122,16.4199631 Z" id="Path"></path>
            </g>
        </g>
        <g id="Icon/List/Guideline" transform="translate(8.000000, 8.000000)" fill="#FFFFFF">
            <path d="M14.5,3 L14.5,18.4251283 L6.375,18.4251283 C6.0078125,18.4251283 5.7109375,18.758536 5.75390625,19.1481812 C5.79296875,19.473555 6.07421875,19.7145726 6.39453125,19.7145726 L6.39453125,19.7145726 L18.875,19.7145726 C19.21875,19.7145726 19.5,20.0037938 19.5,20.3572863 C19.5,20.7107788 19.21875,21 18.875,21 L18.875,21 L5.59765625,21 C4.9921875,21 4.5,20.493863 4.5,19.8712341 L4.5,19.8712341 L4.5,4.1287659 C4.5,3.50613702 4.9921875,3 5.59765625,3 L5.59765625,3 L14.5,3 Z M18.4023438,3 C19.0078125,3 19.5,3.50613702 19.5,4.1287659 L19.5,4.1287659 L19.5,17.7824146 C19.5,18.1359072 19.21875,18.4251283 18.875,18.4251283 L18.875,18.4251283 L16.375,18.4251283 L16.375,3 Z" id="Combined-Shape"></path>
        </g>
    </g>
</svg>