<?xml version="1.0" encoding="UTF-8"?>
<svg width="267px" height="40px" viewBox="0 0 267 40" version="1.1" xmlns="http://www.w3.org/2000/svg" xmlns:xlink="http://www.w3.org/1999/xlink">
    <title>Logos/Experts for Microsoft/Spot Hero/Black@svg</title>
    <g id="Logos" stroke="none" stroke-width="1" fill="none" fill-rule="evenodd">
        <g id="Combined-Shape" fill="#000000">
            <path d="M30,0 C35.4292399,0 39.8479317,4.32667079 39.9961582,9.72009516 L40,10 L40,40 L10,40 L9.72009516,39.9961582 C4.41966086,39.8504873 0.149512653,35.5803391 0.00384179753,30.2799048 L0,30 L0,10 L0.00384179753,9.72009516 C0.149512653,4.41966086 4.41966086,0.149512653 9.72009516,0.00384179753 L10,0 L30,0 Z M23,9 L12.3171875,9 L12.1904743,9.00632464 C11.5231834,9.07327053 11,9.66337608 11,10.3796028 L11,10.3796028 L11,29.6203972 L11.0060385,29.7531148 C11.0699557,30.4520254 11.633364,31 12.3171875,31 L12.3171875,31 L28.25,31 L28.3514106,30.9927947 C28.7164063,30.9405391 29,30.6105036 29,30.2144611 C29,29.7824146 28.6625,29.4289221 28.25,29.4289221 L28.25,29.4289221 L13.2734375,29.4289221 L13.1699533,29.4217624 C12.8301007,29.3745106 12.5473011,29.0981924 12.5046875,28.7366659 C12.453125,28.2604329 12.809375,27.8529346 13.25,27.8529346 L13.25,27.8529346 L23,27.8529346 L23,9 Z M27.6828125,9 L25.25,9 L25.25,27.8529346 L28.25,27.8529346 L28.3514106,27.8457293 C28.7164063,27.7934737 29,27.4634382 29,27.0673957 L29,27.0673957 L29,10.3796028 L28.9939615,10.2468852 C28.9300443,9.54797457 28.366636,9 27.6828125,9 L27.6828125,9 Z"></path>
            <path d="M80.0971074,16.0392631 C81.715977,16.0392631 83.061531,16.627943 84.1337693,17.7842784 C85.2060076,18.9406139 85.7316146,20.3492407 85.7316146,22.0101588 C85.7316146,23.6921013 85.1849833,25.1217523 84.112745,26.2780878 C83.0405067,27.4344232 81.6949527,28.0020788 80.0760831,28.0020788 C78.6254078,28.0020788 77.3849752,27.4344232 76.396834,26.2991121 L76.396834,32.4171777 L73.6426533,32.4171777 L73.6426533,16.3125788 L76.3758097,16.3125788 L76.3758097,17.826327 C77.3639509,16.627943 78.6043835,16.0392631 80.0971074,16.0392631 Z M147.091573,16.0182389 C148.878636,16.0182389 150.329312,16.6069187 151.464623,17.7632541 C152.620958,18.9195896 153.188614,20.3282164 153.188614,22.0101588 C153.188614,23.7131255 152.620958,25.1427766 151.464623,26.2991121 C150.329312,27.4554475 148.878636,28.0231031 147.091573,28.0231031 C145.304509,28.0231031 143.853833,27.4554475 142.697498,26.2991121 C141.562187,25.1427766 140.994531,23.7131255 140.994531,22.0101588 C140.994531,20.3282164 141.562187,18.9195896 142.697498,17.7632541 C143.853833,16.6069187 145.304509,16.0182389 147.091573,16.0182389 Z M122.121074,15.9341417 C123.739944,15.9341417 125.043449,16.5017973 126.03159,17.6160842 L124.601939,19.3610995 C123.866089,18.5832011 123.004094,18.1837398 122.036977,18.1837398 C121.174982,18.1837398 120.649374,18.6462739 120.649374,19.2559781 C120.649374,19.7605608 120.985763,20.1389978 121.637516,20.3702649 C123.27741,21.0220176 124.202478,21.4004547 124.391696,21.5055761 C125.674178,22.1993773 126.32593,23.1664943 126.32593,24.4069268 C126.32593,25.4371166 125.926469,26.2991121 125.106522,26.9929133 C124.286575,27.6867146 123.214337,28.0231031 121.889807,28.0231031 C120.03967,28.0231031 118.357728,27.2452047 117.28549,25.7524808 L118.841286,24.0705383 C119.59816,25.0797038 120.796544,25.6894079 121.910831,25.6894079 C122.898973,25.6894079 123.592774,25.1638009 123.592774,24.4910239 C123.592774,24.049514 123.298434,23.671077 122.730778,23.3977613 C122.54156,23.2926399 122.079026,23.1034214 121.343176,22.8301058 C120.62835,22.5567901 120.144792,22.3465473 119.8925,22.2204016 C118.610019,21.5896732 117.979291,20.6225563 117.979291,19.3190509 C117.979291,18.3309097 118.357728,17.5109628 119.114602,16.8802344 C119.871476,16.2495059 120.880642,15.9341417 122.121074,15.9341417 Z M264.034998,12.0198548 L264.034998,16.1241877 L267,16.1241877 L267,18.5688091 L264.034998,18.5688091 L264.034998,24.3498006 C264.034998,25.0149471 264.55942,25.5553787 265.204863,25.5553787 L265.204863,25.5553787 L267,25.5553787 L267,28 L264.611862,28 C262.756215,28 261.263629,26.4410628 261.263629,24.5495524 L261.263629,24.5495524 L261.263629,18.5688091 L259.488662,18.5688091 L259.488662,16.1241877 L261.263629,16.1241877 L261.263629,12.0198548 L264.034998,12.0198548 Z M92.6212317,16.0392631 C94.2821498,16.0392631 95.6277038,16.5648701 96.6789178,17.5950599 C97.7511561,18.6252496 98.2767632,20.0128522 98.2767632,21.7788917 C98.2767632,22.0942559 98.2557389,22.4937173 98.192666,22.9983 L89.4886139,22.9983 C89.8460266,24.5751211 91.0233864,25.6263351 92.9786444,25.6263351 C94.366247,25.6263351 95.6277038,25.2268738 96.7419907,24.4489754 L97.8352533,26.4042335 C96.4266265,27.4554475 94.7657083,27.9810545 92.873523,27.9810545 C88.5845698,27.9810545 86.6923845,25.0376552 86.6923845,22.0101588 C86.6923845,20.2861678 87.2390158,18.8565167 88.3322784,17.7422299 C89.4465653,16.6069187 90.8762164,16.0392631 92.6212317,16.0392631 Z M231.554213,15.6929574 C233.168754,15.6929574 234.468774,16.2689113 235.454273,17.3994874 L235.454273,17.3994874 L234.028445,19.1700122 C233.294562,18.3807421 232.434871,17.9754412 231.47034,17.9754412 C230.61065,17.9754412 230.086448,18.444737 230.086448,19.0633541 C230.086448,19.5753131 230.421937,19.9592823 231.071947,20.1939302 C232.707456,20.8552106 233.630051,21.2391798 233.818764,21.3458379 C235.097816,22.0497816 235.747826,23.0310363 235.747826,24.2896021 C235.747826,25.3348517 235.349433,26.2094484 234.531678,26.913392 C233.713924,27.6173356 232.644552,27.9586416 231.323564,27.9586416 C229.478374,27.9586416 227.800928,27.1693715 226.731557,25.6548261 L226.731557,25.6548261 L228.283194,23.9482961 C229.038044,24.9722141 230.233224,25.5908312 231.344532,25.5908312 C232.330031,25.5908312 233.021977,25.0575406 233.021977,24.3749286 C233.021977,23.9269645 232.728424,23.5429953 232.162287,23.2656842 C231.973574,23.159026 231.512276,22.9670414 230.778394,22.6897303 C230.06548,22.4124192 229.583214,22.1991029 229.331597,22.0711132 C228.052545,21.4311644 227.423503,20.4499097 227.423503,19.127349 C227.423503,18.1247626 227.800928,17.2928293 228.555779,16.6528805 C229.310629,16.0129318 230.317097,15.6929574 231.554213,15.6929574 Z M219.43467,15.7782839 C221.216955,15.7782839 222.663752,16.3755694 223.796028,17.5488088 C224.949271,18.7220481 225.515409,20.151267 225.515409,21.8577969 C225.515409,23.5856585 224.949271,25.036209 223.796028,26.2094484 C222.663752,27.3826877 221.216955,27.9586416 219.43467,27.9586416 C217.652384,27.9586416 216.205587,27.3826877 215.052343,26.2094484 C213.920068,25.036209 213.35393,23.5856585 213.35393,21.8577969 C213.35393,20.151267 213.920068,18.7220481 215.052343,17.5488088 C216.205587,16.3755694 217.652384,15.7782839 219.43467,15.7782839 Z M243.29633,15.7782839 C245.078616,15.7782839 246.525413,16.3755694 247.657688,17.5488088 C248.810932,18.7220481 249.37707,20.151267 249.37707,21.8577969 C249.37707,23.5856585 248.810932,25.036209 247.657688,26.2094484 C246.525413,27.3826877 245.078616,27.9586416 243.29633,27.9586416 C241.514045,27.9586416 240.067248,27.3826877 238.914004,26.2094484 C237.781729,25.036209 237.215591,23.5856585 237.215591,21.8577969 C237.215591,20.151267 237.781729,18.7220481 238.914004,17.5488088 C240.067248,16.3755694 241.514045,15.7782839 243.29633,15.7782839 Z M113.069526,12.2580661 L113.069526,16.2824947 L116.04466,16.2824947 L116.04466,18.6795235 L113.069526,18.6795235 L113.069526,24.3479691 C113.069526,25.0001664 113.595741,25.5300766 114.243389,25.5300766 L114.243389,25.5300766 L116.04466,25.5300766 L116.04466,27.9271054 L113.648362,27.9271054 C111.786373,27.9271054 110.288687,26.3985181 110.288687,24.5438321 L110.288687,24.5438321 L110.288687,18.6795235 L108.507654,18.6795235 L108.507654,16.2824947 L110.288687,16.2824947 L110.288687,12.2580661 L113.069526,12.2580661 Z M198.194017,15.7996155 C200.521473,15.7996155 202.555375,16.9515233 203.47797,18.9780276 L203.47797,18.9780276 L201.255355,20.1939302 C200.584377,19.0633541 199.494037,18.3594105 198.235953,18.3594105 C197.250454,18.3594105 196.4327,18.7007165 195.782689,19.3619968 C195.132679,20.0232772 194.818158,20.8552106 194.818158,21.8577969 C194.818158,22.8603833 195.132679,23.6923166 195.761721,24.353597 C196.390763,25.0148774 197.18755,25.3561834 198.152081,25.3561834 C199.410165,25.3561834 200.647281,24.6309081 201.213419,23.5429953 L201.213419,23.5429953 L203.436034,24.865556 C202.450535,26.7214073 200.4376,27.9159783 198.110145,27.9159783 C196.348827,27.9159783 194.902031,27.3400245 193.769755,26.2094484 C192.658447,25.0788722 192.09231,23.6283218 192.09231,21.8577969 C192.09231,20.0872721 192.658447,18.6367216 193.790723,17.5061455 C194.922999,16.3755694 196.390763,15.7996155 198.194017,15.7996155 Z M138.658059,11.3088 C139.688249,11.3088 140.718439,11.5610914 141.727604,12.0866984 L140.865609,14.231175 C140.150783,13.9158108 139.541079,13.7686408 139.036496,13.7686408 C137.627869,13.7686408 136.849971,14.5044907 136.849971,15.8500446 L136.849971,16.3125788 L140.424099,16.3125788 L140.424099,18.6252496 L136.849971,18.6252496 L136.849971,27.7287631 L134.116815,27.7287631 L134.116815,18.6252496 L132.308726,18.6252496 L132.308726,16.3125788 L134.116815,16.3125788 L134.116815,15.7869718 C134.116815,12.9066453 135.945927,11.3088 138.658059,11.3088 Z M160.540765,16.0182389 C161.024324,16.0182389 161.486858,16.102336 161.907343,16.2495059 L161.676076,18.877541 C161.213542,18.730371 160.772032,18.6462739 160.351547,18.6462739 C158.64858,18.6462739 157.47122,19.7815851 157.47122,22.1573288 L157.47122,27.7287631 L154.738064,27.7287631 L154.738064,16.3125788 L157.366099,16.3125788 L157.366099,17.8893998 C158.0599,16.6489673 159.132138,16.0182389 160.540765,16.0182389 Z M105.806232,16.0182389 C106.289791,16.0182389 106.752325,16.102336 107.172811,16.2495059 L106.941544,18.877541 C106.479009,18.730371 106.037499,18.6462739 105.617014,18.6462739 C103.914047,18.6462739 102.736687,19.7815851 102.736687,22.1573288 L102.736687,27.7287631 L100.003531,27.7287631 L100.003531,16.3125788 L102.631566,16.3125788 L102.631566,17.8893998 C103.325367,16.6489673 104.397606,16.0182389 105.806232,16.0182389 Z M59.9229218,12.1918198 L59.9229218,14.8829277 L52.4803264,14.8829277 L52.4803264,18.5411525 L59.3552662,18.5411525 L59.3552662,21.2112362 L52.4803264,21.2112362 L52.4803264,25.0376552 L59.9229218,25.0376552 L59.9229218,27.7287631 L49.6,27.7287631 L49.6,12.1918198 L59.9229218,12.1918198 Z M64.7164577,16.3125788 L66.7978615,19.928755 L69.005411,16.3125788 L72.1170045,16.3125788 L68.5008283,21.9681103 L72.2221259,27.7287631 L69.0684838,27.7287631 L66.7347887,23.8602955 L64.3380207,27.7287631 L61.1633543,27.7287631 L64.9897734,21.8840131 L61.5628157,16.3125788 L64.7164577,16.3125788 Z M211.110347,15.7782839 C211.592612,15.7782839 212.05391,15.8636104 212.473271,16.0129318 L212.473271,16.0129318 L212.242622,18.6793849 C211.781325,18.5300635 211.340996,18.444737 210.921634,18.444737 C209.223221,18.444737 208.049009,19.5966447 208.049009,22.0071183 L208.049009,22.0071183 L208.049009,27.6599988 L205.32316,27.6599988 L205.32316,16.0769267 L207.944169,16.0769267 L207.944169,17.6767985 C208.636115,16.4182327 209.705486,15.7782839 211.110347,15.7782839 Z M257.051383,11 C258.078818,11 259.106253,11.2559795 260.11272,11.7892701 L260.11272,11.7892701 L259.25303,13.9650958 C258.540115,13.6451215 257.932041,13.4958001 257.428808,13.4958001 C256.023947,13.4958001 255.248129,14.2424069 255.248129,15.6076309 L255.248129,15.6076309 L255.248129,16.0769267 L258.8127,16.0769267 L258.8127,18.4234054 L255.248129,18.4234054 L255.248129,27.6599988 L252.52228,27.6599988 L252.52228,18.4234054 L250.719026,18.4234054 L250.719026,16.0769267 L252.52228,16.0769267 L252.52228,15.543636 C252.52228,12.6212035 254.346502,11 257.051383,11 Z M169.803254,11.8959282 L176.009802,21.0898584 L182.195382,11.8959282 L184.019604,11.8959282 L184.019604,27.6599988 L181.167946,27.6599988 L181.167946,18.3167472 L176.471099,25.2281936 L175.527536,25.2281936 L170.830689,18.3167472 L170.830689,27.6599988 L168,27.6599988 L168,11.8959282 L169.803254,11.8959282 Z M189.974535,16.0769267 L189.974535,27.6599988 L187.227718,27.6599988 L187.227718,16.0769267 L189.974535,16.0769267 Z M79.6555975,18.5621768 C78.6674563,18.5621768 77.8685337,18.8985653 77.2588295,19.5713423 C76.6491254,20.2441193 76.3337612,21.0640662 76.3337612,22.0311831 C76.3337612,23.0193243 76.6491254,23.8392712 77.2588295,24.5120482 C77.8685337,25.1638009 78.6674563,25.5001894 79.6555975,25.5001894 C80.6437387,25.5001894 81.4426614,25.1638009 82.0523655,24.5120482 C82.6620696,23.8392712 82.9774338,23.0193243 82.9774338,22.0311831 C82.9774338,21.0430419 82.6620696,20.223095 82.0523655,19.5713423 C81.4426614,18.8985653 80.6437387,18.5621768 79.6555975,18.5621768 Z M147.091573,18.5621768 C146.14548,18.5621768 145.367582,18.8985653 144.715829,19.5713423 C144.064076,20.2441193 143.748712,21.0640662 143.748712,22.0101588 C143.748712,22.9772757 144.064076,23.7972227 144.715829,24.4699997 C145.367582,25.1427766 146.14548,25.4791651 147.091573,25.4791651 C148.037665,25.4791651 148.815564,25.1427766 149.467316,24.4699997 C150.119069,23.7972227 150.434433,22.9772757 150.434433,22.0101588 C150.434433,21.0640662 150.119069,20.2441193 149.467316,19.5713423 C148.815564,18.8985653 148.037665,18.5621768 147.091573,18.5621768 Z M243.29633,18.3594105 C242.352767,18.3594105 241.576949,18.7007165 240.926939,19.3833285 C240.276929,20.0659405 239.962408,20.8978738 239.962408,21.8577969 C239.962408,22.8390517 240.276929,23.670985 240.926939,24.353597 C241.576949,25.036209 242.352767,25.377515 243.29633,25.377515 C244.239893,25.377515 245.015712,25.036209 245.665722,24.353597 C246.315732,23.670985 246.630253,22.8390517 246.630253,21.8577969 C246.630253,20.8978738 246.315732,20.0659405 245.665722,19.3833285 C245.015712,18.7007165 244.239893,18.3594105 243.29633,18.3594105 Z M219.43467,18.3594105 C218.491107,18.3594105 217.715288,18.7007165 217.065278,19.3833285 C216.415268,20.0659405 216.100747,20.8978738 216.100747,21.8577969 C216.100747,22.8390517 216.415268,23.670985 217.065278,24.353597 C217.715288,25.036209 218.491107,25.377515 219.43467,25.377515 C220.378233,25.377515 221.154051,25.036209 221.804061,24.353597 C222.454071,23.670985 222.768592,22.8390517 222.768592,21.8577969 C222.768592,20.8978738 222.454071,20.0659405 221.804061,19.3833285 C221.154051,18.7007165 220.378233,18.3594105 219.43467,18.3594105 Z M92.6212317,18.3309097 C91.0233864,18.3309097 89.8460266,19.3190509 89.4886139,20.9168962 L95.5856552,20.9168962 C95.3543882,19.3190509 94.1980527,18.3309097 92.6212317,18.3309097 Z M188.632578,11.1919846 C189.618078,11.1919846 190.35196,11.9385915 190.35196,12.9411778 C190.35196,13.9650958 189.618078,14.6903711 188.632578,14.6903711 C187.626111,14.6903711 186.871261,13.9650958 186.871261,12.9411778 C186.871261,11.9385915 187.647079,11.1919846 188.632578,11.1919846 Z"></path>
        </g>
    </g>
</svg>