<?xml version="1.0" encoding="UTF-8"?>
<svg width="40px" height="40px" viewBox="0 0 40 40" version="1.1" xmlns="http://www.w3.org/2000/svg" xmlns:xlink="http://www.w3.org/1999/xlink">
    <title>Logos/Experts for Microsoft/Spot/Original@svg</title>
    <g id="Logos" stroke="none" stroke-width="1" fill="none" fill-rule="evenodd">
        <g id="Logos/Experts-for-Microsoft/Spot/Original">
            <path d="M9.72009516,39.9961582 C4.32667079,39.8479317 0,35.4292399 0,30 L0,30 L0,10 L0.00384179753,9.72009516 C0.152068282,4.32667079 4.57076009,0 10,0 L10,0 L30,0 C35.5228475,0 40,4.4771525 40,10 L40,10 L40,40 L40,40 L10,40 Z" id="Chat-shape" fill="#375DE7"></path>
            <path d="M23,9 L23,27.8529346 L13.25,27.8529346 C12.809375,27.8529346 12.453125,28.2604329 12.5046875,28.7366659 C12.5515625,29.134345 12.8890625,29.4289221 13.2734375,29.4289221 L13.2734375,29.4289221 L28.25,29.4289221 C28.6625,29.4289221 29,29.7824146 29,30.2144611 C29,30.6465075 28.6625,31 28.25,31 L28.25,31 L12.3171875,31 C11.590625,31 11,30.3813881 11,29.6203972 L11,29.6203972 L11,10.3796028 C11,9.61861192 11.590625,9 12.3171875,9 L12.3171875,9 L23,9 Z M27.6828125,9 C28.409375,9 29,9.61861192 29,10.3796028 L29,10.3796028 L29,27.0673957 C29,27.4994421 28.6625,27.8529346 28.25,27.8529346 L28.25,27.8529346 L25.25,27.8529346 L25.25,9 Z" id="Combined-Shape" fill="#FFFFFF"></path>
        </g>
    </g>
</svg>