<?xml version="1.0" encoding="UTF-8"?>
<svg width="277px" height="40px" viewBox="0 0 277 40" version="1.1" xmlns="http://www.w3.org/2000/svg" xmlns:xlink="http://www.w3.org/1999/xlink">
    <!-- Generator: Sketch 59.1 (86144) - https://sketch.com -->
    <title>Logos/Excelchat ERC/Spot Hero/Original</title>
    <desc>Created with Sketch.</desc>
    <g id="Logos/Excelchat-ERC/Spot-Hero/Original" stroke="none" stroke-width="1" fill="none" fill-rule="evenodd">
        <g id="Logos/Excelchat-Learning/Spot-Hero/Original">
            <rect id="Shape" fill="#6B778C" x="156.686869" y="16.6" width="120.313131" height="11.2" rx="2"></rect>
            <path d="M163.509859,22.536875 L160.991677,22.536875 L160.991677,24.243125 L163.947043,24.243125 L163.947043,25.2975 L159.680124,25.2975 L159.680124,18.9275 L163.9383,18.9275 L163.9383,19.990625 L160.991677,19.990625 L160.991677,21.50875 L163.509859,21.50875 L163.509859,22.536875 Z M166.994218,21.12375 L168.187731,18.9275 L169.696017,18.9275 L167.842356,22.08625 L169.744108,25.2975 L168.218334,25.2975 L166.994218,23.06625 L165.770102,25.2975 L164.244329,25.2975 L166.146081,22.08625 L164.292419,18.9275 L165.800705,18.9275 L166.994218,21.12375 Z M171.715809,23.053125 L171.715809,25.2975 L170.404256,25.2975 L170.404256,18.9275 L172.887463,18.9275 C173.365454,18.9275 173.785875,19.0149991 174.14874,19.19 C174.511605,19.3650009 174.790671,19.6136442 174.985948,19.9359375 C175.181225,20.2582308 175.278862,20.6249979 175.278862,21.03625 C175.278862,21.6604198 175.065372,22.1526024 174.638386,22.5128125 C174.211401,22.8730226 173.620479,23.053125 172.865604,23.053125 L171.715809,23.053125 Z M171.715809,21.99 L172.887463,21.99 C173.234298,21.99 173.498792,21.9083341 173.680953,21.745 C173.863114,21.5816658 173.954193,21.3483348 173.954193,21.045 C173.954193,20.7329151 173.862385,20.480626 173.678767,20.288125 C173.495148,20.095624 173.241584,19.9964584 172.918066,19.990625 L171.715809,19.990625 L171.715809,21.99 Z M180.009196,22.536875 L177.491014,22.536875 L177.491014,24.243125 L180.44638,24.243125 L180.44638,25.2975 L176.179461,25.2975 L176.179461,18.9275 L180.437637,18.9275 L180.437637,19.990625 L177.491014,19.990625 L177.491014,21.50875 L180.009196,21.50875 L180.009196,22.536875 Z M183.572249,22.965625 L182.527378,22.965625 L182.527378,25.2975 L181.215825,25.2975 L181.215825,18.9275 L183.580992,18.9275 C184.332953,18.9275 184.912945,19.0952067 185.320986,19.430625 C185.729027,19.7660433 185.933044,20.2399969 185.933044,20.8525 C185.933044,21.2870855 185.83905,21.6494777 185.65106,21.9396875 C185.46307,22.2298973 185.178174,22.4610408 184.796365,22.633125 L186.173495,25.23625 L186.173495,25.2975 L184.765762,25.2975 L183.572249,22.965625 Z M182.527378,21.9025 L183.585364,21.9025 C183.914711,21.9025 184.169733,21.8186467 184.350437,21.6509375 C184.53114,21.4832283 184.621491,21.2520848 184.621491,20.9575 C184.621491,20.6570818 184.536241,20.4208342 184.365738,20.24875 C184.195235,20.0766658 183.933656,19.990625 183.580992,19.990625 L182.527378,19.990625 L182.527378,21.9025 Z M191.502773,19.990625 L189.55293,19.990625 L189.55293,25.2975 L188.241377,25.2975 L188.241377,19.990625 L186.317766,19.990625 L186.317766,18.9275 L191.502773,18.9275 L191.502773,19.990625 Z M196.574111,22.965625 L195.52924,22.965625 L195.52924,25.2975 L194.217687,25.2975 L194.217687,18.9275 L196.582855,18.9275 C197.334815,18.9275 197.914808,19.0952067 198.322848,19.430625 C198.730889,19.7660433 198.934906,20.2399969 198.934906,20.8525 C198.934906,21.2870855 198.840913,21.6494777 198.652922,21.9396875 C198.464932,22.2298973 198.180037,22.4610408 197.798227,22.633125 L199.175358,25.23625 L199.175358,25.2975 L197.767624,25.2975 L196.574111,22.965625 Z M195.52924,21.9025 L196.587226,21.9025 C196.916574,21.9025 197.171595,21.8186467 197.352299,21.6509375 C197.533003,21.4832283 197.623353,21.2520848 197.623353,20.9575 C197.623353,20.6570818 197.538103,20.4208342 197.3676,20.24875 C197.197098,20.0766658 196.935518,19.990625 196.582855,19.990625 L195.52924,19.990625 L195.52924,21.9025 Z M203.761422,22.536875 L201.24324,22.536875 L201.24324,24.243125 L204.198606,24.243125 L204.198606,25.2975 L199.931687,25.2975 L199.931687,18.9275 L204.189862,18.9275 L204.189862,19.990625 L201.24324,19.990625 L201.24324,21.50875 L203.761422,21.50875 L203.761422,22.536875 Z M208.268792,23.62625 C208.268792,23.3783321 208.181356,23.1880215 208.006481,23.0553125 C207.841322,22.9299762 207.55138,22.7981378 207.136647,22.6597937 L207.062163,22.6353125 C206.607489,22.4880201 206.247544,22.3429174 205.982318,22.2 C205.259503,21.8091647 204.898101,21.2827116 204.898101,20.620625 C204.898101,20.2764566 204.995009,19.9694805 205.188828,19.6996875 C205.382648,19.4298945 205.660986,19.2191674 206.02385,19.0675 C206.386715,18.9158326 206.794021,18.84 207.245781,18.84 C207.700455,18.84 208.105575,18.922395 208.461153,19.0871875 C208.816732,19.25198 209.092884,19.4845818 209.289618,19.785 C209.486351,20.0854182 209.584717,20.4266648 209.584717,20.80875 L208.273164,20.80875 C208.273164,20.5170819 208.181356,20.2903133 207.997738,20.1284375 C207.814119,19.9665617 207.556183,19.885625 207.223922,19.885625 C206.903318,19.885625 206.654125,19.9534368 206.476336,20.0890625 C206.298547,20.2246882 206.209654,20.4033322 206.209654,20.625 C206.209654,20.8320844 206.313848,21.0056243 206.522241,21.145625 C206.71674,21.2762923 206.996924,21.3993357 207.3628,21.5147582 L207.442514,21.539375 C208.188645,21.7639595 208.732206,22.0424983 209.073211,22.375 C209.414217,22.7075017 209.584717,23.1216642 209.584717,23.6175 C209.584717,24.1687528 209.376328,24.6011443 208.959543,24.9146875 C208.542759,25.2282307 207.981711,25.385 207.276384,25.385 C206.786735,25.385 206.340811,25.2953134 205.9386,25.1159375 C205.536388,24.9365616 205.229633,24.6908349 205.018326,24.37875 C204.80702,24.0666667 204.701368,23.7050021 204.701368,23.29375 L206.017293,23.29375 C206.017293,23.9966702 206.436985,24.348125 207.276384,24.348125 C207.588243,24.348125 207.831607,24.2846881 208.006481,24.1578125 C208.181356,24.0309369 208.268792,23.8537511 208.268792,23.62625 Z M215.700926,22.256875 C215.700926,22.8839615 215.590174,23.4337476 215.368666,23.90625 C215.147158,24.3787524 214.830203,24.743332 214.41779,25 C214.005377,25.2566679 213.532494,25.385 212.999127,25.385 C212.471588,25.385 212.000891,25.2581263 211.587021,25.004375 C211.173151,24.7506237 210.852553,24.3882315 210.625216,23.9171875 C210.397879,23.4461435 210.282755,22.9043781 210.27984,22.291875 L210.27984,21.976875 C210.27984,21.3497885 210.392778,20.7978149 210.618658,20.3209375 C210.844538,19.8440601 211.163679,19.4780221 211.576092,19.2228125 C211.988504,18.9676029 212.45993,18.84 212.990383,18.84 C213.520836,18.84 213.992262,18.9676029 214.404674,19.2228125 C214.817087,19.4780221 215.136228,19.8440601 215.362108,20.3209375 C215.587988,20.7978149 215.700926,21.3483302 215.700926,21.9725 L215.700926,22.256875 Z M214.371886,21.968125 C214.371886,21.300205 214.25239,20.7927101 214.013394,20.445625 C213.774399,20.0985399 213.433399,19.925 212.990383,19.925 C212.550282,19.925 212.210739,20.0963525 211.971743,20.4390625 C211.732748,20.7817725 211.611795,21.2841634 211.60888,21.94625 L211.60888,22.256875 C211.60888,22.9072949 211.728376,23.4118732 211.967372,23.770625 C212.206367,24.1293768 212.550282,24.30875 212.999127,24.30875 C213.439228,24.30875 213.777314,24.1359392 214.013394,23.7903125 C214.249475,23.4446858 214.368971,22.9408366 214.371886,22.27875 L214.371886,21.968125 Z M221.471759,18.9275 L221.471759,23.123125 C221.471759,23.8202118 221.253898,24.3714563 220.818169,24.776875 C220.382439,25.1822937 219.787146,25.385 219.032271,25.385 C218.289054,25.385 217.698861,25.188127 217.261674,24.794375 C216.824488,24.400623 216.601526,23.8595868 216.592782,23.17125 L216.592782,18.9275 L217.904335,18.9275 L217.904335,23.131875 C217.904335,23.5489604 218.004158,23.8530199 218.203806,24.0440625 C218.403455,24.2351051 218.679607,24.330625 219.032271,24.330625 C219.769659,24.330625 220.144176,23.9427122 220.155834,23.166875 L220.155834,18.9275 L221.471759,18.9275 Z M224.903656,22.965625 L223.858786,22.965625 L223.858786,25.2975 L222.547233,25.2975 L222.547233,18.9275 L224.9124,18.9275 C225.664361,18.9275 226.244353,19.0952067 226.652394,19.430625 C227.060434,19.7660433 227.264452,20.2399969 227.264452,20.8525 C227.264452,21.2870855 227.170458,21.6494777 226.982468,21.9396875 C226.794478,22.2298973 226.509582,22.4610408 226.127773,22.633125 L227.504903,25.23625 L227.504903,25.2975 L226.09717,25.2975 L224.903656,22.965625 Z M223.858786,21.9025 L224.916772,21.9025 C225.246119,21.9025 225.501141,21.8186467 225.681844,21.6509375 C225.862548,21.4832283 225.952899,21.2520848 225.952899,20.9575 C225.952899,20.6570818 225.867649,20.4208342 225.697146,20.24875 C225.526643,20.0766658 225.265064,19.990625 224.9124,19.990625 L223.858786,19.990625 L223.858786,21.9025 Z M233.258249,23.175625 C233.208701,23.8610451 232.955866,24.400623 232.499734,24.794375 C232.043603,25.188127 231.442481,25.385 230.696349,25.385 C229.880267,25.385 229.238341,25.1101069 228.770552,24.5603125 C228.302762,24.0105181 228.068871,23.2558381 228.068871,22.29625 L228.068871,21.906875 C228.068871,21.2943719 228.176709,20.754794 228.392387,20.288125 C228.608066,19.821456 228.916278,19.4634387 229.317032,19.2140625 C229.717787,18.9646863 230.183383,18.84 230.713836,18.84 C231.44831,18.84 232.03996,19.036873 232.488805,19.430625 C232.93765,19.824377 233.197043,20.3770798 233.266993,21.08875 L231.95544,21.08875 C231.923379,20.6774979 231.808984,20.3792718 231.61225,20.1940625 C231.415516,20.0088532 231.116048,19.91625 230.713836,19.91625 C230.27665,19.91625 229.949493,20.0730193 229.732357,20.3865625 C229.515221,20.7001057 229.403741,21.186455 229.397911,21.845625 L229.397911,22.326875 C229.397911,23.0152118 229.502106,23.5183317 229.710498,23.83625 C229.91889,24.1541683 230.247504,24.313125 230.696349,24.313125 C231.101475,24.313125 231.403858,24.2205218 231.603506,24.0353125 C231.803155,23.8501032 231.91755,23.5635436 231.946696,23.175625 L233.258249,23.175625 Z M237.949237,22.536875 L235.431055,22.536875 L235.431055,24.243125 L238.386422,24.243125 L238.386422,25.2975 L234.119502,25.2975 L234.119502,18.9275 L238.377678,18.9275 L238.377678,19.990625 L235.431055,19.990625 L235.431055,21.50875 L237.949237,21.50875 L237.949237,22.536875 Z M246.382523,23.175625 C246.332975,23.8610451 246.08014,24.400623 245.624008,24.794375 C245.167877,25.188127 244.566755,25.385 243.820623,25.385 C243.004541,25.385 242.362615,25.1101069 241.894826,24.5603125 C241.427036,24.0105181 241.193145,23.2558381 241.193145,22.29625 L241.193145,21.906875 C241.193145,21.2943719 241.300983,20.754794 241.516661,20.288125 C241.73234,19.821456 242.040552,19.4634387 242.441306,19.2140625 C242.842061,18.9646863 243.307657,18.84 243.83811,18.84 C244.572584,18.84 245.164234,19.036873 245.613079,19.430625 C246.061924,19.824377 246.321317,20.3770798 246.391267,21.08875 L245.079714,21.08875 C245.047653,20.6774979 244.933258,20.3792718 244.736524,20.1940625 C244.53979,20.0088532 244.240322,19.91625 243.83811,19.91625 C243.400924,19.91625 243.073767,20.0730193 242.856631,20.3865625 C242.639495,20.7001057 242.528015,21.186455 242.522185,21.845625 L242.522185,22.326875 C242.522185,23.0152118 242.62638,23.5183317 242.834772,23.83625 C243.043164,24.1541683 243.371778,24.313125 243.820623,24.313125 C244.225749,24.313125 244.528132,24.2205218 244.72778,24.0353125 C244.927429,23.8501032 245.041824,23.5635436 245.07097,23.175625 L246.382523,23.175625 Z M251.073511,22.536875 L248.555329,22.536875 L248.555329,24.243125 L251.510695,24.243125 L251.510695,25.2975 L247.243776,25.2975 L247.243776,18.9275 L251.501952,18.9275 L251.501952,19.990625 L248.555329,19.990625 L248.555329,21.50875 L251.073511,21.50875 L251.073511,22.536875 Z M257.456403,25.2975 L256.14485,25.2975 L253.591693,21.10625 L253.591693,25.2975 L252.28014,25.2975 L252.28014,18.9275 L253.591693,18.9275 L256.149221,23.1275 L256.149221,18.9275 L257.456403,18.9275 L257.456403,25.2975 Z M263.266582,19.990625 L261.31674,19.990625 L261.31674,25.2975 L260.005187,25.2975 L260.005187,19.990625 L258.081576,19.990625 L258.081576,18.9275 L263.266582,18.9275 L263.266582,19.990625 Z M268.272343,18.9275 L268.272343,19.990625 L265.325721,19.990625 L265.325721,21.50875 L267.843903,21.50875 L267.843903,22.536875 L265.325721,22.536875 L265.325721,24.243125 L268.281087,24.243125 L268.281087,25.2975 L264.014168,25.2975 L264.014168,18.9275 L268.272343,18.9275 Z M271.415699,18.9275 C272.167659,18.9275 272.747652,19.0952067 273.155692,19.430625 C273.563733,19.7660433 273.76775,20.2399969 273.76775,20.8525 C273.76775,21.2870855 273.673757,21.6494777 273.485767,21.9396875 C273.297776,22.2298973 273.012881,22.4610408 272.631071,22.633125 L274.008202,25.23625 L274.008202,25.2975 L272.600468,25.2975 L271.406955,22.965625 L270.362084,22.965625 L270.362084,25.2975 L269.050531,25.2975 L269.050531,18.9275 L271.415699,18.9275 Z M271.415699,19.990625 L270.362084,19.990625 L270.362084,21.9025 L271.42007,21.9025 C271.749418,21.9025 272.004439,21.8186467 272.185143,21.6509375 C272.365847,21.4832283 272.456197,21.2520848 272.456197,20.9575 C272.456197,20.6570818 272.370947,20.4208342 272.200445,20.24875 C272.029942,20.0766658 271.768362,19.990625 271.415699,19.990625 Z" id="EXPERTRESOURCECENTER" fill="#FFFFFF"></path>
            <path d="M60.464325,27.8 L50.055125,27.8 L50.055125,12.1332 L60.464325,12.1332 L60.464325,14.8468 L52.959525,14.8468 L52.959525,18.5356 L59.891925,18.5356 L59.891925,21.228 L52.959525,21.228 L52.959525,25.0864 L60.464325,25.0864 L60.464325,27.8 Z M69.113925,21.9912 L72.866325,27.8 L69.686325,27.8 L67.333125,23.8992 L64.916325,27.8 L61.715125,27.8 L65.573525,21.9064 L62.117925,16.2884 L65.297925,16.2884 L67.396725,19.9348 L69.622725,16.2884 L72.760325,16.2884 L69.113925,21.9912 Z M79.968325,28.0544 C78.187525,28.0544 76.724725,27.482 75.579925,26.3584 C74.456325,25.2348 73.883925,23.7932 73.883925,22.0336 C73.883925,20.274 74.456325,18.8324 75.601125,17.7088 C76.745925,16.5852 78.229925,16.0128 80.053125,16.0128 C82.406325,16.0128 84.462725,17.1576 85.395525,19.1716 L83.148325,20.38 C82.469925,19.2564 81.367525,18.5568 80.095525,18.5568 C79.099125,18.5568 78.272325,18.896 77.615125,19.5532 C76.957925,20.2104 76.639925,21.0372 76.639925,22.0336 C76.639925,23.03 76.957925,23.8568 77.593925,24.514 C78.229925,25.1712 79.035525,25.5104 80.010725,25.5104 C81.282725,25.5104 82.533525,24.7896 83.105925,23.7084 L85.353125,25.0228 C84.356725,26.8672 82.321525,28.0544 79.968325,28.0544 Z M98.327525,21.8004 C98.327525,22.1184 98.306325,22.5212 98.242725,23.03 L89.465925,23.03 C89.826325,24.62 91.013525,25.68 92.985125,25.68 C94.384325,25.68 95.656325,25.2772 96.779925,24.4928 L97.882325,26.4644 C96.461925,27.5244 94.787125,28.0544 92.879125,28.0544 C88.554325,28.0544 86.646325,25.0864 86.646325,22.0336 C86.646325,20.2952 87.197525,18.8536 88.299925,17.73 C89.423525,16.5852 90.865125,16.0128 92.624725,16.0128 C94.299525,16.0128 95.656325,16.5428 96.716325,17.5816 C97.797525,18.6204 98.327525,20.0196 98.327525,21.8004 Z M92.624725,18.3236 C91.013525,18.3236 89.826325,19.32 89.465925,20.9312 L95.613925,20.9312 C95.380725,19.32 94.214725,18.3236 92.624725,18.3236 Z M103.224725,11.8 L103.224725,27.8 L100.468725,27.8 L100.468725,11.8 L103.224725,11.8 Z M111.407925,28.0544 C109.733125,28.0544 108.333925,27.5032 107.252725,26.4008 C106.171525,25.2772 105.620325,23.8568 105.620325,22.1396 C105.620325,20.4012 106.171525,18.9808 107.273925,17.8572 C108.397525,16.7336 109.817925,16.1824 111.535125,16.1824 C113.761125,16.1824 115.732725,17.306 116.601925,19.108 L115.563125,19.7016 C114.799925,18.26 113.252325,17.3484 111.535125,17.3484 C110.199525,17.3484 109.075925,17.7936 108.206725,18.7052 C107.337525,19.5956 106.892325,20.7404 106.892325,22.1396 C106.892325,23.5176 107.316325,24.6624 108.164325,25.5528 C109.012325,26.4432 110.093525,26.8884 111.407925,26.8884 C113.125125,26.8884 114.757525,25.9132 115.499525,24.5352 L116.538325,25.1712 C116.093125,26.0404 115.393525,26.74 114.460725,27.27 C113.527925,27.8 112.510325,28.0544 111.407925,28.0544 Z M120.248325,27.8 L118.976325,27.8 L118.976325,11.794 L120.205925,11.794 L120.205925,18.366 C120.884325,16.9456 122.325925,16.1612 124.127925,16.1612 C125.421125,16.1612 126.481125,16.5852 127.329125,17.412 C128.198325,18.2388 128.622325,19.426 128.622325,20.9524 L128.622325,27.8 L127.350325,27.8 L127.350325,21.1644 C127.350325,18.79 126.078325,17.3484 123.979525,17.3484 C122.983125,17.3484 122.113925,17.6876 121.371925,18.366 C120.629925,19.0444 120.248325,20.062 120.248325,21.4188 L120.248325,27.8 Z M140.678725,18.6416 L140.678725,16.458 L141.908325,16.458 L141.908325,27.8 L140.678725,27.8 L140.678725,25.5952 C139.724725,27.1428 138.092325,28.0756 136.205525,28.0756 C134.594325,28.0756 133.258725,27.5032 132.177525,26.3584 C131.096325,25.1924 130.566325,23.772 130.566325,22.076 C130.566325,20.4012 131.096325,19.002 132.156325,17.8784 C133.237525,16.7548 134.573125,16.1824 136.205525,16.1824 C138.092325,16.1824 139.724725,17.094 140.678725,18.6416 Z M147.198661,12.4 L147.198661,16.4169702 L150.797789,16.4169702 L150.797789,17.6213627 L147.198661,17.6213627 L147.198661,24.5799416 C147.198661,26.0230594 148.129119,26.8356075 149.181991,26.8356075 L149.181991,26.8356075 L150.797789,26.8356075 L150.797789,28.04 L149.182165,28.04 C147.30516,28.04 145.795396,26.5142456 145.795396,24.6629969 L145.795396,24.6629969 L145.795396,17.6213627 L143.8,17.6213627 L143.8,16.4169702 L145.795396,16.4169702 L145.795396,12.4 L147.198661,12.4 Z M136.269125,17.3484 C137.583525,17.3484 138.664725,17.8148 139.512725,18.7264 C140.360725,19.638 140.784725,20.7616 140.784725,22.076 C140.784725,23.4328 140.360725,24.5776 139.512725,25.5104 C138.664725,26.4432 137.583525,26.9096 136.269125,26.9096 C134.975925,26.9096 133.894725,26.4432 133.067925,25.5316 C132.241125,24.62 131.838325,23.4752 131.838325,22.1184 C131.838325,20.7828 132.241125,19.638 133.067925,18.7264 C133.894725,17.8148 134.975925,17.3484 136.269125,17.3484 Z" id="Excelchat" fill="#091D42"></path>
            <g id="Icon">
                <path d="M9.72009516,39.9961582 C4.32667079,39.8479317 0,35.4292399 0,30 L0,30 L0,10 L0.00384179753,9.72009516 C0.149512653,4.41966086 4.41966086,0.149512653 9.72009516,0.00384179753 L10,0 L30,0 C35.4292399,0 39.8479317,4.32667079 39.9961582,9.72009516 L40,10 L40,40 L10,40 Z" id="Chat-shape" fill="#375DE7"></path>
                <path d="M8,25 L19.2,25 L19.2,32 L12.8,32 C10.1490332,32 8,29.8509668 8,27.2 L8,25 Z M32,25 L32,27.2 C32,29.8509668 29.8509668,32 27.2,32 L20.8,32 L20.799,25 L32,25 Z M32,23.4 L20.799,23.399 L20.799,16.6 L32,16.6 L32,23.4 Z M8,16.6 L19.2,16.6 L19.2,23.399 L8,23.4 L8,16.6 Z M27.2,8 C29.8509668,8 32,10.1490332 32,12.8 L32,15 L20.799,15 L20.8,8 L27.2,8 Z M19.2,15 L8,15 L8,12.8 C8,10.1490332 10.1490332,8 12.8,8 L19.2,8 L19.2,15 Z" id="Product-icon" fill="#FFFFFF"></path>
            </g>
        </g>
    </g>
</svg>