<?xml version="1.0" encoding="UTF-8"?>
<svg width="277px" height="40px" viewBox="0 0 277 40" version="1.1" xmlns="http://www.w3.org/2000/svg" xmlns:xlink="http://www.w3.org/1999/xlink">
    <!-- Generator: Sketch 59.1 (86144) - https://sketch.com -->
    <title>Logos/Excelchat ERC/Spot Hero/Black</title>
    <desc>Created with Sketch.</desc>
    <g id="Logos/Excelchat-ERC/Spot-Hero/Black" stroke="none" stroke-width="1" fill="none" fill-rule="evenodd">
        <path d="M30,0 C35.4292399,0 39.8479317,4.32667079 39.9961582,9.72009516 L40,10 L40,40 L10,40 L9.72009516,39.9961582 C4.41966086,39.8504873 0.149512653,35.5803391 0.00384179753,30.2799048 L0,30 L0,10 L0.00384179753,9.72009516 C0.149512653,4.41966086 4.41966086,0.149512653 9.72009516,0.00384179753 L10,0 L30,0 Z M32,25 L20.799,25 L20.8,32 L27.2,32 C29.779319,32 31.8834694,29.965561 31.9953232,27.4138108 L32,27.2 L32,25 Z M19.2,25 L8,25 L8,27.2 C8,29.779319 10.034439,31.8834694 12.5861892,31.9953232 L12.8,32 L19.2,32 L19.2,25 Z M136.205525,16.1824 C138.092325,16.1824 139.724725,17.094 140.678725,18.6416 L140.678725,16.458 L141.908325,16.458 L141.908325,27.8 L140.678725,27.8 L140.678725,25.5952 C139.724725,27.1428 138.092325,28.0756 136.205525,28.0756 C134.594325,28.0756 133.258725,27.5032 132.177525,26.3584 C131.096325,25.1924 130.566325,23.772 130.566325,22.076 C130.566325,20.4012 131.096325,19.002 132.156325,17.8784 C133.237525,16.7548 134.573125,16.1824 136.205525,16.1824 Z M111.535125,16.1824 C113.761125,16.1824 115.732725,17.306 116.601925,19.108 L115.563125,19.7016 C114.799925,18.26 113.252325,17.3484 111.535125,17.3484 C110.199525,17.3484 109.075925,17.7936 108.206725,18.7052 C107.337525,19.5956 106.892325,20.7404 106.892325,22.1396 C106.892325,23.5176 107.316325,24.6624 108.164325,25.5528 C109.012325,26.4432 110.093525,26.8884 111.407925,26.8884 C113.125125,26.8884 114.757525,25.9132 115.499525,24.5352 L116.538325,25.1712 C116.093125,26.0404 115.393525,26.74 114.460725,27.27 C113.527925,27.8 112.510325,28.0544 111.407925,28.0544 C109.733125,28.0544 108.333925,27.5032 107.252725,26.4008 C106.171525,25.2772 105.620325,23.8568 105.620325,22.1396 C105.620325,20.4012 106.171525,18.9808 107.273925,17.8572 C108.397525,16.7336 109.817925,16.1824 111.535125,16.1824 Z M92.624725,16.0128 C94.299525,16.0128 95.656325,16.5428 96.716325,17.5816 C97.797525,18.6204 98.327525,20.0196 98.327525,21.8004 C98.327525,22.1184 98.306325,22.5212 98.242725,23.03 L89.465925,23.03 C89.826325,24.62 91.013525,25.68 92.985125,25.68 C94.384325,25.68 95.656325,25.2772 96.779925,24.4928 L97.882325,26.4644 C96.461925,27.5244 94.787125,28.0544 92.879125,28.0544 C88.554325,28.0544 86.646325,25.0864 86.646325,22.0336 C86.646325,20.2952 87.197525,18.8536 88.299925,17.73 C89.423525,16.5852 90.865125,16.0128 92.624725,16.0128 Z M80.053125,16.0128 C82.406325,16.0128 84.462725,17.1576 85.395525,19.1716 L83.148325,20.38 C82.469925,19.2564 81.367525,18.5568 80.095525,18.5568 C79.099125,18.5568 78.272325,18.896 77.615125,19.5532 C76.957925,20.2104 76.639925,21.0372 76.639925,22.0336 C76.639925,23.03 76.957925,23.8568 77.593925,24.514 C78.229925,25.1712 79.035525,25.5104 80.010725,25.5104 C81.282725,25.5104 82.533525,24.7896 83.105925,23.7084 L85.353125,25.0228 C84.356725,26.8672 82.321525,28.0544 79.968325,28.0544 C78.187525,28.0544 76.724725,27.482 75.579925,26.3584 C74.456325,25.2348 73.883925,23.7932 73.883925,22.0336 C73.883925,20.274 74.456325,18.8324 75.601125,17.7088 C76.745925,16.5852 78.229925,16.0128 80.053125,16.0128 Z M147.198661,12.4 L147.198661,16.4169702 L150.797789,16.4169702 L150.797789,17.6213627 L147.198661,17.6213627 L147.198661,24.5799416 C147.198661,25.9603152 148.049969,26.7637591 149.04542,26.8310144 L149.181991,26.8356075 L150.797789,26.8356075 L150.797789,28.04 L149.182165,28.04 C147.367727,28.04 145.896455,26.6142673 145.800386,24.8469923 L145.795396,24.6629969 L145.795396,17.6213627 L143.8,17.6213627 L143.8,16.4169702 L145.795396,16.4169702 L145.795396,12.4 L147.198661,12.4 Z M275,16.6 C276.104569,16.6 277,17.4954305 277,18.6 L277,25.8 C277,26.9045695 276.104569,27.8 275,27.8 L158.686869,27.8 C157.582299,27.8 156.686869,26.9045695 156.686869,25.8 L156.686869,18.6 C156.686869,17.4954305 157.582299,16.6 158.686869,16.6 L275,16.6 Z M120.205925,11.794 L120.205925,18.366 C120.884325,16.9456 122.325925,16.1612 124.127925,16.1612 C125.421125,16.1612 126.481125,16.5852 127.329125,17.412 C128.198325,18.2388 128.622325,19.426 128.622325,20.9524 L128.622325,27.8 L127.350325,27.8 L127.350325,21.1644 C127.350325,18.79 126.078325,17.3484 123.979525,17.3484 C122.983125,17.3484 122.113925,17.6876 121.371925,18.366 C120.629925,19.0444 120.248325,20.062 120.248325,21.4188 L120.248325,27.8 L118.976325,27.8 L118.976325,11.794 L120.205925,11.794 Z M103.224725,11.8 L103.224725,27.8 L100.468725,27.8 L100.468725,11.8 L103.224725,11.8 Z M60.464325,12.1332 L60.464325,14.8468 L52.959525,14.8468 L52.959525,18.5356 L59.891925,18.5356 L59.891925,21.228 L52.959525,21.228 L52.959525,25.0864 L60.464325,25.0864 L60.464325,27.8 L50.055125,27.8 L50.055125,12.1332 L60.464325,12.1332 Z M65.297925,16.2884 L67.396725,19.9348 L69.622725,16.2884 L72.760325,16.2884 L69.113925,21.9912 L72.866325,27.8 L69.686325,27.8 L67.333125,23.8992 L64.916325,27.8 L61.715125,27.8 L65.573525,21.9064 L62.117925,16.2884 L65.297925,16.2884 Z M136.269125,17.3484 C134.975925,17.3484 133.894725,17.8148 133.067925,18.7264 C132.241125,19.638 131.838325,20.7828 131.838325,22.1184 C131.838325,23.4752 132.241125,24.62 133.067925,25.5316 C133.894725,26.4432 134.975925,26.9096 136.269125,26.9096 C137.583525,26.9096 138.664725,26.4432 139.512725,25.5104 C140.360725,24.5776 140.784725,23.4328 140.784725,22.076 C140.784725,20.7616 140.360725,19.638 139.512725,18.7264 C138.664725,17.8148 137.583525,17.3484 136.269125,17.3484 Z M212.990383,18.84 C212.45993,18.84 211.988504,18.9676029 211.576092,19.2228125 C211.163679,19.4780221 210.844538,19.8440601 210.618658,20.3209375 C210.425047,20.7296895 210.314413,21.1936144 210.286755,21.7127224 L210.27984,21.976875 L210.27984,22.291875 C210.282755,22.9043781 210.397879,23.4461435 210.625216,23.9171875 C210.852553,24.3882315 211.173151,24.7506237 211.587021,25.004375 C212.000891,25.2581263 212.471588,25.385 212.999127,25.385 C213.532494,25.385 214.005377,25.2566679 214.41779,25 C214.830203,24.743332 215.147158,24.3787524 215.368666,23.90625 C215.55853,23.501248 215.667022,23.039466 215.694145,22.5208937 L215.700926,22.256875 L215.700926,21.9725 C215.700926,21.3483302 215.587988,20.7978149 215.362108,20.3209375 C215.136228,19.8440601 214.817087,19.4780221 214.404674,19.2228125 C213.992262,18.9676029 213.520836,18.84 212.990383,18.84 Z M217.904335,18.9275 L216.592782,18.9275 L216.592782,23.17125 C216.601526,23.8595868 216.824488,24.400623 217.261674,24.794375 C217.698861,25.188127 218.289054,25.385 219.032271,25.385 C219.787146,25.385 220.382439,25.1822937 220.818169,24.776875 C221.210325,24.4119982 221.426008,23.9290025 221.465223,23.3278758 L221.471759,23.123125 L221.471759,18.9275 L220.155834,18.9275 L220.155834,23.166875 C220.144176,23.9427122 219.769659,24.330625 219.032271,24.330625 C218.679607,24.330625 218.403455,24.2351051 218.203806,24.0440625 C218.032679,23.8803117 217.934893,23.6335281 217.910447,23.303706 L217.904335,23.131875 L217.904335,18.9275 Z M243.83811,18.84 C243.307657,18.84 242.842061,18.9646863 242.441306,19.2140625 C242.040552,19.4634387 241.73234,19.821456 241.516661,20.288125 C241.331794,20.688127 241.226157,21.1416947 241.199747,21.6488384 L241.193145,21.906875 L241.193145,22.29625 C241.193145,23.2558381 241.427036,24.0105181 241.894826,24.5603125 C242.362615,25.1101069 243.004541,25.385 243.820623,25.385 C244.566755,25.385 245.167877,25.188127 245.624008,24.794375 C246.029458,24.4443732 246.27428,23.979151 246.358478,23.3986968 L246.382523,23.175625 L245.07097,23.175625 C245.041824,23.5635436 244.927429,23.8501032 244.72778,24.0353125 C244.528132,24.2205218 244.225749,24.313125 243.820623,24.313125 C243.371778,24.313125 243.043164,24.1541683 242.834772,23.83625 C242.649535,23.553656 242.546626,23.1247298 242.526044,22.5494607 L242.522185,22.326875 L242.522185,21.845625 C242.528015,21.186455 242.639495,20.7001057 242.856631,20.3865625 C243.073767,20.0730193 243.400924,19.91625 243.83811,19.91625 C244.240322,19.91625 244.53979,20.0088532 244.736524,20.1940625 C244.905153,20.3528133 245.013289,20.5945969 245.060933,20.919419 L245.079714,21.08875 L246.391267,21.08875 C246.321317,20.3770798 246.061924,19.824377 245.613079,19.430625 C245.164234,19.036873 244.572584,18.84 243.83811,18.84 Z M230.713836,18.84 C230.183383,18.84 229.717787,18.9646863 229.317032,19.2140625 C228.916278,19.4634387 228.608066,19.821456 228.392387,20.288125 C228.20752,20.688127 228.101883,21.1416947 228.075473,21.6488384 L228.068871,21.906875 L228.068871,22.29625 C228.068871,23.2558381 228.302762,24.0105181 228.770552,24.5603125 C229.238341,25.1101069 229.880267,25.385 230.696349,25.385 C231.442481,25.385 232.043603,25.188127 232.499734,24.794375 C232.905184,24.4443732 233.150006,23.979151 233.234204,23.3986968 L233.258249,23.175625 L231.946696,23.175625 C231.91755,23.5635436 231.803155,23.8501032 231.603506,24.0353125 C231.403858,24.2205218 231.101475,24.313125 230.696349,24.313125 C230.247504,24.313125 229.91889,24.1541683 229.710498,23.83625 C229.525261,23.553656 229.422352,23.1247298 229.40177,22.5494607 L229.397911,22.326875 L229.397911,21.845625 C229.403741,21.186455 229.515221,20.7001057 229.732357,20.3865625 C229.949493,20.0730193 230.27665,19.91625 230.713836,19.91625 C231.116048,19.91625 231.415516,20.0088532 231.61225,20.1940625 C231.780879,20.3528133 231.889015,20.5945969 231.936659,20.919419 L231.95544,21.08875 L233.266993,21.08875 C233.197043,20.3770798 232.93765,19.824377 232.488805,19.430625 C232.03996,19.036873 231.44831,18.84 230.713836,18.84 Z M207.245781,18.84 C206.794021,18.84 206.386715,18.9158326 206.02385,19.0675 C205.660986,19.2191674 205.382648,19.4298945 205.188828,19.6996875 C204.995009,19.9694805 204.898101,20.2764566 204.898101,20.620625 C204.898101,21.2827116 205.259503,21.8091647 205.982318,22.2 C206.20334,22.3190978 206.490139,22.4397132 206.84272,22.5618488 L207.062163,22.6353125 L207.136647,22.6597937 C207.55138,22.7981378 207.841322,22.9299762 208.006481,23.0553125 C208.181356,23.1880215 208.268792,23.3783321 208.268792,23.62625 C208.268792,23.8537511 208.181356,24.0309369 208.006481,24.1578125 C207.831607,24.2846881 207.588243,24.348125 207.276384,24.348125 C206.492945,24.348125 206.075117,24.0419688 206.022889,23.4296478 L206.017293,23.29375 L204.701368,23.29375 C204.701368,23.7050021 204.80702,24.0666667 205.018326,24.37875 C205.229633,24.6908349 205.536388,24.9365616 205.9386,25.1159375 C206.340811,25.2953134 206.786735,25.385 207.276384,25.385 C207.981711,25.385 208.542759,25.2282307 208.959543,24.9146875 C209.376328,24.6011443 209.584717,24.1687528 209.584717,23.6175 C209.584717,23.1216642 209.414217,22.7075017 209.073211,22.375 C208.770095,22.079443 208.306936,21.8265232 207.683722,21.6162348 L207.442514,21.539375 L207.3628,21.5147582 C206.996924,21.3993357 206.71674,21.2762923 206.522241,21.145625 C206.313848,21.0056243 206.209654,20.8320844 206.209654,20.625 C206.209654,20.4033322 206.298547,20.2246882 206.476336,20.0890625 C206.654125,19.9534368 206.903318,19.885625 207.223922,19.885625 C207.556183,19.885625 207.814119,19.9665617 207.997738,20.1284375 C208.150753,20.263334 208.240011,20.4432949 208.265513,20.6683242 L208.273164,20.80875 L209.584717,20.80875 C209.584717,20.4266648 209.486351,20.0854182 209.289618,19.785 C209.092884,19.4845818 208.816732,19.25198 208.461153,19.0871875 C208.105575,18.922395 207.700455,18.84 207.245781,18.84 Z M224.9124,18.9275 L222.547233,18.9275 L222.547233,25.2975 L223.858786,25.2975 L223.858786,22.965625 L224.903656,22.965625 L226.09717,25.2975 L227.504903,25.2975 L227.504903,25.23625 L226.127773,22.633125 C226.509582,22.4610408 226.794478,22.2298973 226.982468,21.9396875 C227.170458,21.6494777 227.264452,21.2870855 227.264452,20.8525 C227.264452,20.2399969 227.060434,19.7660433 226.652394,19.430625 C226.244353,19.0952067 225.664361,18.9275 224.9124,18.9275 Z M238.377678,18.9275 L234.119502,18.9275 L234.119502,25.2975 L238.386422,25.2975 L238.386422,24.243125 L235.431055,24.243125 L235.431055,22.536875 L237.949237,22.536875 L237.949237,21.50875 L235.431055,21.50875 L235.431055,19.990625 L238.377678,19.990625 L238.377678,18.9275 Z M253.591693,18.9275 L252.28014,18.9275 L252.28014,25.2975 L253.591693,25.2975 L253.591693,21.10625 L256.14485,25.2975 L257.456403,25.2975 L257.456403,18.9275 L256.149221,18.9275 L256.149221,23.1275 L253.591693,18.9275 Z M172.887463,18.9275 L170.404256,18.9275 L170.404256,25.2975 L171.715809,25.2975 L171.715809,23.053125 L172.865604,23.053125 C173.620479,23.053125 174.211401,22.8730226 174.638386,22.5128125 C175.065372,22.1526024 175.278862,21.6604198 175.278862,21.03625 C175.278862,20.6249979 175.181225,20.2582308 174.985948,19.9359375 C174.790671,19.6136442 174.511605,19.3650009 174.14874,19.19 C173.785875,19.0149991 173.365454,18.9275 172.887463,18.9275 Z M163.9383,18.9275 L159.680124,18.9275 L159.680124,25.2975 L163.947043,25.2975 L163.947043,24.243125 L160.991677,24.243125 L160.991677,22.536875 L163.509859,22.536875 L163.509859,21.50875 L160.991677,21.50875 L160.991677,19.990625 L163.9383,19.990625 L163.9383,18.9275 Z M180.437637,18.9275 L176.179461,18.9275 L176.179461,25.2975 L180.44638,25.2975 L180.44638,24.243125 L177.491014,24.243125 L177.491014,22.536875 L180.009196,22.536875 L180.009196,21.50875 L177.491014,21.50875 L177.491014,19.990625 L180.437637,19.990625 L180.437637,18.9275 Z M191.502773,18.9275 L186.317766,18.9275 L186.317766,19.990625 L188.241377,19.990625 L188.241377,25.2975 L189.55293,25.2975 L189.55293,19.990625 L191.502773,19.990625 L191.502773,18.9275 Z M165.800705,18.9275 L164.292419,18.9275 L166.146081,22.08625 L164.244329,25.2975 L165.770102,25.2975 L166.994218,23.06625 L168.218334,25.2975 L169.744108,25.2975 L167.842356,22.08625 L169.696017,18.9275 L168.187731,18.9275 L166.994218,21.12375 L165.800705,18.9275 Z M196.582855,18.9275 L194.217687,18.9275 L194.217687,25.2975 L195.52924,25.2975 L195.52924,22.965625 L196.574111,22.965625 L197.767624,25.2975 L199.175358,25.2975 L199.175358,25.23625 L197.798227,22.633125 C198.180037,22.4610408 198.464932,22.2298973 198.652922,21.9396875 C198.840913,21.6494777 198.934906,21.2870855 198.934906,20.8525 C198.934906,20.2399969 198.730889,19.7660433 198.322848,19.430625 C197.914808,19.0952067 197.334815,18.9275 196.582855,18.9275 Z M183.580992,18.9275 L181.215825,18.9275 L181.215825,25.2975 L182.527378,25.2975 L182.527378,22.965625 L183.572249,22.965625 L184.765762,25.2975 L186.173495,25.2975 L186.173495,25.23625 L184.796365,22.633125 C185.178174,22.4610408 185.46307,22.2298973 185.65106,21.9396875 C185.83905,21.6494777 185.933044,21.2870855 185.933044,20.8525 C185.933044,20.2399969 185.729027,19.7660433 185.320986,19.430625 C184.912945,19.0952067 184.332953,18.9275 183.580992,18.9275 Z M204.189862,18.9275 L199.931687,18.9275 L199.931687,25.2975 L204.198606,25.2975 L204.198606,24.243125 L201.24324,24.243125 L201.24324,22.536875 L203.761422,22.536875 L203.761422,21.50875 L201.24324,21.50875 L201.24324,19.990625 L204.189862,19.990625 L204.189862,18.9275 Z M268.272343,18.9275 L264.014168,18.9275 L264.014168,25.2975 L268.281087,25.2975 L268.281087,24.243125 L265.325721,24.243125 L265.325721,22.536875 L267.843903,22.536875 L267.843903,21.50875 L265.325721,21.50875 L265.325721,19.990625 L268.272343,19.990625 L268.272343,18.9275 Z M263.266582,18.9275 L258.081576,18.9275 L258.081576,19.990625 L260.005187,19.990625 L260.005187,25.2975 L261.31674,25.2975 L261.31674,19.990625 L263.266582,19.990625 L263.266582,18.9275 Z M251.501952,18.9275 L247.243776,18.9275 L247.243776,25.2975 L251.510695,25.2975 L251.510695,24.243125 L248.555329,24.243125 L248.555329,22.536875 L251.073511,22.536875 L251.073511,21.50875 L248.555329,21.50875 L248.555329,19.990625 L251.501952,19.990625 L251.501952,18.9275 Z M271.415699,18.9275 L269.050531,18.9275 L269.050531,25.2975 L270.362084,25.2975 L270.362084,22.965625 L271.406955,22.965625 L272.600468,25.2975 L274.008202,25.2975 L274.008202,25.23625 L272.631071,22.633125 C273.012881,22.4610408 273.297776,22.2298973 273.485767,21.9396875 C273.673757,21.6494777 273.76775,21.2870855 273.76775,20.8525 C273.76775,20.2399969 273.563733,19.7660433 273.155692,19.430625 C272.747652,19.0952067 272.167659,18.9275 271.415699,18.9275 Z M212.990383,19.925 C213.433399,19.925 213.774399,20.0985399 214.013394,20.445625 C214.225835,20.7541451 214.343856,21.1894087 214.36746,21.7514266 L214.371886,21.968125 L214.371886,22.27875 C214.368971,22.9408366 214.249475,23.4446858 214.013394,23.7903125 C213.777314,24.1359392 213.439228,24.30875 212.999127,24.30875 C212.550282,24.30875 212.206367,24.1293768 211.967372,23.770625 C211.758251,23.4567172 211.640622,23.031161 211.614482,22.4939462 L211.60888,22.256875 L211.60888,21.94625 C211.611795,21.2841634 211.732748,20.7817725 211.971743,20.4390625 C212.210739,20.0963525 212.550282,19.925 212.990383,19.925 Z M19.2,16.6 L8,16.6 L8,23.4 L19.2,23.399 L19.2,16.6 Z M32,16.6 L20.799,16.6 L20.799,23.399 L32,23.4 L32,16.6 Z M171.715809,19.990625 L172.918066,19.990625 C173.241584,19.9964584 173.495148,20.095624 173.678767,20.288125 C173.862385,20.480626 173.954193,20.7329151 173.954193,21.045 C173.954193,21.3483348 173.863114,21.5816658 173.680953,21.745 C173.524815,21.8850007 173.308187,21.9650002 173.031065,21.985 L172.887463,21.99 L171.715809,21.99 L171.715809,19.990625 L172.918066,19.990625 Z M182.527378,19.990625 L183.580992,19.990625 C183.933656,19.990625 184.195235,20.0766658 184.365738,20.24875 C184.536241,20.4208342 184.621491,20.6570818 184.621491,20.9575 C184.621491,21.2520848 184.53114,21.4832283 184.350437,21.6509375 C184.19985,21.7906951 183.997654,21.8722196 183.743844,21.8955122 L183.585364,21.9025 L182.527378,21.9025 L182.527378,19.990625 L183.580992,19.990625 Z M195.52924,19.990625 L196.582855,19.990625 C196.935518,19.990625 197.197098,20.0766658 197.3676,20.24875 C197.538103,20.4208342 197.623353,20.6570818 197.623353,20.9575 C197.623353,21.2520848 197.533003,21.4832283 197.352299,21.6509375 C197.201713,21.7906951 196.999516,21.8722196 196.745706,21.8955122 L196.587226,21.9025 L195.52924,21.9025 L195.52924,19.990625 L196.582855,19.990625 Z M223.858786,19.990625 L224.9124,19.990625 C225.265064,19.990625 225.526643,20.0766658 225.697146,20.24875 C225.867649,20.4208342 225.952899,20.6570818 225.952899,20.9575 C225.952899,21.2520848 225.862548,21.4832283 225.681844,21.6509375 C225.531258,21.7906951 225.329062,21.8722196 225.075252,21.8955122 L224.916772,21.9025 L223.858786,21.9025 L223.858786,19.990625 L224.9124,19.990625 Z M270.362084,19.990625 L271.415699,19.990625 C271.768362,19.990625 272.029942,20.0766658 272.200445,20.24875 C272.370947,20.4208342 272.456197,20.6570818 272.456197,20.9575 C272.456197,21.2520848 272.365847,21.4832283 272.185143,21.6509375 C272.034557,21.7906951 271.832361,21.8722196 271.57855,21.8955122 L271.42007,21.9025 L270.362084,21.9025 L270.362084,19.990625 L271.415699,19.990625 Z M92.624725,18.3236 C91.013525,18.3236 89.826325,19.32 89.465925,20.9312 L95.613925,20.9312 C95.380725,19.32 94.214725,18.3236 92.624725,18.3236 Z M27.2,8 L20.8,8 L20.799,15 L32,15 L32,12.8 C32,10.1490332 29.8509668,8 27.2,8 Z M19.2,8 L12.8,8 C10.220681,8 8.1165306,10.034439 8.00467683,12.5861892 L8,12.8 L8,15 L19.2,15 L19.2,8 Z" id="Logos/Excelchat-Learning/Spot-Hero/Black" fill="#000000"></path>
    </g>
</svg>