<?xml version="1.0" encoding="UTF-8"?>
<svg width="130px" height="40px" viewBox="0 0 130 40" version="1.1" xmlns="http://www.w3.org/2000/svg" xmlns:xlink="http://www.w3.org/1999/xlink">
    <title>Logos/Got It AI/Original@svg</title>
    <g id="Logos/Got-It-AI/Original" stroke="none" stroke-width="1" fill="none" fill-rule="evenodd">
        <g>
            <path d="M58.7725509,7.43289445 L58.7725509,11.1421547 L54.3271366,11.1421547 L54.3271366,20.5000364 C54.3271366,21.3726922 55.0161405,22.0804248 55.8714428,22.0804248 L58.7725509,22.0804248 L58.7725509,25.789685 L55.8714428,25.789685 C53.008654,25.789685 50.6685707,23.4081327 50.6685707,20.5000364 L50.6685707,11.1421547 L47.9973786,11.1421547 L47.9973786,7.43289445 L50.6685707,7.43289445 L50.6685707,1.59514076 L54.3271366,1.59514076 L54.3271366,7.43289445 L58.7725509,7.43289445 Z M126.046412,25.8460464 L130,25.8460464 L130,0.0139957809 L126.046412,0.0139957809 L126.046412,25.8460464 Z M111.279333,6.41082418 L107.841383,15.778919 L114.716912,15.778919 L111.279333,6.41082418 Z M118.309256,25.8460464 L115.902579,19.4840183 L106.551174,19.4840183 L104.144869,25.8460464 L99.881751,25.8460464 L109.989497,0.0139957809 L112.568053,0.0139957809 L122.572003,25.8460464 L118.309256,25.8460464 Z M90.7710513,7.43289445 L90.7710513,11.1421547 L86.325637,11.1421547 L86.325637,20.5000364 C86.325637,21.3726922 87.0146409,22.0804248 87.8699432,22.0804248 L90.7710513,22.0804248 L90.7710513,25.789685 L87.8699432,25.789685 C85.0067824,25.789685 82.6670711,23.4081327 82.6670711,20.5000364 L82.6670711,11.1421547 L79.995879,11.1421547 L79.995879,7.43289445 L82.6670711,7.43289445 L82.6670711,1.59514076 L86.325637,1.59514076 L86.325637,7.43289445 L90.7710513,7.43289445 Z M12.6371941,25.8645814 C8.98904508,25.8645814 5.97037478,24.6443006 3.58229927,22.2374045 C1.19385174,19.7968429 0,16.7120972 0,12.9831672 C0,9.22057176 1.22733465,6.13544773 3.71511481,3.69488616 C6.20252295,1.22028079 9.22119325,0 12.8031205,0 C16.882827,0 20.6972744,1.76271186 22.9197956,4.44082345 L20.2995719,7.08489125 C18.3423098,4.88112315 15.8549017,3.79663927 12.8362314,3.79663927 C10.2822294,3.79663927 8.15941299,4.6779952 6.467782,6.40704154 C4.77615101,8.13570961 3.91415211,10.3390994 3.91415211,12.9831672 C3.91415211,15.5931912 4.74304013,17.7965811 6.43467112,19.5256274 C8.12630211,21.2542955 10.2160077,22.1019859 12.7368987,22.1019859 C15.5561597,22.1019859 18.3423098,20.8476613 20.1998672,18.8477777 L20.1998672,14.3729105 L12.4716397,14.3729105 L12.4716397,10.8474867 L23.7490556,10.8474867 L23.7490556,20.6781989 C20.6972744,24.1359133 16.9825317,25.8645814 12.6371941,25.8645814 L12.6371941,25.8645814 Z M26.9254676,16.3731723 C26.9254676,13.6950607 27.8209494,11.4576271 29.5788022,9.59316214 C31.3701378,7.72869717 33.6253978,6.77963192 36.378809,6.77963192 C39.1314762,6.77963192 41.3874803,7.72869717 43.144961,9.59316214 C44.9362966,11.4576271 45.8317784,13.6950607 45.8317784,16.3731723 C45.8317784,19.0849494 44.9362966,21.3560486 43.144961,23.2205136 C41.3874803,25.0849785 39.1314762,26 36.378809,26 C33.6253978,26 31.3701378,25.0849785 29.5788022,23.2205136 C27.8209494,21.3560486 26.9254676,19.0849494 26.9254676,16.3731723 L26.9254676,16.3731723 Z M42.3413711,16.3391285 C42.3413711,14.6229432 41.7587685,13.1170728 40.5935633,11.8914963 C39.462957,10.6307413 38.0577909,10.0001746 36.378809,10.0001746 C34.6994551,10.0001746 33.294661,10.6307413 32.1294558,11.8914963 C30.9988496,13.1170728 30.4158749,14.6229432 30.4158749,16.3391285 C30.4158749,18.0901142 30.9988496,19.5959846 32.1294558,20.8219393 C33.294661,22.0475158 34.6994551,22.6780825 36.378809,22.6780825 C38.0577909,22.6780825 39.462957,22.0475158 40.5935633,20.8219393 C41.7587685,19.5959846 42.3413711,18.0901142 42.3413711,16.3391285 L42.3413711,16.3391285 Z M72.5816468,25.8664727 L76.3960942,25.8664727 L76.3960942,0 L72.5816468,0 L72.5816468,25.8664727 Z" id="Fill-1" fill="#000000"></path>
            <polygon id="Fill-4" fill="#375DE7" points="29.5867037 39.736963 27.3222593 37.4628889 36.2526296 28.5488148 45.1096667 37.3721481 42.8270741 39.6458519 36.2526296 33.0784444"></polygon>
        </g>
    </g>
</svg>