<?xml version="1.0" encoding="UTF-8"?>
<svg width="1024px" height="1024px" viewBox="0 0 1024 1024" version="1.1" xmlns="http://www.w3.org/2000/svg" xmlns:xlink="http://www.w3.org/1999/xlink">
    <!-- Generator: Sketch 61.2 (89653) - https://sketch.com -->
    <title>Got It - White App icon - Blue background</title>
    <desc>Created with Sketch.</desc>
    <g id="Got-It---White-App-icon---Blue-background" stroke="none" stroke-width="1" fill="none" fill-rule="evenodd">
        <rect fill="#3458EB" x="0" y="0" width="1024" height="1024"></rect>
        <path d="M512.08532,120 C641.970447,120 748.17064,226.791421 748.17064,355.703922 C748.17064,486.142015 641.970447,592.17064 512.08532,592.17064 C382.200192,592.17064 276,486.142015 276,355.703922 C276,226.791421 382.200192,120 512.08532,120 M512.08532,506.737503 C596.892668,506.737503 664.127322,439.611467 664.127322,354.941126 C664.127322,271.033581 596.892668,203.907545 512.08532,203.907545 C428.042002,203.907545 360.043318,271.033581 360.043318,354.941126 C360.043318,439.611467 428.042002,506.737503 512.08532,506.737503" id="Shape" fill="#FFFFFF" fill-rule="nonzero"></path>
        <polygon id="Combined-Shape" fill="#FFFFFF" points="512.08532 639.387704 724.562108 849.718262 669.92522 903.803262 512.08532 747.557705 354.24542 903.803262 299.608532 849.718262"></polygon>
    </g>
</svg>