<?xml version="1.0" encoding="UTF-8"?>
<svg width="96px" height="40px" viewBox="0 0 96 40" version="1.1" xmlns="http://www.w3.org/2000/svg" xmlns:xlink="http://www.w3.org/1999/xlink">
    <!-- Generator: Sketch 58 (84663) - https://sketch.com -->
    <title>Logos/Got It/White@svg</title>
    <desc>Created with Sketch.</desc>
    <g id="Logos/Got-It/White" stroke="none" stroke-width="1" fill="none" fill-rule="evenodd">
        <g id="Logo" fill="#FFFFFF">
            <path d="M38.4,6.8 C43.9016181,6.8 48.4,11.3234249 48.4,16.7838449 C48.4,22.3088853 43.9016181,26.8 38.4,26.8 C32.8983819,26.8 28.4,22.3088853 28.4,16.7838449 C28.4,11.3234249 32.8983819,6.8 38.4,6.8 M38.4,23.1812601 C41.992233,23.1812601 44.8401294,20.3379645 44.8401294,16.7515347 C44.8401294,13.1974152 41.992233,10.3541195 38.4,10.3541195 C34.8401294,10.3541195 31.9598706,13.1974152 31.9598706,16.7515347 C31.9598706,20.3379645 34.8401294,23.1812601 38.4,23.1812601" id="Shape" fill-rule="nonzero"></path>
            <polygon id="Combined-Shape" points="38.4 28.8 47.4 37.7090909 45.0857143 40 38.4 33.3818182 31.7142857 40 29.4 37.7090909"></polygon>
            <path d="M13.6326975,15.3698279 L20.0310627,15.3698279 L20.0310627,20.3111036 C18.1662125,22.075845 15.8833787,23.0063449 13.3111717,23.0063449 C7.94168937,23.0063449 3.56893733,18.5142761 3.56893733,13.3483969 C3.56893733,8.11834536 8.00599455,3.62627653 13.3111717,3.62627653 C15.8833787,3.62627653 18.6163488,4.84555236 20.9313351,7.2199316 L23.3427793,4.5567765 C20.5133515,1.60484555 16.9122616,0.000535255242 13.3111717,0.000535255242 C9.77438692,-0.0315509507 6.43051771,1.38024211 3.89046322,3.88296618 C1.4147139,6.38569024 0,9.75474187 0,13.3163107 C0,20.6319657 6.07683924,26.6 13.3111717,26.6 C17.2659401,26.6 20.8991826,24.8031725 23.6,21.7870691 L23.6,11.7440866 L13.6326975,11.7440866 L13.6326975,15.3698279 Z" id="Shape" fill-rule="nonzero"></path>
            <path d="M57.4857143,10.283871 L62.2,10.283871 L62.2,6.8 L57.4857143,6.8 L57.4857143,2 L54.0221574,2 L54.0221574,6.8 L51.2,6.8 L51.2,10.283871 L54.0221574,10.283871 L54.0221574,21.4451613 C54.0221574,24.3806452 56.3953353,26.8 59.3457726,26.8 L62.2,26.8 L62.2,23.316129 L59.3457726,23.316129 C58.3195335,23.316129 57.4857143,22.4774194 57.4857143,21.4451613 L57.4857143,10.283871 Z" id="Shape" fill-rule="nonzero"></path>
            <path d="M91.2857143,10.283871 L96,10.283871 L96,6.8 L91.2857143,6.8 L91.2857143,2 L87.8221574,2 L87.8221574,6.8 L85,6.8 L85,10.283871 L87.8221574,10.283871 L87.8221574,21.4451613 C87.8221574,24.3806452 90.1953353,26.8 93.1457726,26.8 L96,26.8 L96,23.316129 L93.1457726,23.316129 C92.1195335,23.316129 91.2857143,22.4774194 91.2857143,21.4451613 L91.2857143,10.283871 Z" id="Shape" fill-rule="nonzero"></path>
            <rect id="Shape" fill-rule="nonzero" x="77.2" y="0" width="3.6" height="26.8"></rect>
        </g>
    </g>
</svg>