<?xml version="1.0" encoding="UTF-8"?>
<svg width="24px" height="24px" viewBox="0 0 24 24" version="1.1" xmlns="http://www.w3.org/2000/svg" xmlns:xlink="http://www.w3.org/1999/xlink">
    <!-- Generator: Sketch 58 (84663) - https://sketch.com -->
    <title>Asker-avatar-2</title>
    <desc>Created with Sketch.</desc>
    <defs>
        <rect id="path-1" x="0" y="0" width="24" height="24" rx="12"></rect>
        <path d="M1.50990331e-14,-3.90798505e-14 C1.50990331e-14,-3.90798505e-14 11.1640878,3.58632 11.0769564,3.84846 C11.0487222,3.93274335 10.8197612,5.98474765 10.5215449,8.73540713 C10.8416409,8.57502866 12.1934446,7.97601928 12.1934446,9.38006721 C12.1934446,10.9595931 11.6870017,11.6445561 10.2322,11.4340946 C9.63470628,16.9878084 8.94377612,23.55792 8.94377612,23.55792 L8.94377612,23.55792 L2.43967761,22.57362 L2.81280478,17.3196 L0.161961791,16.3863 Z" id="path-3"></path>
    </defs>
    <g id="Page-1" stroke="none" stroke-width="1" fill="none" fill-rule="evenodd">
        <g id="Artboard" transform="translate(-386.000000, -402.000000)">
            <g id="Asker-avatar-2" transform="translate(386.000000, 402.000000)">
                <mask id="mask-2" fill="white">
                    <use xlink:href="#path-1"></use>
                </mask>
                <use id="Shape" fill="#375DE7" xlink:href="#path-1"></use>
                <g id="Group-111" mask="url(#mask-2)">
                    <g transform="translate(4.000000, 1.000000)">
                        <path d="M4.11075104,14.2956489 C4.26041194,12.1383489 3.36552179,9.57304889 2.20821253,7.74214889 C1.51628716,6.64870889 0.473090564,5.85059289 0.00975683296,4.64393289 C-0.216664457,4.05483747 3.55939321,4.50562149 4.92463482,3.62393289 C5.10294197,3.5087801 5.77605786,1.20037111 5.93003248,1.07071327 C6.27469975,0.780478346 7.02040546,1.76986642 7.2538695,1.58848889 C8.18189899,0.867505509 7.49176114,-0.290095654 7.80511999,0.0666488886 C8.50114567,0.860208889 10.5174675,1.55686889 11.2411701,1.58848889 C11.9658979,1.61908889 12.6291212,2.05666889 13.0637528,2.63398889 C13.4994095,3.21028889 13.7331266,3.91408889 13.8848376,4.61890889 C14.6936215,4.00078889 16.1676788,4.98610889 16.5151791,5.94082889 C16.8380776,6.82924889 16.3829445,8.74072889 15.7873761,9.82498889 C15.0667487,11.1356889 15.0595731,14.4598689 13.8530603,16.2826089" id="Fill-79" fill="#FFFFFF"></path>
                        <g id="Group-4" stroke-width="1" fill="none" transform="translate(3.854482, 2.680705)">
                            <mask id="mask-4" fill="white">
                                <use xlink:href="#path-3"></use>
                            </mask>
                            <use id="Combined-Shape" fill="#D7DEFA" fill-rule="nonzero" xlink:href="#path-3"></use>
                            <polygon id="Path-2" fill="#5E7CEB" fill-rule="nonzero" mask="url(#mask-4)" points="2.81280478 17.3196 5.84546879 18.2242634 2.72999027 18.1250812"></polygon>
                        </g>
                        <path d="M2.57508674,6.55201289 C2.57508674,6.45001289 3.9302354,7.26703289 6.54827599,6.53365289 C9.16631659,5.80027289 14.047722,7.37719289 14.047722,7.37719289 L13.3991089,13.8664551 L14.9313363,10.3678329 L15.6540139,6.36331289 L4.21110585,1.10419289 L2.43772674,5.48203289" id="Fill-109" fill="#FFFFFF"></path>
                    </g>
                </g>
            </g>
        </g>
    </g>
</svg>