<svg height="24" viewBox="0 0 24 24" width="24" xmlns="http://www.w3.org/2000/svg" xmlns:xlink="http://www.w3.org/1999/xlink"><defs><circle id="a" cx="12" cy="12" r="12"/><mask id="b" fill="#fff"><use fill="#fff" fill-rule="evenodd" xlink:href="#a"/></mask></defs><g fill="none" fill-rule="evenodd"><use fill="#375de7" xlink:href="#a"/><path d="m9.81109625 18.2733338c-5.63419091 1.7301065-6.3155357 2.5132029-6.89170215 3.002802-.88762.7543412-1.37856678 4.188599-1.9022207 6.5760602h10.9914133 10.9914133c-.5235408-2.3874612-.6912324-5.1991899-1.5788524-5.9535311-.5758269-.4895991-1.473123-1.5967687-7.1451851-3.4381148z" fill="#fff" mask="url(#b)" transform="matrix(-1 0 0 1 24.017174 0)"/><path d="m9.88452801 17.410737v1.5209342c1.23312099 1.3107867 3.25099449 1.3578837 4.48433069 0v-1.3224778l-.8143032-3.279395c0-2.4847308-3.67002749-2.4847308-3.67002749 0z" fill="#fff" mask="url(#b)" transform="matrix(-1 0 0 1 24.253386 0)"/><path d="m11.9017149 19.7201554-1.4339055 1.4649865-.99458074-2.6287542.31643644-.9967735 2.1272861 2.0432097 2.5195307-2.326823.2673229 1.1701634-1.3063857 2.8004093z" fill="#dfe1e6" mask="url(#b)"/><path d="m9.72915916 15.3267114-.07100338.3037085s1.83126222 1.6869567 2.82782232 1.7365143c.9966582.0495577 1.9345205-1.0832016 1.9345205-1.0832016l-.2337067-.2771623z" fill="#dfe1e6" mask="url(#b)" transform="matrix(-1 0 0 1 24.078654 0)"/><g mask="url(#b)"><g transform="matrix(-.99939083 -.0348995 -.0348995 .99939083 17.01548 5.37317)"><path d="m2.87228554 11.559674c-1.39065997-.2674012-1.81481646-3.38216546-1.95647665-4.5698887-.1416602-1.18772325-.3588121-5.96834867 3.9518084-6.3248513 4.00875084-.331537 4.14330132 4.24008075 4.12628699 5.90859253-.01701434 1.66851178-.62838987 2.66471736-.97575495 3.37788919-.34736507.71317178-3.37670487 1.94843858-5.14586379 1.60825828z" fill="#fff" transform="matrix(-1 0 0 1 9.853428 0)"/><path d="m5.49370056 8.48196731c.73926468.31413597 1.19167293.313782 1.35722476-.00106192.24832773-.47226589-.28931785-2.51394157-.66393214-2.52717359-.08832176-.00311968.0583353.17184733.18214054.73003536.14145934.63778334.21488065 1.20020627.22026392 1.68726879z" fill="#dfe1e6"/><path d="m4.4969028 9.69070061c.05897041-.0406733.53794731-.01898761 1.0432985-.02861989.50535119-.00963229 1.2066239-.05011909 1.22438064-.05011909-.03306185.0539503-1.53352425.55437097-2.0913455.45130477-.22690147-.0419236-.30372058-.28470398-.17633364-.37256579z" fill="#dfe1e6" transform="matrix(-1 0 0 1 11.200132 0)"/><path d="m.71103533 1.60345974c-.83002604 1.04066083.94390378 6.60737761.95006384 6.55847265.00433571-.03442139-.04016428-.68929045-.09786433-1.51745052-.05770005-.82816008-.1778506-.82638898-.12653651-1.14252196.17995098-1.10863193.72008121-2.13276781 1.59591153-2.39093297 1.25377522-.46395084 2.13602563-.1148013 3.31955501.37316761.45256391.18660191.96020572.40722037 1.45934918.36809592.21310413-.01684526.37693937-.15888876.39264518-.3407088.13394047.40525535.15217334 3.98355211.3625136 3.86406302.08680695-.04931288 1.02830494-1.22676624 1.33083111-2.46179347.30252616-1.23502723-.46297705-4.15329277-2.1986599-4.32505311-1.565238-1.44718539-3.87010729.24883757-5.43474598.95980478-1.56463868.71096721-1.32124323-.23579123-1.55306273.05485685z" fill="#21388b" transform="matrix(-1 0 0 1 10.451996 0)"/><path d="m.69696136 8.0253553c.51019618 0 1.07147679-.89661555 1.07147679-1.46932335s-.42566124-.97930819-.93585743-.97930819c-.51019618 0-.83258072.49617482-.83258072 1.06888262s.18676517 1.37974892.69696136 1.37974892z" fill="#fff" transform="matrix(-1 0 0 1 1.768438 0)"/></g></g><path d="m11.994 23.6c6.417 0 11.619-5.199 11.619-11.612 0-6.414-5.202-11.613-11.62-11.613-6.415 0-11.617 5.2-11.617 11.613-.001 6.412 5.201 11.612 11.618 11.612zm0 .375c-6.624 0-11.994-5.367-11.994-11.987s5.37-11.988 11.994-11.988 11.994 5.367 11.994 11.988c0 6.62-5.37 11.987-11.994 11.987z" fill="#375de7" mask="url(#b)"/></g></svg>