<?xml version="1.0" encoding="UTF-8"?>
<svg width="24px" height="24px" viewBox="0 0 24 24" version="1.1" xmlns="http://www.w3.org/2000/svg" xmlns:xlink="http://www.w3.org/1999/xlink">
    <!-- Generator: Sketch 58 (84663) - https://sketch.com -->
    <title>Asker-avatar-3</title>
    <desc>Created with Sketch.</desc>
    <defs>
        <rect id="path-1" x="0" y="0" width="24" height="24" rx="12"></rect>
        <path d="M3.7878,19.2768 C3.8934,18.516 3.4842,15.3486 3.4842,15.3486 L3.33405944,15.3301798 C2.73498039,15.2397601 0.536705882,14.7404235 0.3048,12.264 L0.268590951,11.8364153 C0.0332491699,8.78452646 -3.55271368e-15,2.7528 -3.55271368e-15,2.7528 L5.2002,-7.10542736e-15 L11.154,4.2162 L12.5118,7.3644 L10.728,14.8542 L10.7352,19.6282 L3.7878,19.2768 Z" id="path-3"></path>
    </defs>
    <g id="Page-1" stroke="none" stroke-width="1" fill="none" fill-rule="evenodd">
        <g id="Artboard" transform="translate(-418.000000, -402.000000)">
            <g id="Asker-avatar-3" transform="translate(418.000000, 402.000000)">
                <mask id="mask-2" fill="white">
                    <use xlink:href="#path-1"></use>
                </mask>
                <use id="Shape" fill="#375DE7" xlink:href="#path-1"></use>
                <g id="Group-5" mask="url(#mask-2)">
                    <g transform="translate(4.000000, 2.000000)">
                        <g id="Group-6" stroke-width="1" fill="none" transform="translate(2.400000, 3.000000)">
                            <mask id="mask-4" fill="white">
                                <use xlink:href="#path-3"></use>
                            </mask>
                            <use id="Fill-23" fill="#D7DEFA" fill-rule="nonzero" xlink:href="#path-3"></use>
                            <path d="M3.4842,15.3486 C3.90988682,15.4245536 5.7205939,15.3293214 7.62330819,14 C7.62330819,14 6.41359286,16.109487 3.4842,15.9893799 L3.4842,15.3486 Z" id="Fill-30" fill="#5E7CEB" fill-rule="nonzero" mask="url(#mask-4)"></path>
                        </g>
                        <path d="M14.7553614,13.202069 L14.6227614,13.242869 C13.8445614,14.991869 13.3633614,17.537669 13.3633614,17.537669 C12.9812749,18.2467231 12.8258977,16.3297678 12.7967682,15.907004 L12.7915614,15.826469 C12.7915614,15.826469 12.4243614,13.416869 12.7573614,12.477869 L12.7852613,12.4854092 C12.9892008,12.5346554 14.2507002,12.7376445 14.5537614,10.320869 C14.7169614,9.02126903 12.7537614,8.39786903 12.2191614,9.97106903 L10.9939614,10.084469 L10.9824563,9.84783117 C10.9191134,8.87752503 10.5184014,5.29118903 8.07076139,6.07586903 L7.93586325,6.15361177 C7.46042293,6.41662643 5.83580754,7.22108442 4.80316139,6.56666903 C3.58276139,5.79266903 3.66976139,5.52506903 3.66976139,5.52506903 L3.64747826,5.56824599 C3.5271688,5.78595792 2.90802805,6.7237357 1.50856139,5.96906903 C-0.0658386119,5.12006903 -0.273438612,3.60626903 0.272561388,2.88266903 L0.476220499,2.61142333 C0.728745062,2.28200781 1.00426139,1.97881189 1.41016139,1.90526903 C1.92556139,1.81286903 2.48476139,2.01806903 2.81656139,2.42306903 C2.43076139,1.85786903 2.70316139,1.01246903 3.27676139,0.637469033 C3.84976139,0.263069033 4.61356139,0.292469033 5.25076139,0.543269033 C5.88736139,0.794669033 6.42616139,1.23986903 6.95236139,1.67786903 C7.31296139,0.640469033 8.42416139,-0.0819309671 9.51856139,0.00746903289 C10.6135614,0.0980690329 11.5909614,0.992669033 11.7775614,2.07506903 C12.3685614,1.33886903 13.5037614,1.17086903 14.3551614,1.57886903 C15.2071614,1.98686903 15.7669614,2.87486903 15.9301614,3.80486903 C16.0927614,4.73486903 15.8971614,5.69846903 15.5401614,6.57266903 C16.1977614,6.19346903 17.1109614,6.46586903 17.5543614,7.08206903 C17.9971614,7.69886903 18.0013614,8.56346903 17.6779614,9.25046903 C17.3545614,9.93746903 16.7449614,10.458269 16.0699614,10.805669 C16.5703614,11.211269 16.7227614,11.987669 16.4131614,12.552869 C16.1035614,13.117469 15.3661614,13.406069 14.7553614,13.202069 Z" id="Fill-41" fill="#FFFFFF"></path>
                    </g>
                </g>
            </g>
        </g>
    </g>
</svg>