<?xml version="1.0" encoding="UTF-8"?>
<svg width="24px" height="24px" viewBox="0 0 24 24" version="1.1" xmlns="http://www.w3.org/2000/svg" xmlns:xlink="http://www.w3.org/1999/xlink">
    <!-- Generator: Sketch 58 (84663) - https://sketch.com -->
    <title>Asker-avatar-1</title>
    <desc>Created with Sketch.</desc>
    <defs>
        <rect id="path-1" x="0" y="0" width="24" height="24" rx="12"></rect>
        <path d="M3.38358333,19.5055357 C3.51522619,18.7373929 3.20308333,15.5107857 3.20308333,15.5107857 C3.20308333,15.5107857 0.258083333,15.1993214 0.0796190476,12.2794286 C-0.0995238095,9.35817857 0.0796190476,2.62267857 0.0796190476,2.62267857 L5.44372619,2.66453526e-14 L11.3445833,4.47042857 L10.4509048,19.0739643 L3.38358333,19.5055357 Z" id="path-3"></path>
    </defs>
    <g id="Page-1" stroke="none" stroke-width="1" fill="none" fill-rule="evenodd">
        <g id="Artboard" transform="translate(-354.000000, -402.000000)">
            <g id="Asker-avatar-1" transform="translate(354.000000, 402.000000)">
                <mask id="mask-2" fill="white">
                    <use xlink:href="#path-1"></use>
                </mask>
                <use id="Shape" fill="#375DE7" xlink:href="#path-1"></use>
                <g id="Group-3" mask="url(#mask-2)">
                    <g transform="translate(4.818923, 4.983421)">
                        <mask id="mask-4" fill="white">
                            <use xlink:href="#path-3"></use>
                        </mask>
                        <use id="Fill-11" stroke="none" fill="#D7DEFA" fill-rule="nonzero" xlink:href="#path-3"></use>
                        <path d="M3.20308333,15.5107857 C3.62877016,15.5867393 5.32367723,15.6611169 7.22639152,14.3317954 C7.22639152,14.3317954 6.18877825,16.3124067 3.25938539,16.1922996 L3.20308333,15.5107857 Z" id="Fill-30" stroke="none" fill="#5E7CEB" fill-rule="nonzero" mask="url(#mask-4)"></path>
                    </g>
                </g>
                <path d="M11.7622076,3.05367741 C12.6666517,3.05367741 16.7067082,3.88290573 18.8581702,7.92374473 L18.8901255,7.85633456 C19.508304,6.58401313 19.6582683,5.41890599 19.798054,5.43112027 C19.8591255,5.43451313 19.9032326,5.73851313 19.8523397,6.22640599 C19.8181197,6.5625128 19.7298195,6.98540679 19.5717797,7.4387133 C19.6917848,7.32904378 19.824849,7.23231356 19.9678326,7.15048456 C20.5249397,6.83019884 21.2367612,6.76030599 21.8189755,7.0330917 C22.4011897,7.30587741 22.8137612,7.94169884 22.7574397,8.5815917 C22.6950112,9.29748456 22.0707255,9.8830917 21.3711183,10.047306 C21.0706468,10.1178337 20.761789,10.121772 20.4575006,10.0755171 L20.6018897,10.2324203 L20.6018897,10.2324203 C20.9486397,10.6361703 21.174604,11.0684203 21.2831755,11.3968488 C21.393104,11.725956 21.3992112,11.9458131 21.3401755,11.9654917 C21.2092112,12.0075631 20.8814612,11.2692774 20.243604,10.5411703 C20.0517578,10.3152366 19.8546273,10.1178889 19.6752046,9.9492832 L19.6410373,9.83390587 C19.6864058,9.97889206 19.7287199,10.1284602 19.7686719,10.2811417 C19.8417327,10.5621449 19.9941372,11.1199959 20.0516212,11.6072447 L20.0523147,11.6076131 C20.0523147,11.6076131 20.8503147,18.2786488 15.162529,19.4939703 L15.325,11.684 C15.1351683,11.6649176 10.4955779,11.1412379 9.66135046,6.85842741 L9.63341907,6.8837171 C9.35164871,7.55110711 8.85472633,8.98226081 9.1924576,10.1339596 L4.92,11.235 L4.43363617,11.685106 C4.43363617,11.685106 2.84713617,8.44832027 5.74327903,5.43885599 C8.63942188,2.4293917 10.626279,3.05367741 11.7622076,3.05367741 Z" id="Combined-Shape" fill="#FFFFFF" mask="url(#mask-2)"></path>
            </g>
        </g>
    </g>
</svg>