<?xml version="1.0" encoding="UTF-8"?>
<svg width="24px" height="24px" viewBox="0 0 24 24" version="1.1" xmlns="http://www.w3.org/2000/svg" xmlns:xlink="http://www.w3.org/1999/xlink">
    <!-- Generator: Sketch 58 (84663) - https://sketch.com -->
    <title>Asker-avatar-4</title>
    <desc>Created with Sketch.</desc>
    <defs>
        <rect id="path-1" x="0" y="0" width="24" height="24" rx="12"></rect>
    </defs>
    <g id="Page-1" stroke="none" stroke-width="1" fill="none" fill-rule="evenodd">
        <g id="Artboard" transform="translate(-450.000000, -402.000000)">
            <g id="Asker-avatar-4" transform="translate(450.000000, 402.000000)">
                <mask id="mask-2" fill="white">
                    <use xlink:href="#path-1"></use>
                </mask>
                <use id="Shape" fill="#375DE7" xlink:href="#path-1"></use>
                <g id="Group-9" mask="url(#mask-2)">
                    <g transform="translate(11.822420, 14.151480) rotate(17.000000) translate(-11.822420, -14.151480) translate(2.322420, 2.151480)">
                        <g id="Group-10" stroke-width="1" fill="none" transform="translate(2.303458, 6.617131)">
                            <path d="M9.23847966,1.33073217 C9.44289535,0.645408718 9.94701398,0.0827990518 10.6539713,0.0827990518 C11.6994278,0.0827990518 12.4546487,2.3342938 12.0013985,3.33405899 C11.7204717,3.95371865 10.902903,4.8515473 10.2691029,5.0451311 C10.3586516,5.59472824 10.3756158,6.06480611 10.2303305,6.45796346 C10.3589232,6.99636804 12.0340141,9.25085552 15.2549504,13.2176822 L14.101861,13.718049 C10.3959489,15.3152661 8.06722898,16.2057588 7.11570138,16.3895273 C5.54568084,16.6927452 7.94292011,13.8693844 7.8719734,11.8338555 C7.82641506,10.5267432 7.47727138,10.2800074 7.1922638,9.7733664 C6.26383447,10.4491503 5.32193304,10.9036678 4.51280202,11.0417244 C2.02959721,10.5367654 5.41788836e-14,3.34464221 5.41788836e-14,1.19257605 L0.486475705,1.1895176 C1.42813526,1.1726961 2.68733708,1.06335636 4.98531955,0.352648061 L5.30518726,0.251958014 C6.81871178,-0.232609573 8.35218905,-0.0924105439 9.23847966,1.33073217 Z" id="Path" fill="#8FA7FF" fill-rule="nonzero"></path>
                            <path d="M7.44963577,10.2598985 L7.19212872,9.76484894 L7.54710443,9.50195091 C8.28426204,8.94207337 8.42945909,8.71398151 8.94602221,7.91314876 L8.91876102,8.07099588 C8.83519978,8.47059582 8.51932748,9.54144137 7.44963577,10.2598985 Z" id="Fill-30" fill="#5E7CEB" fill-rule="nonzero"></path>
                        </g>
                        <path d="M11.644436,8.53208596 C10.5035075,7.63484843 9.59991499,7.18622967 8.93365853,7.18622967 C7.93427383,7.18622967 6.17025963,8.52837615 3.68938876,8.78956384 C1.20851789,9.05075153 0.548905801,8.21790414 0.0543409831,6.59112399 C-0.440223835,4.96434385 2.57168533,2.85498111 3.79223004,2.02404601 C5.01277475,1.1931109 8.97626376,-0.724600073 11.644436,0.288117091 C14.3126083,1.30083426 15.6843422,2.86892769 16.7964548,6.65496021 C17.8906328,10.3799368 13.2016541,13.2325356 17.9144573,14.8393418 C19.4098896,15.3492019 14.955343,19.3615748 13.514838,17.8395223 C13.0604338,17.3593941 12.2146649,15.9408214 12.4791545,14.4519541 C12.7436442,12.9630869 11.444187,11.8821411 12.2126701,11.6018597 C13.6718536,11.0696658 14.0052938,9.3993321 13.3859072,8.53208596 C12.9729828,7.95392186 12.3924924,7.95392186 11.644436,8.53208596 Z" id="Path-13" fill="#FFFFFF"></path>
                    </g>
                </g>
            </g>
        </g>
    </g>
</svg>