<svg height="24" viewBox="0 0 24 24" width="24" xmlns="http://www.w3.org/2000/svg"><path d="m12 0c-6.20192308 0-11.30192308 4.70192308-11.93076923 10.7365385-.04615385.4153846-.06923077.8365384-.06923077 1.2634615s.02307692.8480769.06923077 1.2634615c.62884615 6.0346154 5.72884615 10.7365385 11.93076923 10.7365385 6.6288462 0 12-5.3711538 12-12 0-6.62884615-5.3711538-12-12-12zm7.8346154 18.8134615c-1.3096154-.4961538-3.4326923-1.2230769-4.7538462-1.6153846-.1384615-.0403846-.1557692-.0519231-.1557692-.6173077 0-.4673077.1903846-.9403846.3807692-1.3442307.2076923-.4326923.4442308-1.1653847.5307693-1.823077.2423077-.2826923.576923-.8365384.7846153-1.8980769.1846154-.9346154.098077-1.275-.0230769-1.59230768-.0115384-.03461538-.0288461-.06923077-.0346154-.09807692-.0461538-.21923077.0173077-1.35576923.1788462-2.23846154.1096154-.60576923-.0288462-1.89230769-.8596154-2.95961538-.525-.675-1.5346154-1.5-3.375-1.61538462h-1.0096154c-1.81153844.11538462-2.81538459.94038462-3.34615382 1.61538462-.83653846 1.06730769-.975 2.35384615-.86538462 2.95961538.16153846.88269231.225 2.01923077.17884616 2.23846154-.01153847.04038462-.02307693.06923077-.03461539.10384615-.12115385.31730765-.21346154.65769235-.02307692 1.59230765.21346154 1.0615385.54230769 1.6153847.78461538 1.898077.08653846.6576923.32884616 1.3846154.53076923 1.8230769.15.3173077.21923077.75.21923077 1.3615385 0 .5711538-.02307692.576923-.15.6173076-1.36730769.4038462-3.39807692 1.1192308-4.61538461 1.6038462-1.66153846-1.8980769-2.56153846-4.2923077-2.56153846-6.825 0-2.775 1.07884615-5.38269231 3.04038461-7.34423077s4.56923077-3.04038461 7.34423077-3.04038461 5.3826923 1.07884615 7.3442308 3.04038461c1.9615384 1.96153846 3.0403846 4.56923077 3.0403846 7.34423077 0 2.5326923-.9 4.9269231-2.55 6.8134615z" fill="#c1c7d0" fill-rule="evenodd"/></svg>