<?xml version="1.0" encoding="UTF-8"?>
<svg width="24px" height="24px" viewBox="0 0 24 24" version="1.1" xmlns="http://www.w3.org/2000/svg" xmlns:xlink="http://www.w3.org/1999/xlink">
    <!-- Generator: Sketch 58 (84663) - https://sketch.com -->
    <title>Avatar/Product/Excelchat - Inverted mark@svg</title>
    <desc>Created with Sketch.</desc>
    <g id="Avatars" stroke="none" stroke-width="1" fill="none" fill-rule="evenodd">
        <g id="Style-Guide/Avatars" transform="translate(-100.000000, -524.000000)">
            <g id="Avatar/Product/Excelchat---Inverted-mark" transform="translate(100.000000, 524.000000)">
                <g id="Excelchat---Inverted-mark">
                    <circle id="Oval" fill="#375DE7" cx="12" cy="12" r="12"></circle>
                    <g id="Logos/Excelchat/Spot/White" transform="translate(6.000000, 6.000000)" fill="#FFFFFF">
                        <path d="M9,0 C10.5976809,0 11.9036609,1.24891996 11.9949073,2.82372721 L12,3 L12,12 L3,12 L2.82372721,11.9949073 C1.30724616,11.9070404 0.0929596233,10.6927538 0.00509269341,9.17627279 L0,9 L0,3 C0,1.34314575 1.34314575,0 3,0 L9,0 Z M5.759,7.5 L2.4,7.5 L2.4,8.16 C2.4,8.95529004 3.04470996,9.6 3.84,9.6 L3.84,9.6 L5.76,9.6 L5.759,7.5 Z M9.6,7.5 L6.239,7.5 L6.24,9.6 L8.16,9.6 C8.95529004,9.6 9.6,8.95529004 9.6,8.16 L9.6,8.16 L9.6,7.5 Z M6.239,4.979 L6.239,7.02 L9.6,7.02 L9.6,4.98 L6.239,4.979 Z M5.759,4.979 L2.4,4.98 L2.4,7.02 L5.759,7.02 L5.759,4.979 Z M8.16,2.4 L6.24,2.4 L6.239,4.499 L9.6,4.5 L9.6,3.84 C9.6,3.04470996 8.95529004,2.4 8.16,2.4 L8.16,2.4 Z M5.76,2.4 L3.84,2.4 C3.04470996,2.4 2.4,3.04470996 2.4,3.84 L2.4,3.84 L2.4,4.5 L5.759,4.499 L5.76,2.4 Z"></path>
                    </g>
                </g>
            </g>
        </g>
    </g>
</svg>