<?xml version="1.0" encoding="UTF-8"?>
<svg width="24px" height="24px" viewBox="0 0 24 24" version="1.1" xmlns="http://www.w3.org/2000/svg" xmlns:xlink="http://www.w3.org/1999/xlink">
    <!-- Generator: Sketch 58 (84663) - https://sketch.com -->
    <title>Avatar/Product/Experts for PowerPoint - Inverted mark@svg</title>
    <desc>Created with Sketch.</desc>
    <g id="Avatars" stroke="none" stroke-width="1" fill="none" fill-rule="evenodd">
        <g id="Style-Guide/Avatars" transform="translate(-228.000000, -524.000000)">
            <g id="Avatar/Product/Experts-for-PowerPoint---Inverted-mark" transform="translate(228.000000, 524.000000)">
                <g id="Experts-for-PowerPoint---Inverted-mark">
                    <circle id="Oval" fill="#375DE7" cx="12" cy="12" r="12"></circle>
                    <g id="Logos/Experts-for-PowerPoint/Spot/White" transform="translate(6.000000, 6.000000)" fill="#FFFFFF">
                        <path d="M9,0 C10.5976809,0 11.9036609,1.24891996 11.9949073,2.82372721 L12,3 L12,12 L3,12 L2.82372721,11.9949073 C1.30724616,11.9070404 0.0929596233,10.6927538 0.00509269341,9.17627279 L0,9 L0,3 L0.00509269341,2.82372721 C0.0929596233,1.30724616 1.30724616,0.0929596233 2.82372721,0.00509269341 L3,0 L9,0 Z M5.4,3.6 C3.74314575,3.6 2.4,4.94314575 2.4,6.6 C2.4,8.25685425 3.74314575,9.6 5.4,9.6 C7.05685425,9.6 8.4,8.25685425 8.4,6.6 L5.4,6.6 L5.4,6.6 L5.4,3.6 L5.4,3.6 Z M6,2.4 L6,6 L9.6,6 C9.6,4.0117749 7.9882251,2.4 6,2.4 Z" id="Logo/Experts-for-PowerPoint/Spot/White"></path>
                    </g>
                </g>
            </g>
        </g>
    </g>
</svg>