<?xml version="1.0" encoding="UTF-8"?>
<svg width="24px" height="24px" viewBox="0 0 24 24" version="1.1" xmlns="http://www.w3.org/2000/svg" xmlns:xlink="http://www.w3.org/1999/xlink">
    <!-- Generator: Sketch 58 (84663) - https://sketch.com -->
    <title>Expert-avatar-1</title>
    <desc>Created with Sketch.</desc>
    <defs>
        <rect id="path-1" x="0" y="0" width="24" height="24" rx="12"></rect>
        <path d="M3.38358333,19.5055357 C3.51522619,18.7373929 3.20308333,15.5107857 3.20308333,15.5107857 C3.20308333,15.5107857 0.258083333,15.1993214 0.0796190476,12.2794286 C-0.0995238095,9.35817857 0.0796190476,2.62267857 0.0796190476,2.62267857 L5.44372619,2.66453526e-14 L11.3445833,4.47042857 L10.4509048,19.0739643 L3.38358333,19.5055357 Z" id="path-3"></path>
    </defs>
    <g id="Page-1" stroke="none" stroke-width="1" fill="none" fill-rule="evenodd">
        <g id="Artboard" transform="translate(-354.000000, -369.000000)">
            <g id="Expert-avatar-1" transform="translate(354.000000, 369.000000)">
                <mask id="mask-2" fill="white">
                    <use xlink:href="#path-1"></use>
                </mask>
                <use id="Shape" fill="#D7DEFA" fill-rule="nonzero" xlink:href="#path-1"></use>
                <g id="Group-3" mask="url(#mask-2)">
                    <g transform="translate(4.818923, 4.983421)">
                        <mask id="mask-4" fill="white">
                            <use xlink:href="#path-3"></use>
                        </mask>
                        <use id="Fill-11" stroke="none" fill="#FFFFFF" fill-rule="evenodd" xlink:href="#path-3"></use>
                        <path d="M2.00319202,11.8030207 L2.04544656,11.9155852 C2.18334099,12.2459399 2.67786421,13.1749293 3.80574685,12.9359519 C5.22272521,12.6350859 5.14864261,11.3804391 5.14864261,11.3804391 C3.85736615,11.8630414 2.80888262,12.0039019 2.00319202,11.8030207 Z" id="Fill-28" stroke="none" fill="#375DE7" fill-rule="evenodd" mask="url(#mask-4)"></path>
                        <path d="M3.20308333,15.5107857 C3.62877016,15.5867393 5.32367723,15.6611169 7.22639152,14.3317954 C7.22639152,14.3317954 6.18877825,16.3124067 3.25938539,16.1922996 L3.20308333,15.5107857 Z" id="Fill-30" stroke="none" fill="#8FA7FF" fill-rule="nonzero" mask="url(#mask-4)"></path>
                    </g>
                </g>
                <path d="M11.7622076,3.05367741 C12.6666517,3.05367741 16.7067082,3.88290573 18.8581702,7.92374473 L18.8901255,7.85633456 C19.508304,6.58401313 19.6582683,5.41890599 19.798054,5.43112027 C19.8591255,5.43451313 19.9032326,5.73851313 19.8523397,6.22640599 C19.8181197,6.5625128 19.7298195,6.98540679 19.5717797,7.4387133 C19.6917848,7.32904378 19.824849,7.23231356 19.9678326,7.15048456 C20.5249397,6.83019884 21.2367612,6.76030599 21.8189755,7.0330917 C22.4011897,7.30587741 22.8137612,7.94169884 22.7574397,8.5815917 C22.6950112,9.29748456 22.0707255,9.8830917 21.3711183,10.047306 C21.0706468,10.1178337 20.761789,10.121772 20.4575006,10.0755171 L20.6018897,10.2324203 L20.6018897,10.2324203 C20.9486397,10.6361703 21.174604,11.0684203 21.2831755,11.3968488 C21.393104,11.725956 21.3992112,11.9458131 21.3401755,11.9654917 C21.2092112,12.0075631 20.8814612,11.2692774 20.243604,10.5411703 C20.0517578,10.3152366 19.8546273,10.1178889 19.6752046,9.9492832 L19.6410373,9.83390587 C19.6864058,9.97889206 19.7287199,10.1284602 19.7686719,10.2811417 C19.8417327,10.5621449 19.9941372,11.1199959 20.0516212,11.6072447 L20.0523147,11.6076131 C20.0523147,11.6076131 20.8503147,18.2786488 15.162529,19.4939703 L15.325,11.684 C15.1351683,11.6649176 10.4955779,11.1412379 9.66135046,6.85842741 L9.63341907,6.8837171 C9.35164871,7.55110711 8.85472633,8.98226081 9.1924576,10.1339596 L4.92,11.235 L4.43363617,11.685106 C4.43363617,11.685106 2.84713617,8.44832027 5.74327903,5.43885599 C8.63942188,2.4293917 10.626279,3.05367741 11.7622076,3.05367741 Z" id="Combined-Shape" fill="#375DE7" mask="url(#mask-2)"></path>
                <path d="M13.6951738,11.018179 C14.0366476,11.1188017 14.0851607,11.1716401 14.0986938,11.4584625 C14.1097124,11.7308689 14.0511938,11.9238149 13.8872351,12.0198492 L13.7701,12.0731932 C13.707358,12.1102119 13.6653838,12.1838442 13.6229759,12.3382207 L13.5973095,12.4408889 L13.4330564,13.2741141 C13.2317117,14.2696624 12.7076902,14.7816573 11.4179832,14.94527 L11.1395456,14.97467 L11.033,14.979 C10.2399092,15.0147229 9.66667159,14.7659348 9.26305657,14.3234019 C9.10316318,14.1480911 9.01702048,14.0102714 8.889882,13.7676167 C8.85117617,13.6943569 8.8180814,13.6175385 8.78555403,13.5274499 L8.73655806,13.3811505 L8.64612196,13.0880656 C8.49970377,12.6475379 8.35957697,12.5132714 7.98939021,12.5205929 C7.61966146,12.5278908 7.47475658,12.6707559 7.31961163,13.1179955 L7.2360143,13.3768393 L7.16796351,13.5740671 C7.13292471,13.6668271 7.09738341,13.7460757 7.05613569,13.8214426 C6.88922167,14.1293448 6.73524472,14.3452221 6.47031308,14.5681096 C6.12279367,14.8604784 5.68508588,15.0448808 5.14283316,15.0893501 L4.9345598,15.0994042 C4.85533008,15.1010053 4.77410578,15.0993988 4.69000733,15.0946006 C3.31449848,15.0191815 2.74458752,14.5678157 2.5394642,13.6235737 L2.5113765,13.4782262 C2.48836011,13.3453769 2.42056574,12.9233656 2.39104467,12.7514621 L2.36036252,12.5933878 C2.32056625,12.4139555 2.28112206,12.3334881 2.21861398,12.2960539 L2.10092772,12.2460477 C1.93669975,12.155452 1.88261982,11.9590652 1.90464274,11.686859 C1.92568886,11.403052 1.97357693,11.3504337 2.31648423,11.2351467 C2.55644967,11.1575673 3.42724142,11.07165 4.22623419,11.0467156 L4.58734344,11.0397899 L4.94533292,11.0436957 L5.17339631,11.0547248 C5.43889469,11.070857 5.74468134,11.1065081 6.10320955,11.1604612 L6.65367955,11.2498476 L7.71232422,11.4283178 L7.87691348,11.4473413 C7.89948267,11.4492478 7.91967922,11.4505249 7.93759093,11.4511764 L7.98455933,11.4512584 L8.16739159,11.4398609 C8.27757885,11.4303246 8.39193413,11.4155061 8.52534918,11.3932223 L8.82200469,11.3380544 L9.87243311,11.1093407 C10.2133164,11.0361572 10.4663513,10.9897379 10.7027659,10.9602201 L10.8431901,10.9444588 L11.0298297,10.9288229 C11.9390105,10.8622238 13.3763363,10.9243878 13.6951738,11.018179 Z M3.21093802,11.6903322 C2.77722653,11.9443515 2.78587149,13.2790667 3.19404231,14.0046571 C3.41566262,14.3979277 4.048972,14.650943 4.75186862,14.6719896 L4.929,14.673 C5.1899641,14.6662831 5.43329376,14.6260057 5.6321292,14.5570332 L5.77246786,14.5000095 C6.56193259,14.125399 7.2842653,12.564406 6.86199904,12.0146815 C6.63553044,11.7180296 5.99273009,11.5369501 5.15370781,11.4928619 L4.941,11.484 C4.19181261,11.4671397 3.42636384,11.5639808 3.21093802,11.6903322 Z M12.7952504,11.5045327 C12.6005509,11.3948929 11.9217752,11.3297602 11.2195044,11.3598783 L11.0437262,11.3694208 C10.10802,11.4312264 9.38476984,11.6430998 9.12793978,11.9766046 C8.68544256,12.5441392 9.35533543,14.0714849 10.1263946,14.4146644 C10.3541201,14.5028272 10.5951972,14.5509563 10.8387657,14.5573546 L11.022,14.555 C11.7215418,14.5328715 12.3752165,14.2864707 12.6673639,13.9128672 L12.7326856,13.8168729 C13.1635693,13.0752017 13.2149162,11.737897 12.7952504,11.5045327 Z" id="Shape" fill="#375DE7" mask="url(#mask-2)"></path>
            </g>
        </g>
    </g>
</svg>