<?xml version="1.0" encoding="UTF-8"?>
<svg width="24px" height="24px" viewBox="0 0 24 24" version="1.1" xmlns="http://www.w3.org/2000/svg" xmlns:xlink="http://www.w3.org/1999/xlink">
    <!-- Generator: Sketch 58 (84663) - https://sketch.com -->
    <title>Expert-avatar-3</title>
    <desc>Created with Sketch.</desc>
    <defs>
        <rect id="path-1" x="0" y="0" width="24" height="24" rx="12"></rect>
        <path d="M3.7878,19.2768 C3.8934,18.516 3.4842,15.3486 3.4842,15.3486 L3.33405944,15.3301798 C2.73498039,15.2397601 0.536705882,14.7404235 0.3048,12.264 L0.268590951,11.8364153 C0.0332491699,8.78452646 -3.55271368e-15,2.7528 -3.55271368e-15,2.7528 L5.2002,-7.10542736e-15 L11.154,4.2162 L12.5118,7.3644 L10.728,14.8542 L10.7352,19.6282 L3.7878,19.2768 Z" id="path-3"></path>
    </defs>
    <g id="Page-1" stroke="none" stroke-width="1" fill="none" fill-rule="evenodd">
        <g id="Artboard" transform="translate(-418.000000, -369.000000)">
            <g id="Expert-avatar-3" transform="translate(418.000000, 369.000000)">
                <mask id="mask-2" fill="white">
                    <use xlink:href="#path-1"></use>
                </mask>
                <use id="Shape" fill="#D7DEFA" fill-rule="nonzero" xlink:href="#path-1"></use>
                <g id="Group-5" mask="url(#mask-2)">
                    <g transform="translate(3.000000, 2.000000)">
                        <g id="Group-6" stroke-width="1" fill="none" transform="translate(3.400000, 3.000000)">
                            <mask id="mask-4" fill="white">
                                <use xlink:href="#path-3"></use>
                            </mask>
                            <use id="Fill-23" fill="#FFFFFF" xlink:href="#path-3"></use>
                            <path d="M3.4842,15.3486 C3.90988682,15.4245536 5.7205939,15.3293214 7.62330819,14 C7.62330819,14 6.41359286,16.109487 3.4842,15.9893799 L3.4842,15.3486 Z" id="Fill-30" fill="#8FA7FF" fill-rule="nonzero" mask="url(#mask-4)"></path>
                        </g>
                        <path d="M5.82211473,14.7864413 L5.86436928,14.8990058 C6.0022637,15.2293606 6.49678692,16.1583499 7.62466956,15.9193725 C9.04164792,15.6185065 8.96756532,14.3638598 8.96756532,14.3638598 C7.67628886,14.846462 6.62780533,14.9873226 5.82211473,14.7864413 Z" id="Fill-28" fill="#375DE7"></path>
                        <path d="M12.6951738,9.01817899 C13.0366476,9.1188017 13.0851607,9.17164005 13.0986938,9.45846251 C13.1097124,9.73086892 13.0511938,9.92381488 12.8872351,10.0198492 L12.7701,10.0731932 C12.707358,10.1102119 12.6653838,10.1838442 12.6229759,10.3382207 L12.5973095,10.4408889 L12.4330564,11.2741141 C12.2317117,12.2696624 11.7076902,12.7816573 10.4179832,12.94527 L10.1395456,12.97467 L10.033,12.979 C9.23990922,13.0147229 8.66667159,12.7659348 8.26305657,12.3234019 C8.10316318,12.1480911 8.01702048,12.0102714 7.889882,11.7676167 C7.85117617,11.6943569 7.8180814,11.6175385 7.78555403,11.5274499 L7.73655806,11.3811505 L7.64612196,11.0880656 C7.49970377,10.6475379 7.35957697,10.5132714 6.98939021,10.5205929 C6.61966146,10.5278908 6.47475658,10.6707559 6.31961163,11.1179955 L6.2360143,11.3768393 L6.16796351,11.5740671 C6.13292471,11.6668271 6.09738341,11.7460757 6.05613569,11.8214426 C5.88922167,12.1293448 5.73524472,12.3452221 5.47031308,12.5681096 C5.12279367,12.8604784 4.68508588,13.0448808 4.14283316,13.0893501 L3.9345598,13.0994042 C3.85533008,13.1010053 3.77410578,13.0993988 3.69000733,13.0946006 C2.31449848,13.0191815 1.74458752,12.5678157 1.5394642,11.6235737 L1.5113765,11.4782262 C1.48836011,11.3453769 1.42056574,10.9233656 1.39104467,10.7514621 L1.36036252,10.5933878 C1.32056625,10.4139555 1.28112206,10.3334881 1.21861398,10.2960539 L1.10092772,10.2460477 C0.936699753,10.155452 0.882619824,9.9590652 0.904642744,9.68685904 C0.925688859,9.40305198 0.973576929,9.35043368 1.31648423,9.23514666 C1.55644967,9.1575673 2.42724142,9.07165004 3.22623419,9.04671557 L3.58734344,9.03978991 L3.94533292,9.04369574 L4.17339631,9.05472483 C4.43889469,9.07085701 4.74468134,9.10650809 5.10320955,9.16046119 L5.65367955,9.24984758 L6.71232422,9.42831783 L6.87691348,9.44734134 C6.89948267,9.44924781 6.91967922,9.45052486 6.93759093,9.45117639 L6.98455933,9.45125841 L7.16739159,9.43986087 C7.27757885,9.43032465 7.39193413,9.41550607 7.52534918,9.3932223 L7.82200469,9.3380544 L8.87243311,9.10934074 C9.21331637,9.03615725 9.46635127,8.98973787 9.70276593,8.96022013 L9.84319013,8.94445879 L10.0298297,8.92882294 C10.9390105,8.86222384 12.3763363,8.9243878 12.6951738,9.01817899 Z M2.21093802,9.69033221 C1.77722653,9.94435149 1.78587149,11.2790667 2.19404231,12.0046571 C2.41566262,12.3979277 3.048972,12.650943 3.75186862,12.6719896 L3.929,12.673 C4.1899641,12.6662831 4.43329376,12.6260057 4.6321292,12.5570332 L4.77246786,12.5000095 C5.56193259,12.125399 6.2842653,10.564406 5.86199904,10.0146815 C5.63553044,9.7180296 4.99273009,9.53695005 4.15370781,9.49286187 L3.941,9.484 C3.19181261,9.46713968 2.42636384,9.56398081 2.21093802,9.69033221 Z M11.7952504,9.50453273 C11.6005509,9.39489295 10.9217752,9.3297602 10.2195044,9.35987832 L10.0437262,9.36942078 C9.10802003,9.4312264 8.38476984,9.64309982 8.12793978,9.97660458 C7.68544256,10.5441392 8.35533543,12.0714849 9.12639463,12.4146644 C9.35412015,12.5028272 9.59519722,12.5509563 9.83876575,12.5573546 L10.022,12.555 C10.7215418,12.5328715 11.3752165,12.2864707 11.6673639,11.9128672 L11.7326856,11.8168729 C12.1635693,11.0752017 12.2149162,9.73789699 11.7952504,9.50453273 Z" id="Shape" fill="#375DE7"></path>
                        <path d="M15.7553614,13.202069 L15.6227614,13.242869 C14.8445614,14.991869 14.3633614,17.537669 14.3633614,17.537669 C13.9812749,18.2467231 13.8258977,16.3297678 13.7967682,15.907004 L13.7915614,15.826469 C13.7915614,15.826469 13.4243614,13.416869 13.7573614,12.477869 L13.7852613,12.4854092 C13.9892008,12.5346554 15.2507002,12.7376445 15.5537614,10.320869 C15.7169614,9.02126903 13.7537614,8.39786903 13.2191614,9.97106903 L11.9939614,10.084469 L11.9824563,9.84783117 C11.9191134,8.87752503 11.5184014,5.29118903 9.07076139,6.07586903 L8.93586325,6.15361177 C8.46042293,6.41662643 6.83580754,7.22108442 5.80316139,6.56666903 C4.58276139,5.79266903 4.66976139,5.52506903 4.66976139,5.52506903 L4.64747826,5.56824599 C4.5271688,5.78595792 3.90802805,6.7237357 2.50856139,5.96906903 C0.934161388,5.12006903 0.726561388,3.60626903 1.27256139,2.88266903 L1.4762205,2.61142333 C1.72874506,2.28200781 2.00426139,1.97881189 2.41016139,1.90526903 C2.92556139,1.81286903 3.48476139,2.01806903 3.81656139,2.42306903 C3.43076139,1.85786903 3.70316139,1.01246903 4.27676139,0.637469033 C4.84976139,0.263069033 5.61356139,0.292469033 6.25076139,0.543269033 C6.88736139,0.794669033 7.42616139,1.23986903 7.95236139,1.67786903 C8.31296139,0.640469033 9.42416139,-0.0819309671 10.5185614,0.00746903289 C11.6135614,0.0980690329 12.5909614,0.992669033 12.7775614,2.07506903 C13.3685614,1.33886903 14.5037614,1.17086903 15.3551614,1.57886903 C16.2071614,1.98686903 16.7669614,2.87486903 16.9301614,3.80486903 C17.0927614,4.73486903 16.8971614,5.69846903 16.5401614,6.57266903 C17.1977614,6.19346903 18.1109614,6.46586903 18.5543614,7.08206903 C18.9971614,7.69886903 19.0013614,8.56346903 18.6779614,9.25046903 C18.3545614,9.93746903 17.7449614,10.458269 17.0699614,10.805669 C17.5703614,11.211269 17.7227614,11.987669 17.4131614,12.552869 C17.1035614,13.117469 16.3661614,13.406069 15.7553614,13.202069 Z" id="Fill-41" fill="#375DE7"></path>
                    </g>
                </g>
            </g>
        </g>
    </g>
</svg>