<?xml version="1.0" encoding="UTF-8"?>
<svg width="24px" height="24px" viewBox="0 0 24 24" version="1.1" xmlns="http://www.w3.org/2000/svg" xmlns:xlink="http://www.w3.org/1999/xlink">
    <!-- Generator: Sketch 58 (84663) - https://sketch.com -->
    <title>Expert-avatar-2</title>
    <desc>Created with Sketch.</desc>
    <defs>
        <rect id="path-1" x="0" y="0" width="24" height="24" rx="12"></rect>
        <path d="M1.50990331e-14,-3.90798505e-14 C1.50990331e-14,-3.90798505e-14 11.1640878,3.58632 11.0769564,3.84846 C11.0487222,3.93274335 10.8197612,5.98474765 10.5215449,8.73540713 C10.8416409,8.57502866 12.1934446,7.97601928 12.1934446,9.38006721 C12.1934446,10.9595931 11.6870017,11.6445561 10.2322,11.4340946 C9.63470628,16.9878084 8.94377612,23.55792 8.94377612,23.55792 L8.94377612,23.55792 L2.43967761,22.57362 L2.81280478,17.3196 L0.161961791,16.3863 Z" id="path-3"></path>
    </defs>
    <g id="Page-1" stroke="none" stroke-width="1" fill="none" fill-rule="evenodd">
        <g id="Artboard" transform="translate(-386.000000, -369.000000)">
            <g id="Expert-avatar-2" transform="translate(386.000000, 369.000000)">
                <mask id="mask-2" fill="white">
                    <use xlink:href="#path-1"></use>
                </mask>
                <use id="Shape" fill="#D7DEFA" fill-rule="nonzero" xlink:href="#path-1"></use>
                <g id="Group-111" mask="url(#mask-2)">
                    <g transform="translate(4.000000, 1.000000)">
                        <path d="M4.11075104,14.2956489 C4.26041194,12.1383489 3.36552179,9.57304889 2.20821253,7.74214889 C1.51628716,6.64870889 0.473090564,5.85059289 0.00975683296,4.64393289 C-0.216664457,4.05483747 3.55939321,4.50562149 4.92463482,3.62393289 C5.10294197,3.5087801 5.77605786,1.20037111 5.93003248,1.07071327 C6.27469975,0.780478346 7.02040546,1.76986642 7.2538695,1.58848889 C8.18189899,0.867505509 7.49176114,-0.290095654 7.80511999,0.0666488886 C8.50114567,0.860208889 10.5174675,1.55686889 11.2411701,1.58848889 C11.9658979,1.61908889 12.6291212,2.05666889 13.0637528,2.63398889 C13.4994095,3.21028889 13.7331266,3.91408889 13.8848376,4.61890889 C14.6936215,4.00078889 16.1676788,4.98610889 16.5151791,5.94082889 C16.8380776,6.82924889 16.3829445,8.74072889 15.7873761,9.82498889 C15.0667487,11.1356889 15.0595731,14.4598689 13.8530603,16.2826089" id="Fill-79" fill="#375DE7"></path>
                        <g id="Group-4" stroke-width="1" fill="none" transform="translate(3.854482, 2.680705)">
                            <mask id="mask-4" fill="white">
                                <use xlink:href="#path-3"></use>
                            </mask>
                            <use id="Combined-Shape" fill="#FFFFFF" xlink:href="#path-3"></use>
                            <polygon id="Path-2" fill="#8FA7FF" fill-rule="nonzero" mask="url(#mask-4)" points="2.81280478 17.3196 5.84546879 18.2242634 2.72999027 18.1250812"></polygon>
                        </g>
                        <path d="M2.57508674,6.55201289 C2.57508674,6.45001289 3.9302354,7.26703289 6.54827599,6.53365289 C9.16631659,5.80027289 14.047722,7.37719289 14.047722,7.37719289 L13.3991089,13.8664551 L14.9313363,10.3678329 L15.6540139,6.36331289 L4.21110585,1.10419289 L2.43772674,5.48203289" id="Fill-109" fill="#375DE7"></path>
                        <path d="M6.82211473,15.7864413 L6.86436928,15.8990058 C7.0022637,16.2293606 7.49678692,17.1583499 8.62466956,16.9193725 C10.0416479,16.6185065 9.96756532,15.3638598 9.96756532,15.3638598 C8.67628886,15.846462 7.62780533,15.9873226 6.82211473,15.7864413 Z" id="Fill-28" fill="#375DE7"></path>
                        <path d="M13.6951738,10.018179 C14.0366476,10.1188017 14.0851607,10.1716401 14.0986938,10.4584625 C14.1097124,10.7308689 14.0511938,10.9238149 13.8872351,11.0198492 L13.7701,11.0731932 C13.707358,11.1102119 13.6653838,11.1838442 13.6229759,11.3382207 L13.5973095,11.4408889 L13.4330564,12.2741141 C13.2317117,13.2696624 12.7076902,13.7816573 11.4179832,13.94527 L11.1395456,13.97467 L11.033,13.979 C10.2399092,14.0147229 9.66667159,13.7659348 9.26305657,13.3234019 C9.10316318,13.1480911 9.01702048,13.0102714 8.889882,12.7676167 C8.85117617,12.6943569 8.8180814,12.6175385 8.78555403,12.5274499 L8.73655806,12.3811505 L8.64612196,12.0880656 C8.49970377,11.6475379 8.35957697,11.5132714 7.98939021,11.5205929 C7.61966146,11.5278908 7.47475658,11.6707559 7.31961163,12.1179955 L7.2360143,12.3768393 L7.16796351,12.5740671 C7.13292471,12.6668271 7.09738341,12.7460757 7.05613569,12.8214426 C6.88922167,13.1293448 6.73524472,13.3452221 6.47031308,13.5681096 C6.12279367,13.8604784 5.68508588,14.0448808 5.14283316,14.0893501 L4.9345598,14.0994042 C4.85533008,14.1010053 4.77410578,14.0993988 4.69000733,14.0946006 C3.31449848,14.0191815 2.74458752,13.5678157 2.5394642,12.6235737 L2.5113765,12.4782262 C2.48836011,12.3453769 2.42056574,11.9233656 2.39104467,11.7514621 L2.36036252,11.5933878 C2.32056625,11.4139555 2.28112206,11.3334881 2.21861398,11.2960539 L2.10092772,11.2460477 C1.93669975,11.155452 1.88261982,10.9590652 1.90464274,10.686859 C1.92568886,10.403052 1.97357693,10.3504337 2.31648423,10.2351467 C2.55644967,10.1575673 3.42724142,10.07165 4.22623419,10.0467156 L4.58734344,10.0397899 L4.94533292,10.0436957 L5.17339631,10.0547248 C5.43889469,10.070857 5.74468134,10.1065081 6.10320955,10.1604612 L6.65367955,10.2498476 L7.71232422,10.4283178 L7.87691348,10.4473413 C7.89948267,10.4492478 7.91967922,10.4505249 7.93759093,10.4511764 L7.98455933,10.4512584 L8.16739159,10.4398609 C8.27757885,10.4303246 8.39193413,10.4155061 8.52534918,10.3932223 L8.82200469,10.3380544 L9.87243311,10.1093407 C10.2133164,10.0361572 10.4663513,9.98973787 10.7027659,9.96022013 L10.8431901,9.94445879 L11.0298297,9.92882294 C11.9390105,9.86222384 13.3763363,9.9243878 13.6951738,10.018179 Z M3.21093802,10.6903322 C2.77722653,10.9443515 2.78587149,12.2790667 3.19404231,13.0046571 C3.41566262,13.3979277 4.048972,13.650943 4.75186862,13.6719896 L4.929,13.673 C5.1899641,13.6662831 5.43329376,13.6260057 5.6321292,13.5570332 L5.77246786,13.5000095 C6.56193259,13.125399 7.2842653,11.564406 6.86199904,11.0146815 C6.63553044,10.7180296 5.99273009,10.5369501 5.15370781,10.4928619 L4.941,10.484 C4.19181261,10.4671397 3.42636384,10.5639808 3.21093802,10.6903322 Z M12.7952504,10.5045327 C12.6005509,10.3948929 11.9217752,10.3297602 11.2195044,10.3598783 L11.0437262,10.3694208 C10.10802,10.4312264 9.38476984,10.6430998 9.12793978,10.9766046 C8.68544256,11.5441392 9.35533543,13.0714849 10.1263946,13.4146644 C10.3541201,13.5028272 10.5951972,13.5509563 10.8387657,13.5573546 L11.022,13.555 C11.7215418,13.5328715 12.3752165,13.2864707 12.6673639,12.9128672 L12.7326856,12.8168729 C13.1635693,12.0752017 13.2149162,10.737897 12.7952504,10.5045327 Z" id="Shape" fill="#375DE7"></path>
                    </g>
                </g>
            </g>
        </g>
    </g>
</svg>