<?xml version="1.0" encoding="UTF-8"?>
<svg width="24px" height="24px" viewBox="0 0 24 24" version="1.1" xmlns="http://www.w3.org/2000/svg" xmlns:xlink="http://www.w3.org/1999/xlink">
    <!-- Generator: Sketch 58 (84663) - https://sketch.com -->
    <title>Expert-avatar-4</title>
    <desc>Created with Sketch.</desc>
    <defs>
        <rect id="path-1" x="0" y="0" width="24" height="24" rx="12"></rect>
    </defs>
    <g id="Page-1" stroke="none" stroke-width="1" fill="none" fill-rule="evenodd">
        <g id="Artboard" transform="translate(-450.000000, -369.000000)">
            <g id="Expert-avatar-4" transform="translate(450.000000, 369.000000)">
                <mask id="mask-2" fill="white">
                    <use xlink:href="#path-1"></use>
                </mask>
                <use id="Shape" fill="#D7DEFA" fill-rule="nonzero" xlink:href="#path-1"></use>
                <g id="Group-9" mask="url(#mask-2)">
                    <g transform="translate(11.822420, 14.151480) rotate(17.000000) translate(-11.822420, -14.151480) translate(2.322420, 2.151480)">
                        <g id="Group-10" stroke-width="1" fill="none" transform="translate(2.303458, 6.617131)">
                            <path d="M9.23847966,1.33073217 C9.44289535,0.645408718 9.94701398,0.0827990518 10.6539713,0.0827990518 C11.6994278,0.0827990518 12.4546487,2.3342938 12.0013985,3.33405899 C11.7204717,3.95371865 10.902903,4.8515473 10.2691029,5.0451311 C10.3586516,5.59472824 10.3756158,6.06480611 10.2303305,6.45796346 C10.3589232,6.99636804 12.0340141,9.25085552 15.2549504,13.2176822 L14.101861,13.718049 C10.3959489,15.3152661 8.06722898,16.2057588 7.11570138,16.3895273 C5.54568084,16.6927452 7.94292011,13.8693844 7.8719734,11.8338555 C7.82641506,10.5267432 7.47727138,10.2800074 7.1922638,9.7733664 C6.26383447,10.4491503 5.32193304,10.9036678 4.51280202,11.0417244 C2.02959721,10.5367654 5.41788836e-14,3.34464221 5.41788836e-14,1.19257605 L0.486475705,1.1895176 C1.42813526,1.1726961 2.68733708,1.06335636 4.98531955,0.352648061 L5.30518726,0.251958014 C6.81871178,-0.232609573 8.35218905,-0.0924105439 9.23847966,1.33073217 Z" id="Path" fill="#FFFFFF"></path>
                            <path d="M7.44963577,10.2598985 L7.19212872,9.76484894 L7.54710443,9.50195091 C8.28426204,8.94207337 8.42945909,8.71398151 8.94602221,7.91314876 L8.91876102,8.07099588 C8.83519978,8.47059582 8.51932748,9.54144137 7.44963577,10.2598985 Z" id="Fill-30" fill="#8FA7FF" fill-rule="nonzero"></path>
                        </g>
                        <path d="M11.644436,8.53208596 C10.5035075,7.63484843 9.59991499,7.18622967 8.93365853,7.18622967 C7.93427383,7.18622967 6.17025963,8.52837615 3.68938876,8.78956384 C1.20851789,9.05075153 0.548905801,8.21790414 0.0543409831,6.59112399 C-0.440223835,4.96434385 2.57168533,2.85498111 3.79223004,2.02404601 C5.01277475,1.1931109 8.97626376,-0.724600073 11.644436,0.288117091 C14.3126083,1.30083426 15.6843422,2.86892769 16.7964548,6.65496021 C17.8906328,10.3799368 13.2016541,13.2325356 17.9144573,14.8393418 C19.4098896,15.3492019 14.955343,19.3615748 13.514838,17.8395223 C13.0604338,17.3593941 12.2146649,15.9408214 12.4791545,14.4519541 C12.7436442,12.9630869 11.444187,11.8821411 12.2126701,11.6018597 C13.6718536,11.0696658 14.0052938,9.3993321 13.3859072,8.53208596 C12.9729828,7.95392186 12.3924924,7.95392186 11.644436,8.53208596 Z" id="Path-13" fill="#375DE7"></path>
                    </g>
                </g>
                <path d="M7.31672793,15.49215 L7.33879393,15.6103418 L7.37245735,15.7403234 C7.49495334,16.1587806 7.86420992,16.9562147 8.89516647,16.9208797 C10.3428626,16.8706403 10.4877726,15.6221902 10.4877726,15.6221902 C9.13231051,15.8732328 8.07529563,15.8298861 7.31672793,15.49215 Z" id="Fill-28" fill="#375DE7" mask="url(#mask-2)"></path>
                <path d="M14.6951738,10.018179 C15.0366476,10.1188017 15.0851607,10.1716401 15.0986938,10.4584625 C15.1097124,10.7308689 15.0511938,10.9238149 14.8872351,11.0198492 L14.7701,11.0731932 C14.707358,11.1102119 14.6653838,11.1838442 14.6229759,11.3382207 L14.5973095,11.4408889 L14.4330564,12.2741141 C14.2317117,13.2696624 13.7076902,13.7816573 12.4179832,13.94527 L12.1395456,13.97467 L12.033,13.979 C11.2399092,14.0147229 10.6666716,13.7659348 10.2630566,13.3234019 C10.1031632,13.1480911 10.0170205,13.0102714 9.889882,12.7676167 C9.85117617,12.6943569 9.8180814,12.6175385 9.78555403,12.5274499 L9.73655806,12.3811505 L9.64612196,12.0880656 C9.49970377,11.6475379 9.35957697,11.5132714 8.98939021,11.5205929 C8.61966146,11.5278908 8.47475658,11.6707559 8.31961163,12.1179955 L8.2360143,12.3768393 L8.16796351,12.5740671 C8.13292471,12.6668271 8.09738341,12.7460757 8.05613569,12.8214426 C7.88922167,13.1293448 7.73524472,13.3452221 7.47031308,13.5681096 C7.12279367,13.8604784 6.68508588,14.0448808 6.14283316,14.0893501 L5.9345598,14.0994042 C5.85533008,14.1010053 5.77410578,14.0993988 5.69000733,14.0946006 C4.31449848,14.0191815 3.74458752,13.5678157 3.5394642,12.6235737 L3.5113765,12.4782262 C3.48836011,12.3453769 3.42056574,11.9233656 3.39104467,11.7514621 L3.36036252,11.5933878 C3.32056625,11.4139555 3.28112206,11.3334881 3.21861398,11.2960539 L3.10092772,11.2460477 C2.93669975,11.155452 2.88261982,10.9590652 2.90464274,10.686859 C2.92568886,10.403052 2.97357693,10.3504337 3.31648423,10.2351467 C3.55644967,10.1575673 4.42724142,10.07165 5.22623419,10.0467156 L5.58734344,10.0397899 L5.94533292,10.0436957 L6.17339631,10.0547248 C6.43889469,10.070857 6.74468134,10.1065081 7.10320955,10.1604612 L7.65367955,10.2498476 L8.71232422,10.4283178 L8.87691348,10.4473413 C8.89948267,10.4492478 8.91967922,10.4505249 8.93759093,10.4511764 L8.98455933,10.4512584 L9.16739159,10.4398609 C9.27757885,10.4303246 9.39193413,10.4155061 9.52534918,10.3932223 L9.82200469,10.3380544 L10.8724331,10.1093407 C11.2133164,10.0361572 11.4663513,9.98973787 11.7027659,9.96022013 L11.8431901,9.94445879 L12.0298297,9.92882294 C12.9390105,9.86222384 14.3763363,9.9243878 14.6951738,10.018179 Z M4.21093802,10.6903322 C3.77722653,10.9443515 3.78587149,12.2790667 4.19404231,13.0046571 C4.41566262,13.3979277 5.048972,13.650943 5.75186862,13.6719896 L5.929,13.673 C6.1899641,13.6662831 6.43329376,13.6260057 6.6321292,13.5570332 L6.77246786,13.5000095 C7.56193259,13.125399 8.2842653,11.564406 7.86199904,11.0146815 C7.63553044,10.7180296 6.99273009,10.5369501 6.15370781,10.4928619 L5.941,10.484 C5.19181261,10.4671397 4.42636384,10.5639808 4.21093802,10.6903322 Z M13.7952504,10.5045327 C13.6005509,10.3948929 12.9217752,10.3297602 12.2195044,10.3598783 L12.0437262,10.3694208 C11.10802,10.4312264 10.3847698,10.6430998 10.1279398,10.9766046 C9.68544256,11.5441392 10.3553354,13.0714849 11.1263946,13.4146644 C11.3541201,13.5028272 11.5951972,13.5509563 11.8387657,13.5573546 L12.022,13.555 C12.7215418,13.5328715 13.3752165,13.2864707 13.6673639,12.9128672 L13.7326856,12.8168729 C14.1635693,12.0752017 14.2149162,10.737897 13.7952504,10.5045327 Z" id="Shape" fill="#375DE7" mask="url(#mask-2)" transform="translate(8.999974, 12.000502) rotate(4.000000) translate(-8.999974, -12.000502) "></path>
            </g>
        </g>
    </g>
</svg>