<?xml version="1.0" encoding="UTF-8"?>
<svg width="24px" height="24px" viewBox="0 0 24 24" version="1.1" xmlns="http://www.w3.org/2000/svg" xmlns:xlink="http://www.w3.org/1999/xlink">
   <defs>
        <ellipse id="path-1" cx="11.994" cy="11.988" rx="11.994" ry="11.988"></ellipse>
    </defs>
    <g stroke="none" stroke-width="1" fill="none" fill-rule="evenodd">
        <g>
            <mask id="mask-2" fill="white">
                <use xlink:href="#path-1"></use>
            </mask>
            <use id="path-1" fill="#FFFFFF" xlink:href="#path-1"></use>
            <path d="M9.99599982,6.2799998 C10.5059998,5.3959998 14.4579998,4.5539998 16.4769998,7.3849998 C17.9979998,9.5159998 17.1929998,13.3399998 14.9809998,15.4849998 C12.7699998,17.6299998 11.8239998,17.2039998 10.8299998,16.2949998 C9.54399978,15.1199998 6.5459998,12.5859998 6.9309998,11.4969998 C7.5429998,9.7689998 6.7309998,7.1989998 9.99599982,6.2799998 Z M9.63599982,18.4259998 C8.59199982,18.7289998 7.5659998,19.0899998 5.9339998,19.8359998 C4.0509998,20.7209998 2.9079998,23.9279998 2.9039998,25.5519998 L22.2029998,25.5519998 C22.1999998,23.9519998 22.4449998,21.9899998 19.8949998,20.4959998 C18.3259998,19.5779998 17.1389998,19.3839998 15.5729998,18.7699998 C14.2589998,18.2549998 11.7029998,18.1499998 10.2979998,18.3079998 C10.0299998,18.3379998 9.8029998,18.3779998 9.63599982,18.4259998 Z" id="Shape" fill="#375DE7" mask="url(#mask-2)"></path>
            <path d="M10.8099998,16.1139998 L10.1689998,18.2899998 C11.3369998,19.6919998 12.3019998,20.3279998 14.7229998,18.5639998 L14.4869998,14.8919998 L10.8099998,16.1139998 Z" id="Shape" fill="#FFFFFF" mask="url(#mask-2)"></path>
            <path d="M9.67599978,15.6659998 L9.70299978,16.0069998 C9.70299978,16.0069998 10.0169998,17.3249998 11.8529998,17.1939998 C13.6909998,17.0639998 14.7529998,15.0969998 14.7529998,15.0969998 L9.67599978,15.6659998 Z" id="Shape" fill="#DFE1E6" mask="url(#mask-2)"></path>
            <path d="M15.5839998,10.7049998 C15.716966,10.4907491 15.9508444,10.360019 16.2029998,10.3589998 C16.6999998,10.3589998 17.1139998,10.7499998 17.1139998,11.3019998 C17.1139998,11.8539998 16.5679998,12.7179998 16.0709998,12.7179998 C16.016256,12.7181332 15.9619768,12.7079559 15.9109998,12.6879998 L15.9109998,12.6919998 C15.2229998,15.0159998 13.3829998,17.2389998 11.0539998,16.8419998 C8.72399982,16.4429998 8.22899982,12.5239998 8.09099982,11.3799998 C7.9529998,10.2359998 8.92599978,9.1789998 9.68399982,9.2399998 C14.3649998,9.6199998 13.2549998,7.2679998 13.8569998,7.6709998 C14.1409998,7.8619998 14.3869998,7.9249998 14.8689998,8.7879998 C15.3509998,9.6499998 15.3369998,10.3479998 15.5069998,10.6259998 C15.5259387,10.6584109 15.5523359,10.6858366 15.5839998,10.7059998 L15.5839998,10.7049998 Z" id="Shape" fill="#FFFFFF" mask="url(#mask-2)"></path>
            <path d="M11.8139998,13.3079998 C11.1939998,13.5299998 10.8069998,13.5089998 10.6499998,13.2429998 C10.4939998,12.9779998 10.7529998,12.3129998 11.4289998,11.2469998 C11.432151,11.2584879 11.4344901,11.2701834 11.4359998,11.2819998 C11.4479998,11.3969998 11.3959998,11.6419998 11.2769998,12.0169998 C11.1498812,12.4246537 10.9945048,12.8229521 10.8119998,13.2089998 L11.8139998,13.3079998 Z" id="Shape" fill="#DFE1E6" mask="url(#mask-2)"></path>
            <path d="M9.417,10.561 C8.77399998,10.541 7.923,10.63 7.767,10.681 C7.56700002,10.749 7.56,10.765 7.54900002,10.915 C7.53700002,11.065 7.56100002,11.193 7.67800002,11.229 C7.83799998,11.279 7.836,11.479 7.93399998,12.051 C8.022,12.572 8.25,12.981 9.25999998,13.037 C9.312,13.04 9.36199998,13.041 9.40999998,13.04 L9.40999998,12.894 C8.94700002,12.906 8.43,12.755 8.25,12.432 C7.998,11.979 7.94800002,11.056 8.28400002,10.857 C8.42899998,10.771 8.91400002,10.704 9.417,10.717 L9.417,10.561 Z M11.354,10.823 C11.131,10.833 10.211,10.608 9.55999998,10.568 C9.51238314,10.5647413 9.4647075,10.5624076 9.417,10.561 L9.417,10.716 C9.94699998,10.729 10.497,10.829 10.688,11.082 C11.004,11.498 10.468,12.539 9.972,12.777 C9.822,12.849 9.62200002,12.889 9.411,12.894 L9.411,13.04 C10.287,13.026 10.601,12.446 10.705,12.252 C10.902,11.888 10.852,11.392 11.353,11.382 C11.853,11.372 11.797,11.862 11.983,12.218 C12.083,12.411 12.377,13.003 13.286,12.964 L13.286,12.818 C13.0828672,12.8302618 12.8794983,12.7981869 12.69,12.724 C12.201,12.504 11.698,11.485 12.028,11.057 C12.226,10.797 12.768,10.677 13.292,10.642 L13.292,10.487 L13.174,10.497 C12.588,10.556 11.881,10.802 11.354,10.823 Z M13.286,12.963 C13.321,12.963 13.356,12.96 13.394,12.956 C14.406,12.861 14.648,12.443 14.753,11.918 C14.868,11.341 14.873,11.141 15.035,11.086 C15.154,11.044 15.181,10.916 15.175,10.766 C15.168,10.616 15.162,10.601 14.964,10.542 C14.806,10.495 13.94,10.439 13.292,10.487 L13.292,10.642 C13.802,10.608 14.297,10.655 14.441,10.737 C14.77,10.922 14.691,11.849 14.425,12.312 C14.24,12.633 13.739,12.804 13.285,12.818 L13.285,12.964 L13.286,12.963 Z" id="Shape" fill="#00B2A9" mask="url(#mask-2)"></path>
            <path d="M11.994,23.6 C18.411,23.6 23.613,18.401 23.613,11.988 C23.613,5.574 18.411,0.375 11.993,0.375 C5.578,0.375 0.376,5.575 0.376,11.988 C0.375,18.4 5.577,23.6 11.994,23.6 Z M11.994,23.975 C5.37,23.975 0,18.608 0,11.988 C0,5.368 5.37,0 11.994,0 C18.618,0 23.988,5.367 23.988,11.988 C23.988,18.608 18.618,23.975 11.994,23.975 Z" id="Shape" fill="#375DE7" mask="url(#mask-2)"></path>
        </g>
    </g>
</svg>