<svg height="24" viewBox="0 0 24 24" width="24" xmlns="http://www.w3.org/2000/svg"><g fill="none" fill-rule="evenodd"><circle cx="12" cy="12" fill="#375de7" r="12"/><g fill="#fff" transform="translate(2 9)"><path d="m7.68 1.36c1.10032362 0 2 .90468498 2 1.99676898 0 1.10500808-.89967638 2.00323102-2 2.00323102s-2-.89822294-2-2.00323102c0-1.092084.89967638-1.99676898 2-1.99676898m0 3.27625202c.7184466 0 1.28802589-.56865913 1.28802589-1.28594507 0-.71082391-.56957929-1.27948304-1.28802589-1.27948304-.71197411 0-1.28802589.56865913-1.28802589 1.27948304 0 .71728594.57605178 1.28594507 1.28802589 1.28594507" fill-rule="nonzero"/><path d="m7.68 5.76 1.8 1.78181818-.46285714.45818182-1.33714286-1.32363636-1.33714286 1.32363636-.46285714-.45818182z"/><g fill-rule="nonzero"><path d="m2.72653951 3.07396558h1.27967302v.98825515c-.37297002.35294826-.82953678.53904826-1.3439782.53904826-1.07389646 0-1.94844686-.89841377-1.94844686-1.9315896 0-1.04601032.88741144-1.94442408 1.94844686-1.94442408.51444142 0 1.06103542.24385516 1.5240327.71873101l.48228883-.53263102c-.56588556-.59038619-1.28610354-.91124825-2.00632153-.91124825-.70735695-.00641724-1.37613079.27594137-1.88414169.77648619-.49514986.50054481-.77809264 1.17435513-.77809264 1.88666891 0 1.46313099 1.21536785 2.65673785 2.66223433 2.65673785.79095368 0 1.51760218-.35936551 2.05776567-.96258618v-2.00859649h-1.99346049z"/><path d="m11.4971429 2.05677419h.9428571v-.69677419h-.9428571v-.96h-.6927114v.96h-.5644315v.69677419h.5644315v2.23225807c0 .58709677.4746356 1.07096774 1.064723 1.07096774h.5708455v-.69677419h-.5708455c-.2052478 0-.3720116-.16774194-.3720116-.37419355z"/><path d="m18.2571429 2.05677419h.9428571v-.69677419h-.9428571v-.96h-.6927114v.96h-.5644315v.69677419h.5644315v2.23225807c0 .58709677.4746356 1.07096774 1.064723 1.07096774h.5708455v-.69677419h-.5708455c-.2052478 0-.3720116-.16774194-.3720116-.37419355z"/><path d="m15.44 0h1v5.36h-1z"/></g></g></g></svg>