<svg height="24" viewBox="0 0 24 24" width="24" xmlns="http://www.w3.org/2000/svg"><g fill="none" fill-rule="evenodd"><circle cx="12" cy="12" fill="#375de7" r="12"/><path d="m12.7667762 4c2.3950133 0 4.5803427 1.28888889 5.6172199 3.31466667 1.038801 2.02666666.7473596 4.43111113-.7502451 6.18666663l-2.2218798 2.6062223c-.0432833.0506666-.0673297.1128888-.0673297.1777777v3.7146667h-4.5668767v-2.2853333c0-.1582223-.1356212-.2862223-.3039455-.2862223h-3.26452812c-.21545501 0-.38955035-.1635555-.38955035-.3644444v-3.3493333c0-.1582223-.13658309-.2862223-.30394546-.2862223h-1.35813605c-.05578746 0-.10676565-.0266666-.13465938-.0711111-.02885558-.0453333-.03077929-.1013333-.00384741-.1466666l1.7640379-3.0755556c.02404631-.0408889.0365504-.088.0365504-.1351111v-1.52888889c0-1.18577778.50208712-2.32355555 1.39468645-3.16177778.89452304-.83911111 2.10645752-1.30933333 3.37033192-1.30933333zm.1423542 10.5715556h-.6088527v.5715555h.6088527zm1.8275202-.2862223h-.6088528v.5715556h.6088528zm-.9137601-9.71377774h-2.4354111c-.1683242 0-.3049073.128-.3049073.28533333v.57155555h-1.21770554c-.16832423 0-.30490731.128-.30490731.28622223v.57066666h-.60885278c-.16832423 0-.30394546.128-.30394546.28622223v1.14311111h-.60981463c-.16736237 0-.30394546.12711111-.30394546.28533333v2.2853333c0 .1582223.13658309.2862223.30394546.2862223h.60981463v.8568888c0 .1582223.13562123.2862223.30394546.2862223h1.82752013v.5706666h.6088528v-.5706666h.9137601v2.2853333h.6078909v-2.2853333h.6088528v.5706666c0 .1582223.1365831.2862223.3049073.2862223h.3049073v1.1431111h.6088528v-1.1431111h.9137601c.1673624 0 .3039455-.128.3039455-.2862223v-.8568889h.6088527v1.3102223l-.8243077.7733333.43091.4044444.9137601-.8568888c.0567493-.0533334.0884904-.1262223.0884904-.2026667v-2.2853333h.6088528c.1683242 0 .3049073-.128.3049073-.2862223v-2.2853333c0-.15822222-.1365831-.28533333-.3049073-.28533333h-.6088528v-1.14311111c0-.15822223-.1365831-.28622223-.3039454-.28622223h-.6098147v-.57066666c0-.15822223-.1356212-.28622223-.3039454-.28622223h-1.8275202v-.57155555c0-.15733333-.1356212-.28533333-.3039455-.28533333zm-2.4354111 8.28533334h-.6098146v.5715555h.6098146zm2.1305038-7.71377779v.57155556c0 .15733333.1365831.28533333.3049073.28533333h1.8275202v.28533333h-1.5226129c-.1683242 0-.3049073.128-.3049073.28622223v1.42844444c0 .15822222.1365831.28533333.3049073.28533333h.9137601v-.57066666h-.6098146v-.85777778h2.1314656v.85777778h-.91376v.57066666h1.8275201v1.71466667h-.6088527c-.1683243 0-.3049074.128-.3049074.2853333v.5715556h-1.5226128v-1.14222223h.9137601v-.57155556h-1.2177056c-.1683242 0-.3049073.128-.3049073.28533333v1.71466666c0 .1573333.1365831.2853333.3049073.2853333h.6088528v.5715556h-1.2177056v-1.7146667c0-.1573333-.136583-.2853333-.3049073-.2853333h-.9137601v.5715556h.6088528v.5715555h-1.521651v-.8577778h-.6088528v.8577778h-2.13146562v-.5715555h1.21770552c.1683243 0 .3039455-.128.3039455-.2862223v-1.14222219h-.6088528v.85688889h-1.82752016v-1.71466667h.60981463c.16832423 0 .30490731-.12711111.30490731-.28533333v-1.14311111h.60885278c.16832424 0 .30394544-.128.30394544-.28533333v-.57155556h.6155858v.85688889c0 .15822222.1365831.28622222.3049073.28622222h1.521651c.1683242 0 .3049073-.128.3049073-.28622222v-.85688889h-.6088528v.57155556h-.9137601v-.57155556c.1654387-.00355556.2981744-.13066667.2981744-.28533333v-.57155556h1.8275202zm-1.8265583 2.57155556h-1.82752019v.57066666h1.52357469v1.42933334h.6088528v-.57155556h.9195312c.0817575 0 .1596676-.03111111.2164169-.08622222.0577111-.05244445.0884904-.12533333.0884904-.20177778l-.006733-.85688889-.6088527.00355556.0038474.56888889h-.6127002v-.57066667c0-.15822222-.1365831-.28533333-.3049073-.28533333z" fill="#fff" fill-rule="nonzero"/></g></svg>
