<?xml version="1.0" encoding="UTF-8"?>
<svg width="160px" height="40px" viewBox="0 0 160 40" version="1.1" xmlns="http://www.w3.org/2000/svg" xmlns:xlink="http://www.w3.org/1999/xlink">
    <!-- Generator: Sketch 58 (84663) - https://sketch.com -->
    <title>Logos/Querychat/Hero/Original</title>
    <desc>Created with Sketch.</desc>
    <g id="Logos/Querychat/Hero/Original" stroke="none" stroke-width="1" fill="none" fill-rule="evenodd">
        <g>
            <path d="M54.4296875,34.4109375 L51.7859375,34.4109375 L51.2328125,36 L50,36 L52.578125,29.175 L53.6421875,29.175 L56.225,36 L54.9875,36 L54.4296875,34.4109375 Z M52.11875,33.4546875 L54.096875,33.4546875 L53.1078125,30.6234375 L52.11875,33.4546875 Z M57.9453125,30.928125 L57.978125,31.5140625 C58.3531269,31.0609352 58.8453095,30.834375 59.4546875,30.834375 C60.5109428,30.834375 61.0484374,31.4390565 61.0671875,32.6484375 L61.0671875,36 L59.928125,36 L59.928125,32.7140625 C59.928125,32.3921859 59.8585944,32.153907 59.7195313,31.9992188 C59.5804681,31.8445305 59.3531266,31.7671875 59.0375,31.7671875 C58.5781227,31.7671875 58.2359386,31.9749979 58.0109375,32.390625 L58.0109375,36 L56.871875,36 L56.871875,30.928125 L57.9453125,30.928125 Z M65.2578125,36 C65.2078123,35.9031245 65.1640627,35.7453136 65.1265625,35.5265625 C64.7640607,35.9046894 64.3203151,36.09375 63.7953125,36.09375 C63.285935,36.09375 62.8703141,35.948439 62.5484375,35.6578125 C62.2265609,35.367186 62.065625,35.0078146 62.065625,34.5796875 C62.065625,34.0390598 62.2664042,33.6242202 62.6679688,33.3351562 C63.0695333,33.0460923 63.6437463,32.9015625 64.390625,32.9015625 L65.0890625,32.9015625 L65.0890625,32.56875 C65.0890625,32.3062487 65.0156257,32.0960945 64.86875,31.9382812 C64.7218743,31.780468 64.498439,31.7015625 64.1984375,31.7015625 C63.9390612,31.7015625 63.7265633,31.7664056 63.5609375,31.8960937 C63.3953117,32.0257819 63.3125,32.190624 63.3125,32.390625 L62.1734375,32.390625 C62.1734375,32.1124986 62.265625,31.852345 62.45,31.6101562 C62.6343759,31.3679675 62.8851547,31.1781257 63.2023437,31.040625 C63.5195328,30.9031243 63.8734355,30.834375 64.2640625,30.834375 C64.8578155,30.834375 65.3312482,30.9835923 65.684375,31.2820312 C66.0375018,31.5804702 66.21875,31.9999973 66.228125,32.540625 L66.228125,34.828125 C66.228125,35.2843773 66.2921869,35.6484361 66.4203125,35.9203125 L66.4203125,36 L65.2578125,36 Z M64.00625,35.1796875 C64.2312511,35.1796875 64.4429678,35.1250005 64.6414063,35.015625 C64.8398447,34.9062495 64.989062,34.7593759 65.0890625,34.575 L65.0890625,33.61875 L64.475,33.61875 C64.0531229,33.61875 63.7359386,33.6921868 63.5234375,33.8390625 C63.3109364,33.9859382 63.2046875,34.1937487 63.2046875,34.4625 C63.2046875,34.6812511 63.277343,34.8554681 63.4226563,34.9851563 C63.5679695,35.1148444 63.7624988,35.1796875 64.00625,35.1796875 Z M68.6328125,36 L67.49375,36 L67.49375,28.8 L68.6328125,28.8 L68.6328125,36 Z M71.646875,34.36875 L72.678125,30.928125 L73.8921875,30.928125 L71.8765625,36.76875 C71.567186,37.6218793 71.0421912,38.0484375 70.3015625,38.0484375 C70.1359367,38.0484375 69.953126,38.0203128 69.753125,37.9640625 L69.753125,37.0828125 L69.96875,37.096875 C70.2562514,37.096875 70.4726555,37.0445318 70.6179688,36.9398438 C70.763282,36.8351557 70.8781246,36.6593762 70.9625,36.4125 L71.1265625,35.9765625 L69.3453125,30.928125 L70.5734375,30.928125 L71.646875,34.36875 Z M75.9734375,29.6953125 L75.9734375,30.928125 L76.86875,30.928125 L76.86875,31.771875 L75.9734375,31.771875 L75.9734375,34.603125 C75.9734375,34.796876 76.0117184,34.9367183 76.0882812,35.0226562 C76.1648441,35.1085942 76.3015615,35.1515625 76.4984375,35.1515625 C76.6296882,35.1515625 76.7624993,35.1359377 76.896875,35.1046875 L76.896875,35.9859375 C76.6374987,36.0578129 76.3875012,36.09375 76.146875,36.09375 C75.2718706,36.09375 74.834375,35.6109423 74.834375,34.6453125 L74.834375,31.771875 L74,31.771875 L74,30.928125 L74.834375,30.928125 L74.834375,29.6953125 L75.9734375,29.6953125 Z M78.95,36 L77.8109375,36 L77.8109375,30.928125 L78.95,30.928125 L78.95,36 Z M77.740625,29.6109375 C77.740625,29.4359366 77.7960932,29.2906256 77.9070313,29.175 C78.0179693,29.0593744 78.1765615,29.0015625 78.3828125,29.0015625 C78.5890635,29.0015625 78.7484369,29.0593744 78.8609375,29.175 C78.9734381,29.2906256 79.0296875,29.4359366 79.0296875,29.6109375 C79.0296875,29.7828134 78.9734381,29.9257807 78.8609375,30.0398437 C78.7484369,30.1539068 78.5890635,30.2109375 78.3828125,30.2109375 C78.1765615,30.2109375 78.0179693,30.1539068 77.9070313,30.0398437 C77.7960932,29.9257807 77.740625,29.7828134 77.740625,29.6109375 Z M82.2734375,35.184375 C82.5578139,35.184375 82.7937491,35.1015633 82.98125,34.9359375 C83.1687509,34.7703117 83.2687499,34.5656262 83.28125,34.321875 L84.3546875,34.321875 C84.3421874,34.6375016 84.2437509,34.9320299 84.059375,35.2054688 C83.8749991,35.4789076 83.6250016,35.6953117 83.309375,35.8546875 C82.9937484,36.0140633 82.6531268,36.09375 82.2875,36.09375 C81.5781215,36.09375 81.0156271,35.8640648 80.6,35.4046875 C80.1843729,34.9453102 79.9765625,34.3109415 79.9765625,33.5015625 L79.9765625,33.384375 C79.9765625,32.6124961 80.1828104,31.9945336 80.5953125,31.5304688 C81.0078146,31.0664039 81.5703089,30.834375 82.2828125,30.834375 C82.8859405,30.834375 83.3773419,31.0101545 83.7570312,31.3617188 C84.1367206,31.713283 84.3359374,32.1749971 84.3546875,32.746875 L83.28125,32.746875 C83.2687499,32.4562485 83.1695322,32.2171884 82.9835937,32.0296875 C82.7976553,31.8421866 82.5609389,31.7484375 82.2734375,31.7484375 C81.9046857,31.7484375 81.6203135,31.8820299 81.4203125,32.1492188 C81.2203115,32.4164076 81.11875,32.8218723 81.115625,33.365625 L81.115625,33.5484375 C81.115625,34.0984403 81.2148428,34.5085924 81.4132812,34.7789062 C81.6117197,35.0492201 81.8984356,35.184375 82.2734375,35.184375 Z M88.0578125,34.621875 C88.0578125,34.418749 87.9742196,34.264063 87.8070312,34.1578125 C87.6398429,34.051562 87.3625019,33.9578129 86.975,33.8765625 C86.5874981,33.7953121 86.2640638,33.6921881 86.0046875,33.5671875 C85.4359347,33.2921861 85.1515625,32.8937526 85.1515625,32.371875 C85.1515625,31.9343728 85.3359357,31.5687515 85.7046875,31.275 C86.0734393,30.9812485 86.5421847,30.834375 87.1109375,30.834375 C87.7171905,30.834375 88.2070294,30.9843735 88.5804687,31.284375 C88.9539081,31.5843765 89.140625,31.9734351 89.140625,32.4515625 L88.0015625,32.4515625 C88.0015625,32.2328114 87.9203133,32.050782 87.7578125,31.9054688 C87.5953117,31.7601555 87.3796888,31.6875 87.1109375,31.6875 C86.8609362,31.6875 86.657032,31.7453119 86.4992188,31.8609375 C86.3414055,31.9765631 86.2625,32.131249 86.2625,32.325 C86.2625,32.5000009 86.3359368,32.635937 86.4828125,32.7328125 C86.6296882,32.829688 86.9265603,32.9273433 87.3734375,33.0257813 C87.8203147,33.1242192 88.1710925,33.2414056 88.4257812,33.3773438 C88.68047,33.5132819 88.8695306,33.6765615 88.9929688,33.8671875 C89.1164069,34.0578135 89.178125,34.2890611 89.178125,34.5609375 C89.178125,35.0171898 88.9890644,35.3867173 88.6109375,35.6695312 C88.2328106,35.9523452 87.7375031,36.09375 87.125,36.09375 C86.7093729,36.09375 86.3390641,36.0187508 86.0140625,35.86875 C85.6890609,35.7187492 85.4359384,35.5125013 85.2546875,35.25 C85.0734366,34.9874987 84.9828125,34.704689 84.9828125,34.4015625 L86.0890625,34.4015625 C86.1046876,34.6703138 86.2062491,34.877343 86.39375,35.0226562 C86.5812509,35.1679695 86.829686,35.240625 87.1390625,35.240625 C87.439064,35.240625 87.6671867,35.1835943 87.8234375,35.0695312 C87.9796883,34.9554682 88.0578125,34.8062509 88.0578125,34.621875 Z M96.2375,34.2421875 C96.2375,33.942186 96.1320323,33.7109383 95.9210937,33.5484375 C95.7101552,33.3859367 95.3296903,33.2218758 94.7796875,33.05625 C94.2296847,32.8906242 93.7921891,32.706251 93.4671875,32.503125 C92.8453094,32.112498 92.534375,31.6031281 92.534375,30.975 C92.534375,30.4249972 92.7585915,29.9718768 93.2070312,29.615625 C93.655471,29.2593732 94.2374964,29.08125 94.953125,29.08125 C95.4281274,29.08125 95.8515606,29.1687491 96.2234375,29.34375 C96.5953144,29.5187509 96.8874989,29.7679671 97.1,30.0914063 C97.3125011,30.4148454 97.41875,30.7734355 97.41875,31.1671875 L96.2375,31.1671875 C96.2375,30.8109357 96.1257824,30.5320323 95.9023438,30.3304688 C95.6789051,30.1289052 95.3593771,30.028125 94.94375,30.028125 C94.5562481,30.028125 94.2554698,30.1109367 94.0414062,30.2765625 C93.8273427,30.4421883 93.7203125,30.673436 93.7203125,30.9703125 C93.7203125,31.2203138 93.8359363,31.4289054 94.0671875,31.5960938 C94.2984387,31.7632821 94.6796848,31.9257805 95.2109375,32.0835937 C95.7421902,32.241407 96.1687484,32.4210927 96.490625,32.6226562 C96.8125016,32.8242198 97.0484368,33.0554674 97.1984375,33.3164062 C97.3484382,33.5773451 97.4234375,33.8828107 97.4234375,34.2328125 C97.4234375,34.8015653 97.2054709,35.2539046 96.7695312,35.5898438 C96.3335916,35.9257829 95.7421912,36.09375 94.9953125,36.09375 C94.50156,36.09375 94.0476583,36.0023447 93.6335937,35.8195312 C93.2195292,35.6367178 92.8976574,35.3843766 92.6679688,35.0625 C92.4382801,34.7406234 92.3234375,34.3656271 92.3234375,33.9375 L93.509375,33.9375 C93.509375,34.3250019 93.6374987,34.6249989 93.89375,34.8375 C94.1500013,35.0500011 94.5171851,35.15625 94.9953125,35.15625 C95.4078146,35.15625 95.7179677,35.0726571 95.9257812,34.9054687 C96.1335948,34.7382804 96.2375,34.5171889 96.2375,34.2421875 Z M98.140625,33.4171875 C98.140625,32.92031 98.2390615,32.4726582 98.4359375,32.0742188 C98.6328135,31.6757793 98.9093732,31.3695323 99.265625,31.1554688 C99.6218768,30.9414052 100.031248,30.834375 100.49375,30.834375 C101.178128,30.834375 101.733592,31.0546853 102.160156,31.4953125 C102.586721,31.9359397 102.817187,32.5203089 102.851562,33.2484375 L102.85625,33.515625 C102.85625,34.0156275 102.760157,34.462498 102.567969,34.85625 C102.37578,35.250002 102.100783,35.5546864 101.742969,35.7703125 C101.385154,35.9859386 100.971877,36.09375 100.503125,36.09375 C99.7874964,36.09375 99.2148459,35.8554711 98.7851562,35.3789062 C98.3554666,34.9023414 98.140625,34.2671915 98.140625,33.4734375 L98.140625,33.4171875 Z M99.2796875,33.515625 C99.2796875,34.0375026 99.3874989,34.4460923 99.603125,34.7414062 C99.8187511,35.0367202 100.118748,35.184375 100.503125,35.184375 C100.887502,35.184375 101.186718,35.0343765 101.400781,34.734375 C101.614845,34.4343735 101.721875,33.9953154 101.721875,33.4171875 C101.721875,32.9046849 101.61172,32.498439 101.391406,32.1984375 C101.171093,31.898436 100.871877,31.7484375 100.49375,31.7484375 C100.121873,31.7484375 99.8265636,31.8960923 99.6078125,32.1914062 C99.3890614,32.4867202 99.2796875,32.9281221 99.2796875,33.515625 Z M105.03125,36 L103.892188,36 L103.892188,28.8 L105.03125,28.8 L105.03125,36 Z M108.059375,34.55625 L109.132813,30.928125 L110.309375,30.928125 L108.551563,36 L107.5625,36 L105.790625,30.928125 L106.971875,30.928125 L108.059375,34.55625 Z M113.253125,36.09375 C112.531246,36.09375 111.946096,35.8664085 111.497656,35.4117187 C111.049217,34.957029 110.825,34.3515663 110.825,33.5953125 L110.825,33.4546875 C110.825,32.948435 110.922655,32.4960957 111.117969,32.0976562 C111.313282,31.6992168 111.587498,31.3890636 111.940625,31.1671875 C112.293752,30.9453114 112.687498,30.834375 113.121875,30.834375 C113.812503,30.834375 114.346092,31.0546853 114.722656,31.4953125 C115.099221,31.9359397 115.2875,32.559371 115.2875,33.365625 L115.2875,33.825 L111.973438,33.825 C112.007813,34.2437521 112.147655,34.5749988 112.392969,34.81875 C112.638282,35.0625012 112.946873,35.184375 113.31875,35.184375 C113.840628,35.184375 114.265623,34.9734396 114.59375,34.5515625 L115.207813,35.1375 C115.004686,35.4406265 114.733595,35.6757804 114.394531,35.8429687 C114.055467,36.0101571 113.675002,36.09375 113.253125,36.09375 Z M113.117188,31.7484375 C112.804686,31.7484375 112.552345,31.8578114 112.360156,32.0765625 C112.167968,32.2953136 112.045313,32.599998 111.992188,32.990625 L114.1625,32.990625 L114.1625,32.90625 C114.1375,32.5249981 114.035938,32.2367197 113.857812,32.0414063 C113.679687,31.8460928 113.432814,31.7484375 113.117188,31.7484375 Z M115.957813,33.4265625 C115.957813,32.6453086 116.139061,32.0179711 116.501563,31.5445313 C116.864064,31.0710914 117.349997,30.834375 117.959375,30.834375 C118.496878,30.834375 118.931248,31.0218731 119.2625,31.396875 L119.2625,28.8 L120.401563,28.8 L120.401563,36 L119.370312,36 L119.314063,35.475 C118.973436,35.8875021 118.518753,36.09375 117.95,36.09375 C117.356247,36.09375 116.875783,35.8546899 116.508594,35.3765625 C116.141404,34.8984351 115.957813,34.2484416 115.957813,33.4265625 Z M117.096875,33.525 C117.096875,34.0406276 117.196093,34.4429673 117.394531,34.7320312 C117.59297,35.0210952 117.874998,35.165625 118.240625,35.165625 C118.706252,35.165625 119.046874,34.9578146 119.2625,34.5421875 L119.2625,32.3765625 C119.053124,31.9703105 118.715627,31.7671875 118.25,31.7671875 C117.881248,31.7671875 117.596875,31.9132798 117.396875,32.2054688 C117.196875,32.4976577 117.096875,32.9374971 117.096875,33.525 Z" id="AnalyticsSolved" fill="#6B778C"></path>
            <path d="M63.824431,27.1464129 C61.5344946,27.1464129 59.6050111,26.1922727 58.0359806,24.2627892 C55.7884504,24.220383 53.88017,23.4146646 52.3323427,21.8456341 C50.7845153,20.2766036 50,18.3895264 50,16.1631993 C50,13.9156691 50.7845153,12.0073887 52.3747489,10.4383582 C53.9649825,8.8481246 55.894466,8.06360935 58.1631993,8.06360935 C60.4319326,8.06360935 62.3614161,8.8481246 63.9304466,10.4383582 C65.4994771,12.0073887 66.2839923,13.9156691 66.2839923,16.1631993 C66.2839923,17.8382454 65.8175238,19.3648696 64.9057899,20.721869 C63.9940559,22.0788684 62.7854784,23.0542117 61.2800572,23.669102 C62.0645724,24.3263986 62.9763064,24.6656484 64.015259,24.6656484 C64.015259,24.6656484 64.315356,24.6656484 64.9155499,24.6656484 L64.9155499,27.1464129 C64.1881373,27.1464129 63.824431,27.1464129 63.824431,27.1464129 Z M52.9068271,16.2056055 C52.9068271,17.7110267 53.4157018,18.9620105 54.4122482,19.9585569 C55.4087946,20.9551033 56.6385753,21.4427749 58.1015902,21.4427749 C59.5646052,21.4427749 60.7731827,20.9551033 61.7697291,19.9585569 C62.7662755,18.9620105 63.2751503,17.7110267 63.2751503,16.2056055 C63.2751503,14.7001843 62.7662755,13.4279974 61.7697291,12.4102479 C60.7731827,11.3924984 59.5646052,10.8836236 58.1015902,10.8836236 C56.6385753,10.8836236 55.4087946,11.3924984 54.4122482,12.4102479 C53.4157018,13.4279974 52.9068271,14.7001843 52.9068271,16.2056055 Z M73.537458,24.2839923 C70.3357876,24.2839923 68.3426948,22.3969151 68.3426948,19.1952447 L68.3426948,12.4950604 L71.1203028,12.4950604 L71.1203028,19.1952447 C71.1203028,20.7430721 72.0320368,21.7608216 73.537458,21.7608216 C75.0640822,21.7608216 75.9758162,20.7430721 75.9758162,19.1952447 L75.9758162,12.4950604 L78.7534242,12.4950604 L78.7534242,19.1952447 C78.7534242,22.3969151 76.7815346,24.2839923 73.537458,24.2839923 Z M92.2718103,18.0078703 C92.2718103,18.325917 92.2506072,18.7287762 92.1869978,19.237651 L83.4089082,19.237651 C83.7693612,20.8278846 84.9567356,21.8880403 86.9286253,21.8880403 C88.3280309,21.8880403 89.6002178,21.4851811 90.7239829,20.7006659 L91.8265449,22.6725556 C90.4059362,23.7327113 88.7308901,24.2627892 86.8226097,24.2627892 C82.4971743,24.2627892 80.5888939,21.2943531 80.5888939,18.2411046 C80.5888939,16.5024491 81.1401749,15.0606373 82.2427369,13.9368722 C83.366502,12.791904 84.8083138,12.2194199 86.5681723,12.2194199 C88.2432184,12.2194199 89.6002178,12.7494978 90.6603735,13.7884504 C91.7417324,14.827403 92.2718103,16.2268086 92.2718103,18.0078703 Z M86.5681723,14.5305594 C84.9567356,14.5305594 83.7693612,15.5271058 83.4089082,17.1385426 L89.5578116,17.1385426 C89.3245773,15.5271058 88.158406,14.5305594 86.5681723,14.5305594 Z M96.9697005,24.0083518 L94.2132955,24.0083518 L94.2132955,12.4950604 L96.8636849,12.4950604 L96.8636849,14.085294 C97.5633877,12.8343102 98.6447465,12.1982168 100.065355,12.1982168 C100.553027,12.1982168 101.019495,12.2830292 101.443558,12.431451 L101.210323,15.0818404 C100.743855,14.9334186 100.29859,14.8486061 99.8745272,14.8486061 C98.1570749,14.8486061 96.9697005,15.9935744 96.9697005,18.3895264 L96.9697005,24.0083518 Z M108.680221,20.2766036 L111.415423,12.4950604 L114.426265,12.4950604 L109.76158,24.7504609 C108.659018,27.5704752 107.259612,28.5062714 105.075691,28.5062714 C104.49614,28.5062714 103.935763,28.5062714 103.394563,28.5062714 L103.394563,26.0043038 C104.077118,26.0043038 104.566817,26.0043038 104.86366,26.0043038 C105.775394,26.0043038 106.538706,25.7894135 107.11119,24.5384297 L107.386831,23.9023363 L102.361693,12.4950604 L105.563363,12.4950604 L108.680221,20.2766036 Z M120.597972,24.2627892 C118.922926,24.2627892 117.52352,23.7115082 116.442161,22.6089462 C115.360802,21.4851811 114.809521,20.0645724 114.809521,18.3471201 C114.809521,16.6084647 115.360802,15.187856 116.463364,14.0640909 C117.587129,12.9403258 119.007738,12.3890448 120.72519,12.3890448 C122.951518,12.3890448 124.923407,13.5128099 125.792735,15.3150747 L124.753782,15.9087619 C123.99047,14.4669501 122.442643,13.5552161 120.72519,13.5552161 C119.389394,13.5552161 118.265629,14.0004815 117.396301,14.9122155 C116.526974,15.8027463 116.081708,16.9477145 116.081708,18.3471201 C116.081708,19.7253226 116.505771,20.8702908 117.353895,21.7608216 C118.20202,22.6513525 119.283379,23.0966179 120.597972,23.0966179 C122.315424,23.0966179 123.948064,22.1212746 124.690173,20.7430721 L125.729126,21.3791656 C125.28386,22.2484933 124.584157,22.9481961 123.65122,23.478274 C122.718283,24.0083518 121.700534,24.2627892 120.597972,24.2627892 Z M145.399215,12.3890448 C147.286293,12.3890448 148.918932,13.3007788 149.873073,14.8486061 L149.873073,12.6646853 L151.102853,12.6646853 L151.102853,24.0083518 L149.873073,24.0083518 L149.873073,21.8032279 C148.918932,23.3510553 147.286293,24.2839923 145.399215,24.2839923 C143.787779,24.2839923 142.451982,23.7115082 141.370624,22.56654 C140.289265,21.4003687 139.759187,19.97976 139.759187,18.2835108 C139.759187,16.6084647 140.289265,15.2090591 141.34942,14.085294 C142.430779,12.9615289 143.766576,12.3890448 145.399215,12.3890448 Z M156.393967,8.60608904 L156.393967,12.6236495 L159.993623,12.6236495 L159.993623,13.828219 L156.393967,13.828219 L156.393967,20.7878203 C156.393967,22.2311502 157.324562,23.0438176 158.377588,23.0438176 L158.377588,23.0438176 L159.993623,23.0438176 L159.993623,24.2483871 L158.377762,24.2483871 C156.500482,24.2483871 154.990495,22.7224085 154.990495,20.8708878 L154.990495,20.8708878 L154.990495,13.828219 L152.994806,13.828219 L152.994806,12.6236495 L154.990495,12.6236495 L154.990495,8.60608904 L156.393967,8.60608904 Z M129.397264,8 L129.397264,14.5729657 C130.075764,13.1523569 131.517576,12.3678417 133.319841,12.3678417 C134.613231,12.3678417 135.673387,12.791904 136.521511,13.6188255 C137.390839,14.445747 137.814901,15.6331214 137.814901,17.1597457 L137.814901,24.0083518 L136.542714,24.0083518 L136.542714,17.3717768 C136.542714,14.997028 135.270527,13.5552161 133.171419,13.5552161 C132.174873,13.5552161 131.305545,13.894466 130.563436,14.5729657 C129.821327,15.2514653 129.439671,16.2692149 129.439671,17.6262142 L129.439671,24.0083518 L128.167484,24.0083518 L128.167484,8 L129.397264,8 Z M145.462825,13.5552161 C144.169435,13.5552161 143.088076,14.0216847 142.261154,14.9334186 C141.434233,15.8451526 141.031374,16.9901208 141.031374,18.325917 C141.031374,19.6829164 141.434233,20.8278846 142.261154,21.7396185 C143.088076,22.6513525 144.169435,23.117821 145.462825,23.117821 C146.777418,23.117821 147.858777,22.6513525 148.706901,21.7184154 C149.555026,20.7854784 149.979088,19.6405101 149.979088,18.2835108 C149.979088,16.9689176 149.555026,15.8451526 148.706901,14.9334186 C147.858777,14.0216847 146.777418,13.5552161 145.462825,13.5552161 Z" id="Querychat" fill="#091D42"></path>
            <g id="Icon">
                <path d="M9.72009516,39.9961582 C4.32667079,39.8479317 0,35.4292399 0,30 L0,30 L0,10 C0,4.4771525 4.4771525,0 10,0 L30,0 C35.4292399,0 39.8479317,4.32667079 39.9961582,9.72009516 L40,10 L40,40 L10,40 Z" id="Chat-shape" fill="#375DE7"></path>
                <path d="M20,27 C26.619374,27 31.9869579,25.4367977 31.9999763,23.507036 L32,28.6 C31.8133335,30.48686 26.5125173,32 20,32 C13.372583,32 8,30.4329966 8,28.5 L8.005,28.6 L8,28.6 L8,23.507 L8.00511614,23.6031964 C8.1922781,25.4884613 13.4909297,27 20,27 Z M32,15.1 L32,20.2 C31.8133335,22.08686 26.5125173,23.6 20,23.6 C13.372583,23.6 8,22.0329966 8,20.1 L8.005,20.2 L8,20.2 L8,15.1 C8,17.0329966 13.372583,18.6 20,18.6 C26.627417,18.6 32,17.0329966 32,15.1 Z M32,23.4 L32,23.5 L31.994,23.4 L32,23.4 Z M32,15 L32,15.1 L31.994,15 L32,15 Z M20,8 C26.627417,8 32,9.56700338 32,11.5 C32,13.4329966 26.627417,15 20,15 C13.372583,15 8,13.4329966 8,11.5 C8,9.56700338 13.372583,8 20,8 Z" id="Product-icon" fill="#FFFFFF"></path>
            </g>
        </g>
    </g>
</svg>