<?xml version="1.0" encoding="UTF-8"?>
<svg width="160px" height="40px" viewBox="0 0 160 40" version="1.1" xmlns="http://www.w3.org/2000/svg" xmlns:xlink="http://www.w3.org/1999/xlink">
    <!-- Generator: Sketch 58 (84663) - https://sketch.com -->
    <title>Logos/Querychat/Spot Hero/Black</title>
    <desc>Created with Sketch.</desc>
    <g id="Logos/Querychat/Spot-Hero/Black" stroke="none" stroke-width="1" fill="none" fill-rule="evenodd">
        <path d="M30.0011957,0 C35.430652,0 39.84952,4.32667079 39.9977524,9.72009516 L40.0015943,10 L40.0015943,40 L10.0003986,40 L9.72048258,39.9961582 C4.41983702,39.8504873 0.149518612,35.5803391 0.00384195066,30.2799048 L0,30 L0,10 C0,4.4771525 4.47733095,0 10.0003986,0 L30.0011957,0 Z M105.56757,16.4950604 L108.684553,24.2766036 L111.419863,16.4950604 L114.430826,16.4950604 L109.765955,28.7504609 C108.663349,31.5704752 107.263887,32.5062714 105.079879,32.5062714 L103.398684,32.5062714 L103.398684,32.5062714 L103.398684,30.0043038 L104.86784,30.0043038 L104.86784,30.0043038 C105.77961,30.0043038 106.542953,29.7894135 107.11546,28.5384297 L107.391111,27.9023363 L102.365772,16.4950604 L105.56757,16.4950604 Z M8.003,28.553 L8.00031886,28.5 C8.00031886,30.4329966 13.373116,32 20.0007972,32 C26.3951599,32 31.6214363,30.5413831 31.9860446,28.7025422 L32.0012754,28.6 L32.0012517,23.507036 C31.9882328,25.4367977 26.620435,27 20.0007972,27 C13.6098189,27 8.3856907,25.5429267 8.02069045,23.7056516 L8.00543521,23.6031964 L8,23.507 L8,28.508 L8.00031886,28.6 L8.00531886,28.6 L8.003,28.553 Z M58.1655175,12.0636093 C60.4343413,12.0636093 62.3639016,12.8481246 63.9329947,14.4383582 C65.5020877,16.0073887 66.2866342,17.9156691 66.2866342,20.1631993 C66.2866342,21.8382454 65.8201471,23.3648696 64.9083768,24.721869 C63.9966066,26.0788684 62.7879808,27.0542117 61.2824997,27.669102 C62.0670462,28.3263986 62.9788165,28.6656484 64.0178105,28.6656484 L64.9181373,28.6656484 L64.9181373,28.6656484 L64.9181373,31.1464129 L63.8269749,31.1464129 L63.8269749,31.1464129 C61.5369472,31.1464129 59.6073868,30.1922727 58.0382938,28.2627892 C55.790674,28.220383 53.8823176,27.4146646 52.3344285,25.8456341 C50.7865394,24.2766036 50.0019929,22.3895264 50.0019929,20.1631993 C50.0019929,17.9156691 50.7865394,16.0073887 52.3768364,14.4383582 C53.9671334,12.8481246 55.8966938,12.0636093 58.1655175,12.0636093 Z M71.1231375,16.4950604 L71.1231375,23.1952447 C71.1231375,24.7430721 72.0349078,25.7608216 73.540389,25.7608216 C75.0670741,25.7608216 75.9788444,24.7430721 75.9788444,23.1952447 L75.9788444,16.4950604 L78.7565632,16.4950604 L78.7565632,23.1952447 C78.7565632,26.3969151 76.7845949,28.2839923 73.540389,28.2839923 C70.338591,28.2839923 68.3454188,26.3969151 68.3454188,23.1952447 L68.3454188,16.4950604 L71.1231375,16.4950604 Z M145.405011,16.3890448 C147.292163,16.3890448 148.924868,17.3007788 149.879046,18.8486061 L149.879046,16.6646853 L151.108876,16.6646853 L151.108876,28.0083518 L149.879046,28.0083518 L149.879046,25.8032279 C148.924868,27.3510553 147.292163,28.2839923 145.405011,28.2839923 C143.79351,28.2839923 142.45766,27.7115082 141.376258,26.56654 C140.294856,25.4003687 139.764757,23.97976 139.764757,22.2835108 C139.764757,20.6084647 140.294856,19.2090591 141.355054,18.085294 C142.436456,16.9615289 143.772306,16.3890448 145.405011,16.3890448 Z M86.5716227,16.2194199 C88.2467356,16.2194199 89.603789,16.7494978 90.663987,17.7884504 C91.745389,18.827403 92.275488,20.2268086 92.275488,22.0078703 C92.275488,22.325917 92.254284,22.7287762 92.1906722,23.237651 L83.4122327,23.237651 C83.7727,24.8278846 84.9601218,25.8880403 86.9320901,25.8880403 C88.3315514,25.8880403 89.603789,25.4851811 90.7275989,24.7006659 L91.8302048,26.6725556 C90.4095395,27.7327113 88.7344267,28.2627892 86.8260703,28.2627892 C82.5004624,28.2627892 80.592106,25.2943531 80.592106,22.2411046 C80.592106,20.5024491 81.1434089,19.0606373 82.2460149,17.9368722 C83.3698248,16.791904 84.811694,16.2194199 86.5716227,16.2194199 Z M120.730002,16.3890448 C122.956418,16.3890448 124.928386,17.5128099 125.797749,19.3150747 L124.758755,19.9087619 C123.995412,18.4669501 122.447523,17.5552161 120.730002,17.5552161 C119.394153,17.5552161 118.270343,18.0004815 117.400981,18.9122155 C116.531618,19.8027463 116.086335,20.9477145 116.086335,22.3471201 C116.086335,23.7253226 116.510414,24.8702908 117.358573,25.7608216 C118.206731,26.6513525 119.288133,27.0966179 120.602778,27.0966179 C122.320299,27.0966179 123.953004,26.1212746 124.695143,24.7430721 L125.734137,25.3791656 C125.288854,26.2484933 124.589123,26.9481961 123.656149,27.478274 C122.723175,28.0083518 121.705384,28.2627892 120.602778,28.2627892 C118.927666,28.2627892 117.528204,27.7115082 116.446802,26.6089462 C115.3654,25.4851811 114.814097,24.0645724 114.814097,22.3471201 C114.814097,20.6084647 115.3654,19.187856 116.468006,18.0640909 C117.591816,16.9403258 119.012481,16.3890448 120.730002,16.3890448 Z M156.400201,12.606089 L156.400201,16.6236495 L160,16.6236495 L160,17.828219 L156.400201,17.828219 L156.400201,24.7878203 C156.400201,26.1683967 157.251667,26.9719587 158.247304,27.0392239 L158.3839,27.0438176 L160,27.0438176 L160,28.2483871 L158.384075,28.2483871 C156.569298,28.2483871 155.097751,26.8224449 155.001664,25.0549102 L154.996673,24.8708878 L154.996673,17.828219 L153.000904,17.828219 L153.000904,16.6236495 L154.996673,16.6236495 L154.996673,12.606089 L156.400201,12.606089 Z M100.069344,16.1982168 C100.557035,16.1982168 101.023522,16.2830292 101.447601,16.431451 L101.214357,19.0818404 C100.74787,18.9334186 100.302587,18.8486061 99.878508,18.8486061 C98.1609872,18.8486061 96.9735654,19.9935744 96.9735654,22.3895264 L96.9735654,28.0083518 L94.2170506,28.0083518 L94.2170506,16.4950604 L96.8675456,16.4950604 L96.8675456,18.085294 C97.5672763,16.8343102 98.6486783,16.1982168 100.069344,16.1982168 Z M129.402422,12 L129.402422,18.5729657 C130.080949,17.1523569 131.522818,16.3678417 133.325155,16.3678417 C134.618596,16.3678417 135.678794,16.791904 136.526953,17.6188255 C137.396315,18.445747 137.820394,19.6331214 137.820394,21.1597457 L137.820394,28.0083518 L136.548157,28.0083518 L136.548157,21.3717768 C136.548157,18.997028 135.275919,17.5552161 133.176727,17.5552161 C132.180141,17.5552161 131.310778,17.894466 130.56864,18.5729657 C129.826501,19.2514653 129.44483,20.2692149 129.44483,21.6262142 L129.44483,28.0083518 L128.172592,28.0083518 L128.172592,12 L129.402422,12 Z M145.468623,17.5552161 C144.175181,17.5552161 143.093779,18.0216847 142.266825,18.9334186 C141.43987,19.8451526 141.036995,20.9901208 141.036995,22.325917 C141.036995,23.6829164 141.43987,24.8278846 142.266825,25.7396185 C143.093779,26.6513525 144.175181,27.117821 145.468623,27.117821 C146.783268,27.117821 147.86467,26.6513525 148.712828,25.7184154 C149.560987,24.7854784 149.985066,23.6405101 149.985066,22.2835108 C149.985066,20.9689176 149.560987,19.8451526 148.712828,18.9334186 C147.86467,18.0216847 146.783268,17.5552161 145.468623,17.5552161 Z M58.103906,14.8836236 C56.6408328,14.8836236 55.4110031,15.3924984 54.414417,16.4102479 C53.4178308,17.4279974 52.9089358,18.7001843 52.9089358,20.2056055 C52.9089358,21.7110267 53.4178308,22.9620105 54.414417,23.9585569 C55.4110031,24.9551033 56.6408328,25.4427749 58.103906,25.4427749 C59.5669793,25.4427749 60.775605,24.9551033 61.7721911,23.9585569 C62.7687772,22.9620105 63.2776723,21.7110267 63.2776723,20.2056055 C63.2776723,18.7001843 62.7687772,17.4279974 61.7721911,16.4102479 C60.775605,15.3924984 59.5669793,14.8836236 58.103906,14.8836236 Z M20.0007972,23.6 C26.3951599,23.6 31.6214363,22.1413831 31.9860446,20.3025422 L32.0012754,20.2 L32.0012754,15.1 C32.0012754,17.0329966 26.6284783,18.6 20.0007972,18.6 C13.4914675,18.6 8.19260463,17.0884613 8.00543521,15.2031964 L8.00031886,15.1 L8,20.101 L8,20.102 L8.00031886,20.2 L8.00531886,20.2 L8.00031886,20.1 C8.00031886,22.0329966 13.373116,23.6 20.0007972,23.6 Z M32.0012754,23.4 L31.9953189,23.4 L32.0012754,23.5 L32.0012754,23.4 Z M86.5716227,18.5305594 C84.9601218,18.5305594 83.7727,19.5271058 83.4122327,21.1385426 L89.5613811,21.1385426 C89.3281375,19.5271058 88.1619197,18.5305594 86.5716227,18.5305594 Z M20.0007972,8 C13.373116,8 8.00031886,9.56700338 8.00031886,11.5 C8.00031886,13.4329966 13.373116,15 20.0007972,15 C26.6284783,15 32.0012754,13.4329966 32.0012754,11.5 C32.0012754,9.56700338 26.6284783,8 20.0007972,8 Z M32.001,15.098 L32.0012754,15 L31.9953189,15 L32.001,15.098 Z" fill="#000000"></path>
    </g>
</svg>