<?xml version="1.0" encoding="UTF-8"?>
<svg width="40px" height="40px" viewBox="0 0 40 40" version="1.1" xmlns="http://www.w3.org/2000/svg" xmlns:xlink="http://www.w3.org/1999/xlink">
    <!-- Generator: Sketch 58 (84663) - https://sketch.com -->
    <title>Logos/Querychat/Spot/White</title>
    <desc>Created with Sketch.</desc>
    <g id="Logos/Querychat/Spot/White" stroke="none" stroke-width="1" fill="none" fill-rule="evenodd">
        <path d="M30,0 C35.4292399,0 39.8479317,4.32667079 39.9961582,9.72009516 L40,10 L40,40 L10,40 L9.72009516,39.9961582 C4.41966086,39.8504873 0.149512653,35.5803391 0.00384179753,30.2799048 L0,30 L0,10 C0,4.4771525 4.4771525,0 10,0 L30,0 Z M31.9999763,23.507036 C31.9869579,25.4367977 26.619374,27 20,27 C13.4909297,27 8.1922781,25.4884613 8.00511614,23.6031964 L8.00511614,23.6031964 L8,23.507 L8,28.6 L8.005,28.6 L8,28.5 C8,30.4329966 13.372583,32 20,32 C26.5125173,32 31.8133335,30.48686 32,28.6 L32,28.6 Z M32,15.1 C32,17.0329966 26.627417,18.6 20,18.6 C13.372583,18.6 8,17.0329966 8,15.1 L8,15.1 L8,20.2 L8.005,20.2 L8,20.1 C8,22.0329966 13.372583,23.6 20,23.6 C26.5125173,23.6 31.8133335,22.08686 32,20.2 L32,20.2 Z M32,23.4 L31.994,23.4 L32,23.5 L32,23.4 Z M32,15 L31.994,15 L32,15.1 L32,15 Z M20,8 C13.372583,8 8,9.56700338 8,11.5 C8,13.4329966 13.372583,15 20,15 C26.627417,15 32,13.4329966 32,11.5 C32,9.56700338 26.627417,8 20,8 Z" fill="#FFFFFF"></path>
    </g>
</svg>