<?xml version="1.0" encoding="UTF-8"?>
<svg width="151px" height="40px" viewBox="0 0 151 40" version="1.1" xmlns="http://www.w3.org/2000/svg" xmlns:xlink="http://www.w3.org/1999/xlink">
    <!-- Generator: Sketch 58 (84663) - https://sketch.com -->
    <title>Logos/Excelchat/Hero/Black</title>
    <desc>Created with Sketch.</desc>
    <g id="Logos/Excelchat/Hero/Black" stroke="none" stroke-width="1" fill="none" fill-rule="evenodd">
        <path d="M30,0 C35.4292399,0 39.8479317,4.32667079 39.9961582,9.72009516 L40,10 L40,40 L10,40 L9.72009516,39.9961582 C4.41966086,39.8504873 0.149512653,35.5803391 0.00384179753,30.2799048 L0,30 L0,10 C0,4.4771525 4.4771525,0 10,0 L30,0 Z M58.4890625,30.834375 C59.1078156,30.834375 59.592967,31.0648414 59.9445312,31.5257813 C60.2960955,31.9867211 60.471875,32.6265584 60.471875,33.4453125 L60.471875,33.515625 C60.471875,34.3000039 60.2937518,34.9257789 59.9375,35.3929688 C59.5812482,35.8601586 59.103128,36.09375 58.503125,36.09375 C57.9468722,36.09375 57.5015642,35.9109393 57.1671875,35.5453125 L57.1671875,37.95 L56.028125,37.95 L56.028125,30.928125 L57.078125,30.928125 L57.125,31.44375 C57.4593767,31.037498 57.9140596,30.834375 58.4890625,30.834375 Z M82.4703125,30.834375 C83.0765655,30.834375 83.5664044,30.9843735 83.9398437,31.284375 C84.3132831,31.5843765 84.5,31.9734351 84.5,32.4515625 L83.3609375,32.4515625 C83.3609375,32.2328114 83.2796883,32.050782 83.1171875,31.9054688 C82.9546867,31.7601555 82.7390638,31.6875 82.4703125,31.6875 C82.2203112,31.6875 82.016407,31.7453119 81.8585937,31.8609375 C81.7007805,31.9765631 81.621875,32.131249 81.621875,32.325 C81.621875,32.5000009 81.6953118,32.635937 81.8421875,32.7328125 C81.9890632,32.829688 82.2859353,32.9273433 82.7328125,33.0257813 C83.1796897,33.1242192 83.5304675,33.2414056 83.7851562,33.3773438 C84.039845,33.5132819 84.2289056,33.6765615 84.3523438,33.8671875 C84.4757819,34.0578135 84.5375,34.2890611 84.5375,34.5609375 C84.5375,35.0171898 84.3484394,35.3867173 83.9703125,35.6695312 C83.5921856,35.9523452 83.0968781,36.09375 82.484375,36.09375 C82.0687479,36.09375 81.6984391,36.0187507 81.3734375,35.86875 C81.0484359,35.7187493 80.7953134,35.5125013 80.6140625,35.25 C80.4328116,34.9874987 80.3421875,34.704689 80.3421875,34.4015625 L81.4484375,34.4015625 C81.4640626,34.6703138 81.5656241,34.877343 81.753125,35.0226562 C81.9406259,35.1679695 82.189061,35.240625 82.4984375,35.240625 C82.798439,35.240625 83.0265617,35.1835943 83.1828125,35.0695312 C83.3390633,34.9554682 83.4171875,34.8062509 83.4171875,34.621875 C83.4171875,34.418749 83.3335946,34.264063 83.1664062,34.1578125 C82.9992179,34.051562 82.7218769,33.9578129 82.334375,33.8765625 C81.9468731,33.7953121 81.6234388,33.6921881 81.3640625,33.5671875 C80.7953097,33.2921861 80.5109375,32.8937526 80.5109375,32.371875 C80.5109375,31.9343728 80.6953107,31.5687515 81.0640625,31.275 C81.4328143,30.9812485 81.9015597,30.834375 82.4703125,30.834375 Z M71.9984375,30.834375 C72.5921905,30.834375 73.0656232,30.9835923 73.41875,31.2820312 C73.7718768,31.5804702 73.953125,31.9999973 73.9625,32.540625 L73.9625,34.828125 C73.9625,35.2843773 74.0265619,35.6484361 74.1546875,35.9203125 L74.1546875,36 L72.9921875,36 C72.9421873,35.9031245 72.8984377,35.7453136 72.8609375,35.5265625 C72.4984357,35.9046894 72.0546901,36.09375 71.5296875,36.09375 C71.02031,36.09375 70.6046891,35.948439 70.2828125,35.6578125 C69.9609359,35.367186 69.8,35.0078146 69.8,34.5796875 C69.8,34.0390598 70.0007792,33.6242202 70.4023438,33.3351562 C70.8039083,33.0460923 71.3781213,32.9015625 72.125,32.9015625 L72.8234375,32.9015625 L72.8234375,32.56875 C72.8234375,32.3062487 72.7500007,32.0960945 72.603125,31.9382812 C72.4562493,31.780468 72.232814,31.7015625 71.9328125,31.7015625 C71.6734362,31.7015625 71.4609383,31.7664056 71.2953125,31.8960937 C71.1296867,32.0257819 71.046875,32.190624 71.046875,32.390625 L69.9078125,32.390625 C69.9078125,32.1124986 70,31.852345 70.184375,31.6101562 C70.3687509,31.3679675 70.6195297,31.1781257 70.9367187,31.040625 C71.2539078,30.9031243 71.6078105,30.834375 71.9984375,30.834375 Z M134.585938,28.8 L134.585938,36 L133.554688,36 L133.498438,35.475 C133.157811,35.8875021 132.703128,36.09375 132.134375,36.09375 C131.540622,36.09375 131.060158,35.8546899 130.692969,35.3765625 C130.325779,34.8984351 130.142188,34.2484416 130.142188,33.4265625 C130.142188,32.6453086 130.323436,32.0179711 130.685938,31.5445313 C131.048439,31.0710914 131.534372,30.834375 132.14375,30.834375 C132.681253,30.834375 133.115623,31.0218731 133.446875,31.396875 L133.446875,28.8 L134.585938,28.8 Z M102.589063,29.6953125 L102.589063,30.928125 L103.484375,30.928125 L103.484375,31.771875 L102.589063,31.771875 L102.589063,34.603125 C102.589063,34.796876 102.627343,34.9367183 102.703906,35.0226562 C102.780469,35.1085942 102.917187,35.1515625 103.114063,35.1515625 C103.245313,35.1515625 103.378124,35.1359377 103.5125,35.1046875 L103.5125,35.9859375 C103.253124,36.0578129 103.003126,36.09375 102.7625,36.09375 C101.887496,36.09375 101.45,35.6109423 101.45,34.6453125 L101.45,31.771875 L100.615625,31.771875 L100.615625,30.928125 L101.45,30.928125 L101.45,29.6953125 L102.589063,29.6953125 Z M66.9125,30.834375 C67.6031285,30.834375 68.1367169,31.0546853 68.5132813,31.4953125 C68.8898456,31.9359397 69.078125,32.559371 69.078125,33.365625 L69.078125,33.825 L65.7640625,33.825 C65.7984377,34.2437521 65.93828,34.5749988 66.1835938,34.81875 C66.4289075,35.0625012 66.7374981,35.184375 67.109375,35.184375 C67.6312526,35.184375 68.0562484,34.9734396 68.384375,34.5515625 L68.9984375,35.1375 C68.7953115,35.4406265 68.5242204,35.6757804 68.1851563,35.8429687 C67.8460921,36.0101571 67.4656271,36.09375 67.04375,36.09375 C66.3218714,36.09375 65.736721,35.8664085 65.2882812,35.4117187 C64.8398415,34.957029 64.615625,34.3515663 64.615625,33.5953125 L64.615625,33.4546875 C64.615625,32.948435 64.7132803,32.4960957 64.9085937,32.0976562 C65.1039072,31.6992168 65.3781232,31.3890636 65.73125,31.1671875 C66.0843768,30.9453114 66.4781228,30.834375 66.9125,30.834375 Z M109.1375,29.08125 C109.612502,29.08125 110.035936,29.1687491 110.407813,29.34375 C110.779689,29.5187509 111.071874,29.7679671 111.284375,30.0914063 C111.496876,30.4148454 111.603125,30.7734355 111.603125,31.1671875 L110.421875,31.1671875 C110.421875,30.8109357 110.310157,30.5320323 110.086719,30.3304688 C109.86328,30.1289052 109.543752,30.028125 109.128125,30.028125 C108.740623,30.028125 108.439845,30.1109367 108.225781,30.2765625 C108.011718,30.4421883 107.904687,30.673436 107.904687,30.9703125 C107.904687,31.2203137 108.020311,31.4289054 108.251563,31.5960938 C108.482814,31.7632821 108.86406,31.9257805 109.395313,32.0835937 C109.926565,32.241407 110.353123,32.4210927 110.675,32.6226562 C110.996877,32.8242198 111.232812,33.0554674 111.382812,33.3164062 C111.532813,33.5773451 111.607812,33.8828108 111.607812,34.2328125 C111.607812,34.8015653 111.389846,35.2539046 110.953906,35.5898438 C110.517967,35.9257829 109.926566,36.09375 109.179688,36.09375 C108.685935,36.09375 108.232033,36.0023447 107.817969,35.8195312 C107.403904,35.6367178 107.082032,35.3843766 106.852344,35.0625 C106.622655,34.7406234 106.507812,34.3656271 106.507812,33.9375 L107.69375,33.9375 C107.69375,34.3250019 107.821874,34.6249989 108.078125,34.8375 C108.334376,35.0500011 108.70156,35.15625 109.179688,35.15625 C109.59219,35.15625 109.902343,35.0726571 110.110156,34.9054687 C110.31797,34.7382804 110.421875,34.5171889 110.421875,34.2421875 C110.421875,33.942186 110.316407,33.7109383 110.105469,33.5484375 C109.89453,33.3859367 109.514065,33.2218758 108.964062,33.05625 C108.41406,32.8906242 107.976564,32.706251 107.651562,32.503125 C107.029684,32.112498 106.71875,31.6031281 106.71875,30.975 C106.71875,30.4249972 106.942967,29.9718768 107.391406,29.615625 C107.839846,29.2593732 108.421871,29.08125 109.1375,29.08125 Z M92.9609375,30.834375 C93.651566,30.834375 94.1851544,31.0546853 94.5617187,31.4953125 C94.9382831,31.9359397 95.1265625,32.559371 95.1265625,33.365625 L95.1265625,33.825 L91.8125,33.825 C91.8468752,34.2437521 91.9867175,34.5749988 92.2320313,34.81875 C92.477345,35.0625012 92.7859356,35.184375 93.1578125,35.184375 C93.6796901,35.184375 94.1046859,34.9734396 94.4328125,34.5515625 L95.046875,35.1375 C94.843749,35.4406265 94.5726579,35.6757804 94.2335937,35.8429687 C93.8945296,36.0101571 93.5140646,36.09375 93.0921875,36.09375 C92.3703089,36.09375 91.7851585,35.8664085 91.3367188,35.4117187 C90.888279,34.957029 90.6640625,34.3515663 90.6640625,33.5953125 L90.6640625,33.4546875 C90.6640625,32.948435 90.7617178,32.4960957 90.9570312,32.0976562 C91.1523447,31.6992168 91.4265607,31.3890636 91.7796875,31.1671875 C92.1328143,30.9453114 92.5265603,30.834375 92.9609375,30.834375 Z M114.678125,30.834375 C115.362503,30.834375 115.917967,31.0546853 116.344531,31.4953125 C116.771096,31.9359397 117.001562,32.5203089 117.035937,33.2484375 L117.040625,33.515625 C117.040625,34.0156275 116.944532,34.462498 116.752344,34.85625 C116.560155,35.250002 116.285158,35.5546864 115.927344,35.7703125 C115.569529,35.9859386 115.156252,36.09375 114.6875,36.09375 C113.971871,36.09375 113.399221,35.8554711 112.969531,35.3789062 C112.539842,34.9023414 112.325,34.2671915 112.325,33.4734375 L112.325,33.4171875 C112.325,32.92031 112.423437,32.4726582 112.620312,32.0742188 C112.817188,31.6757793 113.093748,31.3695323 113.45,31.1554688 C113.806252,30.9414052 114.215623,30.834375 114.678125,30.834375 Z M79.3859375,28.8 L79.3859375,36 L78.3546875,36 L78.2984375,35.475 C77.9578108,35.8875021 77.5031278,36.09375 76.934375,36.09375 C76.340622,36.09375 75.8601581,35.8546899 75.4929688,35.3765625 C75.1257794,34.8984351 74.9421875,34.2484416 74.9421875,33.4265625 C74.9421875,32.6453086 75.1234357,32.0179711 75.4859375,31.5445313 C75.8484393,31.0710914 76.334372,30.834375 76.94375,30.834375 C77.4812527,30.834375 77.9156233,31.0218731 78.246875,31.396875 L78.246875,28.8 L79.3859375,28.8 Z M52.6296875,29.08125 C53.1046899,29.08125 53.5281231,29.1687491 53.9,29.34375 C54.2718769,29.5187509 54.5640614,29.7679671 54.7765625,30.0914063 C54.9890636,30.4148454 55.0953125,30.7734355 55.0953125,31.1671875 L53.9140625,31.1671875 C53.9140625,30.8109357 53.8023449,30.5320323 53.5789063,30.3304688 C53.3554676,30.1289052 53.0359396,30.028125 52.6203125,30.028125 C52.2328106,30.028125 51.9320323,30.1109367 51.7179687,30.2765625 C51.5039052,30.4421883 51.396875,30.673436 51.396875,30.9703125 C51.396875,31.2203137 51.5124988,31.4289054 51.74375,31.5960938 C51.9750012,31.7632821 52.3562473,31.9257805 52.8875,32.0835937 C53.4187527,32.241407 53.8453109,32.4210927 54.1671875,32.6226562 C54.4890641,32.8242198 54.7249992,33.0554674 54.875,33.3164062 C55.0250008,33.5773451 55.1,33.8828108 55.1,34.2328125 C55.1,34.8015653 54.8820334,35.2539046 54.4460938,35.5898438 C54.0101541,35.9257829 53.4187537,36.09375 52.671875,36.09375 C52.1781225,36.09375 51.7242208,36.0023447 51.3101562,35.8195312 C50.8960917,35.6367178 50.5742199,35.3843766 50.3445313,35.0625 C50.1148426,34.7406234 50,34.3656271 50,33.9375 L51.1859375,33.9375 C51.1859375,34.3250019 51.3140612,34.6249989 51.5703125,34.8375 C51.8265638,35.0500011 52.1937476,35.15625 52.671875,35.15625 C53.0843771,35.15625 53.3945302,35.0726571 53.6023438,34.9054687 C53.8101573,34.7382804 53.9140625,34.5171889 53.9140625,34.2421875 C53.9140625,33.942186 53.8085948,33.7109383 53.5976562,33.5484375 C53.3867177,33.3859367 53.0062528,33.2218758 52.45625,33.05625 C51.9062472,32.8906242 51.4687516,32.706251 51.14375,32.503125 C50.5218719,32.112498 50.2109375,31.6031281 50.2109375,30.975 C50.2109375,30.4249972 50.435154,29.9718768 50.8835938,29.615625 C51.3320335,29.2593732 51.9140589,29.08125 52.6296875,29.08125 Z M127.30625,30.834375 C127.996878,30.834375 128.530467,31.0546853 128.907031,31.4953125 C129.283596,31.9359397 129.471875,32.559371 129.471875,33.365625 L129.471875,33.825 L126.157813,33.825 C126.192188,34.2437521 126.33203,34.5749988 126.577344,34.81875 C126.822657,35.0625012 127.131248,35.184375 127.503125,35.184375 C128.025003,35.184375 128.449998,34.9734396 128.778125,34.5515625 L129.392188,35.1375 C129.189061,35.4406265 128.91797,35.6757804 128.578906,35.8429687 C128.239842,36.0101571 127.859377,36.09375 127.4375,36.09375 C126.715621,36.09375 126.130471,35.8664085 125.682031,35.4117187 C125.233592,34.957029 125.009375,34.3515663 125.009375,33.5953125 L125.009375,33.4546875 C125.009375,32.948435 125.10703,32.4960957 125.302344,32.0976562 C125.497657,31.6992168 125.771873,31.3890636 126.125,31.1671875 C126.478127,30.9453114 126.871873,30.834375 127.30625,30.834375 Z M98.1125,30.834375 C98.8031285,30.834375 99.3367169,31.0546853 99.7132812,31.4953125 C100.089846,31.9359397 100.278125,32.559371 100.278125,33.365625 L100.278125,33.825 L96.9640625,33.825 C96.9984377,34.2437521 97.13828,34.5749988 97.3835937,34.81875 C97.6289075,35.0625012 97.9374981,35.184375 98.309375,35.184375 C98.8312526,35.184375 99.2562484,34.9734396 99.584375,34.5515625 L100.198437,35.1375 C99.9953115,35.4406265 99.7242204,35.6757804 99.3851562,35.8429687 C99.0460921,36.0101571 98.6656271,36.09375 98.24375,36.09375 C97.5218714,36.09375 96.936721,35.8664085 96.4882812,35.4117187 C96.0398415,34.957029 95.815625,34.3515663 95.815625,33.5953125 L95.815625,33.4546875 C95.815625,32.948435 95.9132803,32.4960957 96.1085937,32.0976562 C96.3039072,31.6992168 96.5781232,31.3890636 96.93125,31.1671875 C97.2843768,30.9453114 97.6781228,30.834375 98.1125,30.834375 Z M86.6515625,28.8 L86.6515625,31.48125 C87.0234394,31.0499978 87.4937472,30.834375 88.0625,30.834375 C89.1437554,30.834375 89.6921874,31.4515563 89.7078125,32.6859375 L89.7078125,36 L88.56875,36 L88.56875,32.728125 C88.56875,32.3781233 88.4929695,32.1304695 88.3414063,31.9851562 C88.189843,31.839843 87.967189,31.7671875 87.6734375,31.7671875 C87.2171852,31.7671875 86.8765636,31.9703105 86.6515625,32.3765625 L86.6515625,36 L85.5125,36 L85.5125,28.8 L86.6515625,28.8 Z M63.6921875,30.834375 C63.8546883,30.834375 63.989062,30.8562498 64.0953125,30.9 L64.090625,31.96875 C63.9406242,31.9437499 63.7859383,31.93125 63.6265625,31.93125 C63.1046849,31.93125 62.7531259,32.131248 62.571875,32.53125 L62.571875,36 L61.4328125,36 L61.4328125,30.928125 L62.5203125,30.928125 L62.5484375,31.4953125 C62.8234389,31.0546853 63.2046851,30.834375 63.6921875,30.834375 Z M121.15625,30.928125 L122.24375,34.55625 L123.317188,30.928125 L124.49375,30.928125 L122.735938,36 L121.746875,36 L119.975,30.928125 L121.15625,30.928125 Z M119.215625,28.8 L119.215625,36 L118.076563,36 L118.076563,28.8 L119.215625,28.8 Z M114.678125,31.7484375 C114.306248,31.7484375 114.010939,31.8960923 113.792187,32.1914062 C113.573436,32.4867202 113.464062,32.9281221 113.464062,33.515625 C113.464062,34.0375026 113.571874,34.4460923 113.7875,34.7414062 C114.003126,35.0367202 114.303123,35.184375 114.6875,35.184375 C115.071877,35.184375 115.371093,35.0343765 115.585156,34.734375 C115.79922,34.4343735 115.90625,33.9953154 115.90625,33.4171875 C115.90625,32.9046849 115.796095,32.498439 115.575781,32.1984375 C115.355468,31.898436 115.056252,31.7484375 114.678125,31.7484375 Z M58.1703125,31.7671875 C57.7046852,31.7671875 57.3703135,31.9593731 57.1671875,32.34375 L57.1671875,34.59375 C57.3734385,34.987502 57.7109352,35.184375 58.1796875,35.184375 C58.5421893,35.184375 58.8257802,35.0382827 59.0304687,34.7460938 C59.2351573,34.4539048 59.3375,34.0109405 59.3375,33.4171875 C59.3375,32.910935 59.2367198,32.5093765 59.0351562,32.2125 C58.8335927,31.9156235 58.5453144,31.7671875 58.1703125,31.7671875 Z M72.8234375,33.61875 L72.209375,33.61875 C71.7874979,33.61875 71.4703136,33.6921868 71.2578125,33.8390625 C71.0453114,33.9859382 70.9390625,34.1937487 70.9390625,34.4625 C70.9390625,34.6812511 71.011718,34.8554681 71.1570313,34.9851563 C71.3023445,35.1148444 71.4968738,35.1796875 71.740625,35.1796875 C71.9656261,35.1796875 72.1773428,35.1250005 72.3757813,35.015625 C72.5742197,34.9062495 72.723437,34.7593759 72.8234375,34.575 L72.8234375,33.61875 Z M132.434375,31.7671875 C132.065623,31.7671875 131.78125,31.9132798 131.58125,32.2054688 C131.38125,32.4976577 131.28125,32.9374971 131.28125,33.525 C131.28125,34.0406276 131.380468,34.4429673 131.578906,34.7320312 C131.777345,35.0210952 132.059373,35.165625 132.425,35.165625 C132.890627,35.165625 133.231249,34.9578146 133.446875,34.5421875 L133.446875,32.3765625 C133.237499,31.9703105 132.900002,31.7671875 132.434375,31.7671875 Z M77.234375,31.7671875 C76.8656232,31.7671875 76.58125,31.9132798 76.38125,32.2054688 C76.18125,32.4976577 76.08125,32.9374971 76.08125,33.525 C76.08125,34.0406276 76.1804678,34.4429673 76.3789062,34.7320312 C76.5773447,35.0210952 76.8593732,35.165625 77.225,35.165625 C77.6906273,35.165625 78.0312489,34.9578146 78.246875,34.5421875 L78.246875,32.3765625 C78.037499,31.9703105 77.7000023,31.7671875 77.234375,31.7671875 Z M66.9078125,31.7484375 C66.5953109,31.7484375 66.3429697,31.8578114 66.1507812,32.0765625 C65.9585928,32.2953136 65.8359378,32.599998 65.7828125,32.990625 L67.953125,32.990625 L67.953125,32.90625 C67.9281249,32.5249981 67.8265634,32.2367197 67.6484375,32.0414063 C67.4703116,31.8460928 67.2234391,31.7484375 66.9078125,31.7484375 Z M127.301563,31.7484375 C126.989061,31.7484375 126.73672,31.8578114 126.544531,32.0765625 C126.352343,32.2953136 126.229688,32.599998 126.176563,32.990625 L128.346875,32.990625 L128.346875,32.90625 C128.321875,32.5249981 128.220313,32.2367197 128.042188,32.0414063 C127.864062,31.8460928 127.617189,31.7484375 127.301563,31.7484375 Z M92.95625,31.7484375 C92.6437484,31.7484375 92.3914072,31.8578114 92.1992188,32.0765625 C92.0070303,32.2953136 91.8843753,32.599998 91.83125,32.990625 L94.0015625,32.990625 L94.0015625,32.90625 C93.9765624,32.5249981 93.8750009,32.2367197 93.696875,32.0414063 C93.5187491,31.8460928 93.2718766,31.7484375 92.95625,31.7484375 Z M98.1078125,31.7484375 C97.7953109,31.7484375 97.5429697,31.8578114 97.3507813,32.0765625 C97.1585928,32.2953136 97.0359378,32.599998 96.9828125,32.990625 L99.153125,32.990625 L99.153125,32.90625 C99.1281249,32.5249981 99.0265634,32.2367197 98.8484375,32.0414063 C98.6703116,31.8460928 98.4234391,31.7484375 98.1078125,31.7484375 Z M19.2,25 L8,25 L8,27.2 C8,29.779319 10.034439,31.8834694 12.5861892,31.9953232 L12.8,32 L19.2,32 L19.2,25 Z M32,25 L20.799,25 L20.8,32 L27.2,32 C29.779319,32 31.8834694,29.965561 31.9953232,27.4138108 L32,27.2 L32,25 Z M136.205525,12.1824 C138.092325,12.1824 139.724725,13.094 140.678725,14.6416 L140.678725,12.458 L141.908325,12.458 L141.908325,23.8 L140.678725,23.8 L140.678725,21.5952 C139.724725,23.1428 138.092325,24.0756 136.205525,24.0756 C134.594325,24.0756 133.258725,23.5032 132.177525,22.3584 C131.096325,21.1924 130.566325,19.772 130.566325,18.076 C130.566325,16.4012 131.096325,15.002 132.156325,13.8784 C133.237525,12.7548 134.573125,12.1824 136.205525,12.1824 Z M111.535125,12.1824 C113.761125,12.1824 115.732725,13.306 116.601925,15.108 L115.563125,15.7016 C114.799925,14.26 113.252325,13.3484 111.535125,13.3484 C110.199525,13.3484 109.075925,13.7936 108.206725,14.7052 C107.337525,15.5956 106.892325,16.7404 106.892325,18.1396 C106.892325,19.5176 107.316325,20.6624 108.164325,21.5528 C109.012325,22.4432 110.093525,22.8884 111.407925,22.8884 C113.125125,22.8884 114.757525,21.9132 115.499525,20.5352 L116.538325,21.1712 C116.093125,22.0404 115.393525,22.74 114.460725,23.27 C113.527925,23.8 112.510325,24.0544 111.407925,24.0544 C109.733125,24.0544 108.333925,23.5032 107.252725,22.4008 C106.171525,21.2772 105.620325,19.8568 105.620325,18.1396 C105.620325,16.4012 106.171525,14.9808 107.273925,13.8572 C108.397525,12.7336 109.817925,12.1824 111.535125,12.1824 Z M92.624725,12.0128 C94.299525,12.0128 95.656325,12.5428 96.716325,13.5816 C97.797525,14.6204 98.327525,16.0196 98.327525,17.8004 C98.327525,18.1184 98.306325,18.5212 98.242725,19.03 L89.465925,19.03 C89.826325,20.62 91.013525,21.68 92.985125,21.68 C94.384325,21.68 95.656325,21.2772 96.779925,20.4928 L97.882325,22.4644 C96.461925,23.5244 94.787125,24.0544 92.879125,24.0544 C88.554325,24.0544 86.646325,21.0864 86.646325,18.0336 C86.646325,16.2952 87.197525,14.8536 88.299925,13.73 C89.423525,12.5852 90.865125,12.0128 92.624725,12.0128 Z M80.053125,12.0128 C82.406325,12.0128 84.462725,13.1576 85.395525,15.1716 L83.148325,16.38 C82.469925,15.2564 81.367525,14.5568 80.095525,14.5568 C79.099125,14.5568 78.272325,14.896 77.615125,15.5532 C76.957925,16.2104 76.639925,17.0372 76.639925,18.0336 C76.639925,19.03 76.957925,19.8568 77.593925,20.514 C78.229925,21.1712 79.035525,21.5104 80.010725,21.5104 C81.282725,21.5104 82.533525,20.7896 83.105925,19.7084 L85.353125,21.0228 C84.356725,22.8672 82.321525,24.0544 79.968325,24.0544 C78.187525,24.0544 76.724725,23.482 75.579925,22.3584 C74.456325,21.2348 73.883925,19.7932 73.883925,18.0336 C73.883925,16.274 74.456325,14.8324 75.601125,13.7088 C76.745925,12.5852 78.229925,12.0128 80.053125,12.0128 Z M147.198661,8.4 L147.198661,12.4169702 L150.797789,12.4169702 L150.797789,13.6213627 L147.198661,13.6213627 L147.198661,20.5799416 C147.198661,21.9603152 148.049969,22.7637591 149.04542,22.8310144 L149.181991,22.8356075 L150.797789,22.8356075 L150.797789,24.04 L149.182165,24.04 C147.367727,24.04 145.896455,22.6142673 145.800386,20.8469923 L145.795396,20.6629969 L145.795396,13.6213627 L143.8,13.6213627 L143.8,12.4169702 L145.795396,12.4169702 L145.795396,8.4 L147.198661,8.4 Z M60.464325,8.1332 L60.464325,10.8468 L52.959525,10.8468 L52.959525,14.5356 L59.891925,14.5356 L59.891925,17.228 L52.959525,17.228 L52.959525,21.0864 L60.464325,21.0864 L60.464325,23.8 L50.055125,23.8 L50.055125,8.1332 L60.464325,8.1332 Z M65.297925,12.2884 L67.396725,15.9348 L69.622725,12.2884 L72.760325,12.2884 L69.113925,17.9912 L72.866325,23.8 L69.686325,23.8 L67.333125,19.8992 L64.916325,23.8 L61.715125,23.8 L65.573525,17.9064 L62.117925,12.2884 L65.297925,12.2884 Z M103.224725,7.8 L103.224725,23.8 L100.468725,23.8 L100.468725,7.8 L103.224725,7.8 Z M120.205925,7.794 L120.205925,14.366 C120.884325,12.9456 122.325925,12.1612 124.127925,12.1612 C125.421125,12.1612 126.481125,12.5852 127.329125,13.412 C128.198325,14.2388 128.622325,15.426 128.622325,16.9524 L128.622325,23.8 L127.350325,23.8 L127.350325,17.1644 C127.350325,14.79 126.078325,13.3484 123.979525,13.3484 C122.983125,13.3484 122.113925,13.6876 121.371925,14.366 C120.629925,15.0444 120.248325,16.062 120.248325,17.4188 L120.248325,23.8 L118.976325,23.8 L118.976325,7.794 L120.205925,7.794 Z M32,16.6 L20.799,16.6 L20.799,23.399 L32,23.4 L32,16.6 Z M19.2,16.6 L8,16.6 L8,23.4 L19.2,23.399 L19.2,16.6 Z M136.269125,13.3484 C134.975925,13.3484 133.894725,13.8148 133.067925,14.7264 C132.241125,15.638 131.838325,16.7828 131.838325,18.1184 C131.838325,19.4752 132.241125,20.62 133.067925,21.5316 C133.894725,22.4432 134.975925,22.9096 136.269125,22.9096 C137.583525,22.9096 138.664725,22.4432 139.512725,21.5104 C140.360725,20.5776 140.784725,19.4328 140.784725,18.076 C140.784725,16.7616 140.360725,15.638 139.512725,14.7264 C138.664725,13.8148 137.583525,13.3484 136.269125,13.3484 Z M92.624725,14.3236 C91.013525,14.3236 89.826325,15.32 89.465925,16.9312 L95.613925,16.9312 C95.380725,15.32 94.214725,14.3236 92.624725,14.3236 Z M27.2,8 L20.8,8 L20.799,15 L32,15 L32,12.8 C32,10.1490332 29.8509668,8 27.2,8 Z M19.2,8 L12.8,8 C10.220681,8 8.1165306,10.034439 8.00467683,12.5861892 L8,12.8 L8,15 L19.2,15 L19.2,8 Z" fill="#000000"></path>
    </g>
</svg>