<?xml version="1.0" encoding="UTF-8"?>
<svg width="151px" height="40px" viewBox="0 0 151 40" version="1.1" xmlns="http://www.w3.org/2000/svg" xmlns:xlink="http://www.w3.org/1999/xlink">
    <!-- Generator: Sketch 58 (84663) - https://sketch.com -->
    <title>Logos/Excelchat/Spot Hero/Original</title>
    <desc>Created with Sketch.</desc>
    <g id="Logos/Excelchat/Spot-Hero/Original" stroke="none" stroke-width="1" fill="none" fill-rule="evenodd">
        <g>
            <path d="M60.464325,27.8 L50.055125,27.8 L50.055125,12.1332 L60.464325,12.1332 L60.464325,14.8468 L52.959525,14.8468 L52.959525,18.5356 L59.891925,18.5356 L59.891925,21.228 L52.959525,21.228 L52.959525,25.0864 L60.464325,25.0864 L60.464325,27.8 Z M69.113925,21.9912 L72.866325,27.8 L69.686325,27.8 L67.333125,23.8992 L64.916325,27.8 L61.715125,27.8 L65.573525,21.9064 L62.117925,16.2884 L65.297925,16.2884 L67.396725,19.9348 L69.622725,16.2884 L72.760325,16.2884 L69.113925,21.9912 Z M79.968325,28.0544 C78.187525,28.0544 76.724725,27.482 75.579925,26.3584 C74.456325,25.2348 73.883925,23.7932 73.883925,22.0336 C73.883925,20.274 74.456325,18.8324 75.601125,17.7088 C76.745925,16.5852 78.229925,16.0128 80.053125,16.0128 C82.406325,16.0128 84.462725,17.1576 85.395525,19.1716 L83.148325,20.38 C82.469925,19.2564 81.367525,18.5568 80.095525,18.5568 C79.099125,18.5568 78.272325,18.896 77.615125,19.5532 C76.957925,20.2104 76.639925,21.0372 76.639925,22.0336 C76.639925,23.03 76.957925,23.8568 77.593925,24.514 C78.229925,25.1712 79.035525,25.5104 80.010725,25.5104 C81.282725,25.5104 82.533525,24.7896 83.105925,23.7084 L85.353125,25.0228 C84.356725,26.8672 82.321525,28.0544 79.968325,28.0544 Z M98.327525,21.8004 C98.327525,22.1184 98.306325,22.5212 98.242725,23.03 L89.465925,23.03 C89.826325,24.62 91.013525,25.68 92.985125,25.68 C94.384325,25.68 95.656325,25.2772 96.779925,24.4928 L97.882325,26.4644 C96.461925,27.5244 94.787125,28.0544 92.879125,28.0544 C88.554325,28.0544 86.646325,25.0864 86.646325,22.0336 C86.646325,20.2952 87.197525,18.8536 88.299925,17.73 C89.423525,16.5852 90.865125,16.0128 92.624725,16.0128 C94.299525,16.0128 95.656325,16.5428 96.716325,17.5816 C97.797525,18.6204 98.327525,20.0196 98.327525,21.8004 Z M92.624725,18.3236 C91.013525,18.3236 89.826325,19.32 89.465925,20.9312 L95.613925,20.9312 C95.380725,19.32 94.214725,18.3236 92.624725,18.3236 Z M103.224725,11.8 L103.224725,27.8 L100.468725,27.8 L100.468725,11.8 L103.224725,11.8 Z M111.407925,28.0544 C109.733125,28.0544 108.333925,27.5032 107.252725,26.4008 C106.171525,25.2772 105.620325,23.8568 105.620325,22.1396 C105.620325,20.4012 106.171525,18.9808 107.273925,17.8572 C108.397525,16.7336 109.817925,16.1824 111.535125,16.1824 C113.761125,16.1824 115.732725,17.306 116.601925,19.108 L115.563125,19.7016 C114.799925,18.26 113.252325,17.3484 111.535125,17.3484 C110.199525,17.3484 109.075925,17.7936 108.206725,18.7052 C107.337525,19.5956 106.892325,20.7404 106.892325,22.1396 C106.892325,23.5176 107.316325,24.6624 108.164325,25.5528 C109.012325,26.4432 110.093525,26.8884 111.407925,26.8884 C113.125125,26.8884 114.757525,25.9132 115.499525,24.5352 L116.538325,25.1712 C116.093125,26.0404 115.393525,26.74 114.460725,27.27 C113.527925,27.8 112.510325,28.0544 111.407925,28.0544 Z M120.248325,27.8 L118.976325,27.8 L118.976325,11.794 L120.205925,11.794 L120.205925,18.366 C120.884325,16.9456 122.325925,16.1612 124.127925,16.1612 C125.421125,16.1612 126.481125,16.5852 127.329125,17.412 C128.198325,18.2388 128.622325,19.426 128.622325,20.9524 L128.622325,27.8 L127.350325,27.8 L127.350325,21.1644 C127.350325,18.79 126.078325,17.3484 123.979525,17.3484 C122.983125,17.3484 122.113925,17.6876 121.371925,18.366 C120.629925,19.0444 120.248325,20.062 120.248325,21.4188 L120.248325,27.8 Z M140.678725,18.6416 L140.678725,16.458 L141.908325,16.458 L141.908325,27.8 L140.678725,27.8 L140.678725,25.5952 C139.724725,27.1428 138.092325,28.0756 136.205525,28.0756 C134.594325,28.0756 133.258725,27.5032 132.177525,26.3584 C131.096325,25.1924 130.566325,23.772 130.566325,22.076 C130.566325,20.4012 131.096325,19.002 132.156325,17.8784 C133.237525,16.7548 134.573125,16.1824 136.205525,16.1824 C138.092325,16.1824 139.724725,17.094 140.678725,18.6416 Z M147.198661,12.4 L147.198661,16.4169702 L150.797789,16.4169702 L150.797789,17.6213627 L147.198661,17.6213627 L147.198661,24.5799416 C147.198661,26.0230594 148.129119,26.8356075 149.181991,26.8356075 L149.181991,26.8356075 L150.797789,26.8356075 L150.797789,28.04 L149.182165,28.04 C147.30516,28.04 145.795396,26.5142456 145.795396,24.6629969 L145.795396,24.6629969 L145.795396,17.6213627 L143.8,17.6213627 L143.8,16.4169702 L145.795396,16.4169702 L145.795396,12.4 L147.198661,12.4 Z M136.269125,17.3484 C137.583525,17.3484 138.664725,17.8148 139.512725,18.7264 C140.360725,19.638 140.784725,20.7616 140.784725,22.076 C140.784725,23.4328 140.360725,24.5776 139.512725,25.5104 C138.664725,26.4432 137.583525,26.9096 136.269125,26.9096 C134.975925,26.9096 133.894725,26.4432 133.067925,25.5316 C132.241125,24.62 131.838325,23.4752 131.838325,22.1184 C131.838325,20.7828 132.241125,19.638 133.067925,18.7264 C133.894725,17.8148 134.975925,17.3484 136.269125,17.3484 Z" id="Excelchat" fill="#091D42"></path>
            <g id="Icon">
                <path d="M9.72009516,39.9961582 C4.32667079,39.8479317 0,35.4292399 0,30 L0,30 L0,10 C0,4.4771525 4.4771525,0 10,0 L30,0 C35.4292399,0 39.8479317,4.32667079 39.9961582,9.72009516 L40,10 L40,40 L10,40 Z" id="Chat-shape" fill="#375DE7"></path>
                <path d="M8,25 L19.2,25 L19.2,32 L12.8,32 C10.1490332,32 8,29.8509668 8,27.2 L8,25 Z M32,25 L32,27.2 C32,29.8509668 29.8509668,32 27.2,32 L20.8,32 L20.799,25 L32,25 Z M32,23.4 L20.799,23.399 L20.799,16.6 L32,16.6 L32,23.4 Z M8,16.6 L19.2,16.6 L19.2,23.399 L8,23.4 L8,16.6 Z M27.2,8 C29.8509668,8 32,10.1490332 32,12.8 L32,15 L20.799,15 L20.8,8 L27.2,8 Z M19.2,15 L8,15 L8,12.8 C8,10.1490332 10.1490332,8 12.8,8 L19.2,8 L19.2,15 Z" id="Product-icon" fill="#FFFFFF"></path>
            </g>
        </g>
    </g>
</svg>