<?xml version="1.0" encoding="UTF-8"?>
<svg width="151px" height="40px" viewBox="0 0 151 40" version="1.1" xmlns="http://www.w3.org/2000/svg" xmlns:xlink="http://www.w3.org/1999/xlink">
    <!-- Generator: Sketch 58 (84663) - https://sketch.com -->
    <title>Logos/Excelchat/Spot Hero/White</title>
    <desc>Created with Sketch.</desc>
    <g id="Logos/Excelchat/Spot-Hero/White" stroke="none" stroke-width="1" fill="none" fill-rule="evenodd">
        <path d="M30.0402283,0 C35.4767486,0 39.9013656,4.32667079 40.0497908,9.72009516 L40.0536378,10 L40.0536378,40 L10.0134094,40 L9.73312926,39.9961582 C4.42558738,39.8504873 0.149713141,35.5803391 0.00384694917,30.2799048 L0,30 L0,10 C0,4.4771525 4.48315611,0 10.0134094,0 L30.0402283,0 Z M19.2257276,25 L8.01072755,25 L8.01072755,27.2 C8.01072755,29.779319 10.0451666,31.8834694 12.5969167,31.9953232 L12.8107276,32 L19.2257461,32 L19.2257276,25 Z M32.0429102,25 L20.8277276,25 L20.8278916,32 L27.2429102,32 C29.8222293,32 31.9263796,29.965561 32.0382334,27.4138108 L32.0429102,27.2 L32.0429102,25 Z M136.388169,16.1824 C138.277499,16.1824 139.912088,17.094 140.867367,18.6416 L140.867367,16.458 L142.098616,16.458 L142.098616,27.8 L140.867367,27.8 L140.867367,25.5952 C139.912088,27.1428 138.277499,28.0756 136.388169,28.0756 C134.774808,28.0756 133.437418,27.5032 132.354768,26.3584 C131.272118,25.1924 130.741407,23.772 130.741407,22.076 C130.741407,20.4012 131.272118,19.002 132.333539,17.8784 C133.416189,16.7548 134.75358,16.1824 136.388169,16.1824 Z M80.1604718,16.0128 C82.5168273,16.0128 84.5759848,17.1576 85.5100356,19.1716 L83.2598223,20.38 C82.5805126,19.2564 81.4766343,18.5568 80.2029286,18.5568 C79.2051925,18.5568 78.3772838,18.896 77.7192026,19.5532 C77.0611213,20.2104 76.7426949,21.0372 76.7426949,22.0336 C76.7426949,23.03 77.0611213,23.8568 77.6979741,24.514 C78.334827,25.1712 79.1415072,25.5104 80.1180149,25.5104 C81.3917206,25.5104 82.6441979,24.7896 83.2173654,23.7084 L85.4675788,25.0228 C84.4698427,26.8672 82.4319136,28.0544 80.0755581,28.0544 C78.2923701,28.0544 76.8276086,27.482 75.6812735,26.3584 C74.5561668,25.2348 73.9829992,23.7932 73.9829992,22.0336 C73.9829992,20.274 74.5561668,18.8324 75.7025019,17.7088 C76.848837,16.5852 78.334827,16.0128 80.1604718,16.0128 Z M92.7489296,16.0128 C94.4259754,16.0128 95.7845948,16.5428 96.8460162,17.5816 C97.928666,18.6204 98.4593767,20.0196 98.4593767,21.8004 C98.4593767,22.1184 98.4381483,22.5212 98.374463,23.03 L89.5858938,23.03 C89.9467771,24.62 91.1355691,25.68 93.1098129,25.68 C94.5108891,25.68 95.7845948,25.2772 96.9097015,24.4928 L98.0135797,26.4644 C96.5912751,27.5244 94.9142293,28.0544 93.0036707,28.0544 C88.6730714,28.0544 86.7625129,25.0864 86.7625129,22.0336 C86.7625129,20.2952 87.314452,18.8536 88.4183303,17.73 C89.543437,16.5852 90.9869701,16.0128 92.7489296,16.0128 Z M111.684687,16.1824 C113.913672,16.1824 115.887916,17.306 116.758282,19.108 L115.718089,19.7016 C114.953865,18.26 113.40419,17.3484 111.684687,17.3484 C110.347296,17.3484 109.22219,17.7936 108.351824,18.7052 C107.481459,19.5956 107.035662,20.7404 107.035662,22.1396 C107.035662,23.5176 107.46023,24.6624 108.309367,25.5528 C109.158504,26.4432 110.241154,26.8884 111.557317,26.8884 C113.276819,26.8884 114.911408,25.9132 115.654403,24.5352 L116.694596,25.1712 C116.248799,26.0404 115.548261,26.74 114.61421,27.27 C113.68016,27.8 112.661195,28.0544 111.557317,28.0544 C109.880271,28.0544 108.479195,27.5032 107.396545,26.4008 C106.313895,25.2772 105.761956,23.8568 105.761956,22.1396 C105.761956,20.4012 106.313895,18.9808 107.417773,17.8572 C108.54288,16.7336 109.965185,16.1824 111.684687,16.1824 Z M147.396047,12.4 L147.396047,16.4169702 L151,16.4169702 L151,17.6213627 L147.396047,17.6213627 L147.396047,24.5799416 C147.396047,25.9603152 148.248496,26.7637591 149.245282,26.8310144 L149.382035,26.8356075 L151,26.8356075 L151,28.04 L149.38221,28.04 C147.565339,28.04 146.092094,26.6142673 145.995896,24.8469923 L145.990899,24.6629969 L145.990899,17.6213627 L143.992828,17.6213627 L143.992828,16.4169702 L145.990899,16.4169702 L145.990899,12.4 L147.396047,12.4 Z M60.5454043,12.1332 L60.5454043,14.8468 L53.0305408,14.8468 L53.0305408,18.5356 L59.9722367,18.5356 L59.9722367,21.228 L53.0305408,21.228 L53.0305408,25.0864 L60.5454043,25.0864 L60.5454043,27.8 L50.1222461,27.8 L50.1222461,12.1332 L60.5454043,12.1332 Z M65.3854859,16.2884 L67.4871003,19.9348 L69.7160852,16.2884 L72.8578925,16.2884 L69.2066029,21.9912 L72.9640347,27.8 L69.7797705,27.8 L67.423415,23.8992 L65.0033742,27.8 L61.7978815,27.8 L65.6614554,21.9064 L62.2012217,16.2884 L65.3854859,16.2884 Z M103.363144,11.8 L103.363144,27.8 L100.603448,27.8 L100.603448,11.8 L103.363144,11.8 Z M120.367114,11.794 L120.367114,18.366 C121.046424,16.9456 122.489957,16.1612 124.294374,16.1612 C125.589308,16.1612 126.650729,16.5852 127.499866,17.412 C128.370232,18.2388 128.7948,19.426 128.7948,20.9524 L128.7948,27.8 L127.521095,27.8 L127.521095,21.1644 C127.521095,18.79 126.247389,17.3484 124.145775,17.3484 C123.148039,17.3484 122.277673,17.6876 121.534678,18.366 C120.791683,19.0444 120.409571,20.062 120.409571,21.4188 L120.409571,27.8 L119.135866,27.8 L119.135866,11.794 L120.367114,11.794 Z M136.451854,17.3484 C135.15692,17.3484 134.07427,17.8148 133.246362,18.7264 C132.418453,19.638 132.015113,20.7828 132.015113,22.1184 C132.015113,23.4752 132.418453,24.62 133.246362,25.5316 C134.07427,26.4432 135.15692,26.9096 136.451854,26.9096 C137.768017,26.9096 138.850667,26.4432 139.699804,25.5104 C140.548941,24.5776 140.973509,23.4328 140.973509,22.076 C140.973509,20.7616 140.548941,19.638 139.699804,18.7264 C138.850667,17.8148 137.768017,17.3484 136.451854,17.3484 Z M32.0429102,16.6 L20.8277276,16.6 L20.8277276,23.399 L32.0429102,23.4 L32.0429102,16.6 Z M19.2257276,16.6 L8.01072755,16.6 L8.01072755,23.4 L19.2257276,23.399 L19.2257276,16.6 Z M92.7489296,18.3236 C91.1355691,18.3236 89.9467771,19.32 89.5858938,20.9312 L95.742138,20.9312 C95.5086252,19.32 94.3410617,18.3236 92.7489296,18.3236 Z M27.2429102,8 L20.8278916,8 L20.8277276,15 L32.0429102,15 L32.0429102,12.8 C32.0429102,10.1490332 29.893877,8 27.2429102,8 Z M19.2257461,8 L12.8107276,8 C10.2314085,8 8.12725815,10.034439 8.01540439,12.5861892 L8.01072755,12.8 L8.01072755,15 L19.2257276,15 L19.2257461,8 Z" fill="#FFFFFF"></path>
    </g>
</svg>