<?xml version="1.0" encoding="UTF-8"?>
<svg width="208px" height="40px" viewBox="0 0 208 40" version="1.1" xmlns="http://www.w3.org/2000/svg" xmlns:xlink="http://www.w3.org/1999/xlink">
    <!-- Generator: Sketch 58 (84663) - https://sketch.com -->
    <title>Logos/Excelchat Learning/Spot Hero/Original</title>
    <desc>Created with Sketch.</desc>
    <g id="Logos/Excelchat-Learning/Spot-Hero/Original" stroke="none" stroke-width="1" fill="none" fill-rule="evenodd">
        <g>
            <rect id="Shape" fill="#6B778C" x="156.8" y="16.6" width="51.2" height="11.2" rx="2"></rect>
            <path d="M161.401898,24.5787433 L164.378596,24.5787433 L164.378596,25.7064171 L160,25.7064171 L160,18.8935829 L161.401898,18.8935829 L161.401898,24.5787433 Z M169.275894,22.753877 L166.58425,22.753877 L166.58425,24.5787433 L169.743194,24.5787433 L169.743194,25.7064171 L165.182351,25.7064171 L165.182351,18.8935829 L169.733848,18.8935829 L169.733848,20.030615 L166.58425,20.030615 L166.58425,21.6542781 L169.275894,21.6542781 L169.275894,22.753877 Z M174.406843,24.3026738 L171.948847,24.3026738 L171.481548,25.7064171 L169.990863,25.7064171 L172.523626,18.8935829 L173.822718,18.8935829 L176.3695,25.7064171 L174.878815,25.7064171 L174.406843,24.3026738 Z M172.32736,23.1656417 L174.02833,23.1656417 L173.173172,20.615508 L172.32736,23.1656417 Z M179.523772,23.2124332 L178.406926,23.2124332 L178.406926,25.7064171 L177.005028,25.7064171 L177.005028,18.8935829 L179.533118,18.8935829 C180.336877,18.8935829 180.956821,19.0729483 181.39297,19.4316845 C181.829118,19.7904207 182.047189,20.2973229 182.047189,20.9524064 C182.047189,21.4172037 181.946721,21.804789 181.745781,22.1151738 C181.544841,22.4255586 181.240321,22.6727709 180.83221,22.8568182 L182.304204,25.6409091 L182.304204,25.7064171 L180.799499,25.7064171 L179.523772,23.2124332 Z M178.406926,22.0754011 L179.537791,22.0754011 C179.889825,22.0754011 180.162413,21.9857184 180.355565,21.8063503 C180.548716,21.6269822 180.64529,21.3797698 180.64529,21.0647059 C180.64529,20.743403 180.554168,20.4907318 180.37192,20.3066845 C180.189673,20.1226372 179.910075,20.030615 179.533118,20.030615 L178.406926,20.030615 L178.406926,22.0754011 Z M188.645457,25.7064171 L187.243559,25.7064171 L184.51453,21.2237968 L184.51453,25.7064171 L183.112632,25.7064171 L183.112632,18.8935829 L184.51453,18.8935829 L187.248232,23.3855615 L187.248232,18.8935829 L188.645457,18.8935829 L188.645457,25.7064171 Z M191.360467,25.7064171 L189.958569,25.7064171 L189.958569,18.8935829 L191.360467,18.8935829 L191.360467,25.7064171 Z M198.192386,25.7064171 L196.790487,25.7064171 L194.061458,21.2237968 L194.061458,25.7064171 L192.65956,25.7064171 L192.65956,18.8935829 L194.061458,18.8935829 L196.79516,23.3855615 L196.79516,18.8935829 L198.192386,18.8935829 L198.192386,25.7064171 Z M204.8,24.8454545 C204.547657,25.1480407 204.190955,25.3827755 203.729884,25.5496658 C203.268813,25.7165561 202.757904,25.8 202.197142,25.8 C201.608342,25.8 201.091981,25.6713248 200.648044,25.4139706 C200.204108,25.1566164 199.861425,24.7830684 199.619985,24.2933155 C199.378546,23.8035626 199.254713,23.2280336 199.248482,22.5667112 L199.248482,22.1034759 C199.248482,21.4234369 199.36297,20.8346504 199.591947,20.3370989 C199.820925,19.8395474 200.151147,19.4589808 200.582622,19.1953877 C201.014098,18.9317946 201.519555,18.8 202.099009,18.8 C202.905884,18.8 203.536731,18.9926229 203.991572,19.3778743 C204.446412,19.7631258 204.715886,20.3238377 204.8,21.0600267 L203.435486,21.0600267 C203.373179,20.6700961 203.235327,20.3846711 203.021926,20.2037433 C202.808524,20.0228155 202.514907,19.9323529 202.141066,19.9323529 C201.664418,19.9323529 201.301486,20.1117183 201.052258,20.4704545 C200.803031,20.8291907 200.676861,21.3626079 200.673746,22.0707219 L200.673746,22.5058824 C200.673746,23.2202353 200.809261,23.7598912 201.080296,24.1248663 C201.351331,24.4898396 201.748532,24.6723262 202.27191,24.6723262 C202.798403,24.6723262 203.173797,24.5600279 203.398102,24.3354278 L203.398102,23.1609626 L202.122374,23.1609626 L202.122374,22.1268717 L204.8,22.1268717 L204.8,24.8454545 Z" id="LEARNING" fill="#FFFFFF"></path>
            <path d="M60.464325,27.8 L50.055125,27.8 L50.055125,12.1332 L60.464325,12.1332 L60.464325,14.8468 L52.959525,14.8468 L52.959525,18.5356 L59.891925,18.5356 L59.891925,21.228 L52.959525,21.228 L52.959525,25.0864 L60.464325,25.0864 L60.464325,27.8 Z M69.113925,21.9912 L72.866325,27.8 L69.686325,27.8 L67.333125,23.8992 L64.916325,27.8 L61.715125,27.8 L65.573525,21.9064 L62.117925,16.2884 L65.297925,16.2884 L67.396725,19.9348 L69.622725,16.2884 L72.760325,16.2884 L69.113925,21.9912 Z M79.968325,28.0544 C78.187525,28.0544 76.724725,27.482 75.579925,26.3584 C74.456325,25.2348 73.883925,23.7932 73.883925,22.0336 C73.883925,20.274 74.456325,18.8324 75.601125,17.7088 C76.745925,16.5852 78.229925,16.0128 80.053125,16.0128 C82.406325,16.0128 84.462725,17.1576 85.395525,19.1716 L83.148325,20.38 C82.469925,19.2564 81.367525,18.5568 80.095525,18.5568 C79.099125,18.5568 78.272325,18.896 77.615125,19.5532 C76.957925,20.2104 76.639925,21.0372 76.639925,22.0336 C76.639925,23.03 76.957925,23.8568 77.593925,24.514 C78.229925,25.1712 79.035525,25.5104 80.010725,25.5104 C81.282725,25.5104 82.533525,24.7896 83.105925,23.7084 L85.353125,25.0228 C84.356725,26.8672 82.321525,28.0544 79.968325,28.0544 Z M98.327525,21.8004 C98.327525,22.1184 98.306325,22.5212 98.242725,23.03 L89.465925,23.03 C89.826325,24.62 91.013525,25.68 92.985125,25.68 C94.384325,25.68 95.656325,25.2772 96.779925,24.4928 L97.882325,26.4644 C96.461925,27.5244 94.787125,28.0544 92.879125,28.0544 C88.554325,28.0544 86.646325,25.0864 86.646325,22.0336 C86.646325,20.2952 87.197525,18.8536 88.299925,17.73 C89.423525,16.5852 90.865125,16.0128 92.624725,16.0128 C94.299525,16.0128 95.656325,16.5428 96.716325,17.5816 C97.797525,18.6204 98.327525,20.0196 98.327525,21.8004 Z M92.624725,18.3236 C91.013525,18.3236 89.826325,19.32 89.465925,20.9312 L95.613925,20.9312 C95.380725,19.32 94.214725,18.3236 92.624725,18.3236 Z M103.224725,11.8 L103.224725,27.8 L100.468725,27.8 L100.468725,11.8 L103.224725,11.8 Z M111.407925,28.0544 C109.733125,28.0544 108.333925,27.5032 107.252725,26.4008 C106.171525,25.2772 105.620325,23.8568 105.620325,22.1396 C105.620325,20.4012 106.171525,18.9808 107.273925,17.8572 C108.397525,16.7336 109.817925,16.1824 111.535125,16.1824 C113.761125,16.1824 115.732725,17.306 116.601925,19.108 L115.563125,19.7016 C114.799925,18.26 113.252325,17.3484 111.535125,17.3484 C110.199525,17.3484 109.075925,17.7936 108.206725,18.7052 C107.337525,19.5956 106.892325,20.7404 106.892325,22.1396 C106.892325,23.5176 107.316325,24.6624 108.164325,25.5528 C109.012325,26.4432 110.093525,26.8884 111.407925,26.8884 C113.125125,26.8884 114.757525,25.9132 115.499525,24.5352 L116.538325,25.1712 C116.093125,26.0404 115.393525,26.74 114.460725,27.27 C113.527925,27.8 112.510325,28.0544 111.407925,28.0544 Z M120.248325,27.8 L118.976325,27.8 L118.976325,11.794 L120.205925,11.794 L120.205925,18.366 C120.884325,16.9456 122.325925,16.1612 124.127925,16.1612 C125.421125,16.1612 126.481125,16.5852 127.329125,17.412 C128.198325,18.2388 128.622325,19.426 128.622325,20.9524 L128.622325,27.8 L127.350325,27.8 L127.350325,21.1644 C127.350325,18.79 126.078325,17.3484 123.979525,17.3484 C122.983125,17.3484 122.113925,17.6876 121.371925,18.366 C120.629925,19.0444 120.248325,20.062 120.248325,21.4188 L120.248325,27.8 Z M140.678725,18.6416 L140.678725,16.458 L141.908325,16.458 L141.908325,27.8 L140.678725,27.8 L140.678725,25.5952 C139.724725,27.1428 138.092325,28.0756 136.205525,28.0756 C134.594325,28.0756 133.258725,27.5032 132.177525,26.3584 C131.096325,25.1924 130.566325,23.772 130.566325,22.076 C130.566325,20.4012 131.096325,19.002 132.156325,17.8784 C133.237525,16.7548 134.573125,16.1824 136.205525,16.1824 C138.092325,16.1824 139.724725,17.094 140.678725,18.6416 Z M147.198661,12.4 L147.198661,16.4169702 L150.797789,16.4169702 L150.797789,17.6213627 L147.198661,17.6213627 L147.198661,24.5799416 C147.198661,26.0230594 148.129119,26.8356075 149.181991,26.8356075 L149.181991,26.8356075 L150.797789,26.8356075 L150.797789,28.04 L149.182165,28.04 C147.30516,28.04 145.795396,26.5142456 145.795396,24.6629969 L145.795396,24.6629969 L145.795396,17.6213627 L143.8,17.6213627 L143.8,16.4169702 L145.795396,16.4169702 L145.795396,12.4 L147.198661,12.4 Z M136.269125,17.3484 C137.583525,17.3484 138.664725,17.8148 139.512725,18.7264 C140.360725,19.638 140.784725,20.7616 140.784725,22.076 C140.784725,23.4328 140.360725,24.5776 139.512725,25.5104 C138.664725,26.4432 137.583525,26.9096 136.269125,26.9096 C134.975925,26.9096 133.894725,26.4432 133.067925,25.5316 C132.241125,24.62 131.838325,23.4752 131.838325,22.1184 C131.838325,20.7828 132.241125,19.638 133.067925,18.7264 C133.894725,17.8148 134.975925,17.3484 136.269125,17.3484 Z" id="Excelchat" fill="#091D42"></path>
            <g id="Icon">
                <path d="M9.72009516,39.9961582 C4.32667079,39.8479317 0,35.4292399 0,30 L0,30 L0,10 C0,4.4771525 4.4771525,0 10,0 L30,0 C35.4292399,0 39.8479317,4.32667079 39.9961582,9.72009516 L40,10 L40,40 L10,40 Z" id="Chat-shape" fill="#375DE7"></path>
                <path d="M8,25 L19.2,25 L19.2,32 L12.8,32 C10.1490332,32 8,29.8509668 8,27.2 L8,25 Z M32,25 L32,27.2 C32,29.8509668 29.8509668,32 27.2,32 L20.8,32 L20.799,25 L32,25 Z M32,23.4 L20.799,23.399 L20.799,16.6 L32,16.6 L32,23.4 Z M8,16.6 L19.2,16.6 L19.2,23.399 L8,23.4 L8,16.6 Z M27.2,8 C29.8509668,8 32,10.1490332 32,12.8 L32,15 L20.799,15 L20.8,8 L27.2,8 Z M19.2,15 L8,15 L8,12.8 C8,10.1490332 10.1490332,8 12.8,8 L19.2,8 L19.2,15 Z" id="Product-icon" fill="#FFFFFF"></path>
            </g>
        </g>
    </g>
</svg>