<?xml version="1.0" encoding="UTF-8"?>
<svg width="208px" height="40px" viewBox="0 0 208 40" version="1.1" xmlns="http://www.w3.org/2000/svg" xmlns:xlink="http://www.w3.org/1999/xlink">
    <!-- Generator: Sketch 58 (84663) - https://sketch.com -->
    <title>Logos/Excelchat Learning/Spot Hero/White</title>
    <desc>Created with Sketch.</desc>
    <g id="Logos/Excelchat-Learning/Spot-Hero/White" stroke="none" stroke-width="1" fill="none" fill-rule="evenodd">
        <path d="M30,0 C35.4292399,0 39.8479317,4.32667079 39.9961582,9.72009516 L40,10 L40,40 L10,40 L9.72009516,39.9961582 C4.41966086,39.8504873 0.149512653,35.5803391 0.00384179753,30.2799048 L0,30 L0,10 C0,4.4771525 4.4771525,0 10,0 L30,0 Z M32,25 L20.799,25 L20.8,32 L27.2,32 C29.779319,32 31.8834694,29.965561 31.9953232,27.4138108 L32,27.2 L32,25 Z M19.2,25 L8,25 L8,27.2 C8,29.779319 10.034439,31.8834694 12.5861892,31.9953232 L12.8,32 L19.2,32 L19.2,25 Z M136.205525,16.1824 C138.092325,16.1824 139.724725,17.094 140.678725,18.6416 L140.678725,16.458 L141.908325,16.458 L141.908325,27.8 L140.678725,27.8 L140.678725,25.5952 C139.724725,27.1428 138.092325,28.0756 136.205525,28.0756 C134.594325,28.0756 133.258725,27.5032 132.177525,26.3584 C131.096325,25.1924 130.566325,23.772 130.566325,22.076 C130.566325,20.4012 131.096325,19.002 132.156325,17.8784 C133.237525,16.7548 134.573125,16.1824 136.205525,16.1824 Z M111.535125,16.1824 C113.761125,16.1824 115.732725,17.306 116.601925,19.108 L115.563125,19.7016 C114.799925,18.26 113.252325,17.3484 111.535125,17.3484 C110.199525,17.3484 109.075925,17.7936 108.206725,18.7052 C107.337525,19.5956 106.892325,20.7404 106.892325,22.1396 C106.892325,23.5176 107.316325,24.6624 108.164325,25.5528 C109.012325,26.4432 110.093525,26.8884 111.407925,26.8884 C113.125125,26.8884 114.757525,25.9132 115.499525,24.5352 L116.538325,25.1712 C116.093125,26.0404 115.393525,26.74 114.460725,27.27 C113.527925,27.8 112.510325,28.0544 111.407925,28.0544 C109.733125,28.0544 108.333925,27.5032 107.252725,26.4008 C106.171525,25.2772 105.620325,23.8568 105.620325,22.1396 C105.620325,20.4012 106.171525,18.9808 107.273925,17.8572 C108.397525,16.7336 109.817925,16.1824 111.535125,16.1824 Z M92.624725,16.0128 C94.299525,16.0128 95.656325,16.5428 96.716325,17.5816 C97.797525,18.6204 98.327525,20.0196 98.327525,21.8004 C98.327525,22.1184 98.306325,22.5212 98.242725,23.03 L89.465925,23.03 C89.826325,24.62 91.013525,25.68 92.985125,25.68 C94.384325,25.68 95.656325,25.2772 96.779925,24.4928 L97.882325,26.4644 C96.461925,27.5244 94.787125,28.0544 92.879125,28.0544 C88.554325,28.0544 86.646325,25.0864 86.646325,22.0336 C86.646325,20.2952 87.197525,18.8536 88.299925,17.73 C89.423525,16.5852 90.865125,16.0128 92.624725,16.0128 Z M80.053125,16.0128 C82.406325,16.0128 84.462725,17.1576 85.395525,19.1716 L83.148325,20.38 C82.469925,19.2564 81.367525,18.5568 80.095525,18.5568 C79.099125,18.5568 78.272325,18.896 77.615125,19.5532 C76.957925,20.2104 76.639925,21.0372 76.639925,22.0336 C76.639925,23.03 76.957925,23.8568 77.593925,24.514 C78.229925,25.1712 79.035525,25.5104 80.010725,25.5104 C81.282725,25.5104 82.533525,24.7896 83.105925,23.7084 L85.353125,25.0228 C84.356725,26.8672 82.321525,28.0544 79.968325,28.0544 C78.187525,28.0544 76.724725,27.482 75.579925,26.3584 C74.456325,25.2348 73.883925,23.7932 73.883925,22.0336 C73.883925,20.274 74.456325,18.8324 75.601125,17.7088 C76.745925,16.5852 78.229925,16.0128 80.053125,16.0128 Z M147.198661,12.4 L147.198661,16.4169702 L150.797789,16.4169702 L150.797789,17.6213627 L147.198661,17.6213627 L147.198661,24.5799416 C147.198661,25.9603152 148.049969,26.7637591 149.04542,26.8310144 L149.181991,26.8356075 L150.797789,26.8356075 L150.797789,28.04 L149.182165,28.04 C147.367727,28.04 145.896455,26.6142673 145.800386,24.8469923 L145.795396,24.6629969 L145.795396,17.6213627 L143.8,17.6213627 L143.8,16.4169702 L145.795396,16.4169702 L145.795396,12.4 L147.198661,12.4 Z M206,16.6 C207.104569,16.6 208,17.4954305 208,18.6 L208,25.8 C208,26.9045695 207.104569,27.8 206,27.8 L158.8,27.8 C157.695431,27.8 156.8,26.9045695 156.8,25.8 L156.8,18.6 C156.8,17.4954305 157.695431,16.6 158.8,16.6 L206,16.6 Z M120.205925,11.794 L120.205925,18.366 C120.884325,16.9456 122.325925,16.1612 124.127925,16.1612 C125.421125,16.1612 126.481125,16.5852 127.329125,17.412 C128.198325,18.2388 128.622325,19.426 128.622325,20.9524 L128.622325,27.8 L127.350325,27.8 L127.350325,21.1644 C127.350325,18.79 126.078325,17.3484 123.979525,17.3484 C122.983125,17.3484 122.113925,17.6876 121.371925,18.366 C120.629925,19.0444 120.248325,20.062 120.248325,21.4188 L120.248325,27.8 L118.976325,27.8 L118.976325,11.794 L120.205925,11.794 Z M60.464325,12.1332 L60.464325,14.8468 L52.959525,14.8468 L52.959525,18.5356 L59.891925,18.5356 L59.891925,21.228 L52.959525,21.228 L52.959525,25.0864 L60.464325,25.0864 L60.464325,27.8 L50.055125,27.8 L50.055125,12.1332 L60.464325,12.1332 Z M65.297925,16.2884 L67.396725,19.9348 L69.622725,16.2884 L72.760325,16.2884 L69.113925,21.9912 L72.866325,27.8 L69.686325,27.8 L67.333125,23.8992 L64.916325,27.8 L61.715125,27.8 L65.573525,21.9064 L62.117925,16.2884 L65.297925,16.2884 Z M103.224725,11.8 L103.224725,27.8 L100.468725,27.8 L100.468725,11.8 L103.224725,11.8 Z M136.269125,17.3484 C134.975925,17.3484 133.894725,17.8148 133.067925,18.7264 C132.241125,19.638 131.838325,20.7828 131.838325,22.1184 C131.838325,23.4752 132.241125,24.62 133.067925,25.5316 C133.894725,26.4432 134.975925,26.9096 136.269125,26.9096 C137.583525,26.9096 138.664725,26.4432 139.512725,25.5104 C140.360725,24.5776 140.784725,23.4328 140.784725,22.076 C140.784725,20.7616 140.360725,19.638 139.512725,18.7264 C138.664725,17.8148 137.583525,17.3484 136.269125,17.3484 Z M202.099009,18.8 C201.519555,18.8 201.014098,18.9317946 200.582622,19.1953877 C200.151147,19.4589808 199.820925,19.8395474 199.591947,20.3370989 C199.395681,20.7635717 199.283529,21.2570741 199.255492,21.8176175 L199.248482,22.1034759 L199.248482,22.5667112 C199.254713,23.2280336 199.378546,23.8035626 199.619985,24.2933155 C199.861425,24.7830684 200.204108,25.1566164 200.648044,25.4139706 C201.091981,25.6713248 201.608342,25.8 202.197142,25.8 C202.757904,25.8 203.268813,25.7165561 203.729884,25.5496658 C204.125088,25.4066169 204.443612,25.2137232 204.685464,24.9709802 L204.8,24.8454545 L204.8,22.1268717 L202.122374,22.1268717 L202.122374,23.1609626 L203.398102,23.1609626 L203.398102,24.3354278 C203.173797,24.5600279 202.798403,24.6723262 202.27191,24.6723262 C201.748532,24.6723262 201.351331,24.4898396 201.080296,24.1248663 C200.839376,23.800444 200.705533,23.3380023 200.678765,22.7375298 L200.673746,22.5058824 L200.673746,22.0707219 C200.676861,21.3626079 200.803031,20.8291907 201.052258,20.4704545 C201.301486,20.1117183 201.664418,19.9323529 202.141066,19.9323529 C202.514907,19.9323529 202.808524,20.0228155 203.021926,20.2037433 C203.204841,20.3588243 203.332251,20.5906787 203.404157,20.8993119 L203.435486,21.0600267 L204.8,21.0600267 C204.715886,20.3238377 204.446412,19.7631258 203.991572,19.3778743 C203.536731,18.9926229 202.905884,18.8 202.099009,18.8 Z M179.533118,18.8935829 L177.005028,18.8935829 L177.005028,25.7064171 L178.406926,25.7064171 L178.406926,23.2124332 L179.523772,23.2124332 L180.799499,25.7064171 L182.304204,25.7064171 L182.304204,25.6409091 L180.83221,22.8568182 C181.240321,22.6727709 181.544841,22.4255586 181.745781,22.1151738 C181.946721,21.804789 182.047189,21.4172037 182.047189,20.9524064 C182.047189,20.2973229 181.829118,19.7904207 181.39297,19.4316845 C180.956821,19.0729483 180.336877,18.8935829 179.533118,18.8935829 Z M161.401898,18.8935829 L160,18.8935829 L160,25.7064171 L164.378596,25.7064171 L164.378596,24.5787433 L161.401898,24.5787433 L161.401898,18.8935829 Z M173.822718,18.8935829 L172.523626,18.8935829 L169.990863,25.7064171 L171.481548,25.7064171 L171.948847,24.3026738 L174.406843,24.3026738 L174.878815,25.7064171 L176.3695,25.7064171 L173.822718,18.8935829 Z M169.733848,18.8935829 L165.182351,18.8935829 L165.182351,25.7064171 L169.743194,25.7064171 L169.743194,24.5787433 L166.58425,24.5787433 L166.58425,22.753877 L169.275894,22.753877 L169.275894,21.6542781 L166.58425,21.6542781 L166.58425,20.030615 L169.733848,20.030615 L169.733848,18.8935829 Z M194.061458,18.8935829 L192.65956,18.8935829 L192.65956,25.7064171 L194.061458,25.7064171 L194.061458,21.2237968 L196.790487,25.7064171 L198.192386,25.7064171 L198.192386,18.8935829 L196.79516,18.8935829 L196.79516,23.3855615 L194.061458,18.8935829 Z M191.360467,18.8935829 L189.958569,18.8935829 L189.958569,25.7064171 L191.360467,25.7064171 L191.360467,18.8935829 Z M184.51453,18.8935829 L183.112632,18.8935829 L183.112632,25.7064171 L184.51453,25.7064171 L184.51453,21.2237968 L187.243559,25.7064171 L188.645457,25.7064171 L188.645457,18.8935829 L187.248232,18.8935829 L187.248232,23.3855615 L184.51453,18.8935829 Z M19.2,16.6 L8,16.6 L8,23.4 L19.2,23.399 L19.2,16.6 Z M32,16.6 L20.799,16.6 L20.799,23.399 L32,23.4 L32,16.6 Z M173.173,20.616 L174.02833,23.1656417 L172.32736,23.1656417 L173.173,20.616 Z M179.533118,20.030615 C179.910075,20.030615 180.189673,20.1226372 180.37192,20.3066845 C180.554168,20.4907318 180.64529,20.743403 180.64529,21.0647059 C180.64529,21.3797698 180.548716,21.6269822 180.355565,21.8063503 C180.190006,21.9600944 179.966086,22.0479471 179.683799,22.0699103 L179.537791,22.0754011 L178.406926,22.0754011 L178.406926,20.030615 L179.533118,20.030615 Z M92.624725,18.3236 C91.013525,18.3236 89.826325,19.32 89.465925,20.9312 L95.613925,20.9312 C95.380725,19.32 94.214725,18.3236 92.624725,18.3236 Z M27.2,8 L20.8,8 L20.799,15 L32,15 L32,12.8 C32,10.1490332 29.8509668,8 27.2,8 Z M19.2,8 L12.8,8 C10.220681,8 8.1165306,10.034439 8.00467683,12.5861892 L8,12.8 L8,15 L19.2,15 L19.2,8 Z" fill="#FFFFFF"></path>
    </g>
</svg>