<svg height="44" viewBox="0 0 141 44" width="141" xmlns="http://www.w3.org/2000/svg"><g fill="#fff"><path d="m9.56525287 7.22375268c2.36220153 0 4.37434023.85683373 6.00597563 2.60085602l.2201344.2433232v-2.39327276h3.6869702v16.78759426c0 3.0176047-.9391339 5.4108775-2.782619 7.1798182s-4.3130595 2.6707536-7.3739404 2.6707536c-2.98815337 0-5.65938139-.8216932-8.04393601-2.4349124l-.33870377-.2358412 1.66957141-2.9482345c2.08696426 1.4914598 4.31305947 2.2198471 6.6435029 2.2198471 3.91112557 0 6.32582057-2.3544082 6.43120887-5.7014262l.0035976-.2297279v-1.3527194c-1.6347887 1.8383109-3.7217529 2.774809-6.29567552 2.774809-2.71305354 0-4.97393149-.9018129-6.74785111-2.7401239-1.77391963-1.8383109-2.64348807-4.1275283-2.64348807-6.8676522 0-2.7401238.90435118-5.0293412 2.74783628-6.83296707 1.8434851-1.83831094 4.13914579-2.74012385 6.81741659-2.74012385zm96.50413013 14.96348772c1.36551 0 2.415903 1.0301086 2.415903 2.3692498 0 1.3734781-1.050393 2.4035868-2.415903 2.4035868-1.400524 0-2.485929-1.0301087-2.485929-2.4035868 0-1.3391412 1.085405-2.3692498 2.485929-2.3692498zm-72.8530202-15.09248331c2.8738858 0 5.2283946.9746333 7.0635265 2.88909157 1.8697571 1.91445824 2.8046356 4.21180814 2.8046356 6.96166644 0 2.7846665-.9348785 5.1168248-2.8046356 7.031283-1.8351319 1.9144583-4.1896407 2.8542833-7.0635265 2.8542833-2.8738859 0-5.2283947-.939825-7.0981518-2.8542833-1.8351319-1.9144582-2.7700104-4.2466165-2.7700104-7.031283 0-2.7498583.9348785-5.0472082 2.7700104-6.96166644 1.8697571-1.91445827 4.2242659-2.88909157 7.0981518-2.88909157zm18.9942148-6.06279242v6.63207441h6.470714v3.26395282h-6.470714v8.8196173c0 2.3958803.974086 3.576459 2.8874692 3.576459 1.0088747 0 2.1221159-.347229 3.3049345-1.0416871l1.3219739 2.9861697c-1.3915514 1.041687-3.1309907 1.5625306-5.183529 1.5625306-4.0702878 0-6.157615-2.5347719-6.157615-7.152918v-8.7501715h-3.235357v-3.26395282h3.2701458v-6.63207441zm42.0525602 0v6.63207441h6.4707142v3.26395282h-6.4707142v8.8196173c0 2.3958803.974086 3.576459 2.8874692 3.576459 1.0088748 0 2.1221159-.347229 3.304935-1.0416871l1.321973 2.9861697c-1.391551 1.041687-3.1309902 1.5625306-5.1835286 1.5625306-4.0702878 0-6.1576149-2.5347719-6.1576149-7.152918v-8.7501715h-3.235357v-3.26395282h3.2701458v-6.63207441zm26.5623412 6.19178801c2.437695 0 4.523372.92427492 6.195693 2.80336832l.215779.2505165v-2.60274275h3.693566v18.70504455h-3.693566v-2.5680395c-1.707403 2.0127877-3.86779 3.0191816-6.411472 3.0191816-2.683062 0-4.947985-.9369874-6.725078-2.8456654s-2.648217-4.2684981-2.648217-7.0794603.871124-5.1013758 2.648217-6.94064733c1.777093-1.83927154 4.042016-2.74155569 6.725078-2.74155569zm-36.4623674.25799117v18.83335515h-3.8698675v-18.83335515zm55.4681014 0v18.83335515h-3.869868v-18.83335515zm-106.6148502 3.35388515c-1.689175 0-3.1025662.6221721-4.2746468 1.8665162-1.1376076 1.209779-1.7236479 2.696079-1.7236479 4.3897696 0 1.7282558.5860403 3.2145557 1.7236479 4.4243347 1.1720806 1.2097791 2.5854718 1.8319511 4.2746468 1.8319511 1.6891749 0 3.1025662-.622172 4.2401738-1.8319511 1.1720805-1.209779 1.7581208-2.6960789 1.7581208-4.4243347 0-1.6936906-.5860403-3.1799906-1.7581208-4.3897696-1.1376076-1.2443441-2.5509989-1.8665162-4.2401738-1.8665162zm88.1510092 0c-1.782146 0-3.249796.6204581-4.368006 1.8269044s-1.677314 2.6886518-1.677314 4.4466164.559104 3.24017 1.677314 4.4466163 2.58586 1.7924345 4.368006 1.7924345c1.782147 0 3.214853-.6204581 4.368006-1.8269044 1.153154-1.2064463 1.712259-2.6886517 1.712259-4.4466163 0-1.7234947-.559105-3.2057002-1.712259-4.4121465-1.153153-1.2064463-2.585859-1.8269044-4.368006-1.8269044zm-111.45228538-.2579911c-1.72218451 0-3.16319605.5930163-4.3230346 1.7790489-1.15983855 1.1511493-1.72218451 2.6162485-1.72218451 4.3952974 0 1.779049.56234596 3.2790314 1.72218451 4.465064 1.15983855 1.1511494 2.60085009 1.7441657 4.3230346 1.7441657 1.75733118 0 3.19834268-.5930163 4.35818118-1.779049 1.1598386-1.1860326 1.7221846-2.6511317 1.7221846-4.4301807 0-1.7790489-.562346-3.2790314-1.7221846-4.4301807-1.1598385-1.1511493-2.60085-1.7441656-4.35818118-1.7441656zm65.67632538 4.3858498v3.6118763h-13.6735319v-3.6118763zm6.8887104-14.9634877c1.4198172 0 2.5279672 1.11563748 2.5279672 2.545048 0 1.49913786-1.10815 2.61477534-2.5279672 2.61477534-1.4890765 0-2.6318562-1.11563748-2.6318562-2.61477534 0-1.42941052 1.1427797-2.545048 2.6318562-2.545048zm55.4681006 0c1.419817 0 2.527967 1.11563748 2.527967 2.545048 0 1.49913786-1.10815 2.61477534-2.527967 2.61477534-1.489076 0-2.631856-1.11563748-2.631856-2.61477534 0-1.42941052 1.14278-2.545048 2.631856-2.545048z"/><path d="m27.5097377 41.044701c1.0873873 0 1.9586071-.2849479 2.6136597-.8548436.6550525-.5698957 1.030616-1.363601 1.1266904-2.381116h-1.6507324c-.0873404.6812546-.2947737 1.168177-.6223 1.4607672-.3275262.2925901-.8166321.4388852-1.4673177.4388852-.7118237 0-1.2522421-.2707551-1.621255-.8122652-.369013-.5415101-.5535194-1.3275731-.5535194-2.3581891v-.8450178c.008734-1.017515.2063415-1.7893852.5928225-2.3156108.386481-.5262255.9400004-.7893383 1.6605582-.7893383.6201164 0 1.0906625.1517538 1.4116383.4552615.3209757.3035077.5207667.7980724.5993731 1.483694h1.6507324c-.1048084-1.043717-.4781884-1.8516152-1.1201399-2.4236944s-1.4891528-.8581188-2.5416039-.8581188c-.781696 0-1.4705929.1855982-2.0666908.5567946-.5960978.3711965-1.0535428.8996055-1.372335 1.5852272-.3187923.6856217-.4781884 1.4782352-.4781884 2.3778407v.8908715c.013101.8777704.1768642 1.6485489.4912894 2.3123355s.7609527 1.1758193 1.3395825 1.5360982c.5786297.3602789 1.2478751.5404184 2.007736.5404184zm6.6386309-.1310105v-5.0635562c.3144252-.5677122.7904301-.8515683 1.4280146-.8515683.4104996 0 .7216495.1015331.9334498.3045994.2118004.2030663.3177005.5491524.3177005 1.0382583v4.5722668h1.5917777v-4.6312215c-.0218351-1.7249718-.7882465-2.5874576-2.2992344-2.5874576-.7947971 0-1.4520332.3013242-1.9717082.9039725v-3.7469006h-1.5917777v10.0616072zm8.073196.1310105c.7336588 0 1.3537752-.2642045 1.8603492-.7926136.0524042.3056912.1135424.5262255.1834147.6616031h1.6245303v-.111359c-.1790477-.3799304-.2685715-.8886879-.2685715-1.5262724v-3.1966564c-.0131011-.755494-.266388-1.341766-.759861-1.7588161-.4934729-.4170501-1.155076-.6255752-1.9848092-.6255752-.5458771 0-1.0404418.0960744-1.483694.2882231-.4432522.1921488-.7937053.457445-1.0513594.7958889-.257654.3384438-.386481.7019979-.386481 1.0906625h1.5917777c0-.2794891.115726-.5098493.3471779-.6910805s.528409-.2718468.8908715-.2718468c.4192336 0 .7314753.1102672.9367251.3308015.2052498.2205344.3078747.5142163.3078747.8810457v.4650873h-.9760283c-1.0437171 0-1.8461564.2019746-2.4073181.6059236-.5611617.4039491-.8417425.9836706-.8417425 1.7391646 0 .5982813.2249013 1.1004882.6747041 1.5066208.4498027.4061326 1.030616.6091989 1.7424398.6091989zm.2947736-1.2773525c-.3406273 0-.6124741-.0906156-.8155404-.2718468s-.3045994-.4246924-.3045994-.7303836c0-.3755634.1484785-.6659701.4454357-.8712199.2969571-.2052498.7402094-.3078747 1.3297567-.3078747h.8581188v1.3363072c-.1397445.257654-.3482696.4629038-.6255752.6157494s-.573171.2292684-.8875962.2292684zm7.0120108 1.2773525c.3362603 0 .6856217-.0502207 1.0480841-.1506621v-1.2314988c-.1877817.0436702-.3733799.0655053-.5567946.0655053-.2751221 0-.4661791-.0600465-.573171-.1801395s-.1604879-.315517-.1604879-.586272v-3.9565174h1.2511504v-1.1790946h-1.2511504v-1.7227882h-1.5917777v1.7227882h-1.1659935v1.1790946h1.1659935v4.0154721c0 1.3494083.6113824 2.0241124 1.8341471 2.0241124zm8.2202561-.1310105 1.4935198-4.8670405 1.5197219 4.8670405h1.3101051l1.9324051-7.0876686h-1.5524746l-1.1266904 4.8932425-1.4738682-4.8932425h-1.1987462l-1.4542166 4.8408383-1.146342-4.8408383h-1.5524745l1.9389555 7.0876686zm8.2238581-8.089899c.2882231 0 .510941-.0796981.6681536-.2390942s.2358189-.3591871.2358189-.5993731c0-.2445529-.0786063-.4476192-.2358189-.6091988-.1572126-.1615797-.3799305-.2423695-.6681536-.2423695s-.5098493.0807898-.6648784.2423695c-.1550291.1615796-.2325436.3646459-.2325436.6091988 0 .240186.0775145.439977.2325436.5993731s.3766553.2390942.6648784.2390942zm.7926136 8.089899v-7.0876686h-1.5917777v7.0876686zm3.972567.1310105c.3362603 0 .6856216-.0502207 1.048084-.1506621v-1.2314988c-.1877817.0436702-.3733799.0655053-.5567946.0655053-.2751221 0-.4661791-.0600465-.573171-.1801395s-.1604879-.315517-.1604879-.586272v-3.9565174h1.2511504v-1.1790946h-1.2511504v-1.7227882h-1.5917777v1.7227882h-1.1659935v1.1790946h1.1659935v4.0154721c0 1.3494083.6113824 2.0241124 1.8341472 2.0241124zm3.7957028-.1310105v-5.0635562c.3144252-.5677122.7904301-.8515683 1.4280145-.8515683.4104996 0 .7216496.1015331.9334499.3045994s.3177005.5491524.3177005 1.0382583v4.5722668h1.5917777v-4.6312215c-.0218351-1.7249718-.7882466-2.5874576-2.2992344-2.5874576-.7947971 0-1.4520332.3013242-1.9717082.9039725v-3.7469006h-1.5917777v10.0616072zm9.8251348 2.8625796c1.034983 0 1.7686419-.5960978 2.2009766-1.7882934l2.8167259-8.1619548h-1.6965861l-1.4411156 4.8080857-1.5000703-4.8080857h-1.7162377l2.4891997 7.0549159-.2292684.6091989c-.1179095.3449944-.2783973.5906391-.4814636.7369341-.2030663.1462951-.5054822.2194426-.9072478.2194426l-.3013242-.0196515v1.2314988c.2794891.0786063.5349596.1179094.7664115.1179094zm8.8396075-2.7315691c.6550525 0 1.2325905-.1506621 1.7326139-.4519863.5000235-.3013241.884321-.7271083 1.1528925-1.2773524.2685716-.5502442.4028573-1.1747276.4028573-1.8734503l-.0065505-.37338c-.0480372-1.0175149-.3701047-1.8341471-.9662025-2.4498965s-1.3723351-.9236241-2.3287118-.9236241c-.6463185 0-1.2183977.1495703-1.7162377.448711-.4978399.2991407-.8843209.7271083-1.159443 1.283903-.2751221.5567946-.4126831 1.1823698-.4126831 1.8767255v.0786063c0 1.1092224.3002324 1.9968186.9006973 2.6627886.6004648.6659701 1.4007207.9989552 2.4007676.9989552zm0-1.270802c-.5371431 0-.9563768-.2063415-1.2577009-.6190246-.3013242-.4126831-.4519863-.9836706-.4519863-1.7129624 0-.8209992.1528456-1.4378404.4585368-1.8505235s.7183743-.6190246 1.2380493-.6190246c.5284091 0 .9465509.2096168 1.2544256.6288504s.4618121.9869458.4618121 1.7031366c0 .8078982-.1495704 1.4214641-.448711 1.8406977-.2991407.4192336-.7172826.6288504-1.2544256.6288504zm6.9399551 1.270802c.860302 0 1.524089-.2751221 1.99136-.8253662l.039303.6943557h1.50007v-7.0876686h-1.591778v5.0897583c-.270755.5546112-.792613.8319167-1.565575.8319167-.74676 0-1.12014-.4498027-1.12014-1.3494082v-4.5722668h-1.5917777v4.5919184c0 .8515683.1976075 1.5022538.5928226 1.9520566.395215.4498027.97712.6747041 1.7457151.6747041zm6.743439-.1310105v-4.8473889c.253287-.5589782.744577-.8384672 1.473868-.8384672.222718 0 .438886.017468.648502.0524042l.006551-1.4935199c-.148479-.0611382-.33626-.0917073-.563345-.0917073-.681255 0-1.214031.3078747-1.598328.9236241l-.039304-.7926136h-1.519722v7.0876686zm9.373149 0c.860302 0 1.623438-.1855982 2.289408-.5567947.665971-.3711964 1.179095-.8996055 1.539374-1.5852272.360279-.6856216.540418-1.4804187.540418-2.3843912v-.4781884c0-.8908715-.179047-1.6813015-.537143-2.3712902-.358095-.6899887-.863577-1.2227648-1.516446-1.5983282-.65287-.3755635-1.400721-.5633452-2.243555-.5633452h-2.816726v9.5375651zm-.006551-1.3232062h-1.080836v-6.8780517h1.159443c.855935 0 1.508804.2729385 1.958607.8188157.449802.5458771.674704 1.3363072.674704 2.3712902v.5305925c-.008734 1.017515-.245645 1.7981193-.710732 2.3418129-.465088.5436936-1.132149.8155404-2.001186.8155404zm8.066646 1.4542167c.733659 0 1.353775-.2642045 1.860349-.7926136.052404.3056912.113542.5262255.183415.6616031h1.62453v-.111359c-.179048-.3799304-.268572-.8886879-.268572-1.5262724v-3.1966564c-.013101-.755494-.266388-1.341766-.759861-1.7588161-.493472-.4170501-1.155076-.6255752-1.984809-.6255752-.545877 0-1.040442.0960744-1.483694.2882231-.443252.1921488-.793705.457445-1.051359.7958889-.257654.3384438-.386481.7019979-.386481 1.0906625h1.591778c0-.2794891.115725-.5098493.347177-.6910805s.528409-.2718468.890872-.2718468c.419233 0 .731475.1102672.936725.3308015.20525.2205344.307875.5142163.307875.8810457v.4650873h-.976029c-1.043717 0-1.846156.2019746-2.407318.6059236-.561161.4039491-.841742.9836706-.841742 1.7391646 0 .5982813.224901 1.1004882.674704 1.5066208s1.030616.6091989 1.74244.6091989zm.294773-1.2773525c-.340627 0-.612474-.0906156-.81554-.2718468s-.3046-.4246924-.3046-.7303836c0-.3755634.148479-.6659701.445436-.8712199s.74021-.3078747 1.329757-.3078747h.858119v1.3363072c-.139745.257654-.34827.4629038-.625575.6157494-.277306.1528456-.573171.2292684-.887597.2292684zm7.012011 1.2773525c.33626 0 .685622-.0502207 1.048084-.1506621v-1.2314988c-.187782.0436702-.37338.0655053-.556794.0655053-.275123 0-.46618-.0600465-.573171-.1801395-.106992-.120093-.160488-.315517-.160488-.586272v-3.9565174h1.25115v-1.1790946h-1.25115v-1.7227882h-1.591778v1.7227882h-1.165994v1.1790946h1.165994v4.0154721c0 1.3494083.611382 2.0241124 1.834147 2.0241124zm4.418003 0c.733659 0 1.353775-.2642045 1.860349-.7926136.052404.3056912.113543.5262255.183415.6616031h1.62453v-.111359c-.179048-.3799304-.268571-.8886879-.268571-1.5262724v-3.1966564c-.013101-.755494-.266388-1.341766-.759861-1.7588161s-1.155076-.6255752-1.98481-.6255752c-.545877 0-1.040441.0960744-1.483694.2882231-.443252.1921488-.793705.457445-1.051359.7958889-.257654.3384438-.386481.7019979-.386481 1.0906625h1.591778c0-.2794891.115726-.5098493.347178-.6910805s.528409-.2718468.890871-.2718468c.419234 0 .731475.1102672.936725.3308015.20525.2205344.307875.5142163.307875.8810457v.4650873h-.976028c-1.043717 0-1.846157.2019746-2.407318.6059236-.561162.4039491-.841743.9836706-.841743 1.7391646 0 .5982813.224901 1.1004882.674704 1.5066208s1.030616.6091989 1.74244.6091989zm.294774-1.2773525c-.340628 0-.612475-.0906156-.815541-.2718468s-.304599-.4246924-.304599-.7303836c0-.3755634.148478-.6659701.445435-.8712199.296958-.2052498.74021-.3078747 1.329757-.3078747h.858119v1.3363072c-.139745.257654-.34827.4629038-.625575.6157494-.277306.1528456-.573171.2292684-.887596.2292684z"/></g></svg>