<?xml version="1.0" encoding="UTF-8"?>
<svg width="203px" height="40px" viewBox="0 0 203 40" version="1.1" xmlns="http://www.w3.org/2000/svg" xmlns:xlink="http://www.w3.org/1999/xlink">
    <!-- Generator: Sketch 58 (84663) - https://sketch.com -->
    <title>Logos/SQLQuerychat/Hero/Original</title>
    <desc>Created with Sketch.</desc>
    <g id="Logos/SQLQuerychat/Hero/Original" stroke="none" stroke-width="1" fill="none" fill-rule="evenodd">
        <g>
            <path d="M54.4296875,34.4109375 L51.7859375,34.4109375 L51.2328125,36 L50,36 L52.578125,29.175 L53.6421875,29.175 L56.225,36 L54.9875,36 L54.4296875,34.4109375 Z M52.11875,33.4546875 L54.096875,33.4546875 L53.1078125,30.6234375 L52.11875,33.4546875 Z M57.9453125,30.928125 L57.978125,31.5140625 C58.3531269,31.0609352 58.8453095,30.834375 59.4546875,30.834375 C60.5109428,30.834375 61.0484374,31.4390565 61.0671875,32.6484375 L61.0671875,36 L59.928125,36 L59.928125,32.7140625 C59.928125,32.3921859 59.8585944,32.153907 59.7195313,31.9992188 C59.5804681,31.8445305 59.3531266,31.7671875 59.0375,31.7671875 C58.5781227,31.7671875 58.2359386,31.9749979 58.0109375,32.390625 L58.0109375,36 L56.871875,36 L56.871875,30.928125 L57.9453125,30.928125 Z M65.2578125,36 C65.2078123,35.9031245 65.1640627,35.7453136 65.1265625,35.5265625 C64.7640607,35.9046894 64.3203151,36.09375 63.7953125,36.09375 C63.285935,36.09375 62.8703141,35.948439 62.5484375,35.6578125 C62.2265609,35.367186 62.065625,35.0078146 62.065625,34.5796875 C62.065625,34.0390598 62.2664042,33.6242202 62.6679688,33.3351562 C63.0695333,33.0460923 63.6437463,32.9015625 64.390625,32.9015625 L65.0890625,32.9015625 L65.0890625,32.56875 C65.0890625,32.3062487 65.0156257,32.0960945 64.86875,31.9382812 C64.7218743,31.780468 64.498439,31.7015625 64.1984375,31.7015625 C63.9390612,31.7015625 63.7265633,31.7664056 63.5609375,31.8960937 C63.3953117,32.0257819 63.3125,32.190624 63.3125,32.390625 L62.1734375,32.390625 C62.1734375,32.1124986 62.265625,31.852345 62.45,31.6101562 C62.6343759,31.3679675 62.8851547,31.1781257 63.2023437,31.040625 C63.5195328,30.9031243 63.8734355,30.834375 64.2640625,30.834375 C64.8578155,30.834375 65.3312482,30.9835923 65.684375,31.2820312 C66.0375018,31.5804702 66.21875,31.9999973 66.228125,32.540625 L66.228125,34.828125 C66.228125,35.2843773 66.2921869,35.6484361 66.4203125,35.9203125 L66.4203125,36 L65.2578125,36 Z M64.00625,35.1796875 C64.2312511,35.1796875 64.4429678,35.1250005 64.6414063,35.015625 C64.8398447,34.9062495 64.989062,34.7593759 65.0890625,34.575 L65.0890625,33.61875 L64.475,33.61875 C64.0531229,33.61875 63.7359386,33.6921868 63.5234375,33.8390625 C63.3109364,33.9859382 63.2046875,34.1937487 63.2046875,34.4625 C63.2046875,34.6812511 63.277343,34.8554681 63.4226563,34.9851563 C63.5679695,35.1148444 63.7624988,35.1796875 64.00625,35.1796875 Z M68.6328125,36 L67.49375,36 L67.49375,28.8 L68.6328125,28.8 L68.6328125,36 Z M71.646875,34.36875 L72.678125,30.928125 L73.8921875,30.928125 L71.8765625,36.76875 C71.567186,37.6218793 71.0421912,38.0484375 70.3015625,38.0484375 C70.1359367,38.0484375 69.953126,38.0203128 69.753125,37.9640625 L69.753125,37.0828125 L69.96875,37.096875 C70.2562514,37.096875 70.4726555,37.0445318 70.6179688,36.9398438 C70.763282,36.8351557 70.8781246,36.6593762 70.9625,36.4125 L71.1265625,35.9765625 L69.3453125,30.928125 L70.5734375,30.928125 L71.646875,34.36875 Z M75.9734375,29.6953125 L75.9734375,30.928125 L76.86875,30.928125 L76.86875,31.771875 L75.9734375,31.771875 L75.9734375,34.603125 C75.9734375,34.796876 76.0117184,34.9367183 76.0882812,35.0226562 C76.1648441,35.1085942 76.3015615,35.1515625 76.4984375,35.1515625 C76.6296882,35.1515625 76.7624993,35.1359377 76.896875,35.1046875 L76.896875,35.9859375 C76.6374987,36.0578129 76.3875012,36.09375 76.146875,36.09375 C75.2718706,36.09375 74.834375,35.6109423 74.834375,34.6453125 L74.834375,31.771875 L74,31.771875 L74,30.928125 L74.834375,30.928125 L74.834375,29.6953125 L75.9734375,29.6953125 Z M78.95,36 L77.8109375,36 L77.8109375,30.928125 L78.95,30.928125 L78.95,36 Z M77.740625,29.6109375 C77.740625,29.4359366 77.7960932,29.2906256 77.9070313,29.175 C78.0179693,29.0593744 78.1765615,29.0015625 78.3828125,29.0015625 C78.5890635,29.0015625 78.7484369,29.0593744 78.8609375,29.175 C78.9734381,29.2906256 79.0296875,29.4359366 79.0296875,29.6109375 C79.0296875,29.7828134 78.9734381,29.9257807 78.8609375,30.0398437 C78.7484369,30.1539068 78.5890635,30.2109375 78.3828125,30.2109375 C78.1765615,30.2109375 78.0179693,30.1539068 77.9070313,30.0398437 C77.7960932,29.9257807 77.740625,29.7828134 77.740625,29.6109375 Z M82.2734375,35.184375 C82.5578139,35.184375 82.7937491,35.1015633 82.98125,34.9359375 C83.1687509,34.7703117 83.2687499,34.5656262 83.28125,34.321875 L84.3546875,34.321875 C84.3421874,34.6375016 84.2437509,34.9320299 84.059375,35.2054688 C83.8749991,35.4789076 83.6250016,35.6953117 83.309375,35.8546875 C82.9937484,36.0140633 82.6531268,36.09375 82.2875,36.09375 C81.5781215,36.09375 81.0156271,35.8640648 80.6,35.4046875 C80.1843729,34.9453102 79.9765625,34.3109415 79.9765625,33.5015625 L79.9765625,33.384375 C79.9765625,32.6124961 80.1828104,31.9945336 80.5953125,31.5304688 C81.0078146,31.0664039 81.5703089,30.834375 82.2828125,30.834375 C82.8859405,30.834375 83.3773419,31.0101545 83.7570312,31.3617188 C84.1367206,31.713283 84.3359374,32.1749971 84.3546875,32.746875 L83.28125,32.746875 C83.2687499,32.4562485 83.1695322,32.2171884 82.9835937,32.0296875 C82.7976553,31.8421866 82.5609389,31.7484375 82.2734375,31.7484375 C81.9046857,31.7484375 81.6203135,31.8820299 81.4203125,32.1492188 C81.2203115,32.4164076 81.11875,32.8218723 81.115625,33.365625 L81.115625,33.5484375 C81.115625,34.0984403 81.2148428,34.5085924 81.4132812,34.7789062 C81.6117197,35.0492201 81.8984356,35.184375 82.2734375,35.184375 Z M88.0578125,34.621875 C88.0578125,34.418749 87.9742196,34.264063 87.8070312,34.1578125 C87.6398429,34.051562 87.3625019,33.9578129 86.975,33.8765625 C86.5874981,33.7953121 86.2640638,33.6921881 86.0046875,33.5671875 C85.4359347,33.2921861 85.1515625,32.8937526 85.1515625,32.371875 C85.1515625,31.9343728 85.3359357,31.5687515 85.7046875,31.275 C86.0734393,30.9812485 86.5421847,30.834375 87.1109375,30.834375 C87.7171905,30.834375 88.2070294,30.9843735 88.5804687,31.284375 C88.9539081,31.5843765 89.140625,31.9734351 89.140625,32.4515625 L88.0015625,32.4515625 C88.0015625,32.2328114 87.9203133,32.050782 87.7578125,31.9054688 C87.5953117,31.7601555 87.3796888,31.6875 87.1109375,31.6875 C86.8609362,31.6875 86.657032,31.7453119 86.4992188,31.8609375 C86.3414055,31.9765631 86.2625,32.131249 86.2625,32.325 C86.2625,32.5000009 86.3359368,32.635937 86.4828125,32.7328125 C86.6296882,32.829688 86.9265603,32.9273433 87.3734375,33.0257813 C87.8203147,33.1242192 88.1710925,33.2414056 88.4257812,33.3773438 C88.68047,33.5132819 88.8695306,33.6765615 88.9929688,33.8671875 C89.1164069,34.0578135 89.178125,34.2890611 89.178125,34.5609375 C89.178125,35.0171898 88.9890644,35.3867173 88.6109375,35.6695312 C88.2328106,35.9523452 87.7375031,36.09375 87.125,36.09375 C86.7093729,36.09375 86.3390641,36.0187508 86.0140625,35.86875 C85.6890609,35.7187492 85.4359384,35.5125013 85.2546875,35.25 C85.0734366,34.9874987 84.9828125,34.704689 84.9828125,34.4015625 L86.0890625,34.4015625 C86.1046876,34.6703138 86.2062491,34.877343 86.39375,35.0226562 C86.5812509,35.1679695 86.829686,35.240625 87.1390625,35.240625 C87.439064,35.240625 87.6671867,35.1835943 87.8234375,35.0695312 C87.9796883,34.9554682 88.0578125,34.8062509 88.0578125,34.621875 Z M96.2375,34.2421875 C96.2375,33.942186 96.1320323,33.7109383 95.9210937,33.5484375 C95.7101552,33.3859367 95.3296903,33.2218758 94.7796875,33.05625 C94.2296847,32.8906242 93.7921891,32.706251 93.4671875,32.503125 C92.8453094,32.112498 92.534375,31.6031281 92.534375,30.975 C92.534375,30.4249972 92.7585915,29.9718768 93.2070312,29.615625 C93.655471,29.2593732 94.2374964,29.08125 94.953125,29.08125 C95.4281274,29.08125 95.8515606,29.1687491 96.2234375,29.34375 C96.5953144,29.5187509 96.8874989,29.7679671 97.1,30.0914063 C97.3125011,30.4148454 97.41875,30.7734355 97.41875,31.1671875 L96.2375,31.1671875 C96.2375,30.8109357 96.1257824,30.5320323 95.9023438,30.3304688 C95.6789051,30.1289052 95.3593771,30.028125 94.94375,30.028125 C94.5562481,30.028125 94.2554698,30.1109367 94.0414062,30.2765625 C93.8273427,30.4421883 93.7203125,30.673436 93.7203125,30.9703125 C93.7203125,31.2203138 93.8359363,31.4289054 94.0671875,31.5960938 C94.2984387,31.7632821 94.6796848,31.9257805 95.2109375,32.0835937 C95.7421902,32.241407 96.1687484,32.4210927 96.490625,32.6226562 C96.8125016,32.8242198 97.0484368,33.0554674 97.1984375,33.3164062 C97.3484382,33.5773451 97.4234375,33.8828107 97.4234375,34.2328125 C97.4234375,34.8015653 97.2054709,35.2539046 96.7695312,35.5898438 C96.3335916,35.9257829 95.7421912,36.09375 94.9953125,36.09375 C94.50156,36.09375 94.0476583,36.0023447 93.6335937,35.8195312 C93.2195292,35.6367178 92.8976574,35.3843766 92.6679688,35.0625 C92.4382801,34.7406234 92.3234375,34.3656271 92.3234375,33.9375 L93.509375,33.9375 C93.509375,34.3250019 93.6374987,34.6249989 93.89375,34.8375 C94.1500013,35.0500011 94.5171851,35.15625 94.9953125,35.15625 C95.4078146,35.15625 95.7179677,35.0726571 95.9257812,34.9054687 C96.1335948,34.7382804 96.2375,34.5171889 96.2375,34.2421875 Z M98.140625,33.4171875 C98.140625,32.92031 98.2390615,32.4726582 98.4359375,32.0742188 C98.6328135,31.6757793 98.9093732,31.3695323 99.265625,31.1554688 C99.6218768,30.9414052 100.031248,30.834375 100.49375,30.834375 C101.178128,30.834375 101.733592,31.0546853 102.160156,31.4953125 C102.586721,31.9359397 102.817187,32.5203089 102.851562,33.2484375 L102.85625,33.515625 C102.85625,34.0156275 102.760157,34.462498 102.567969,34.85625 C102.37578,35.250002 102.100783,35.5546864 101.742969,35.7703125 C101.385154,35.9859386 100.971877,36.09375 100.503125,36.09375 C99.7874964,36.09375 99.2148459,35.8554711 98.7851562,35.3789062 C98.3554666,34.9023414 98.140625,34.2671915 98.140625,33.4734375 L98.140625,33.4171875 Z M99.2796875,33.515625 C99.2796875,34.0375026 99.3874989,34.4460923 99.603125,34.7414062 C99.8187511,35.0367202 100.118748,35.184375 100.503125,35.184375 C100.887502,35.184375 101.186718,35.0343765 101.400781,34.734375 C101.614845,34.4343735 101.721875,33.9953154 101.721875,33.4171875 C101.721875,32.9046849 101.61172,32.498439 101.391406,32.1984375 C101.171093,31.898436 100.871877,31.7484375 100.49375,31.7484375 C100.121873,31.7484375 99.8265636,31.8960923 99.6078125,32.1914062 C99.3890614,32.4867202 99.2796875,32.9281221 99.2796875,33.515625 Z M105.03125,36 L103.892188,36 L103.892188,28.8 L105.03125,28.8 L105.03125,36 Z M108.059375,34.55625 L109.132813,30.928125 L110.309375,30.928125 L108.551563,36 L107.5625,36 L105.790625,30.928125 L106.971875,30.928125 L108.059375,34.55625 Z M113.253125,36.09375 C112.531246,36.09375 111.946096,35.8664085 111.497656,35.4117187 C111.049217,34.957029 110.825,34.3515663 110.825,33.5953125 L110.825,33.4546875 C110.825,32.948435 110.922655,32.4960957 111.117969,32.0976562 C111.313282,31.6992168 111.587498,31.3890636 111.940625,31.1671875 C112.293752,30.9453114 112.687498,30.834375 113.121875,30.834375 C113.812503,30.834375 114.346092,31.0546853 114.722656,31.4953125 C115.099221,31.9359397 115.2875,32.559371 115.2875,33.365625 L115.2875,33.825 L111.973438,33.825 C112.007813,34.2437521 112.147655,34.5749988 112.392969,34.81875 C112.638282,35.0625012 112.946873,35.184375 113.31875,35.184375 C113.840628,35.184375 114.265623,34.9734396 114.59375,34.5515625 L115.207813,35.1375 C115.004686,35.4406265 114.733595,35.6757804 114.394531,35.8429687 C114.055467,36.0101571 113.675002,36.09375 113.253125,36.09375 Z M113.117188,31.7484375 C112.804686,31.7484375 112.552345,31.8578114 112.360156,32.0765625 C112.167968,32.2953136 112.045313,32.599998 111.992188,32.990625 L114.1625,32.990625 L114.1625,32.90625 C114.1375,32.5249981 114.035938,32.2367197 113.857812,32.0414063 C113.679687,31.8460928 113.432814,31.7484375 113.117188,31.7484375 Z M115.957813,33.4265625 C115.957813,32.6453086 116.139061,32.0179711 116.501563,31.5445313 C116.864064,31.0710914 117.349997,30.834375 117.959375,30.834375 C118.496878,30.834375 118.931248,31.0218731 119.2625,31.396875 L119.2625,28.8 L120.401563,28.8 L120.401563,36 L119.370312,36 L119.314063,35.475 C118.973436,35.8875021 118.518753,36.09375 117.95,36.09375 C117.356247,36.09375 116.875783,35.8546899 116.508594,35.3765625 C116.141404,34.8984351 115.957813,34.2484416 115.957813,33.4265625 Z M117.096875,33.525 C117.096875,34.0406276 117.196093,34.4429673 117.394531,34.7320312 C117.59297,35.0210952 117.874998,35.165625 118.240625,35.165625 C118.706252,35.165625 119.046874,34.9578146 119.2625,34.5421875 L119.2625,32.3765625 C119.053124,31.9703105 118.715627,31.7671875 118.25,31.7671875 C117.881248,31.7671875 117.596875,31.9132798 117.396875,32.2054688 C117.196875,32.4976577 117.096875,32.9374971 117.096875,33.525 Z" id="AnalyticsSolved" fill="#6B778C"></path>
            <path d="M55.7884504,24.2627892 C53.4137015,24.2627892 51.2509838,23.2026335 50,21.27315 L51.7386554,19.2800572 C52.7352018,20.7854784 54.0922012,21.5487905 55.8096535,21.5487905 C57.2302622,21.5487905 58.2056055,20.7642752 58.2056055,19.7253226 C58.2056055,19.0256198 57.7179339,18.4319326 56.7425906,17.9442609 C56.5305594,17.8382454 56.0216847,17.6262142 55.1947632,17.3081675 C54.3678417,16.9689176 53.7529514,16.672074 53.3500922,16.4388398 C51.7174523,15.4846996 50.8905308,14.1913096 50.8905308,12.5798728 C50.8905308,11.2864828 51.3782025,10.2263271 52.3323427,9.37820248 C53.2864828,8.50887476 54.5374666,8.08481246 56.085294,8.08481246 C58.120793,8.08481246 59.7958391,8.80571837 61.1104323,10.2475302 L59.4989955,12.3254355 C58.6296678,11.3288891 57.2514653,10.7988112 56.1277002,10.7988112 C54.8555133,10.7988112 54.0073887,11.4561077 54.0073887,12.4526542 C54.0073887,13.1099507 54.431451,13.6612317 55.3007788,14.1064971 L56.9546217,14.8698093 C57.8239494,15.2302622 58.4388398,15.5271058 58.8204958,15.7179339 C60.5379482,16.5872616 61.4072759,17.8806516 61.4072759,19.5556977 C61.4072759,20.9339002 60.877198,22.0788684 59.8382454,22.9481961 C58.7992927,23.8175238 57.4422934,24.2627892 55.7884504,24.2627892 Z M76.6855204,27.1464129 C74.395584,27.1464129 72.4661006,26.1922727 70.89707,24.2627892 C68.6495399,24.220383 66.7412595,23.4146646 65.1934321,21.8456341 C63.6456047,20.2766036 62.8610895,18.3895264 62.8610895,16.1631993 C62.8610895,13.9156691 63.6456047,12.0073887 65.2358383,10.4383582 C66.826072,8.8481246 68.7555554,8.06360935 71.0242887,8.06360935 C73.293022,8.06360935 75.2225055,8.8481246 76.791536,10.4383582 C78.3605665,12.0073887 79.1450818,13.9156691 79.1450818,16.1631993 C79.1450818,17.8382454 78.6786133,19.3648696 77.7668793,20.721869 C76.8551454,22.0788684 75.6465678,23.0542117 74.1411466,23.669102 C74.9256619,24.3263986 75.8373958,24.6656484 76.8763485,24.6656484 C76.8763485,24.6656484 77.1764454,24.6656484 77.7766393,24.6656484 L77.7766393,27.1464129 C77.0492267,27.1464129 76.6855204,27.1464129 76.6855204,27.1464129 Z M65.8295256,16.2056055 C65.8295256,17.7110267 66.3384003,18.9620105 67.3349467,19.9585569 C68.3314931,20.9551033 69.5612738,21.4427749 71.0242887,21.4427749 C72.4873037,21.4427749 73.6958812,20.9551033 74.6924276,19.9585569 C75.688974,18.9620105 76.1978488,17.7110267 76.1978488,16.2056055 C76.1978488,14.7001843 75.688974,13.4279974 74.6924276,12.4102479 C73.6958812,11.3924984 72.4873037,10.8836236 71.0242887,10.8836236 C69.5612738,10.8836236 68.3314931,11.3924984 67.3349467,12.4102479 C66.3384003,13.4279974 65.8295256,14.7001843 65.8295256,16.2056055 Z M101.569576,8.06360935 C103.83831,8.06360935 105.767793,8.8481246 107.336824,10.4383582 C108.905854,12.0073887 109.690369,13.9156691 109.690369,16.1631993 C109.690369,17.8382454 109.223901,19.3648696 108.312167,20.721869 C107.400433,22.0788684 106.191855,23.0542117 104.686434,23.669102 C105.470949,24.3263986 106.382683,24.6656484 107.421636,24.6656484 L108.321927,24.6656484 L108.321927,24.6656484 L108.321927,27.1464129 L107.230808,27.1464129 L107.230808,27.1464129 C104.940872,27.1464129 103.011388,26.1922727 101.442358,24.2627892 C99.1948274,24.220383 97.286547,23.4146646 95.7387196,21.8456341 C94.1908922,20.2766036 93.406377,18.3895264 93.406377,16.1631993 C93.406377,13.9156691 94.1908922,12.0073887 95.7811258,10.4383582 C97.3713595,8.8481246 99.3008429,8.06360935 101.569576,8.06360935 Z M84.5214717,8.33924984 L84.5214717,21.2307438 L92.5786554,21.2307438 L92.5786554,24.0083518 L81.6166449,24.0083518 L81.6166449,8.33924984 L84.5214717,8.33924984 Z M96.313204,16.2056055 C96.313204,17.7110267 96.8220788,18.9620105 97.8186252,19.9585569 C98.8151716,20.9551033 100.044952,21.4427749 101.507967,21.4427749 C102.970982,21.4427749 104.17956,20.9551033 105.176106,19.9585569 C106.172652,18.9620105 106.681527,17.7110267 106.681527,16.2056055 C106.681527,14.7001843 106.172652,13.4279974 105.176106,12.4102479 C104.17956,11.3924984 102.970982,10.8836236 101.507967,10.8836236 C100.044952,10.8836236 98.8151716,11.3924984 97.8186252,12.4102479 C96.8220788,13.4279974 96.313204,14.7001843 96.313204,16.2056055 Z M116.943835,24.2839923 C113.742165,24.2839923 111.749072,22.3969151 111.749072,19.1952447 L111.749072,12.4950604 L114.52668,12.4950604 L114.52668,19.1952447 C114.52668,20.7430721 115.438414,21.7608216 116.943835,21.7608216 C118.470459,21.7608216 119.382193,20.7430721 119.382193,19.1952447 L119.382193,12.4950604 L122.159801,12.4950604 L122.159801,19.1952447 C122.159801,22.3969151 120.187912,24.2839923 116.943835,24.2839923 Z M135.678187,18.0078703 C135.678187,18.325917 135.656984,18.7287762 135.593375,19.237651 L126.815285,19.237651 C127.175738,20.8278846 128.363113,21.8880403 130.335002,21.8880403 C131.734408,21.8880403 133.006595,21.4851811 134.13036,20.7006659 L135.232922,22.6725556 C133.812313,23.7327113 132.137267,24.2627892 130.228987,24.2627892 C125.903551,24.2627892 123.995271,21.2943531 123.995271,18.2411046 C123.995271,16.5024491 124.546552,15.0606373 125.649114,13.9368722 C126.772879,12.791904 128.214691,12.2194199 129.974549,12.2194199 C131.649595,12.2194199 133.006595,12.7494978 134.06675,13.7884504 C135.148109,14.827403 135.678187,16.2268086 135.678187,18.0078703 Z M129.974549,14.5305594 C128.363113,14.5305594 127.175738,15.5271058 126.815285,17.1385426 L132.964189,17.1385426 C132.730954,15.5271058 131.564783,14.5305594 129.974549,14.5305594 Z M140.376077,24.0083518 L137.619672,24.0083518 L137.619672,12.4950604 L140.270062,12.4950604 L140.270062,14.085294 C140.969765,12.8343102 142.051123,12.1982168 143.471732,12.1982168 C143.959404,12.1982168 144.425872,12.2830292 144.849935,12.431451 L144.6167,15.0818404 C144.150232,14.9334186 143.704966,14.8486061 143.280904,14.8486061 C141.563452,14.8486061 140.376077,15.9935744 140.376077,18.3895264 L140.376077,24.0083518 Z M152.086598,20.2766036 L154.8218,12.4950604 L157.832642,12.4950604 L153.167957,24.7504609 C152.065395,27.5704752 150.665989,28.5062714 148.482068,28.5062714 C147.902516,28.5062714 147.34214,28.5062714 146.80094,28.5062714 L146.80094,26.0043038 C147.483495,26.0043038 147.973194,26.0043038 148.270037,26.0043038 C149.181771,26.0043038 149.945083,25.7894135 150.517567,24.5384297 L150.793208,23.9023363 L145.76807,12.4950604 L148.96974,12.4950604 L152.086598,20.2766036 Z M164.004349,24.2627892 C162.329303,24.2627892 160.929897,23.7115082 159.848538,22.6089462 C158.767179,21.4851811 158.215898,20.0645724 158.215898,18.3471201 C158.215898,16.6084647 158.767179,15.187856 159.869741,14.0640909 C160.993506,12.9403258 162.414115,12.3890448 164.131567,12.3890448 C166.357894,12.3890448 168.329784,13.5128099 169.199112,15.3150747 L168.160159,15.9087619 C167.396847,14.4669501 165.84902,13.5552161 164.131567,13.5552161 C162.795771,13.5552161 161.672006,14.0004815 160.802678,14.9122155 C159.933351,15.8027463 159.488085,16.9477145 159.488085,18.3471201 C159.488085,19.7253226 159.912148,20.8702908 160.760272,21.7608216 C161.608397,22.6513525 162.689756,23.0966179 164.004349,23.0966179 C165.721801,23.0966179 167.354441,22.1212746 168.09655,20.7430721 L169.135503,21.3791656 C168.690237,22.2484933 167.990534,22.9481961 167.057597,23.478274 C166.12466,24.0083518 165.106911,24.2627892 164.004349,24.2627892 Z M188.805592,12.3890448 C190.69267,12.3890448 192.325309,13.3007788 193.27945,14.8486061 L193.27945,12.6646853 L194.50923,12.6646853 L194.50923,24.0083518 L193.27945,24.0083518 L193.27945,21.8032279 C192.325309,23.3510553 190.69267,24.2839923 188.805592,24.2839923 C187.194156,24.2839923 185.858359,23.7115082 184.777,22.56654 C183.695642,21.4003687 183.165564,19.97976 183.165564,18.2835108 C183.165564,16.6084647 183.695642,15.2090591 184.755797,14.085294 C185.837156,12.9615289 187.172952,12.3890448 188.805592,12.3890448 Z M199.800344,8.60608904 L199.800344,12.6236495 L203.4,12.6236495 L203.4,13.828219 L199.800344,13.828219 L199.800344,20.7878203 C199.800344,22.2311502 200.730939,23.0438176 201.783965,23.0438176 L201.783965,23.0438176 L203.4,23.0438176 L203.4,24.2483871 L201.784139,24.2483871 C199.906859,24.2483871 198.396872,22.7224085 198.396872,20.8708878 L198.396872,20.8708878 L198.396872,13.828219 L196.401183,13.828219 L196.401183,12.6236495 L198.396872,12.6236495 L198.396872,8.60608904 L199.800344,8.60608904 Z M172.803641,8 L172.803641,14.5729657 C173.482141,13.1523569 174.923953,12.3678417 176.726218,12.3678417 C178.019608,12.3678417 179.079763,12.791904 179.927888,13.6188255 C180.797216,14.445747 181.221278,15.6331214 181.221278,17.1597457 L181.221278,24.0083518 L179.949091,24.0083518 L179.949091,17.3717768 C179.949091,14.997028 178.676904,13.5552161 176.577796,13.5552161 C175.58125,13.5552161 174.711922,13.894466 173.969813,14.5729657 C173.227704,15.2514653 172.846048,16.2692149 172.846048,17.6262142 L172.846048,24.0083518 L171.573861,24.0083518 L171.573861,8 L172.803641,8 Z M188.869202,13.5552161 C187.575812,13.5552161 186.494453,14.0216847 185.667531,14.9334186 C184.84061,15.8451526 184.437751,16.9901208 184.437751,18.325917 C184.437751,19.6829164 184.84061,20.8278846 185.667531,21.7396185 C186.494453,22.6513525 187.575812,23.117821 188.869202,23.117821 C190.183795,23.117821 191.265154,22.6513525 192.113278,21.7184154 C192.961403,20.7854784 193.385465,19.6405101 193.385465,18.2835108 C193.385465,16.9689176 192.961403,15.8451526 192.113278,14.9334186 C191.265154,14.0216847 190.183795,13.5552161 188.869202,13.5552161 Z" id="SQLQuerychat" fill="#091D42"></path>
            <g id="Icon">
                <path d="M9.72009516,39.9961582 C4.32667079,39.8479317 0,35.4292399 0,30 L0,30 L0,10 C0,4.4771525 4.4771525,0 10,0 L30,0 C35.4292399,0 39.8479317,4.32667079 39.9961582,9.72009516 L40,10 L40,40 L10,40 Z" id="Chat-shape" fill="#375DE7"></path>
                <path d="M20,27 C26.619374,27 31.9869579,25.4367977 31.9999763,23.507036 L32,28.6 C31.8133335,30.48686 26.5125173,32 20,32 C13.372583,32 8,30.4329966 8,28.5 L8.005,28.6 L8,28.6 L8,23.507 L8.00511614,23.6031964 C8.1922781,25.4884613 13.4909297,27 20,27 Z M32,15.1 L32,20.2 C31.8133335,22.08686 26.5125173,23.6 20,23.6 C13.372583,23.6 8,22.0329966 8,20.1 L8.005,20.2 L8,20.2 L8,15.1 C8,17.0329966 13.372583,18.6 20,18.6 C26.627417,18.6 32,17.0329966 32,15.1 Z M32,23.4 L32,23.5 L31.994,23.4 L32,23.4 Z M32,15 L32,15.1 L31.994,15 L32,15 Z M20,8 C26.627417,8 32,9.56700338 32,11.5 C32,13.4329966 26.627417,15 20,15 C13.372583,15 8,13.4329966 8,11.5 C8,9.56700338 13.372583,8 20,8 Z" id="Product-icon" fill="#FFFFFF"></path>
            </g>
        </g>
    </g>
</svg>