<?xml version="1.0" encoding="UTF-8"?>
<svg width="203px" height="40px" viewBox="0 0 203 40" version="1.1" xmlns="http://www.w3.org/2000/svg" xmlns:xlink="http://www.w3.org/1999/xlink">
    <!-- Generator: Sketch 58 (84663) - https://sketch.com -->
    <title>Logos/SQLQuerychat/Hero/Black</title>
    <desc>Created with Sketch.</desc>
    <g id="Logos/SQLQuerychat/Hero/Black" stroke="none" stroke-width="1" fill="none" fill-rule="evenodd">
        <path d="M29.9410029,0 C35.3595659,0 39.769568,4.32667079 39.917503,9.72009516 L39.9213373,10 L39.9213373,40 L9.98033432,40 L9.70097992,39.9961582 C4.4109693,39.8504873 0.149218626,35.5803391 0.00383424237,30.2799048 L0,30 L0,10 C0,4.4771525 4.46834788,0 9.98033432,0 L29.9410029,0 Z M70.43465,30.928125 L71.5059765,34.36875 L72.5351985,30.928125 L73.7468735,30.928125 L71.7352123,36.76875 C71.4264442,37.6218793 70.9024819,38.0484375 70.1633097,38.0484375 C69.9980096,38.0484375 69.8155584,38.0203128 69.6159507,37.9640625 L69.6159507,37.0828125 L69.8311517,37.096875 C70.1180877,37.096875 70.3340662,37.0445318 70.4790937,36.9398438 C70.6241211,36.8351557 70.7387379,36.6593762 70.8229474,36.4125 L70.9866873,35.9765625 L69.2089402,30.928125 L70.43465,30.928125 Z M120.164785,28.8 L120.164785,36 L119.135563,36 L119.079423,35.475 C118.739466,35.8875021 118.285678,36.09375 117.718043,36.09375 C117.125458,36.09375 116.645939,35.8546899 116.279472,35.3765625 C115.913004,34.8984351 115.729774,34.2484416 115.729774,33.4265625 C115.729774,32.6453086 115.910665,32.0179711 116.272454,31.5445313 C116.634243,31.0710914 117.11922,30.834375 117.7274,30.834375 C118.263845,30.834375 118.697362,31.0218731 119.027962,31.396875 L119.027962,28.8 L120.164785,28.8 Z M64.1376828,30.834375 C64.7302681,30.834375 65.2027699,30.9835923 65.5552022,31.2820312 C65.9076345,31.5804702 66.0885263,31.9999973 66.0978829,32.540625 L66.0978829,34.828125 C66.0978829,35.2843773 66.1618187,35.6484361 66.2896924,35.9203125 L66.2896924,36 L65.1294786,36 C65.0795766,35.9031245 65.0359131,35.7453136 64.9984867,35.5265625 C64.6366977,35.9046894 64.1938248,36.09375 63.6698547,36.09375 C63.1614788,36.09375 62.7466753,35.948439 62.4254317,35.6578125 C62.1041881,35.367186 61.9435687,35.0078146 61.9435687,34.5796875 C61.9435687,34.0390598 62.1439531,33.6242202 62.5447279,33.3351562 C62.9455027,33.0460923 63.5185865,32.9015625 64.2639964,32.9015625 L64.9610604,32.9015625 L64.9610604,32.56875 C64.9610604,32.3062487 64.8877681,32.0960945 64.7411812,31.9382812 C64.5945943,31.780468 64.3715984,31.7015625 64.0721869,31.7015625 C63.8133207,31.7015625 63.6012407,31.7664056 63.4359406,31.8960937 C63.2706405,32.0257819 63.1879916,32.190624 63.1879916,32.390625 L62.0511692,32.390625 C62.0511692,32.1124986 62.1431754,31.852345 62.3271878,31.6101562 C62.5112011,31.3679675 62.7614867,31.1781257 63.078052,31.040625 C63.3946173,30.9031243 63.7478241,30.834375 64.1376828,30.834375 Z M112.899413,30.834375 C113.588683,30.834375 114.121222,31.0546853 114.497046,31.4953125 C114.87287,31.9359397 115.060779,32.559371 115.060779,33.365625 L115.060779,33.825 L111.753234,33.825 C111.787542,34.2437521 111.927109,34.5749988 112.17194,34.81875 C112.416772,35.0625012 112.724755,35.184375 113.095901,35.184375 C113.616752,35.184375 114.040912,34.9734396 114.368394,34.5515625 L114.981248,35.1375 C114.778522,35.4406265 114.507964,35.6757804 114.169567,35.8429687 C113.831169,36.0101571 113.451452,36.09375 113.030405,36.09375 C112.309946,36.09375 111.725946,35.8664085 111.278388,35.4117187 C110.830831,34.957029 110.607055,34.3515663 110.607055,33.5953125 L110.607055,33.4546875 C110.607055,32.948435 110.704518,32.4960957 110.899448,32.0976562 C111.094377,31.6992168 111.368054,31.3890636 111.720486,31.1671875 C112.072918,30.9453114 112.46589,30.834375 112.899413,30.834375 Z M75.8240305,29.6953125 L75.8240305,30.928125 L76.7175824,30.928125 L76.7175824,31.771875 L75.8240305,31.771875 L75.8240305,34.603125 C75.8240305,34.796876 75.8622361,34.9367183 75.9386484,35.0226562 C76.0150608,35.1085942 76.1515093,35.1515625 76.3479981,35.1515625 C76.4789906,35.1515625 76.6115406,35.1359377 76.745652,35.1046875 L76.745652,35.9859375 C76.4867858,36.0578129 76.23728,36.09375 75.997127,36.09375 C75.1238433,36.09375 74.6872081,35.6109423 74.6872081,34.6453125 L74.6872081,31.771875 L73.8544739,31.771875 L73.8544739,30.928125 L74.6872081,30.928125 L74.6872081,29.6953125 L75.8240305,29.6953125 Z M82.1209977,30.834375 C82.7229396,30.834375 83.2133746,31.0101545 83.5923173,31.3617188 C83.97126,31.713283 84.170085,32.1749971 84.1887982,32.746875 L83.1174717,32.746875 C83.1049963,32.4562485 83.0059736,32.2171884 82.8204008,32.0296875 C82.6348281,31.8421866 82.3985772,31.7484375 82.1116412,31.7484375 C81.7436145,31.7484375 81.4598016,31.8820299 81.2601939,32.1492188 C81.0605862,32.4164076 80.9592245,32.8218723 80.9561056,33.365625 L80.9561056,33.5484375 C80.9561056,34.0984403 81.0551282,34.5085924 81.2531765,34.7789062 C81.4512247,35.0492201 81.7373768,35.184375 82.1116412,35.184375 C82.3954583,35.184375 82.6309295,35.1015633 82.8180617,34.9359375 C83.0051939,34.7703117 83.1049963,34.5656262 83.1174717,34.321875 L84.1887982,34.321875 C84.1763228,34.6375016 84.0780798,34.9320299 83.8940665,35.2054688 C83.7100532,35.4789076 83.4605473,35.6953117 83.1455414,35.8546875 C82.8305355,36.0140633 82.4905838,36.09375 82.125676,36.09375 C81.4176925,36.09375 80.8563043,35.8640648 80.4414946,35.4046875 C80.0266849,34.9453102 79.8192831,34.3109415 79.8192831,33.5015625 L79.8192831,33.384375 C79.8192831,32.6124961 80.0251255,31.9945336 80.4368163,31.5304688 C80.8485072,31.0664039 81.4098954,30.834375 82.1209977,30.834375 Z M100.296122,30.834375 C100.979155,30.834375 101.533526,31.0546853 101.959251,31.4953125 C102.384977,31.9359397 102.61499,32.5203089 102.649298,33.2484375 L102.653976,33.515625 C102.653976,34.0156275 102.558072,34.462498 102.366262,34.85625 C102.174451,35.250002 101.899995,35.5546864 101.542884,35.7703125 C101.185774,35.9859386 100.773309,36.09375 100.305479,36.09375 C99.5912575,36.09375 99.0197331,35.8554711 98.5908885,35.3789062 C98.1620439,34.9023414 97.9476248,34.2671915 97.9476248,33.4734375 L97.9476248,33.4171875 C97.9476248,32.92031 98.0458677,32.4726582 98.2423565,32.0742188 C98.4388453,31.6757793 98.7148612,31.3695323 99.0704124,31.1554688 C99.4259636,30.9414052 99.8345294,30.834375 100.296122,30.834375 Z M86.9396279,30.834375 C87.5446887,30.834375 88.0335642,30.9843735 88.4062692,31.284375 C88.7789742,31.5843765 88.9653239,31.9734351 88.9653239,32.4515625 L87.8285014,32.4515625 C87.8285014,32.2328114 87.747412,32.050782 87.5852308,31.9054688 C87.4230495,31.7601555 87.2078507,31.6875 86.9396279,31.6875 C86.6901183,31.6875 86.4866151,31.7453119 86.3291121,31.8609375 C86.1716092,31.9765631 86.0928589,32.131249 86.0928589,32.325 C86.0928589,32.5000009 86.1661512,32.635937 86.3127381,32.7328125 C86.459325,32.829688 86.7556132,32.9273433 87.2016117,33.0257813 C87.6476101,33.1242192 87.997698,33.2414056 88.2518859,33.3773438 C88.5060738,33.5132819 88.6947626,33.6765615 88.817958,33.8671875 C88.9411534,34.0578135 89.0027501,34.2890611 89.0027501,34.5609375 C89.0027501,35.0171898 88.8140613,35.3867173 88.436678,35.6695312 C88.0592948,35.9523452 87.5649613,36.09375 86.9536627,36.09375 C86.538853,36.09375 86.1692725,36.0187508 85.84491,35.86875 C85.5205475,35.7187492 85.2679228,35.5125013 85.0870283,35.25 C84.9061339,34.9874987 84.815688,34.704689 84.815688,34.4015625 L85.9197625,34.4015625 C85.9353568,34.6703138 86.0367186,34.877343 86.2238508,35.0226562 C86.410983,35.1679695 86.6589294,35.240625 86.9676976,35.240625 C87.2671091,35.240625 87.4947832,35.1835943 87.6507267,35.0695312 C87.8066702,34.9554682 87.8846408,34.8062509 87.8846408,34.621875 C87.8846408,34.418749 87.8012123,34.264063 87.6343527,34.1578125 C87.4674932,34.051562 87.1906976,33.9578129 86.8039577,33.8765625 C86.4172178,33.7953121 86.0944196,33.6921881 85.8355534,33.5671875 C85.2679191,33.2921861 84.9841061,32.8937526 84.9841061,32.371875 C84.9841061,31.9343728 85.1681167,31.5687515 85.5361434,31.275 C85.90417,30.9812485 86.3719935,30.834375 86.9396279,30.834375 Z M94.7663932,29.08125 C95.2404614,29.08125 95.663062,29.1687491 96.0342075,29.34375 C96.4053531,29.5187509 96.696963,29.7679671 96.9090462,30.0914063 C97.1211294,30.4148454 97.2271694,30.7734355 97.2271694,31.1671875 L96.0482424,31.1671875 C96.0482424,30.8109357 95.9367444,30.5320323 95.7137452,30.3304688 C95.490746,30.1289052 95.1718463,30.028125 94.7570366,30.028125 C94.3702967,30.028125 94.07011,30.1109367 93.8564674,30.2765625 C93.6428248,30.4421883 93.5360051,30.673436 93.5360051,30.9703125 C93.5360051,31.2203138 93.6514016,31.4289054 93.8821979,31.5960938 C94.1129943,31.7632821 94.4934908,31.9257805 95.0236987,32.0835937 C95.5539066,32.241407 95.979626,32.4210927 96.3008696,32.6226562 C96.6221132,32.8242198 96.8575844,33.0554674 97.0072901,33.3164062 C97.1569959,33.5773451 97.2318477,33.8828107 97.2318477,34.2328125 C97.2318477,34.8015653 97.0143097,35.2539046 96.5792274,35.5898438 C96.144145,35.9257829 95.5539077,36.09375 94.8084977,36.09375 C94.3157163,36.09375 93.8627072,36.0023447 93.4494569,35.8195312 C93.0362066,35.6367178 92.7149678,35.3843766 92.4857309,35.0625 C92.2564939,34.7406234 92.1418772,34.3656271 92.1418772,33.9375 L93.3254824,33.9375 C93.3254824,34.3250019 93.4533542,34.6249989 93.7091015,34.8375 C93.9648489,35.0500011 94.3313106,35.15625 94.8084977,35.15625 C95.2201886,35.15625 95.5297318,35.0726571 95.7371366,34.9054687 C95.9445415,34.7382804 96.0482424,34.5171889 96.0482424,34.2421875 C96.0482424,33.942186 95.9429821,33.7109383 95.7324584,33.5484375 C95.5219346,33.3859367 95.1422179,33.2218758 94.5932968,33.05625 C94.0443756,32.8906242 93.6077404,32.706251 93.2833779,32.503125 C92.6627227,32.112498 92.3523998,31.6031281 92.3523998,30.975 C92.3523998,30.4249972 92.5761754,29.9718768 93.0237333,29.615625 C93.4712911,29.2593732 94.0521719,29.08125 94.7663932,29.08125 Z M53.5366965,29.175 L56.1144297,36 L54.8793633,36 L54.3226478,34.4109375 L51.6840969,34.4109375 L51.1320597,36 L49.9016716,36 L52.4747265,29.175 L53.5366965,29.175 Z M68.4978414,28.8 L68.4978414,36 L67.3610189,36 L67.3610189,28.8 L68.4978414,28.8 Z M59.3377658,30.834375 C60.3919439,30.834375 60.9283815,31.4390565 60.9470947,32.6484375 L60.9470947,36 L59.8102722,36 L59.8102722,32.7140625 C59.8102722,32.3921859 59.7408784,32.153907 59.6020887,31.9992188 C59.463299,31.8445305 59.2364046,31.7671875 58.9213987,31.7671875 C58.4629248,31.7671875 58.1214137,31.9749979 57.896855,32.390625 L57.896855,36 L56.7600326,36 L56.7600326,30.928125 L57.8313591,30.928125 L57.8641071,31.5140625 C58.2383715,31.0609352 58.7295861,30.834375 59.3377658,30.834375 Z M106.761507,30.928125 L107.846869,34.55625 L108.918195,30.928125 L110.092444,30.928125 L108.338088,36 L107.350971,36 L105.582581,30.928125 L106.761507,30.928125 Z M104.824699,28.8 L104.824699,36 L103.687876,36 L103.687876,28.8 L104.824699,28.8 Z M78.7947394,30.928125 L78.7947394,36 L77.657917,36 L77.657917,30.928125 L78.7947394,30.928125 Z M100.296122,31.7484375 C99.9249766,31.7484375 99.6302478,31.8960923 99.4119269,32.1914062 C99.193606,32.4867202 99.0844472,32.9281221 99.0844472,33.515625 C99.0844472,34.0375026 99.1920466,34.4460923 99.4072486,34.7414062 C99.6224507,35.0367202 99.9218577,35.184375 100.305479,35.184375 C100.6891,35.184375 100.987727,35.0343765 101.20137,34.734375 C101.415012,34.4343735 101.521832,33.9953154 101.521832,33.4171875 C101.521832,32.9046849 101.411893,32.498439 101.192013,32.1984375 C100.972133,31.898436 100.673505,31.7484375 100.296122,31.7484375 Z M64.9610604,33.61875 L64.3482055,33.61875 C63.927158,33.61875 63.6105975,33.6921868 63.3985143,33.8390625 C63.1864312,33.9859382 63.0803912,34.1937487 63.0803912,34.4625 C63.0803912,34.6812511 63.1529038,34.8554681 63.2979313,34.9851563 C63.4429587,35.1148444 63.6371055,35.1796875 63.8803773,35.1796875 C64.104936,35.1796875 64.3162363,35.1250005 64.5142845,35.015625 C64.7123328,34.9062495 64.8612566,34.7593759 64.9610604,34.575 L64.9610604,33.61875 Z M118.017453,31.7671875 C117.649427,31.7671875 117.365613,31.9132798 117.166006,32.2054688 C116.966399,32.4976577 116.866596,32.9374971 116.866596,33.525 C116.866596,34.0406276 116.965619,34.4429673 117.163667,34.7320312 C117.361715,35.0210952 117.643189,35.165625 118.008097,35.165625 C118.472808,35.165625 118.81276,34.9578146 119.027962,34.5421875 L119.027962,32.3765625 C118.818998,31.9703105 118.482165,31.7671875 118.017453,31.7671875 Z M53.003,30.624 L52.0162549,33.4546875 L53.9904898,33.4546875 L53.003,30.624 Z M112.894735,31.7484375 C112.582848,31.7484375 112.331003,31.8578114 112.139192,32.0765625 C111.947382,32.2953136 111.824968,32.599998 111.771947,32.990625 L113.937992,32.990625 L113.937992,32.90625 C113.913041,32.5249981 113.811679,32.2367197 113.633903,32.0414063 C113.456128,31.8460928 113.209741,31.7484375 112.894735,31.7484375 Z M7.984,28.506 L7.98926745,28.6 L7.98426745,28.6 L7.984,28.506 Z M78.2286673,29.0015625 C78.4345128,29.0015625 78.5935728,29.0593744 78.7058521,29.175 C78.8181314,29.2906256 78.8742702,29.4359366 78.8742702,29.6109375 C78.8742702,29.7828134 78.8181314,29.9257807 78.7058521,30.0398437 C78.5935728,30.1539068 78.4345128,30.2109375 78.2286673,30.2109375 C78.0228219,30.2109375 77.8645416,30.1539068 77.7538217,30.0398437 C77.6431019,29.9257807 77.5877427,29.7828134 77.5877427,29.6109375 C77.5877427,29.4359366 77.6431019,29.2906256 77.7538217,29.175 C77.8645416,29.0593744 78.0228219,29.0015625 78.2286673,29.0015625 Z M148.676781,12.4950604 L151.787509,20.2766036 L154.517332,12.4950604 L157.522253,12.4950604 L152.866741,24.7504609 C151.766348,27.5704752 150.369694,28.5062714 148.190068,28.5062714 L146.512246,28.5062714 L146.512246,26.0043038 L147.978454,26.0043038 C148.888395,26.0043038 149.650206,25.7894135 150.221564,24.5384297 L150.496663,23.9023363 L145.481407,12.4950604 L148.676781,12.4950604 Z M70.8846146,8.06360935 C73.1488863,8.06360935 75.0745753,8.8481246 76.6405202,10.4383582 C78.2064651,12.0073887 78.9894376,13.9156691 78.9894376,16.1631993 C78.9894376,17.8382454 78.5238864,19.3648696 77.6139454,20.721869 C76.7040045,22.0788684 75.4978037,23.0542117 73.995343,23.669102 C74.7783155,24.3263986 75.6882564,24.6656484 76.7251659,24.6656484 L77.6236863,24.6656484 L77.6236863,27.1464129 L76.5347131,27.1464129 C74.24928,27.1464129 72.323591,26.1922727 70.7576461,24.2627892 C68.5145358,24.220383 66.6100083,23.4146646 65.0652248,21.8456341 C63.5204413,20.2766036 62.7374688,18.3895264 62.7374688,16.1631993 C62.7374688,13.9156691 63.5204413,12.0073887 65.1075476,10.4383582 C66.6946539,8.8481246 68.6203429,8.06360935 70.8846146,8.06360935 Z M101.369833,8.06360935 C103.634104,8.06360935 105.559793,8.8481246 107.125738,10.4383582 C108.691683,12.0073887 109.474656,13.9156691 109.474656,16.1631993 C109.474656,17.8382454 109.009104,19.3648696 108.099164,20.721869 C107.189223,22.0788684 105.983022,23.0542117 104.480561,23.669102 C105.263534,24.3263986 106.173475,24.6656484 107.210384,24.6656484 L108.108904,24.6656484 L108.108904,27.1464129 L107.019931,27.1464129 C104.734498,27.1464129 102.808809,26.1922727 101.242864,24.2627892 C98.9997539,24.220383 97.0952264,23.4146646 95.5504429,21.8456341 C94.0056594,20.2766036 93.2226869,18.3895264 93.2226869,16.1631993 C93.2226869,13.9156691 94.0056594,12.0073887 95.5927657,10.4383582 C97.179872,8.8481246 99.105561,8.06360935 101.369833,8.06360935 Z M114.301455,12.4950604 L114.301455,19.1952447 C114.301455,20.7430721 115.211396,21.7608216 116.713857,21.7608216 C118.237479,21.7608216 119.14742,20.7430721 119.14742,19.1952447 L119.14742,12.4950604 L121.919566,12.4950604 L121.919566,19.1952447 C121.919566,22.3969151 119.951554,24.2839923 116.713857,24.2839923 C113.518483,24.2839923 111.52931,22.3969151 111.52931,19.1952447 L111.52931,12.4950604 L114.301455,12.4950604 Z M188.434293,12.3890448 C190.317659,12.3890448 191.947089,13.3007788 192.899352,14.8486061 L192.899352,12.6646853 L194.126715,12.6646853 L194.126715,24.0083518 L192.899352,24.0083518 L192.899352,21.8032279 C191.947089,23.3510553 190.317659,24.2839923 188.434293,24.2839923 C186.826025,24.2839923 185.492856,23.7115082 184.413624,22.56654 C183.334392,21.4003687 182.805356,19.97976 182.805356,18.2835108 C182.805356,16.6084647 183.334392,15.2090591 184.392462,14.085294 C185.471695,12.9615289 186.804864,12.3890448 188.434293,12.3890448 Z M55.9749984,8.08481246 C58.0064945,8.08481246 59.6782465,8.80571837 60.9902544,10.2475302 L59.3819867,12.3254355 C58.5143686,11.3288891 57.1388764,10.7988112 56.0173213,10.7988112 C54.7476362,10.7988112 53.9011795,11.4561077 53.9011795,12.4526542 C53.9011795,13.1099507 54.3244079,13.6612317 55.192026,14.1064971 L56.8426166,14.8698093 C57.7102347,15.2302622 58.3239158,15.5271058 58.7048213,15.7179339 C60.4188961,16.5872616 61.2865143,17.8806516 61.2865143,19.5556977 C61.2865143,20.9339002 60.7574788,22.0788684 59.7205694,22.9481961 C58.6836599,23.8175238 57.3293292,24.2627892 55.6787386,24.2627892 C53.3086598,24.2627892 51.1501952,23.2026335 49.9016716,21.27315 L51.6369078,19.2800572 C52.6314945,20.7854784 53.9858252,21.5487905 55.6999,21.5487905 C57.117715,21.5487905 58.0911402,20.7642752 58.0911402,19.7253226 C58.0911402,19.0256198 57.6044276,18.4319326 56.6310024,17.9442609 C56.4193882,17.8382454 55.9115142,17.6262142 55.0862189,17.3081675 C54.2609236,16.9689176 53.6472425,16.672074 53.2451756,16.4388398 C51.6157464,15.4846996 50.7904511,14.1913096 50.7904511,12.5798728 C50.7904511,11.2864828 51.2771637,10.2263271 52.2294275,9.37820248 C53.1816913,8.50887476 54.430215,8.08481246 55.9749984,8.08481246 Z M129.718945,12.2194199 C131.390697,12.2194199 132.745028,12.7494978 133.803099,13.7884504 C134.882331,14.827403 135.411367,16.2268086 135.411367,18.0078703 C135.411367,18.325917 135.390205,18.7287762 135.326721,19.237651 L126.565894,19.237651 C126.925638,20.8278846 128.110678,21.8880403 130.07869,21.8880403 C131.475343,21.8880403 132.745028,21.4851811 133.866583,20.7006659 L134.966977,22.6725556 C133.549162,23.7327113 131.87741,24.2627892 129.972882,24.2627892 C125.655953,24.2627892 123.751426,21.2943531 123.751426,18.2411046 C123.751426,16.5024491 124.301623,15.0606373 125.402016,13.9368722 C126.523571,12.791904 127.962548,12.2194199 129.718945,12.2194199 Z M163.808791,12.3890448 C166.03074,12.3890448 167.998752,13.5128099 168.86637,15.3150747 L167.829461,15.9087619 C167.06765,14.4669501 165.522866,13.5552161 163.808791,13.5552161 C162.475622,13.5552161 161.354067,14.0004815 160.486449,14.9122155 C159.618831,15.8027463 159.174441,16.9477145 159.174441,18.3471201 C159.174441,19.7253226 159.597669,20.8702908 160.444126,21.7608216 C161.290583,22.6513525 162.369815,23.0966179 163.681823,23.0966179 C165.395898,23.0966179 167.025327,22.1212746 167.765977,20.7430721 L168.802886,21.3791656 C168.358496,22.2484933 167.660169,22.9481961 166.729067,23.478274 C165.797965,24.0083518 164.782217,24.2627892 163.681823,24.2627892 C162.010071,24.2627892 160.613417,23.7115082 159.534185,22.6089462 C158.454953,21.4851811 157.904756,20.0645724 157.904756,18.3471201 C157.904756,16.6084647 158.454953,15.187856 159.555347,14.0640909 C160.676902,12.9403258 162.094717,12.3890448 163.808791,12.3890448 Z M199.407423,8.60608904 L199.407423,12.6236495 L203,12.6236495 L203,13.828219 L199.407423,13.828219 L199.407423,20.7878203 C199.407423,22.1683967 200.257181,22.9719587 201.250821,23.0392239 L201.387143,23.0438176 L203,23.0438176 L203,24.2483871 L201.387317,24.2483871 C199.576181,24.2483871 198.107586,22.8224449 198.011692,21.0549102 L198.006711,20.8708878 L198.006711,13.828219 L196.014947,13.828219 L196.014947,12.6236495 L198.006711,12.6236495 L198.006711,8.60608904 L199.407423,8.60608904 Z M84.3552544,8.33924984 L84.3552544,21.2307438 L92.3965931,21.2307438 L92.3965931,24.0083518 L81.4561402,24.0083518 L81.4561402,8.33924984 L84.3552544,8.33924984 Z M143.189585,12.1982168 C143.676298,12.1982168 144.141849,12.2830292 144.565077,12.431451 L144.332302,15.0818404 C143.866751,14.9334186 143.422361,14.8486061 142.999132,14.8486061 C141.285058,14.8486061 140.100018,15.9935744 140.100018,18.3895264 L140.100018,24.0083518 L137.349034,24.0083518 L137.349034,12.4950604 L139.994211,12.4950604 L139.994211,14.085294 C140.692538,12.8343102 141.77177,12.1982168 143.189585,12.1982168 Z M172.463811,8 L172.463811,14.5729657 C173.140977,13.1523569 174.579953,12.3678417 176.378674,12.3678417 C177.66952,12.3678417 178.727591,12.791904 179.574048,13.6188255 C180.441666,14.445747 180.864894,15.6331214 180.864894,17.1597457 L180.864894,24.0083518 L179.595209,24.0083518 L179.595209,17.3717768 C179.595209,14.997028 178.325524,13.5552161 176.230544,13.5552161 C175.235957,13.5552161 174.368339,13.894466 173.627689,14.5729657 C172.88704,15.2514653 172.506134,16.2692149 172.506134,17.6262142 L172.506134,24.0083518 L171.236449,24.0083518 L171.236449,8 L172.463811,8 Z M19.9606686,23.6 C26.342202,23.6 31.5579928,22.1413831 31.9218695,20.3025422 L31.9370698,20.2 L31.9370698,15.1 C31.9370698,17.0329966 26.5750524,18.6 19.9606686,18.6 C13.4643989,18.6 8.17616743,17.0884613 7.98937353,15.2031964 L7.984,15.11 L7.98426745,20.2 L7.98926745,20.2 L7.98426745,20.1 C7.98426745,22.0329966 13.3462849,23.6 19.9606686,23.6 Z M31.9370698,23.4 L31.9312675,23.4 L31.9370698,23.5 L31.9370698,23.4 Z M188.497777,13.5552161 C187.206931,13.5552161 186.127699,14.0216847 185.302403,14.9334186 C184.477108,15.8451526 184.075041,16.9901208 184.075041,18.325917 C184.075041,19.6829164 184.477108,20.8278846 185.302403,21.7396185 C186.127699,22.6513525 187.206931,23.117821 188.497777,23.117821 C189.809785,23.117821 190.889018,22.6513525 191.735474,21.7184154 C192.581931,20.7854784 193.005159,19.6405101 193.005159,18.2835108 C193.005159,16.9689176 192.581931,15.8451526 191.735474,14.9334186 C190.889018,14.0216847 189.809785,13.5552161 188.497777,13.5552161 Z M101.308345,10.8836236 C99.848207,10.8836236 98.6208448,11.3924984 97.6262582,12.4102479 C96.6316715,13.4279974 96.1237975,14.7001843 96.1237975,16.2056055 C96.1237975,17.7110267 96.6316715,18.9620105 97.6262582,19.9585569 C98.6208448,20.9551033 99.848207,21.4427749 101.308345,21.4427749 C102.768483,21.4427749 103.974683,20.9551033 104.96927,19.9585569 C105.963857,18.9620105 106.471731,17.7110267 106.471731,16.2056055 C106.471731,14.7001843 105.963857,13.4279974 104.96927,12.4102479 C103.974683,11.3924984 102.768483,10.8836236 101.308345,10.8836236 Z M70.8846146,10.8836236 C69.4244768,10.8836236 68.1971146,11.3924984 67.202528,12.4102479 C66.2079413,13.4279974 65.7000673,14.7001843 65.7000673,16.2056055 C65.7000673,17.7110267 66.2079413,18.9620105 67.202528,19.9585569 C68.1971146,20.9551033 69.4244768,21.4427749 70.8846146,21.4427749 C72.3447524,21.4427749 73.5509532,20.9551033 74.5455399,19.9585569 C75.5401265,18.9620105 76.0480005,17.7110267 76.0480005,16.2056055 C76.0480005,14.7001843 75.5401265,13.4279974 74.5455399,12.4102479 C73.5509532,11.3924984 72.3447524,10.8836236 70.8846146,10.8836236 Z M129.718945,14.5305594 C128.110678,14.5305594 126.925638,15.5271058 126.565894,17.1385426 L132.702705,17.1385426 C132.46993,15.5271058 131.306052,14.5305594 129.718945,14.5305594 Z M19.9606686,8 C13.3462849,8 7.98426745,9.56700338 7.98426745,11.5 C7.98426745,13.4329966 13.3462849,15 19.9606686,15 C26.5750524,15 31.9370698,13.4329966 31.9370698,11.5 C31.9370698,9.56700338 26.5750524,8 19.9606686,8 Z M7.984,28.503 L7.984,28.506 L7.98937353,28.6031964 C8.17616743,30.4884613 13.4643989,32 19.9606686,32 C26.342202,32 31.5579928,30.5413831 31.9218695,28.7025422 L31.9370698,28.6 L31.937,23.511 L31.9312611,23.6100586 C31.7323325,25.4921279 26.4490545,27 19.9606686,27 C13.5825129,27 8.36886611,25.5429267 8.00459817,23.7056516 L7.98937353,23.6031964 L7.984,23.511 L7.984,28.503 Z M31.937,15.093 L31.9370698,15 L31.9312675,15 L31.937,15.093 Z" id="Combined-Shape" fill="#000000"></path>
    </g>
</svg>