<?xml version="1.0" encoding="UTF-8"?>
<svg width="203px" height="40px" viewBox="0 0 203 40" version="1.1" xmlns="http://www.w3.org/2000/svg" xmlns:xlink="http://www.w3.org/1999/xlink">
    <!-- Generator: Sketch 58 (84663) - https://sketch.com -->
    <title>Logos/SQLQuerychat/Spot Hero/Original</title>
    <desc>Created with Sketch.</desc>
    <g id="Logos/SQLQuerychat/Spot-Hero/Original" stroke="none" stroke-width="1" fill="none" fill-rule="evenodd">
        <g>
            <path d="M55.7884504,28.2627892 C53.4137015,28.2627892 51.2509838,27.2026335 50,25.27315 L51.7386554,23.2800572 C52.7352018,24.7854784 54.0922012,25.5487905 55.8096535,25.5487905 C57.2302622,25.5487905 58.2056055,24.7642752 58.2056055,23.7253226 C58.2056055,23.0256198 57.7179339,22.4319326 56.7425906,21.9442609 C56.5305594,21.8382454 56.0216847,21.6262142 55.1947632,21.3081675 C54.3678417,20.9689176 53.7529514,20.672074 53.3500922,20.4388398 C51.7174523,19.4846996 50.8905308,18.1913096 50.8905308,16.5798728 C50.8905308,15.2864828 51.3782025,14.2263271 52.3323427,13.3782025 C53.2864828,12.5088748 54.5374666,12.0848125 56.085294,12.0848125 C58.120793,12.0848125 59.7958391,12.8057184 61.1104323,14.2475302 L59.4989955,16.3254355 C58.6296678,15.3288891 57.2514653,14.7988112 56.1277002,14.7988112 C54.8555133,14.7988112 54.0073887,15.4561077 54.0073887,16.4526542 C54.0073887,17.1099507 54.431451,17.6612317 55.3007788,18.1064971 L56.9546217,18.8698093 C57.8239494,19.2302622 58.4388398,19.5271058 58.8204958,19.7179339 C60.5379482,20.5872616 61.4072759,21.8806516 61.4072759,23.5556977 C61.4072759,24.9339002 60.877198,26.0788684 59.8382454,26.9481961 C58.7992927,27.8175238 57.4422934,28.2627892 55.7884504,28.2627892 Z M76.6855204,31.1464129 C74.395584,31.1464129 72.4661006,30.1922727 70.89707,28.2627892 C68.6495399,28.220383 66.7412595,27.4146646 65.1934321,25.8456341 C63.6456047,24.2766036 62.8610895,22.3895264 62.8610895,20.1631993 C62.8610895,17.9156691 63.6456047,16.0073887 65.2358383,14.4383582 C66.826072,12.8481246 68.7555554,12.0636093 71.0242887,12.0636093 C73.293022,12.0636093 75.2225055,12.8481246 76.791536,14.4383582 C78.3605665,16.0073887 79.1450818,17.9156691 79.1450818,20.1631993 C79.1450818,21.8382454 78.6786133,23.3648696 77.7668793,24.721869 C76.8551454,26.0788684 75.6465678,27.0542117 74.1411466,27.669102 C74.9256619,28.3263986 75.8373958,28.6656484 76.8763485,28.6656484 C76.8763485,28.6656484 77.1764454,28.6656484 77.7766393,28.6656484 L77.7766393,31.1464129 C77.0492267,31.1464129 76.6855204,31.1464129 76.6855204,31.1464129 Z M65.8295256,20.2056055 C65.8295256,21.7110267 66.3384003,22.9620105 67.3349467,23.9585569 C68.3314931,24.9551033 69.5612738,25.4427749 71.0242887,25.4427749 C72.4873037,25.4427749 73.6958812,24.9551033 74.6924276,23.9585569 C75.688974,22.9620105 76.1978488,21.7110267 76.1978488,20.2056055 C76.1978488,18.7001843 75.688974,17.4279974 74.6924276,16.4102479 C73.6958812,15.3924984 72.4873037,14.8836236 71.0242887,14.8836236 C69.5612738,14.8836236 68.3314931,15.3924984 67.3349467,16.4102479 C66.3384003,17.4279974 65.8295256,18.7001843 65.8295256,20.2056055 Z M101.569576,12.0636093 C103.83831,12.0636093 105.767793,12.8481246 107.336824,14.4383582 C108.905854,16.0073887 109.690369,17.9156691 109.690369,20.1631993 C109.690369,21.8382454 109.223901,23.3648696 108.312167,24.721869 C107.400433,26.0788684 106.191855,27.0542117 104.686434,27.669102 C105.470949,28.3263986 106.382683,28.6656484 107.421636,28.6656484 L108.321927,28.6656484 L108.321927,28.6656484 L108.321927,31.1464129 L107.230808,31.1464129 L107.230808,31.1464129 C104.940872,31.1464129 103.011388,30.1922727 101.442358,28.2627892 C99.1948274,28.220383 97.286547,27.4146646 95.7387196,25.8456341 C94.1908922,24.2766036 93.406377,22.3895264 93.406377,20.1631993 C93.406377,17.9156691 94.1908922,16.0073887 95.7811258,14.4383582 C97.3713595,12.8481246 99.3008429,12.0636093 101.569576,12.0636093 Z M84.5214717,12.3392498 L84.5214717,25.2307438 L92.5786554,25.2307438 L92.5786554,28.0083518 L81.6166449,28.0083518 L81.6166449,12.3392498 L84.5214717,12.3392498 Z M96.313204,20.2056055 C96.313204,21.7110267 96.8220788,22.9620105 97.8186252,23.9585569 C98.8151716,24.9551033 100.044952,25.4427749 101.507967,25.4427749 C102.970982,25.4427749 104.17956,24.9551033 105.176106,23.9585569 C106.172652,22.9620105 106.681527,21.7110267 106.681527,20.2056055 C106.681527,18.7001843 106.172652,17.4279974 105.176106,16.4102479 C104.17956,15.3924984 102.970982,14.8836236 101.507967,14.8836236 C100.044952,14.8836236 98.8151716,15.3924984 97.8186252,16.4102479 C96.8220788,17.4279974 96.313204,18.7001843 96.313204,20.2056055 Z M116.943835,28.2839923 C113.742165,28.2839923 111.749072,26.3969151 111.749072,23.1952447 L111.749072,16.4950604 L114.52668,16.4950604 L114.52668,23.1952447 C114.52668,24.7430721 115.438414,25.7608216 116.943835,25.7608216 C118.470459,25.7608216 119.382193,24.7430721 119.382193,23.1952447 L119.382193,16.4950604 L122.159801,16.4950604 L122.159801,23.1952447 C122.159801,26.3969151 120.187912,28.2839923 116.943835,28.2839923 Z M135.678187,22.0078703 C135.678187,22.325917 135.656984,22.7287762 135.593375,23.237651 L126.815285,23.237651 C127.175738,24.8278846 128.363113,25.8880403 130.335002,25.8880403 C131.734408,25.8880403 133.006595,25.4851811 134.13036,24.7006659 L135.232922,26.6725556 C133.812313,27.7327113 132.137267,28.2627892 130.228987,28.2627892 C125.903551,28.2627892 123.995271,25.2943531 123.995271,22.2411046 C123.995271,20.5024491 124.546552,19.0606373 125.649114,17.9368722 C126.772879,16.791904 128.214691,16.2194199 129.974549,16.2194199 C131.649595,16.2194199 133.006595,16.7494978 134.06675,17.7884504 C135.148109,18.827403 135.678187,20.2268086 135.678187,22.0078703 Z M129.974549,18.5305594 C128.363113,18.5305594 127.175738,19.5271058 126.815285,21.1385426 L132.964189,21.1385426 C132.730954,19.5271058 131.564783,18.5305594 129.974549,18.5305594 Z M140.376077,28.0083518 L137.619672,28.0083518 L137.619672,16.4950604 L140.270062,16.4950604 L140.270062,18.085294 C140.969765,16.8343102 142.051123,16.1982168 143.471732,16.1982168 C143.959404,16.1982168 144.425872,16.2830292 144.849935,16.431451 L144.6167,19.0818404 C144.150232,18.9334186 143.704966,18.8486061 143.280904,18.8486061 C141.563452,18.8486061 140.376077,19.9935744 140.376077,22.3895264 L140.376077,28.0083518 Z M152.086598,24.2766036 L154.8218,16.4950604 L157.832642,16.4950604 L153.167957,28.7504609 C152.065395,31.5704752 150.665989,32.5062714 148.482068,32.5062714 C147.902516,32.5062714 147.34214,32.5062714 146.80094,32.5062714 L146.80094,30.0043038 C147.483495,30.0043038 147.973194,30.0043038 148.270037,30.0043038 C149.181771,30.0043038 149.945083,29.7894135 150.517567,28.5384297 L150.793208,27.9023363 L145.76807,16.4950604 L148.96974,16.4950604 L152.086598,24.2766036 Z M164.004349,28.2627892 C162.329303,28.2627892 160.929897,27.7115082 159.848538,26.6089462 C158.767179,25.4851811 158.215898,24.0645724 158.215898,22.3471201 C158.215898,20.6084647 158.767179,19.187856 159.869741,18.0640909 C160.993506,16.9403258 162.414115,16.3890448 164.131567,16.3890448 C166.357894,16.3890448 168.329784,17.5128099 169.199112,19.3150747 L168.160159,19.9087619 C167.396847,18.4669501 165.84902,17.5552161 164.131567,17.5552161 C162.795771,17.5552161 161.672006,18.0004815 160.802678,18.9122155 C159.933351,19.8027463 159.488085,20.9477145 159.488085,22.3471201 C159.488085,23.7253226 159.912148,24.8702908 160.760272,25.7608216 C161.608397,26.6513525 162.689756,27.0966179 164.004349,27.0966179 C165.721801,27.0966179 167.354441,26.1212746 168.09655,24.7430721 L169.135503,25.3791656 C168.690237,26.2484933 167.990534,26.9481961 167.057597,27.478274 C166.12466,28.0083518 165.106911,28.2627892 164.004349,28.2627892 Z M188.805592,16.3890448 C190.69267,16.3890448 192.325309,17.3007788 193.27945,18.8486061 L193.27945,16.6646853 L194.50923,16.6646853 L194.50923,28.0083518 L193.27945,28.0083518 L193.27945,25.8032279 C192.325309,27.3510553 190.69267,28.2839923 188.805592,28.2839923 C187.194156,28.2839923 185.858359,27.7115082 184.777,26.56654 C183.695642,25.4003687 183.165564,23.97976 183.165564,22.2835108 C183.165564,20.6084647 183.695642,19.2090591 184.755797,18.085294 C185.837156,16.9615289 187.172952,16.3890448 188.805592,16.3890448 Z M199.800344,12.606089 L199.800344,16.6236495 L203.4,16.6236495 L203.4,17.828219 L199.800344,17.828219 L199.800344,24.7878203 C199.800344,26.2311502 200.730939,27.0438176 201.783965,27.0438176 L201.783965,27.0438176 L203.4,27.0438176 L203.4,28.2483871 L201.784139,28.2483871 C199.906859,28.2483871 198.396872,26.7224085 198.396872,24.8708878 L198.396872,24.8708878 L198.396872,17.828219 L196.401183,17.828219 L196.401183,16.6236495 L198.396872,16.6236495 L198.396872,12.606089 L199.800344,12.606089 Z M172.803641,12 L172.803641,18.5729657 C173.482141,17.1523569 174.923953,16.3678417 176.726218,16.3678417 C178.019608,16.3678417 179.079763,16.791904 179.927888,17.6188255 C180.797216,18.445747 181.221278,19.6331214 181.221278,21.1597457 L181.221278,28.0083518 L179.949091,28.0083518 L179.949091,21.3717768 C179.949091,18.997028 178.676904,17.5552161 176.577796,17.5552161 C175.58125,17.5552161 174.711922,17.894466 173.969813,18.5729657 C173.227704,19.2514653 172.846048,20.2692149 172.846048,21.6262142 L172.846048,28.0083518 L171.573861,28.0083518 L171.573861,12 L172.803641,12 Z M188.869202,17.5552161 C187.575812,17.5552161 186.494453,18.0216847 185.667531,18.9334186 C184.84061,19.8451526 184.437751,20.9901208 184.437751,22.325917 C184.437751,23.6829164 184.84061,24.8278846 185.667531,25.7396185 C186.494453,26.6513525 187.575812,27.117821 188.869202,27.117821 C190.183795,27.117821 191.265154,26.6513525 192.113278,25.7184154 C192.961403,24.7854784 193.385465,23.6405101 193.385465,22.2835108 C193.385465,20.9689176 192.961403,19.8451526 192.113278,18.9334186 C191.265154,18.0216847 190.183795,17.5552161 188.869202,17.5552161 Z" id="SQLQuerychat" fill="#091D42"></path>
            <g id="Icon">
                <path d="M9.72009516,39.9961582 C4.32667079,39.8479317 0,35.4292399 0,30 L0,30 L0,10 C0,4.4771525 4.4771525,0 10,0 L30,0 C35.4292399,0 39.8479317,4.32667079 39.9961582,9.72009516 L40,10 L40,40 L10,40 Z" id="Chat-shape" fill="#375DE7"></path>
                <path d="M20,27 C26.619374,27 31.9869579,25.4367977 31.9999763,23.507036 L32,28.6 C31.8133335,30.48686 26.5125173,32 20,32 C13.372583,32 8,30.4329966 8,28.5 L8.005,28.6 L8,28.6 L8,23.507 L8.00511614,23.6031964 C8.1922781,25.4884613 13.4909297,27 20,27 Z M32,15.1 L32,20.2 C31.8133335,22.08686 26.5125173,23.6 20,23.6 C13.372583,23.6 8,22.0329966 8,20.1 L8.005,20.2 L8,20.2 L8,15.1 C8,17.0329966 13.372583,18.6 20,18.6 C26.627417,18.6 32,17.0329966 32,15.1 Z M32,23.4 L32,23.5 L31.994,23.4 L32,23.4 Z M32,15 L32,15.1 L31.994,15 L32,15 Z M20,8 C26.627417,8 32,9.56700338 32,11.5 C32,13.4329966 26.627417,15 20,15 C13.372583,15 8,13.4329966 8,11.5 C8,9.56700338 13.372583,8 20,8 Z" id="Product-icon" fill="#FFFFFF"></path>
            </g>
        </g>
    </g>
</svg>