<?xml version="1.0" encoding="UTF-8"?>
<svg width="203px" height="40px" viewBox="0 0 203 40" version="1.1" xmlns="http://www.w3.org/2000/svg" xmlns:xlink="http://www.w3.org/1999/xlink">
    <!-- Generator: Sketch 58 (84663) - https://sketch.com -->
    <title>Logos/SQLQuerychat/Spot Hero/Black</title>
    <desc>Created with Sketch.</desc>
    <g id="Logos/SQLQuerychat/Spot-Hero/Black" stroke="none" stroke-width="1" fill="none" fill-rule="evenodd">
        <path d="M29.9410029,0 C35.3595659,0 39.769568,4.32667079 39.917503,9.72009516 L39.9213373,10 L39.9213373,40 L9.98033432,40 L9.70097992,39.9961582 C4.4109693,39.8504873 0.149218626,35.5803391 0.00383424237,30.2799048 L0,30 L0,10 C0,4.4771525 4.46834788,0 9.98033432,0 L29.9410029,0 Z M148.676781,16.4950604 L151.787509,24.2766036 L154.517332,16.4950604 L157.522253,16.4950604 L152.866741,28.7504609 C151.766348,31.5704752 150.369694,32.5062714 148.190068,32.5062714 L146.512246,32.5062714 L146.512246,32.5062714 L146.512246,30.0043038 L147.978454,30.0043038 L147.978454,30.0043038 C148.888395,30.0043038 149.650206,29.7894135 150.221564,28.5384297 L150.496663,27.9023363 L145.481407,16.4950604 L148.676781,16.4950604 Z M7.987,28.553 L7.98426745,28.5 C7.98426745,30.4329966 13.3462849,32 19.9606686,32 C26.342202,32 31.5579928,30.5413831 31.9218695,28.7025422 L31.9370698,28.6 L31.9370461,23.507036 C31.9240534,25.4367977 26.5670252,27 19.9606686,27 C13.5825129,27 8.36886611,25.5429267 8.00459817,23.7056516 L7.98937353,23.6031964 L7.984,23.507 L7.984,28.508 L7.98426745,28.6 L7.98926745,28.6 L7.987,28.553 Z M70.8846146,12.0636093 C73.1488863,12.0636093 75.0745753,12.8481246 76.6405202,14.4383582 C78.2064651,16.0073887 78.9894376,17.9156691 78.9894376,20.1631993 C78.9894376,21.8382454 78.5238864,23.3648696 77.6139454,24.721869 C76.7040045,26.0788684 75.4978037,27.0542117 73.995343,27.669102 C74.7783155,28.3263986 75.6882564,28.6656484 76.7251659,28.6656484 L77.6236863,28.6656484 L77.6236863,28.6656484 L77.6236863,31.1464129 L76.5347131,31.1464129 L76.5347131,31.1464129 C74.24928,31.1464129 72.323591,30.1922727 70.7576461,28.2627892 C68.5145358,28.220383 66.6100083,27.4146646 65.0652248,25.8456341 C63.5204413,24.2766036 62.7374688,22.3895264 62.7374688,20.1631993 C62.7374688,17.9156691 63.5204413,16.0073887 65.1075476,14.4383582 C66.6946539,12.8481246 68.6203429,12.0636093 70.8846146,12.0636093 Z M101.369833,12.0636093 C103.634104,12.0636093 105.559793,12.8481246 107.125738,14.4383582 C108.691683,16.0073887 109.474656,17.9156691 109.474656,20.1631993 C109.474656,21.8382454 109.009104,23.3648696 108.099164,24.721869 C107.189223,26.0788684 105.983022,27.0542117 104.480561,27.669102 C105.263534,28.3263986 106.173475,28.6656484 107.210384,28.6656484 L108.108904,28.6656484 L108.108904,31.1464129 L107.019931,31.1464129 C104.734498,31.1464129 102.808809,30.1922727 101.242864,28.2627892 C98.9997539,28.220383 97.0952264,27.4146646 95.5504429,25.8456341 C94.0056594,24.2766036 93.2226869,22.3895264 93.2226869,20.1631993 C93.2226869,17.9156691 94.0056594,16.0073887 95.5927657,14.4383582 C97.179872,12.8481246 99.105561,12.0636093 101.369833,12.0636093 Z M114.301455,16.4950604 L114.301455,23.1952447 C114.301455,24.7430721 115.211396,25.7608216 116.713857,25.7608216 C118.237479,25.7608216 119.14742,24.7430721 119.14742,23.1952447 L119.14742,16.4950604 L121.919566,16.4950604 L121.919566,23.1952447 C121.919566,26.3969151 119.951554,28.2839923 116.713857,28.2839923 C113.518483,28.2839923 111.52931,26.3969151 111.52931,23.1952447 L111.52931,16.4950604 L114.301455,16.4950604 Z M188.434293,16.3890448 C190.317659,16.3890448 191.947089,17.3007788 192.899352,18.8486061 L192.899352,16.6646853 L194.126715,16.6646853 L194.126715,28.0083518 L192.899352,28.0083518 L192.899352,25.8032279 C191.947089,27.3510553 190.317659,28.2839923 188.434293,28.2839923 C186.826025,28.2839923 185.492856,27.7115082 184.413624,26.56654 C183.334392,25.4003687 182.805356,23.97976 182.805356,22.2835108 C182.805356,20.6084647 183.334392,19.2090591 184.392462,18.085294 C185.471695,16.9615289 186.804864,16.3890448 188.434293,16.3890448 Z M55.9749984,12.0848125 C58.0064945,12.0848125 59.6782465,12.8057184 60.9902544,14.2475302 L59.3819867,16.3254355 C58.5143686,15.3288891 57.1388764,14.7988112 56.0173213,14.7988112 C54.7476362,14.7988112 53.9011795,15.4561077 53.9011795,16.4526542 C53.9011795,17.1099507 54.3244079,17.6612317 55.192026,18.1064971 L56.8426166,18.8698093 C57.7102347,19.2302622 58.3239158,19.5271058 58.7048213,19.7179339 C60.4188961,20.5872616 61.2865143,21.8806516 61.2865143,23.5556977 C61.2865143,24.9339002 60.7574788,26.0788684 59.7205694,26.9481961 C58.6836599,27.8175238 57.3293292,28.2627892 55.6787386,28.2627892 C53.3086598,28.2627892 51.1501952,27.2026335 49.9016716,25.27315 L51.6369078,23.2800572 C52.6314945,24.7854784 53.9858252,25.5487905 55.6999,25.5487905 C57.117715,25.5487905 58.0911402,24.7642752 58.0911402,23.7253226 C58.0911402,23.0256198 57.6044276,22.4319326 56.6310024,21.9442609 C56.4193882,21.8382454 55.9115142,21.6262142 55.0862189,21.3081675 C54.2609236,20.9689176 53.6472425,20.672074 53.2451756,20.4388398 C51.6157464,19.4846996 50.7904511,18.1913096 50.7904511,16.5798728 C50.7904511,15.2864828 51.2771637,14.2263271 52.2294275,13.3782025 C53.1816913,12.5088748 54.430215,12.0848125 55.9749984,12.0848125 Z M129.718945,16.2194199 C131.390697,16.2194199 132.745028,16.7494978 133.803099,17.7884504 C134.882331,18.827403 135.411367,20.2268086 135.411367,22.0078703 C135.411367,22.325917 135.390205,22.7287762 135.326721,23.237651 L126.565894,23.237651 C126.925638,24.8278846 128.110678,25.8880403 130.07869,25.8880403 C131.475343,25.8880403 132.745028,25.4851811 133.866583,24.7006659 L134.966977,26.6725556 C133.549162,27.7327113 131.87741,28.2627892 129.972882,28.2627892 C125.655953,28.2627892 123.751426,25.2943531 123.751426,22.2411046 C123.751426,20.5024491 124.301623,19.0606373 125.402016,17.9368722 C126.523571,16.791904 127.962548,16.2194199 129.718945,16.2194199 Z M163.808791,16.3890448 C166.03074,16.3890448 167.998752,17.5128099 168.86637,19.3150747 L167.829461,19.9087619 C167.06765,18.4669501 165.522866,17.5552161 163.808791,17.5552161 C162.475622,17.5552161 161.354067,18.0004815 160.486449,18.9122155 C159.618831,19.8027463 159.174441,20.9477145 159.174441,22.3471201 C159.174441,23.7253226 159.597669,24.8702908 160.444126,25.7608216 C161.290583,26.6513525 162.369815,27.0966179 163.681823,27.0966179 C165.395898,27.0966179 167.025327,26.1212746 167.765977,24.7430721 L168.802886,25.3791656 C168.358496,26.2484933 167.660169,26.9481961 166.729067,27.478274 C165.797965,28.0083518 164.782217,28.2627892 163.681823,28.2627892 C162.010071,28.2627892 160.613417,27.7115082 159.534185,26.6089462 C158.454953,25.4851811 157.904756,24.0645724 157.904756,22.3471201 C157.904756,20.6084647 158.454953,19.187856 159.555347,18.0640909 C160.676902,16.9403258 162.094717,16.3890448 163.808791,16.3890448 Z M199.407423,12.606089 L199.407423,16.6236495 L203,16.6236495 L203,17.828219 L199.407423,17.828219 L199.407423,24.7878203 C199.407423,26.1683967 200.257181,26.9719587 201.250821,27.0392239 L201.387143,27.0438176 L203,27.0438176 L203,28.2483871 L201.387317,28.2483871 C199.576181,28.2483871 198.107586,26.8224449 198.011692,25.0549102 L198.006711,24.8708878 L198.006711,17.828219 L196.014947,17.828219 L196.014947,16.6236495 L198.006711,16.6236495 L198.006711,12.606089 L199.407423,12.606089 Z M172.463811,12 L172.463811,18.5729657 C173.140977,17.1523569 174.579953,16.3678417 176.378674,16.3678417 C177.66952,16.3678417 178.727591,16.791904 179.574048,17.6188255 C180.441666,18.445747 180.864894,19.6331214 180.864894,21.1597457 L180.864894,28.0083518 L179.595209,28.0083518 L179.595209,21.3717768 C179.595209,18.997028 178.325524,17.5552161 176.230544,17.5552161 C175.235957,17.5552161 174.368339,17.894466 173.627689,18.5729657 C172.88704,19.2514653 172.506134,20.2692149 172.506134,21.6262142 L172.506134,28.0083518 L171.236449,28.0083518 L171.236449,12 L172.463811,12 Z M143.189585,16.1982168 C143.676298,16.1982168 144.141849,16.2830292 144.565077,16.431451 L144.332302,19.0818404 C143.866751,18.9334186 143.422361,18.8486061 142.999132,18.8486061 C141.285058,18.8486061 140.100018,19.9935744 140.100018,22.3895264 L140.100018,28.0083518 L137.349034,28.0083518 L137.349034,16.4950604 L139.994211,16.4950604 L139.994211,18.085294 C140.692538,16.8343102 141.77177,16.1982168 143.189585,16.1982168 Z M84.3552544,12.3392498 L84.3552544,25.2307438 L92.3965931,25.2307438 L92.3965931,28.0083518 L81.4561402,28.0083518 L81.4561402,12.3392498 L84.3552544,12.3392498 Z M188.497777,17.5552161 C187.206931,17.5552161 186.127699,18.0216847 185.302403,18.9334186 C184.477108,19.8451526 184.075041,20.9901208 184.075041,22.325917 C184.075041,23.6829164 184.477108,24.8278846 185.302403,25.7396185 C186.127699,26.6513525 187.206931,27.117821 188.497777,27.117821 C189.809785,27.117821 190.889018,26.6513525 191.735474,25.7184154 C192.581931,24.7854784 193.005159,23.6405101 193.005159,22.2835108 C193.005159,20.9689176 192.581931,19.8451526 191.735474,18.9334186 C190.889018,18.0216847 189.809785,17.5552161 188.497777,17.5552161 Z M70.8846146,14.8836236 C69.4244768,14.8836236 68.1971146,15.3924984 67.202528,16.4102479 C66.2079413,17.4279974 65.7000673,18.7001843 65.7000673,20.2056055 C65.7000673,21.7110267 66.2079413,22.9620105 67.202528,23.9585569 C68.1971146,24.9551033 69.4244768,25.4427749 70.8846146,25.4427749 C72.3447524,25.4427749 73.5509532,24.9551033 74.5455399,23.9585569 C75.5401265,22.9620105 76.0480005,21.7110267 76.0480005,20.2056055 C76.0480005,18.7001843 75.5401265,17.4279974 74.5455399,16.4102479 C73.5509532,15.3924984 72.3447524,14.8836236 70.8846146,14.8836236 Z M101.308345,14.8836236 C99.848207,14.8836236 98.6208448,15.3924984 97.6262582,16.4102479 C96.6316715,17.4279974 96.1237975,18.7001843 96.1237975,20.2056055 C96.1237975,21.7110267 96.6316715,22.9620105 97.6262582,23.9585569 C98.6208448,24.9551033 99.848207,25.4427749 101.308345,25.4427749 C102.768483,25.4427749 103.974683,24.9551033 104.96927,23.9585569 C105.963857,22.9620105 106.471731,21.7110267 106.471731,20.2056055 C106.471731,18.7001843 105.963857,17.4279974 104.96927,16.4102479 C103.974683,15.3924984 102.768483,14.8836236 101.308345,14.8836236 Z M19.9606686,23.6 C26.342202,23.6 31.5579928,22.1413831 31.9218695,20.3025422 L31.9370698,20.2 L31.9370698,15.1 C31.9370698,17.0329966 26.5750524,18.6 19.9606686,18.6 C13.4643989,18.6 8.17616743,17.0884613 7.98937353,15.2031964 L7.98426745,15.1 L7.984,20.101 L7.984,20.102 L7.98426745,20.2 L7.98926745,20.2 L7.98426745,20.1 C7.98426745,22.0329966 13.3462849,23.6 19.9606686,23.6 Z M31.9370698,23.4 L31.9312675,23.4 L31.9370698,23.5 L31.9370698,23.4 Z M129.718945,18.5305594 C128.110678,18.5305594 126.925638,19.5271058 126.565894,21.1385426 L132.702705,21.1385426 C132.46993,19.5271058 131.306052,18.5305594 129.718945,18.5305594 Z M19.9606686,8 C13.3462849,8 7.98426745,9.56700338 7.98426745,11.5 C7.98426745,13.4329966 13.3462849,15 19.9606686,15 C26.5750524,15 31.9370698,13.4329966 31.9370698,11.5 C31.9370698,9.56700338 26.5750524,8 19.9606686,8 Z M31.937,15.097 L31.9370698,15 L31.9312675,15 L31.937,15.097 Z" id="Combined-Shape" fill="#000000"></path>
    </g>
</svg>