<?xml version="1.0" encoding="UTF-8"?>
<svg width="504px" height="504px" viewBox="0 0 504 504" version="1.1" xmlns="http://www.w3.org/2000/svg" xmlns:xlink="http://www.w3.org/1999/xlink">
    <!-- Generator: Sketch 60.1 (88133) - https://sketch.com -->
    <title>Illustrations/Spot Hero/Empty states/General</title>
    <desc>Created with Sketch.</desc>
    <defs>
        <path d="M1.99791392,188.31137 C26.2581723,184.349653 39.9868157,176.683971 43.1838442,165.314323 C49.2590651,143.708911 7.58255422,128.005354 1.99791392,134.279494 C-6.39525141,143.708911 36.4842607,158.974916 43.1838442,141.034105 C49.8834277,123.093295 21.9980941,108.596471 18.6976134,118.408351 C15.3971327,128.220232 52.8178593,130.49061 62.4471942,110.899003 C68.8667509,97.837931 61.4378496,86.7245852 40.1604904,77.5589653" id="path-1"></path>
        <mask id="mask-2" maskContentUnits="userSpaceOnUse" maskUnits="objectBoundingBox" x="0" y="0" width="63.765418" height="110.752405" fill="white">
            <use xlink:href="#path-1"></use>
        </mask>
    </defs>
    <g id="Illustrations/Spot-Hero/Empty-states/General" stroke="none" stroke-width="1" fill="none" fill-rule="evenodd">
        <g id="Group" transform="translate(52.000000, 51.999907)">
            <g id="box" transform="translate(66.015190, 14.663385)">
                <g transform="translate(0.000000, 150.051646)" id="Path">
                    <polygon fill="#EBECF0" points="110.751895 0.0990136709 0.343995949 51.0563484 110.751895 102.013683 221.160304 51.0563484"></polygon>
                    <path d="M218.693128,183.835723 L110.752405,233.6544 L110.752405,102.013683 L221.160814,51.0563484 L221.160814,179.979804 C221.160814,181.635986 220.197217,183.141096 218.693128,183.835723 Z" fill="#F4F5F7"></path>
                    <path d="M2.81066127,183.835723 L110.751895,233.6544 L110.751895,102.013683 L0.343995949,51.0563484 L0.343995949,179.979293 C0.343995949,181.635986 1.30708253,183.141096 2.81066127,183.835723 Z" fill="#DFE1E6"></path>
                    <polygon fill="#DFE1E6" points="221.160304 51.0563484 110.751895 0.0990136709 110.751895 102.013683"></polygon>
                </g>
                <g id="object" transform="translate(36.984304, 34.565570)">
                    <use id="Path-6" stroke="#DFE1E6" mask="url(#mask-2)" stroke-width="8" fill-opacity="0" fill="#FFFFFF" stroke-dasharray="4,4" transform="translate(32.796361, 132.935168) scale(-1, 1) translate(-32.796361, -132.935168) " xlink:href="#path-1"></use>
                    <g id="head" transform="translate(58.500000, 42.500000) scale(-1, 1) translate(-58.500000, -42.500000) translate(11.000000, 0.000000)">
                        <path d="M76.3017722,5.68434189e-14 C86.3083329,5.68434189e-14 94.4202532,8.11192026 94.4202532,18.118481 C94.4202532,26.7872701 88.3323061,34.0341429 80.1986436,35.8168678 C84.0029963,40.9197633 86.2541772,47.2471125 86.2541772,54.1002532 C86.2541772,71.0127502 72.5438895,84.723038 55.6313924,84.723038 C38.7188954,84.723038 25.0086076,71.0127502 25.0086076,54.1002532 C25.0086076,53.6413922 25.0187,53.1848884 25.0386749,52.7309517 C22.906906,53.6135567 20.5695306,54.1002532 18.118481,54.1002532 C8.11192026,54.1002532 -1.70530257e-13,45.9883329 -1.70530257e-13,35.9817722 C-1.70530257e-13,25.9752114 8.11192026,17.8632911 18.118481,17.8632911 C26.393696,17.8632911 33.3731774,23.4109861 35.5406428,30.9900935 C40.9165836,26.310747 47.9431142,23.4774684 55.6313924,23.4774684 C56.7865091,23.4774684 57.926688,23.5414246 59.0485812,23.6659891 C58.486682,21.9180058 58.1832911,20.0536738 58.1832911,18.118481 C58.1832911,8.11192026 66.2952114,5.68434189e-14 76.3017722,5.68434189e-14 Z" id="Path" fill="#DFE1E6"></path>
                        <circle id="Oval-Copy-6" fill="#FFFFFF" cx="38.7888608" cy="55.6313924" r="8.16607595"></circle>
                        <circle id="Oval-Copy-8" fill="#DFE1E6" cx="36.236962" cy="55.6313924" r="4.08303797"></circle>
                        <circle id="Oval-Copy-7" fill="#FFFFFF" cx="66.3493671" cy="41.8511392" r="8.16607595"></circle>
                        <circle id="Oval-Copy-9" fill="#DFE1E6" cx="68.9012658" cy="43.3822785" r="4.08303797"></circle>
                        <path d="M66.8130655,60.1409579 C67.8998009,59.9432718 68.9410304,60.6639886 69.1387165,61.7507241 C69.8527996,65.6762367 68.569564,68.7756439 65.3674663,70.5740867 C62.2044514,72.3505789 58.7868685,71.8972195 55.4600548,69.4058492 C54.5759224,68.7437438 54.3959339,67.4902703 55.0580393,66.6061379 C55.7201447,65.7220054 56.9736182,65.542017 57.8577506,66.2041224 C59.9907162,67.8014487 61.7259157,68.0316316 63.4086864,67.0865115 C65.0523742,66.1633421 65.6244263,64.7816609 65.2032993,62.4666089 C65.0056131,61.3798735 65.72633,60.338644 66.8130655,60.1409579 Z" id="Path" fill="#FFFFFF"></path>
                    </g>
                </g>
                <g id="lid" transform="translate(171.923544, -0.000000)">
                    <polygon id="Path-8" fill="#DFE1E6" points="37.6534768 161.409478 80.5038379 143.630222 39.7376479 5.68434189e-14 -4.26325641e-13 14.5774179"></polygon>
                    <polygon id="Path-9" fill="#F4F5F7" points="37.6534768 161.409478 80.5038379 143.630222 160.412352 212.021971 122.944968 229.464873"></polygon>
                    <polygon id="Path-10" fill="#EBECF0" points="80.5038379 143.630222 39.7376479 4.26325641e-13 118.233734 85.2334177 160.412352 212.021971"></polygon>
                </g>
            </g>
            <g id="firework" fill="#EBECF0">
                <path d="M27.777857,113.868302 C30.1102925,113.840595 32.129938,111.800534 32.1262974,109.47539 C32.1226469,107.096291 30.0038418,105.031441 27.6276595,105.091228 C25.3047026,105.150286 23.2792241,107.262529 23.3499481,109.551947 C23.4221304,111.915734 25.4541709,113.896737 27.777857,113.868302 M36.5090716,109.513304 C36.4878519,114.483674 32.6213608,118.261213 27.5656849,118.251752 C22.8096747,118.241527 18.9373507,114.281709 18.956962,109.446955 C18.9774519,104.499917 22.9022722,100.665507 27.9098266,100.699046 C32.6877102,100.732585 36.5286823,104.6698 36.5090716,109.513304" id="Fill-1"></path>
                <path d="M167.10283,8.76559526 C168.237331,8.74080539 169.27486,7.66609146 169.251528,6.54033957 C169.228197,5.42187881 168.133068,4.36466362 167.024085,4.38872438 C165.889584,4.41351425 164.851326,5.48895729 164.874657,6.61398007 C164.898718,7.73244083 165.993847,8.78965602 167.10283,8.76559526 M173.640834,6.58044083 C173.626941,10.3324611 170.724338,13.1723598 166.919822,13.1549415 C163.348622,13.1373624 160.472997,10.1968459 160.486076,6.57387881 C160.498516,2.82258767 163.403306,-0.0187692948 167.207093,9.33670749e-05 C170.778293,0.0169572875 173.653189,2.95747374 173.640834,6.58044083" id="Fill-3"></path>
                <polygon id="Fill-13" points="181.63038 15.8801946 184.387159 15.8801946 184.387159 13.124144 181.63038 13.124144"></polygon>
                <path d="M14.2819639,242.875566 C17.9628786,242.831844 21.1501663,239.612519 21.1444209,235.943318 C21.1386599,232.188974 17.7948843,228.93053 14.044931,229.024877 C10.3789747,229.118074 7.18248177,232.451306 7.29409437,236.064129 C7.40800827,239.794311 10.614857,242.920438 14.2819639,242.875566 M27.7064462,235.644907 C27.6729506,243.490363 21.5696229,249.453001 13.5891451,249.438068 C6.08169523,249.421928 -0.0308398043,243.171573 0.000117069132,235.540178 C0.0324607844,227.73155 6.22786204,221.679144 14.1323792,221.732084 C21.6743566,221.785023 27.7374021,227.999702 27.7064462,235.644907" id="Fill-1"></path>
                <path d="M160.616798,212.765689 C161.751299,212.740899 162.788828,211.666185 162.765497,210.540433 C162.742165,209.421972 161.647036,208.364757 160.538054,208.388818 C159.403552,208.413608 158.365294,209.489051 158.388626,210.614073 C158.412687,211.732534 159.507816,212.789749 160.616798,212.765689 M167.154803,210.580534 C167.140909,214.332554 164.238307,217.172453 160.43379,217.155035 C156.86259,217.137456 153.986965,214.196939 154.000044,210.573972 C154.012484,206.822681 156.917274,203.981324 160.721061,204.000187 C164.292261,204.017051 167.167158,206.957567 167.154803,210.580534" id="Fill-3"></path>
                <path d="M311.456702,266.163957 C312.633844,266.323903 314.32283,265.754612 314.304376,267.686603 C314.286408,269.556853 312.641129,268.996313 311.422223,269.172788 C311.422223,269.661377 311.440191,270.137811 311.417852,270.611815 C311.37706,271.476204 310.795288,272.041119 309.972162,272.045024 C309.138839,272.048412 308.558523,271.498567 308.512875,270.629803 C308.48908,270.175246 308.50899,269.718743 308.50899,269.120283 C308.006859,269.120283 307.534837,269.136812 307.063786,269.116394 C306.144507,269.077015 305.560792,268.480499 305.580217,267.625834 C305.598671,266.814922 306.178501,266.237853 307.040961,266.199933 C307.491617,266.18 307.943243,266.196043 308.444403,266.196043 C308.63428,264.977732 308.063677,263.28493 310.131446,263.291233 C311.111426,263.294167 311.365891,263.910129 311.456702,266.163957" id="Fill-6"></path>
                <path d="M18.7159146,209.550978 C20.7253227,209.671961 21.1591538,209.904588 21.1599672,210.808303 C21.161181,211.715266 20.7265391,211.949112 18.7203746,212.06644 C18.7203746,212.451311 18.733349,212.845925 18.7175364,213.239727 C18.6875331,213.998507 18.1803157,214.492587 17.4679408,214.477565 C16.7916509,214.46295 16.3197076,213.983486 16.2852444,213.252719 C16.2674046,212.876374 16.2820008,212.498405 16.2820008,212.087145 C15.2959474,211.9008 13.9052553,212.4302 13.8541687,210.744564 C13.8286254,209.897686 14.2811071,209.691854 16.2824062,209.549354 C16.2824062,209.166513 16.2698373,208.771899 16.2852444,208.378503 C16.3156531,207.616882 16.818816,207.130922 17.5372727,207.150003 C18.2269424,207.168272 18.6830732,207.635557 18.7134819,208.375661 C18.7284836,208.7516 18.7159146,209.128351 18.7159146,209.550978" id="Fill-8"></path>
                <path d="M54.764557,76.4610588 C57.2667874,75.8543058 59.181319,75.5509293 60.5081519,75.5509293 C61.8349848,75.5509293 63.7495164,75.8543058 66.2517468,76.4610588 L66.2517468,73.6554284 C64.6291922,73.2134751 62.8163154,72.9924984 60.8131165,72.9924984 C58.8099176,72.9924984 56.7937311,73.2134751 54.764557,73.6554284 L54.764557,76.4610588 Z" id="Fill-12" transform="translate(60.508152, 74.726779) rotate(36.000000) translate(-60.508152, -74.726779) "></path>
                <polygon id="Fill-13" points="234.855696 236.882726 237.612476 236.882726 237.612476 234.126676 234.855696 234.126676"></polygon>
                <polygon id="Fill-13-Copy" points="131.321519 144.285258 134.078299 144.285258 134.078299 141.529207 131.321519 141.529207"></polygon>
                <path d="M314.329114,230.509879 C316.871416,229.700176 318.786312,229.295324 320.073803,229.295324 C321.361293,229.295324 322.855369,228.438453 324.55603,226.724711 L324.55603,224.648195 C322.112449,226.431171 320.246502,227.322659 318.95819,227.322659 C317.669878,227.322659 316.126853,227.692893 314.329114,228.433362 L314.329114,230.509879 Z" id="Fill-14"></path>
                <polygon id="Fill-15" points="237.772152 167.666483 240.512162 167.666483 240.512162 164.860853 237.772152 164.860853"></polygon>
                <polygon id="Fill-16" transform="translate(61.584973, 164.430668) rotate(84.000000) translate(-61.584973, -164.430668) " points="59.0330747 172.450921 64.1368721 172.450921 64.1368721 156.410415 59.0330747 156.410415"></polygon>
            </g>
        </g>
    </g>
</svg>