<svg height="504" viewBox="0 0 504 504" width="504" xmlns="http://www.w3.org/2000/svg"><path d="m335.333333 168.666667h-166.666666c-7.229167 0-14.125 1.208333-20.833334 2.958333v-23.791667h72.916667c5.75 0 10.416667-4.666666 10.416667-10.416666v-41.666667c0-5.75-4.666667-10.4166667-10.416667-10.4166667h-83.333333c-5.75 0-10.416667 4.6666667-10.416667 10.4166667v84.5c-24.791667 14.458333-41.6666667 41.041667-41.6666667 71.75v114.583333c0 5.75 4.6666667 10.416667 10.4166667 10.416667h177.083333v31.25c0 5.75 4.666667 10.416667 10.416667 10.416667h20.833333c5.75 0 10.416667-4.666667 10.416667-10.416667v-31.25h93.75c5.75 0 10.416667-4.666667 10.416667-10.416667v-114.583333c0-46.020833-37.3125-83.333333-83.333334-83.333333zm-104.166666 187.5h-125v-104.166667c0-34.458333 28.041666-62.5 62.5-62.5 34.458333 0 62.5 28.041667 62.5 62.5z" fill="#dfe1e6"/></svg>
