<?xml version="1.0" encoding="UTF-8"?>
<svg width="504px" height="504px" viewBox="0 0 504 504" version="1.1" xmlns="http://www.w3.org/2000/svg" xmlns:xlink="http://www.w3.org/1999/xlink">
    <!-- Generator: Sketch 60.1 (88133) - https://sketch.com -->
    <title>Illustrations/Spot Hero/Empty states/Notification</title>
    <desc>Created with Sketch.</desc>
    <g id="Illustrations/Spot-Hero/Empty-states/Notification" stroke="none" stroke-width="1" fill="none" fill-rule="evenodd">
        <g id="sleeping-bell" transform="translate(121.000000, 91.000000)">
            <g id="Group-2" transform="translate(0.000000, 10.150030)">
                <path d="M131.950392,310.590922 C149.026325,310.590922 162.997543,296.614331 162.997543,279.53183 L100.903241,279.53183 C100.903241,296.614331 114.874459,310.590922 131.950392,310.590922 Z M232.853632,217.413645 L232.853632,132.001142 C232.853632,83.859549 200.254124,45.0356837 155.235755,34.1650014 L155.235755,23.2943192 C155.235755,10.8706823 144.369252,0 131.950392,0 C119.531531,0 108.665028,10.8706823 108.665028,23.2943192 L108.665028,34.1650014 C63.6466595,45.0356837 31.047151,83.859549 31.047151,132.001142 L31.047151,217.413645 L1.70530257e-13,248.472738 L1.70530257e-13,264.002284 L263.900783,264.002284 L263.900783,248.472738 L232.853632,217.413645 Z" id="Shape" fill="#DFE1E6"></path>
                <path d="M93.4487782,143.385867 C94.9737234,141.758971 97.5425719,141.663544 99.1864617,143.172725 C100.830352,144.681906 100.926775,147.224198 99.40183,148.851093 C93.5724473,155.0702 87.5034188,158.34047 81.2002589,158.34047 C74.897099,158.34047 68.8280706,155.0702 62.9986878,148.851093 C61.4737426,147.224198 61.5701662,144.681906 63.2140561,143.172725 C64.857946,141.663544 67.4267944,141.758971 68.9517396,143.385867 C73.375482,148.105359 77.4564836,150.304389 81.2002589,150.304389 C84.9440342,150.304389 89.0250358,148.105359 93.4487782,143.385867 Z" id="Path-3" fill="#FFFFFF" fill-rule="nonzero"></path>
                <circle id="Oval" fill="#FFFFFF" cx="132.965395" cy="190.820566" r="8.12002411"></circle>
                <path d="M193.932376,143.385867 C195.457321,141.758971 198.02617,141.663544 199.67006,143.172725 C201.31395,144.681906 201.410373,147.224198 199.885428,148.851093 C194.056045,155.0702 187.987017,158.34047 181.683857,158.34047 C175.380697,158.34047 169.311669,155.0702 163.482286,148.851093 C161.957341,147.224198 162.053764,144.681906 163.697654,143.172725 C165.341544,141.663544 167.910392,141.758971 169.435338,143.385867 C173.85908,148.105359 177.940082,150.304389 181.683857,150.304389 C185.427632,150.304389 189.508634,148.105359 193.932376,143.385867 Z" id="Path-3-Copy" fill="#FFFFFF" fill-rule="nonzero"></path>
            </g>
            <path d="M236.596796,46.6901386 L236.596796,50.079198 L220.996774,70.7757438 L237.372916,70.7757438 L237.372916,74.6822168 L215.15,74.6822168 L215.15,71.163804 L230.594797,50.648353 L215.382836,50.648353 L215.382836,46.6901386 L236.596796,46.6901386 Z M277.458398,20.3000603 L277.458398,25.0135796 L255.761817,53.7984307 L278.53783,53.7984307 L278.53783,59.2315714 L247.630096,59.2315714 L247.630096,54.3381467 L269.110792,25.805163 L247.953926,25.805163 L247.953926,20.3000603 L277.458398,20.3000603 Z M320.378951,-7.10542736e-14 L320.378951,5.88216053 L293.303051,41.8037515 L321.72601,41.8037515 L321.72601,48.5839519 L283.155202,48.5839519 L283.155202,42.4772814 L309.961689,6.87000428 L283.55932,6.87000428 L283.55932,-7.10542736e-14 L320.378951,-7.10542736e-14 Z" id="Combined-Shape" fill="#DFE1E6"></path>
        </g>
    </g>
</svg>