<?xml version="1.0" encoding="UTF-8"?>
<svg width="504px" height="504px" viewBox="0 0 504 504" version="1.1" xmlns="http://www.w3.org/2000/svg" xmlns:xlink="http://www.w3.org/1999/xlink">
    <!-- Generator: Sketch 60.1 (88133) - https://sketch.com -->
    <title>Illustrations/Spot Hero/Empty states/Search result</title>
    <desc>Created with Sketch.</desc>
    <g id="Illustrations/Spot-Hero/Empty-states/Search-result" stroke="none" stroke-width="1" fill="none" fill-rule="evenodd">
        <g id="binoculars" transform="translate(82.000000, 130.000000)">
            <g id="Group">
                <path d="M96.4819253,13.3189527 L101.102888,2.93893843 C106.130568,-8.8817842e-14 112.537326,-0.734734608 120.323162,0.734734608 C128.108998,2.20420382 133.385289,5.14387793 136.152034,9.55375693 L135.052524,26.6379054 L96.4819253,13.3189527 Z" id="Path-2" fill="#EBECF0"></path>
                <path d="M6.45309386,145.345568 L85.9957379,15.4455678 C96.5908702,11.1751204 106.96312,10.6072672 117.112486,13.7420082 C127.261853,16.8767493 134.424357,22.6452816 138.6,31.0476053 L138.6,182.172974 L6.45309386,145.345568 Z" id="Path" fill="#DFE1E6"></path>
                <circle id="Oval" fill="#FFFFFF" cx="69.3" cy="175.945568" r="69.3"></circle>
                <circle id="Oval-Copy" fill="#DFE1E6" cx="69.3" cy="175.945568" r="50.7"></circle>
                <circle id="Oval-Copy-2" fill="#FFFFFF" cx="68.7" cy="145.345568" r="12.9"></circle>
            </g>
            <g id="Group-Copy" transform="translate(267.700000, 123.000000) scale(-1, 1) translate(-267.700000, -123.000000) translate(198.200000, 0.000000)">
                <path d="M96.4819253,13.3189527 L101.102888,2.93893843 C106.130568,-8.8817842e-14 112.537326,-0.734734608 120.323162,0.734734608 C128.108998,2.20420382 133.385289,5.14387793 136.152034,9.55375693 L135.052524,26.6379054 L96.4819253,13.3189527 Z" id="Path-2" fill="#EBECF0"></path>
                <path d="M6.45309386,145.345568 L85.9957379,15.4455678 C96.5908702,11.1751204 106.96312,10.6072672 117.112486,13.7420082 C127.261853,16.8767493 134.424357,22.6452816 138.6,31.0476053 L138.6,182.172974 L6.45309386,145.345568 Z" id="Path" fill="#DFE1E6"></path>
                <circle id="Oval" fill="#FFFFFF" cx="69.3" cy="175.945568" r="69.3"></circle>
                <circle id="Oval-Copy" fill="#DFE1E6" cx="69.3" cy="175.945568" r="50.7"></circle>
                <circle id="Oval-Copy-2" fill="#FFFFFF" cx="68.7" cy="145.345568" r="12.9"></circle>
            </g>
            <rect id="Rectangle" fill="#DFE1E6" x="138.6" y="68.8455678" width="60" height="41.4"></rect>
            <rect id="Rectangle-Copy" fill="#EBECF0" x="138.6" y="110.245568" width="60" height="27.6"></rect>
        </g>
    </g>
</svg>