<?xml version="1.0" encoding="UTF-8"?>
<svg width="40px" height="40px" viewBox="0 0 40 40" version="1.1" xmlns="http://www.w3.org/2000/svg" xmlns:xlink="http://www.w3.org/1999/xlink">
    <title>Logos/Experts for EDU/Spot/Original@svg</title>
    <g id="Logos" stroke="none" stroke-width="1" fill="none" fill-rule="evenodd">
        <g id="Logos/Experts-for-EDU/Spot/Original">
            <path d="M9.72009516,39.9961582 C4.32667079,39.8479317 0,35.4292399 0,30 L0,30 L0,10 L0.00384179753,9.72009516 C0.152068282,4.32667079 4.57076009,0 10,0 L10,0 L30,0 C35.5228475,0 40,4.4771525 40,10 L40,10 L40,40 L40,40 L10,40 Z" id="Chat-shape" fill="#375DE7"></path>
            <path d="M30.3112327,19.2713223 L30.3112327,25.3987412 C30.7348421,25.6423112 31.020217,26.0987299 31.020217,26.6220707 C31.020217,27.1453646 30.7347952,27.6018302 30.3112327,27.8453534 L30.3112327,27.8453534 L30.3112327,31.2975292 C30.3112327,31.6854804 29.9964203,32 29.6081078,32 C29.2197954,32 28.9049829,31.6854804 28.9049829,31.2975292 L28.9049829,31.2975292 L28.9049829,27.8453066 C28.4814205,27.6017365 28.1959986,27.1453178 28.1959986,26.6220239 C28.1959986,26.0986831 28.4814205,25.6423112 28.9049829,25.3987412 L28.9049829,25.3987412 L28.9049829,19.7707791 L30.3112327,19.2713223 Z M27.0573113,20.4270273 L27.0573113,23.5182736 C27.0573113,24.2745537 26.2676082,24.91413 24.7101397,25.4191597 C23.3525461,25.8593747 21.6798119,26.1018208 19.9999996,26.1018208 C18.3201873,26.1018208 16.6474063,25.8593747 15.2898596,25.4191597 C13.732391,24.91413 12.942688,24.2745537 12.942688,23.5182736 L12.942688,23.5182736 L12.942688,20.4270273 L19.2934529,22.6826611 C19.5209372,22.7634453 19.7586403,22.8044228 19.9999996,22.8044228 C20.241359,22.8044228 20.4790621,22.7634453 20.7065933,22.6826611 L20.7065933,22.6826611 L27.0573113,20.4270273 Z M19.7660934,12.0400408 C19.9174528,11.9866531 20.0825934,11.9866531 20.2339527,12.0400408 L20.2339527,12.0400408 L31.5308263,16.0221606 C31.8116544,16.1211622 31.9996232,16.3862278 32.0000006,16.6837945 C32.0003263,16.9813611 31.8130138,17.2468482 31.5323732,17.3465054 L31.5323732,17.3465054 L20.2354996,21.3588783 C20.1593277,21.3859468 20.0796871,21.3994811 20.0000006,21.3994811 C19.920359,21.3994811 19.8406715,21.3859468 19.7644997,21.3588783 L19.7644997,21.3588783 L8.46762606,17.3465054 C8.18698547,17.2468482 7.99962612,16.9813611 8.00000056,16.6837945 C8.00037612,16.3862278 8.18834485,16.1211622 8.46921981,16.0221606 L8.46921981,16.0221606 Z" id="Combined-Shape" fill="#FFFFFF"></path>
        </g>
    </g>
</svg>