<?xml version="1.0" encoding="UTF-8"?>
<svg width="208px" height="40px" viewBox="0 0 208 40" version="1.1" xmlns="http://www.w3.org/2000/svg" xmlns:xlink="http://www.w3.org/1999/xlink">
    <title>Logos/Experts for EDU</title>
    <g id="Logos/Experts-for-EDU" stroke="none" stroke-width="1" fill="none" fill-rule="evenodd">
        <path d="M9.72009516,39.9961582 C4.32667079,39.8479317 0,35.4292399 0,30 L0,30 L0,10 L0.00384179753,9.72009516 C0.152068282,4.32667079 4.57076009,0 10,0 L10,0 L30,0 C35.5228475,0 40,4.4771525 40,10 L40,10 L40,40 L40,40 L10,40 Z" id="Chat-shape" fill="#375DE7"></path>
        <g id="Group" transform="translate(49.600000, 11.308800)" fill="#091D42">
            <polygon id="Path" fill-rule="nonzero" points="128.4 15.6912 128.4 13.0930945 121.190224 13.0930945 121.190224 9.39891313 127.850102 9.39891313 127.850102 6.82110528 121.190224 6.82110528 121.190224 3.28930555 128.4 3.28930555 128.4 0.6912 118.4 0.6912 118.4 15.6912"></polygon>
            <path d="M137.216327,0.6912 C139.440816,0.6912 141.195918,1.36102409 142.481633,2.72096996 C143.767347,4.06061813 144.4,5.8874111 144.4,8.22164655 C144.4,10.5152866 143.746939,12.3420796 142.440816,13.6817277 C141.155102,15.0213759 139.359184,15.6912 137.093878,15.6912 L137.093878,15.6912 L131.4,15.6912 L131.4,0.6912 Z M137.216327,3.35019865 L134.17551,3.35019865 L134.17551,13.0322014 L137.195918,13.0322014 C138.563265,13.0322014 139.604082,12.5653543 140.359184,11.6519578 C141.114286,10.7385613 141.502041,9.56129472 141.502041,8.16075345 C141.502041,6.78050988 141.134694,5.6438387 140.379592,4.73044222 C139.62449,3.81704574 138.583673,3.35019865 137.216327,3.35019865 L137.216327,3.35019865 Z" id="Combined-Shape" fill-rule="nonzero"></path>
            <path d="M152.389418,16.6912 C154.146032,16.6912 155.585185,16.1805617 156.706878,15.1805617 C157.828571,14.1592851 158.4,12.6912 158.4,10.7763064 L158.4,0.6912 L155.479365,0.6912 L155.479365,10.5209872 C155.479365,12.6699234 154.273016,13.8614128 152.389418,13.8614128 C150.463492,13.8614128 149.299471,12.7124766 149.299471,10.5209872 L149.299471,0.6912 L146.4,0.6912 L146.4,10.7763064 C146.4,12.6912 146.971429,14.1592851 148.093122,15.1805617 C149.214815,16.1805617 150.653968,16.6912 152.389418,16.6912 Z" id="Path" fill-rule="nonzero"></path>
            <polygon id="Path" points="10.3229218 16.4199631 -3.85469434e-13 16.4199631 -3.85469434e-13 0.883019785 10.3229218 0.883019785 10.3229218 3.5741277 2.88032644 3.5741277 2.88032644 7.23235252 9.75526619 7.23235252 9.75526619 9.90243616 2.88032644 9.90243616 2.88032644 13.7288552 10.3229218 13.7288552"></polygon>
            <polygon id="Path" points="18.9008283 10.6593103 22.6221259 16.4199631 19.4684838 16.4199631 17.1347887 12.5514955 14.7380207 16.4199631 11.5633543 16.4199631 15.3897734 10.5752131 11.9628157 5.00377878 15.1164577 5.00377878 17.1978615 8.61995504 19.405411 5.00377878 22.5170045 5.00377878"></polygon>
            <path d="M30.4971074,4.73046313 C32.115977,4.73046313 33.461531,5.31914299 34.5337693,6.47547842 C35.6060076,7.63181386 36.1316146,9.04044065 36.1316146,10.7013588 C36.1316146,12.3833013 35.5849833,13.8129523 34.512745,14.9692878 C33.4405067,16.1256232 32.0949527,16.6932788 30.4760831,16.6932788 C29.0254078,16.6932788 27.7849752,16.1256232 26.796834,14.9903121 L26.796834,21.1083777 L24.0426533,21.1083777 L24.0426533,5.00377878 L26.7758097,5.00377878 L26.7758097,6.51752698 C27.7639509,5.31914299 29.0043835,4.73046313 30.4971074,4.73046313 Z M30.0555975,7.2533768 C29.0674563,7.2533768 28.2685337,7.58976529 27.6588295,8.26254227 C27.0491254,8.93531925 26.7337612,9.75526619 26.7337612,10.7223831 C26.7337612,11.7105243 27.0491254,12.5304712 27.6588295,13.2032482 C28.2685337,13.8550009 29.0674563,14.1913894 30.0555975,14.1913894 C31.0437387,14.1913894 31.8426614,13.8550009 32.4523655,13.2032482 C33.0620696,12.5304712 33.3774338,11.7105243 33.3774338,10.7223831 C33.3774338,9.73424191 33.0620696,8.91429497 32.4523655,8.26254227 C31.8426614,7.58976529 31.0437387,7.2533768 30.0555975,7.2533768 Z" id="Combined-Shape" fill-rule="nonzero"></path>
            <path d="M43.0212317,4.73046313 C44.6821498,4.73046313 46.0277038,5.25607015 47.0789178,6.2862599 C48.1511561,7.31644965 48.6767632,8.70405217 48.6767632,10.4700917 C48.6767632,10.7854559 48.6557389,11.1849173 48.592666,11.6895 L39.8886139,11.6895 C40.2460266,13.2663211 41.4233864,14.3175351 43.3786444,14.3175351 C44.766247,14.3175351 46.0277038,13.9180738 47.1419907,13.1401754 L48.2352533,15.0954335 C46.8266265,16.1466475 45.1657083,16.6722545 43.273523,16.6722545 C38.9845698,16.6722545 37.0923845,13.7288552 37.0923845,10.7013588 C37.0923845,8.97736781 37.6390158,7.54771673 38.7322784,6.43342986 C39.8465653,5.29811871 41.2762164,4.73046313 43.0212317,4.73046313 Z M43.0212317,7.02210972 C41.4233864,7.02210972 40.2460266,8.01025091 39.8886139,9.60809623 L45.9856552,9.60809623 C45.7543882,8.01025091 44.5980527,7.02210972 43.0212317,7.02210972 Z" id="Combined-Shape" fill-rule="nonzero"></path>
            <path d="M53.1366874,16.4199631 L50.403531,16.4199631 L50.403531,5.00377878 L53.031566,5.00377878 L53.031566,6.58059983 C53.7253673,5.34016727 54.7976056,4.70943885 56.2062324,4.70943885 C56.6897909,4.70943885 57.152325,4.79353598 57.5728106,4.94070594 L57.3415436,7.56874101 C56.8790094,7.42157105 56.4374995,7.33747393 56.0170139,7.33747393 C54.3140471,7.33747393 53.1366874,8.47278508 53.1366874,10.8485288 L53.1366874,16.4199631 Z" id="Path"></path>
            <path d="M63.4695263,7.3707235 L66.4446604,7.3707235 L66.4446604,4.97369474 L63.4695263,4.97369474 L63.4695263,0.949266103 L60.6886867,0.949266103 L60.6886867,4.97369474 L58.9076541,4.97369474 L58.9076541,7.3707235 L60.6886867,7.3707235 L60.6886867,13.2350321 C60.6886867,15.0897181 62.1863733,16.6183054 64.0483619,16.6183054 L66.4446604,16.6183054 L66.4446604,14.2212766 L64.6433887,14.2212766 C63.9957405,14.2212766 63.4695263,13.6913664 63.4695263,13.0391691 L63.4695263,7.3707235 Z" id="Shape-Copy-2" fill-rule="nonzero"></path>
            <path d="M72.2898071,16.7143031 C70.4396704,16.7143031 68.7577279,15.9364047 67.6854896,14.4436808 L69.2412864,12.7617383 C69.9981605,13.7709038 71.1965445,14.3806079 72.3108313,14.3806079 C73.2989725,14.3806079 73.9927738,13.8550009 73.9927738,13.1822239 C73.9927738,12.740714 73.6984339,12.362277 73.1307783,12.0889613 C72.9415598,11.9838399 72.4790256,11.7946214 71.7431758,11.5213058 C71.0283502,11.2479901 70.5447918,11.0377473 70.2925004,10.9116016 C69.0100193,10.2808732 68.3792909,9.3137563 68.3792909,8.01025091 C68.3792909,7.02210972 68.7577279,6.20216277 69.514602,5.57143436 C70.2714761,4.94070594 71.2806416,4.62534173 72.5210741,4.62534173 C74.1399437,4.62534173 75.4434491,5.19299731 76.4315903,6.30728418 L75.0019392,8.05229947 C74.2660894,7.27440108 73.4040939,6.87493975 72.436977,6.87493975 C71.5749815,6.87493975 71.0493745,7.33747393 71.0493745,7.94717806 C71.0493745,8.4517608 71.385763,8.83019785 72.0375157,9.06146494 C73.6774096,9.71321763 74.6024779,10.0916547 74.7916964,10.1967761 C76.0741776,10.8905773 76.7259303,11.8576943 76.7259303,13.0981268 C76.7259303,14.1283166 76.3264689,14.9903121 75.506522,15.6841133 C74.686575,16.3779146 73.6143367,16.7143031 72.2898071,16.7143031 Z" id="Path"></path>
            <path d="M89.4364963,2.45984083 C88.0278695,2.45984083 87.2499711,3.19569065 87.2499711,4.54124461 L87.2499711,5.00377878 L90.8240988,5.00377878 L90.8240988,7.31644965 L87.2499711,7.31644965 L87.2499711,16.4199631 L84.5168146,16.4199631 L84.5168146,7.31644965 L82.7087265,7.31644965 L82.7087265,5.00377878 L84.5168146,5.00377878 L84.5168146,4.47817177 C84.5168146,1.59784533 86.345927,-1.95399252e-14 89.0580592,-1.95399252e-14 C90.088249,-1.95399252e-14 91.1184387,0.252291367 92.1276042,0.777898382 L91.2656087,2.922375 C90.5507831,2.60701079 89.941079,2.45984083 89.4364963,2.45984083 Z" id="Path"></path>
            <path d="M97.4915725,4.70943885 C99.2786364,4.70943885 100.729312,5.29811871 101.864623,6.45445414 C103.020958,7.61078957 103.588614,9.01941637 103.588614,10.7013588 C103.588614,12.4043255 103.020958,13.8339766 101.864623,14.9903121 C100.729312,16.1466475 99.2786364,16.7143031 97.4915725,16.7143031 C95.7045087,16.7143031 94.2538333,16.1466475 93.0974979,14.9903121 C91.9621867,13.8339766 91.3945312,12.4043255 91.3945312,10.7013588 C91.3945312,9.01941637 91.9621867,7.61078957 93.0974979,6.45445414 C94.2538333,5.29811871 95.7045087,4.70943885 97.4915725,4.70943885 Z M97.4915725,7.2533768 C96.5454799,7.2533768 95.7675815,7.58976529 95.1158288,8.26254227 C94.4640761,8.93531925 94.1487119,9.75526619 94.1487119,10.7013588 C94.1487119,11.6684757 94.4640761,12.4884227 95.1158288,13.1611997 C95.7675815,13.8339766 96.5454799,14.1703651 97.4915725,14.1703651 C98.4376652,14.1703651 99.2155635,13.8339766 99.8673162,13.1611997 C100.519069,12.4884227 100.834433,11.6684757 100.834433,10.7013588 C100.834433,9.75526619 100.519069,8.93531925 99.8673162,8.26254227 C99.2155635,7.58976529 98.4376652,7.2533768 97.4915725,7.2533768 Z" id="Combined-Shape" fill-rule="nonzero"></path>
            <path d="M107.87122,16.4199631 L105.138064,16.4199631 L105.138064,5.00377878 L107.766099,5.00377878 L107.766099,6.58059983 C108.4599,5.34016727 109.532138,4.70943885 110.940765,4.70943885 C111.424324,4.70943885 111.886858,4.79353598 112.307343,4.94070594 L112.076076,7.56874101 C111.613542,7.42157105 111.172032,7.33747393 110.751547,7.33747393 C109.04858,7.33747393 107.87122,8.47278508 107.87122,10.8485288 L107.87122,16.4199631 Z" id="Path"></path>
        </g>
        <path d="M30.3112327,19.2713223 L30.3112327,25.3987412 C30.7348421,25.6423112 31.020217,26.0987299 31.020217,26.6220707 C31.020217,27.1453646 30.7347952,27.6018302 30.3112327,27.8453534 L30.3112327,27.8453534 L30.3112327,31.2975292 C30.3112327,31.6854804 29.9964203,32 29.6081078,32 C29.2197954,32 28.9049829,31.6854804 28.9049829,31.2975292 L28.9049829,31.2975292 L28.9049829,27.8453066 C28.4814205,27.6017365 28.1959986,27.1453178 28.1959986,26.6220239 C28.1959986,26.0986831 28.4814205,25.6423112 28.9049829,25.3987412 L28.9049829,25.3987412 L28.9049829,19.7707791 L30.3112327,19.2713223 Z M27.0573113,20.4270273 L27.0573113,23.5182736 C27.0573113,24.2745537 26.2676082,24.91413 24.7101397,25.4191597 C23.3525461,25.8593747 21.6798119,26.1018208 19.9999996,26.1018208 C18.3201873,26.1018208 16.6474063,25.8593747 15.2898596,25.4191597 C13.732391,24.91413 12.942688,24.2745537 12.942688,23.5182736 L12.942688,23.5182736 L12.942688,20.4270273 L19.2934529,22.6826611 C19.5209372,22.7634453 19.7586403,22.8044228 19.9999996,22.8044228 C20.241359,22.8044228 20.4790621,22.7634453 20.7065933,22.6826611 L20.7065933,22.6826611 L27.0573113,20.4270273 Z M19.7660934,12.0400408 C19.9174528,11.9866531 20.0825934,11.9866531 20.2339527,12.0400408 L20.2339527,12.0400408 L31.5308263,16.0221606 C31.8116544,16.1211622 31.9996232,16.3862278 32.0000006,16.6837945 C32.0003263,16.9813611 31.8130138,17.2468482 31.5323732,17.3465054 L31.5323732,17.3465054 L20.2354996,21.3588783 C20.1593277,21.3859468 20.0796871,21.3994811 20.0000006,21.3994811 C19.920359,21.3994811 19.8406715,21.3859468 19.7644997,21.3588783 L19.7644997,21.3588783 L8.46762606,17.3465054 C8.18698547,17.2468482 7.99962612,16.9813611 8.00000056,16.6837945 C8.00037612,16.3862278 8.18834485,16.1211622 8.46921981,16.0221606 L8.46921981,16.0221606 Z" id="Combined-Shape" fill="#FFFFFF" fill-rule="nonzero"></path>
    </g>
</svg>