<?xml version="1.0" encoding="UTF-8"?>
<svg width="40px" height="40px" viewBox="0 0 40 40" version="1.1" xmlns="http://www.w3.org/2000/svg" xmlns:xlink="http://www.w3.org/1999/xlink">
    <title>Logos/Experts for EDU/Spot/Black@svg</title>
    <g id="Logos" stroke="none" stroke-width="1" fill="none" fill-rule="evenodd">
        <g id="Combined-Shape" fill="#000000">
            <path d="M30,0 C35.4292399,0 39.8479317,4.32667079 39.9961582,9.72009516 L40,10 L40,40 L10,40 L9.72009516,39.9961582 C4.41966086,39.8504873 0.149512653,35.5803391 0.00384179753,30.2799048 L0,30 L0,10 L0.00384179753,9.72009516 C0.149512653,4.41966086 4.41966086,0.149512653 9.72009516,0.00384179753 L10,0 L30,0 Z M30.3112327,19.2713223 L28.9049829,19.7707791 L28.9049829,25.3987412 L28.7822057,25.4780504 C28.4271903,25.7342553 28.1959986,26.1510172 28.1959986,26.6220239 C28.1959986,27.1453178 28.4814205,27.6017365 28.9049829,27.8453066 L28.9049829,27.8453066 L28.9049829,31.2975292 L28.9114019,31.3928476 C28.9579621,31.7357162 29.2521547,32 29.6081078,32 C29.9964203,32 30.3112327,31.6854804 30.3112327,31.2975292 L30.3112327,31.2975292 L30.3112327,27.8453534 L30.43401,27.7660543 C30.7890253,27.5098688 31.020217,27.0930352 31.020217,26.6220707 C31.020217,26.0987299 30.7348421,25.6423112 30.3112327,25.3987412 L30.3112327,25.3987412 L30.3112327,19.2713223 Z M27.0573113,20.4270273 L20.7065933,22.6826611 L20.5341395,22.7357672 C20.359982,22.7813729 20.1810191,22.8044228 19.9999996,22.8044228 C19.7586403,22.8044228 19.5209372,22.7634453 19.2934529,22.6826611 L19.2934529,22.6826611 L12.942688,20.4270273 L12.942688,23.5182736 L12.9492474,23.6367138 C13.0279414,24.3415048 13.8143631,24.9407105 15.2898596,25.4191597 C16.6474063,25.8593747 18.3201873,26.1018208 19.9999996,26.1018208 C21.6798119,26.1018208 23.3525461,25.8593747 24.7101397,25.4191597 C26.2676082,24.91413 27.0573113,24.2745537 27.0573113,23.5182736 L27.0573113,23.5182736 L27.0573113,20.4270273 Z M20.1417039,12.0144147 C20.0170884,11.9887886 19.8871809,11.9973306 19.7660934,12.0400408 L19.7660934,12.0400408 L8.46921981,16.0221606 L8.37916568,16.0611284 C8.14888999,16.1804669 8.00033439,16.4192908 8.00000056,16.6837945 C7.99962612,16.9813611 8.18698547,17.2468482 8.46762606,17.3465054 L8.46762606,17.3465054 L19.7644997,21.3588783 L19.8417115,21.3814354 C19.8937914,21.3934659 19.9469062,21.3994811 20.0000006,21.3994811 C20.0796871,21.3994811 20.1593277,21.3859468 20.2354996,21.3588783 L20.2354996,21.3588783 L31.5323732,17.3465054 L31.6223341,17.307328 C31.8523223,17.1874551 32.0002901,16.9482981 32.0000006,16.6837945 C31.9996232,16.3862278 31.8116544,16.1211622 31.5308263,16.0221606 L31.5308263,16.0221606 L20.2339527,12.0400408 Z"></path>
        </g>
    </g>
</svg>