<?xml version="1.0" encoding="UTF-8"?>
<svg width="208px" height="40px" viewBox="0 0 208 40" version="1.1" xmlns="http://www.w3.org/2000/svg" xmlns:xlink="http://www.w3.org/1999/xlink">
    <title>Logos/Experts for EDU/Spot Hero/White@svg</title>
    <g id="Logos" stroke="none" stroke-width="1" fill="none" fill-rule="evenodd">
        <g id="Combined-Shape" fill="#FFFFFF">
            <path d="M30,0 C35.4292399,0 39.8479317,4.32667079 39.9961582,9.72009516 L40,10 L40,40 L10,40 L9.72009516,39.9961582 C4.41966086,39.8504873 0.149512653,35.5803391 0.00384179753,30.2799048 L0,30 L0,10 L0.00384179753,9.72009516 C0.149512653,4.41966086 4.41966086,0.149512653 9.72009516,0.00384179753 L10,0 L30,0 Z M30.3112327,19.2713223 L28.9049829,19.7707791 L28.9049829,25.3987412 L28.7822057,25.4780504 C28.4271903,25.7342553 28.1959986,26.1510172 28.1959986,26.6220239 C28.1959986,27.1453178 28.4814205,27.6017365 28.9049829,27.8453066 L28.9049829,27.8453066 L28.9049829,31.2975292 L28.9114019,31.3928476 C28.9579621,31.7357162 29.2521547,32 29.6081078,32 C29.9964203,32 30.3112327,31.6854804 30.3112327,31.2975292 L30.3112327,31.2975292 L30.3112327,27.8453534 L30.43401,27.7660543 C30.7890253,27.5098688 31.020217,27.0930352 31.020217,26.6220707 C31.020217,26.0987299 30.7348421,25.6423112 30.3112327,25.3987412 L30.3112327,25.3987412 L30.3112327,19.2713223 Z M27.0573113,20.4270273 L20.7065933,22.6826611 L20.5341395,22.7357672 C20.359982,22.7813729 20.1810191,22.8044228 19.9999996,22.8044228 C19.7586403,22.8044228 19.5209372,22.7634453 19.2934529,22.6826611 L19.2934529,22.6826611 L12.942688,20.4270273 L12.942688,23.5182736 L12.9492474,23.6367138 C13.0279414,24.3415048 13.8143631,24.9407105 15.2898596,25.4191597 C16.6474063,25.8593747 18.3201873,26.1018208 19.9999996,26.1018208 C21.6798119,26.1018208 23.3525461,25.8593747 24.7101397,25.4191597 C26.2676082,24.91413 27.0573113,24.2745537 27.0573113,23.5182736 L27.0573113,23.5182736 L27.0573113,20.4270273 Z M20.1417039,12.0144147 C20.0170884,11.9887886 19.8871809,11.9973306 19.7660934,12.0400408 L19.7660934,12.0400408 L8.46921981,16.0221606 L8.37916568,16.0611284 C8.14888999,16.1804669 8.00033439,16.4192908 8.00000056,16.6837945 C7.99962612,16.9813611 8.18698547,17.2468482 8.46762606,17.3465054 L8.46762606,17.3465054 L19.7644997,21.3588783 L19.8417115,21.3814354 C19.8937914,21.3934659 19.9469062,21.3994811 20.0000006,21.3994811 C20.0796871,21.3994811 20.1593277,21.3859468 20.2354996,21.3588783 L20.2354996,21.3588783 L31.5323732,17.3465054 L31.6223341,17.307328 C31.8523223,17.1874551 32.0002901,16.9482981 32.0000006,16.6837945 C31.9996232,16.3862278 31.8116544,16.1211622 31.5308263,16.0221606 L31.5308263,16.0221606 L20.2339527,12.0400408 Z"></path>
            <path d="M80.0971074,16.0392631 C81.715977,16.0392631 83.061531,16.627943 84.1337693,17.7842784 C85.2060076,18.9406139 85.7316146,20.3492407 85.7316146,22.0101588 C85.7316146,23.6921013 85.1849833,25.1217523 84.112745,26.2780878 C83.0405067,27.4344232 81.6949527,28.0020788 80.0760831,28.0020788 C78.6254078,28.0020788 77.3849752,27.4344232 76.396834,26.2991121 L76.396834,32.4171777 L73.6426533,32.4171777 L73.6426533,16.3125788 L76.3758097,16.3125788 L76.3758097,17.826327 C77.3639509,16.627943 78.6043835,16.0392631 80.0971074,16.0392631 Z M122.121074,15.9341417 C123.739944,15.9341417 125.043449,16.5017973 126.03159,17.6160842 L124.601939,19.3610995 C123.866089,18.5832011 123.004094,18.1837398 122.036977,18.1837398 C121.174982,18.1837398 120.649374,18.6462739 120.649374,19.2559781 C120.649374,19.7605608 120.985763,20.1389978 121.637516,20.3702649 C123.27741,21.0220176 124.202478,21.4004547 124.391696,21.5055761 C125.674178,22.1993773 126.32593,23.1664943 126.32593,24.4069268 C126.32593,25.4371166 125.926469,26.2991121 125.106522,26.9929133 C124.286575,27.6867146 123.214337,28.0231031 121.889807,28.0231031 C120.03967,28.0231031 118.357728,27.2452047 117.28549,25.7524808 L118.841286,24.0705383 C119.59816,25.0797038 120.796544,25.6894079 121.910831,25.6894079 C122.898973,25.6894079 123.592774,25.1638009 123.592774,24.4910239 C123.592774,24.049514 123.298434,23.671077 122.730778,23.3977613 C122.54156,23.2926399 122.079026,23.1034214 121.343176,22.8301058 C120.62835,22.5567901 120.144792,22.3465473 119.8925,22.2204016 C118.610019,21.5896732 117.979291,20.6225563 117.979291,19.3190509 C117.979291,18.3309097 118.357728,17.5109628 119.114602,16.8802344 C119.871476,16.2495059 120.880642,15.9341417 122.121074,15.9341417 Z M147.091573,16.0182389 C148.878636,16.0182389 150.329312,16.6069187 151.464623,17.7632541 C152.620958,18.9195896 153.188614,20.3282164 153.188614,22.0101588 C153.188614,23.7131255 152.620958,25.1427766 151.464623,26.2991121 C150.329312,27.4554475 148.878636,28.0231031 147.091573,28.0231031 C145.304509,28.0231031 143.853833,27.4554475 142.697498,26.2991121 C141.562187,25.1427766 140.994531,23.7131255 140.994531,22.0101588 C140.994531,20.3282164 141.562187,18.9195896 142.697498,17.7632541 C143.853833,16.6069187 145.304509,16.0182389 147.091573,16.0182389 Z M198.899471,12 L198.899471,21.8297872 C198.899471,24.0212766 200.063492,25.1702128 201.989418,25.1702128 C203.873016,25.1702128 205.079365,23.9787234 205.079365,21.8297872 L205.079365,21.8297872 L205.079365,12 L208,12 L208,22.0851064 C208,24 207.428571,25.4680851 206.306878,26.4893617 C205.185185,27.4893617 203.746032,28 201.989418,28 C200.253968,28 198.814815,27.4893617 197.693122,26.4893617 C196.571429,25.4680851 196,24 196,22.0851064 L196,22.0851064 L196,12 L198.899471,12 Z M92.6212317,16.0392631 C94.2821498,16.0392631 95.6277038,16.5648701 96.6789178,17.5950599 C97.7511561,18.6252496 98.2767632,20.0128522 98.2767632,21.7788917 C98.2767632,22.0942559 98.2557389,22.4937173 98.192666,22.9983 L89.4886139,22.9983 C89.8460266,24.5751211 91.0233864,25.6263351 92.9786444,25.6263351 C94.366247,25.6263351 95.6277038,25.2268738 96.7419907,24.4489754 L97.8352533,26.4042335 C96.4266265,27.4554475 94.7657083,27.9810545 92.873523,27.9810545 C88.5845698,27.9810545 86.6923845,25.0376552 86.6923845,22.0101588 C86.6923845,20.2861678 87.2390158,18.8565167 88.3322784,17.7422299 C89.4465653,16.6069187 90.8762164,16.0392631 92.6212317,16.0392631 Z M113.069526,12.2580661 L113.069526,16.2824947 L116.04466,16.2824947 L116.04466,18.6795235 L113.069526,18.6795235 L113.069526,24.3479691 C113.069526,25.0001664 113.595741,25.5300766 114.243389,25.5300766 L114.243389,25.5300766 L116.04466,25.5300766 L116.04466,27.9271054 L113.648362,27.9271054 C111.786373,27.9271054 110.288687,26.3985181 110.288687,24.5438321 L110.288687,24.5438321 L110.288687,18.6795235 L108.507654,18.6795235 L108.507654,16.2824947 L110.288687,16.2824947 L110.288687,12.2580661 L113.069526,12.2580661 Z M59.9229218,12.1918198 L59.9229218,14.8829277 L52.4803264,14.8829277 L52.4803264,18.5411525 L59.3552662,18.5411525 L59.3552662,21.2112362 L52.4803264,21.2112362 L52.4803264,25.0376552 L59.9229218,25.0376552 L59.9229218,27.7287631 L49.6,27.7287631 L49.6,12.1918198 L59.9229218,12.1918198 Z M64.7164577,16.3125788 L66.7978615,19.928755 L69.005411,16.3125788 L72.1170045,16.3125788 L68.5008283,21.9681103 L72.2221259,27.7287631 L69.0684838,27.7287631 L66.7347887,23.8602955 L64.3380207,27.7287631 L61.1633543,27.7287631 L64.9897734,21.8840131 L61.5628157,16.3125788 L64.7164577,16.3125788 Z M105.806232,16.0182389 C106.289791,16.0182389 106.752325,16.102336 107.172811,16.2495059 L106.941544,18.877541 C106.479009,18.730371 106.037499,18.6462739 105.617014,18.6462739 C103.914047,18.6462739 102.736687,19.7815851 102.736687,22.1573288 L102.736687,27.7287631 L100.003531,27.7287631 L100.003531,16.3125788 L102.631566,16.3125788 L102.631566,17.8893998 C103.325367,16.6489673 104.397606,16.0182389 105.806232,16.0182389 Z M138.658059,11.3088 C139.688249,11.3088 140.718439,11.5610914 141.727604,12.0866984 L140.865609,14.231175 C140.150783,13.9158108 139.541079,13.7686408 139.036496,13.7686408 C137.627869,13.7686408 136.849971,14.5044907 136.849971,15.8500446 L136.849971,16.3125788 L140.424099,16.3125788 L140.424099,18.6252496 L136.849971,18.6252496 L136.849971,27.7287631 L134.116815,27.7287631 L134.116815,18.6252496 L132.308726,18.6252496 L132.308726,16.3125788 L134.116815,16.3125788 L134.116815,15.7869718 C134.116815,12.9066453 135.945927,11.3088 138.658059,11.3088 Z M160.540765,16.0182389 C161.024324,16.0182389 161.486858,16.102336 161.907343,16.2495059 L161.676076,18.877541 C161.213542,18.730371 160.772032,18.6462739 160.351547,18.6462739 C158.64858,18.6462739 157.47122,19.7815851 157.47122,22.1573288 L157.47122,27.7287631 L154.738064,27.7287631 L154.738064,16.3125788 L157.366099,16.3125788 L157.366099,17.8893998 C158.0599,16.6489673 159.132138,16.0182389 160.540765,16.0182389 Z M178,12 L178,14.5981055 L170.790224,14.5981055 L170.790224,18.1299053 L177.450102,18.1299053 L177.450102,20.7077131 L170.790224,20.7077131 L170.790224,24.4018945 L178,24.4018945 L178,27 L168,27 L168,12 L178,12 Z M186.816327,12 C189.040816,12 190.795918,12.6698241 192.081633,14.02977 C193.367347,15.3694181 194,17.1962111 194,19.5304465 C194,21.8240866 193.346939,23.6508796 192.040816,24.9905277 C190.819388,26.2631935 189.1375,26.931343 187.030148,26.9949763 L186.693878,27 L181,27 L181,12 L186.816327,12 Z M79.6555975,18.5621768 C78.6674563,18.5621768 77.8685337,18.8985653 77.2588295,19.5713423 C76.6491254,20.2441193 76.3337612,21.0640662 76.3337612,22.0311831 C76.3337612,23.0193243 76.6491254,23.8392712 77.2588295,24.5120482 C77.8685337,25.1638009 78.6674563,25.5001894 79.6555975,25.5001894 C80.6437387,25.5001894 81.4426614,25.1638009 82.0523655,24.5120482 C82.6620696,23.8392712 82.9774338,23.0193243 82.9774338,22.0311831 C82.9774338,21.0430419 82.6620696,20.223095 82.0523655,19.5713423 C81.4426614,18.8985653 80.6437387,18.5621768 79.6555975,18.5621768 Z M147.091573,18.5621768 C146.14548,18.5621768 145.367582,18.8985653 144.715829,19.5713423 C144.064076,20.2441193 143.748712,21.0640662 143.748712,22.0101588 C143.748712,22.9772757 144.064076,23.7972227 144.715829,24.4699997 C145.367582,25.1427766 146.14548,25.4791651 147.091573,25.4791651 C148.037665,25.4791651 148.815564,25.1427766 149.467316,24.4699997 C150.119069,23.7972227 150.434433,22.9772757 150.434433,22.0101588 C150.434433,21.0640662 150.119069,20.2441193 149.467316,19.5713423 C148.815564,18.8985653 148.037665,18.5621768 147.091573,18.5621768 Z M186.816327,14.6589986 L183.77551,14.6589986 L183.77551,24.3410014 L186.795918,24.3410014 C188.163265,24.3410014 189.204082,23.8741543 189.959184,22.9607578 C190.714286,22.0473613 191.102041,20.8700947 191.102041,19.4695535 C191.102041,18.0893099 190.734694,16.9526387 189.979592,16.0392422 C189.22449,15.1258457 188.183673,14.6589986 186.816327,14.6589986 Z M92.6212317,18.3309097 C91.0233864,18.3309097 89.8460266,19.3190509 89.4886139,20.9168962 L95.5856552,20.9168962 C95.3543882,19.3190509 94.1980527,18.3309097 92.6212317,18.3309097 Z"></path>
        </g>
    </g>
</svg>