<?xml version="1.0" encoding="UTF-8"?>
<svg width="285px" height="40px" viewBox="0 0 285 40" version="1.1" xmlns="http://www.w3.org/2000/svg" xmlns:xlink="http://www.w3.org/1999/xlink">
    <!-- Generator: Sketch 58 (84663) - https://sketch.com -->
    <title>Logos/Experts for PowerPoint/Hero/Original</title>
    <desc>Created with Sketch.</desc>
    <g id="Logos/Experts-for-PowerPoint/Hero/Original" stroke="none" stroke-width="1" fill="none" fill-rule="evenodd">
        <g id="Logo/Experts-for-PowerPoint/Hero/Original">
            <path d="M116.10625,36.5875 L118.496875,38.9539773 L117.882143,39.5625 L116.10625,37.8045455 L114.330357,39.5625 L113.715625,38.9539773 L116.10625,36.5875 Z M100.197969,30.9735156 L101.666875,34.59 L102.949844,30.9735156 L104.074766,30.9735156 L102.001562,36.4400781 C101.555312,37.6207813 100.988203,38.1135156 100.132891,38.1135156 L99.4263281,38.1135156 L99.4263281,38.1135156 L99.4263281,37.1745312 L100.049219,37.1745313 L100.049219,37.1745313 C100.458281,37.1745313 100.783672,36.8863281 101.034687,36.3192188 L101.192734,35.9473438 L99.0172656,30.9735156 L100.197969,30.9735156 Z M58.0459375,30.8433594 C58.8175781,30.8433594 59.4497656,31.1036719 59.9425,31.615 C60.4445312,32.1263281 60.6955469,32.7399219 60.6955469,33.474375 C60.6955469,34.218125 60.4445312,34.8410156 59.9425,35.3523438 C59.4497656,35.8636719 58.8175781,36.1146875 58.0459375,36.1146875 C57.2742969,36.1146875 56.6421094,35.8636719 56.1400781,35.3523438 C55.6473437,34.8410156 55.3963281,34.218125 55.3963281,33.474375 C55.3963281,32.7399219 55.6473437,32.1263281 56.1400781,31.615 C56.6421094,31.1036719 57.2742969,30.8433594 58.0459375,30.8433594 Z M94.3502344,28.9375 L94.3502344,31.6986719 C94.7964844,31.1315625 95.3635937,30.8526563 96.0422656,30.8526563 C96.758125,30.8526563 97.353125,31.1036719 97.8272656,31.615 C98.3014062,32.1263281 98.543125,32.7492188 98.543125,33.4836719 C98.543125,34.218125 98.3014062,34.8410156 97.8272656,35.3523438 C97.353125,35.854375 96.7488281,36.1053906 96.0329687,36.1053906 C95.345,36.1053906 94.7778906,35.8264844 94.3409375,35.2686719 L94.3409375,35.9845313 L93.3275781,35.9845313 L93.3275781,28.9375 L94.3502344,28.9375 Z M89.7110937,28.9375 L89.7110937,35.9845313 L88.6977344,35.9845313 L88.6977344,35.2872656 C88.2607812,35.8357813 87.6936719,36.1053906 87.015,36.1053906 C86.2991406,36.1053906 85.6948437,35.854375 85.2207031,35.3523438 C84.7465625,34.8410156 84.5048437,34.218125 84.5048437,33.474375 C84.5048437,32.7399219 84.7465625,32.1170313 85.2207031,31.615 C85.6948437,31.1036719 86.2898437,30.8526563 87.0057031,30.8526563 C87.6657812,30.8526563 88.2235937,31.1222656 88.6791406,31.6707813 L88.6791406,28.9375 L89.7110937,28.9375 Z M81.3439062,30.8526563 C82.0597656,30.8526563 82.6547656,31.0757813 83.1103125,31.5313281 C83.5658594,31.986875 83.7982812,32.6004688 83.7982812,33.3814063 C83.7982812,33.5208594 83.7889844,33.6882031 83.7610937,33.8741406 L79.8471094,33.8741406 C79.9958594,34.6550781 80.544375,35.185 81.51125,35.185 C82.0783594,35.185 82.7663281,34.9711719 83.2125781,34.6457813 L83.6402344,35.3988281 C83.1289062,35.78 82.3200781,36.0960938 81.4740625,36.0960938 C79.5960937,36.0960938 78.7872656,34.7852344 78.7872656,33.4650781 C78.7872656,32.7120313 79.0196875,32.0891406 79.4938281,31.5964063 C79.9679687,31.1036719 80.5908594,30.8526563 81.3439062,30.8526563 Z M71.9075781,30.8526563 C72.6234375,30.8526563 73.2184375,31.0757813 73.6739844,31.5313281 C74.1295312,31.986875 74.3619531,32.6004688 74.3619531,33.3814063 C74.3619531,33.5208594 74.3526562,33.6882031 74.3247656,33.8741406 L70.4107812,33.8741406 C70.5595312,34.6550781 71.1080469,35.185 72.0749219,35.185 C72.6420312,35.185 73.33,34.9711719 73.77625,34.6457813 L74.2039062,35.3988281 C73.6925781,35.78 72.88375,36.0960938 72.0377344,36.0960938 C70.1597656,36.0960938 69.3509375,34.7852344 69.3509375,33.4650781 C69.3509375,32.7120313 69.5833594,32.0891406 70.0575,31.5964063 C70.5316406,31.1036719 71.1545312,30.8526563 71.9075781,30.8526563 Z M116.10625,30.74375 C117.567617,30.74375 118.7625,31.9452847 118.7625,33.3957088 C118.7625,34.8632977 117.567617,36.05625 116.10625,36.05625 C114.644883,36.05625 113.45,34.8632977 113.45,33.3957088 C113.45,31.9452847 114.644883,30.74375 116.10625,30.74375 Z M121.175893,29.46875 L121.175893,30.74375 L122.428125,30.74375 L122.428125,31.6691532 L121.175893,31.6691532 L121.175893,34.633871 C121.175893,34.8775986 121.350892,35.0807049 121.581233,35.1228307 L121.669971,35.1308468 L122.428125,35.1308468 L122.428125,36.05625 L121.669971,36.05625 C120.932362,36.05625 120.330578,35.48699 120.262332,34.7699457 L120.255886,34.633871 L120.255886,31.6691532 L119.50625,31.6691532 L119.50625,30.74375 L120.255886,30.74375 L120.255886,29.46875 L121.175893,29.46875 Z M130.154018,29.46875 L130.154018,30.74375 L131.40625,30.74375 L131.40625,31.6691532 L130.154018,31.6691532 L130.154018,34.633871 C130.154018,34.8775986 130.329017,35.0807049 130.559358,35.1228307 L130.648096,35.1308468 L131.40625,35.1308468 L131.40625,36.05625 L130.648096,36.05625 C129.910487,36.05625 129.308703,35.48699 129.240457,34.7699457 L129.234011,34.633871 L129.234011,31.6691532 L128.484375,31.6691532 L128.484375,30.74375 L129.234011,30.74375 L129.234011,29.46875 L130.154018,29.46875 Z M127.36875,28.9375 L127.36875,36.05625 L126.4125,36.05625 L126.4125,28.9375 L127.36875,28.9375 Z M109.44203,28.9376422 C110.32499,28.9376422 111.207949,29.3007479 111.929692,29.9733315 L112.106676,30.1478938 L111.466136,30.8552943 C110.851218,30.2245998 110.125272,29.9007297 109.44203,29.9007297 C108.032842,29.9007297 106.854249,31.0939355 106.854249,32.4831679 C106.854249,33.8553546 108.015761,35.0485604 109.44203,35.0485604 C110.056948,35.0485604 110.609606,34.8483575 111.075099,34.4665913 L111.227001,34.3326369 L111.227001,33.0201105 L109.527435,33.0201105 L109.527435,32.057023 L112.175,32.057023 L112.175,34.7246902 C111.457595,35.5258427 110.492515,36.003125 109.44203,36.003125 C107.52041,36.003125 105.90625,34.4178659 105.90625,32.474645 C105.90625,31.5286033 106.282033,30.633699 106.939654,29.9689129 C107.614356,29.3041268 108.502572,28.9291193 109.44203,28.9376422 Z M52.4957031,29.1141406 C53.24875,29.1141406 53.8158594,29.3279688 54.1970312,29.755625 C54.5875,30.1739844 54.7827344,30.6853125 54.7827344,31.2896094 C54.7827344,31.8939063 54.5782031,32.3959375 54.1784375,32.8142969 C53.7786719,33.2326562 53.1836719,33.4371875 52.4027344,33.4371875 L51.1941406,33.4371875 L51.1941406,35.9845313 L50.125,35.9845313 L50.125,29.1141406 L52.4957031,29.1141406 Z M77.7646094,30.8433594 C77.9784375,30.8433594 78.1736719,30.87125 78.3596094,30.9270313 L78.2666406,31.9217969 C78.09,31.8567188 77.9040625,31.8288281 77.718125,31.8288281 C76.9371875,31.8288281 76.3886719,32.3680469 76.3886719,33.4185938 L76.3886719,35.9845313 L75.3660156,35.9845313 L75.3660156,30.9735156 L76.3421875,30.9735156 L76.3421875,31.689375 C76.6396875,31.1222656 77.1138281,30.8433594 77.7646094,30.8433594 Z M62.2295312,30.9735156 L63.3544531,34.5714063 L64.6467187,30.9735156 L65.371875,30.9735156 L66.7013281,34.5714063 L67.7890625,30.9735156 L68.8675,30.9735156 L67.1847656,35.9752344 L66.3108594,35.9752344 L65.0092969,32.4238281 L63.735625,35.9752344 L62.8617187,35.9752344 L61.1510937,30.9735156 L62.2295312,30.9735156 Z M87.1451562,31.7916406 C86.6710156,31.7916406 86.2805469,31.9589844 85.9830469,32.284375 C85.6855469,32.6097656 85.5367969,33.0002344 85.5367969,33.474375 C85.5367969,33.9485156 85.6855469,34.3575781 85.9830469,34.6829687 C86.2805469,35.0083594 86.6710156,35.1664062 87.1451562,35.1664062 C87.6192969,35.1664062 88.0097656,35.0083594 88.3072656,34.6829687 C88.6047656,34.3575781 88.7535156,33.9485156 88.7535156,33.474375 C88.7535156,33.0002344 88.6047656,32.6097656 88.3072656,32.284375 C88.0097656,31.9589844 87.6192969,31.7916406 87.1451562,31.7916406 Z M58.0459375,31.7916406 C57.5903906,31.7916406 57.2092187,31.9589844 56.893125,32.2936719 C56.5863281,32.6190625 56.4282812,33.0188281 56.4282812,33.474375 C56.4282812,33.9392187 56.5863281,34.3389844 56.893125,34.664375 C57.2092187,34.9897656 57.5903906,35.1571094 58.0459375,35.1571094 C58.5014844,35.1571094 58.8826562,34.9897656 59.1894531,34.664375 C59.5055469,34.3389844 59.6635937,33.9392187 59.6635937,33.474375 C59.6635937,33.0188281 59.5055469,32.6190625 59.1894531,32.2936719 C58.8826562,31.9589844 58.5014844,31.7916406 58.0459375,31.7916406 Z M95.9028125,31.8009375 C95.4286719,31.8009375 95.0382031,31.9682813 94.7407031,32.2936719 C94.4525,32.6190625 94.30375,33.0095313 94.30375,33.474375 C94.30375,33.9485156 94.4525,34.3389844 94.7407031,34.664375 C95.0382031,34.9897656 95.4286719,35.1478125 95.9028125,35.1478125 C96.3769531,35.1478125 96.758125,34.9897656 97.0463281,34.664375 C97.3438281,34.3389844 97.4925781,33.9485156 97.4925781,33.474375 C97.4925781,33.0002344 97.3438281,32.6097656 97.0463281,32.284375 C96.758125,31.9589844 96.3769531,31.8009375 95.9028125,31.8009375 Z M116.10625,31.687813 C115.160659,31.687813 114.395591,32.4430634 114.395591,33.3871264 C114.395591,34.3397718 115.160659,35.0950222 116.10625,35.0950222 C117.060437,35.0950222 117.816909,34.3397718 117.816909,33.3871264 C117.816909,32.4430634 117.060437,31.687813 116.10625,31.687813 Z M71.9075781,31.7358594 C71.1359375,31.7358594 70.5595312,32.2564844 70.4107812,33.0374219 L73.33,33.0374219 C73.2463281,32.2471875 72.660625,31.7358594 71.9075781,31.7358594 Z M81.3439062,31.7358594 C80.5722656,31.7358594 79.9958594,32.2564844 79.8471094,33.0374219 L82.7663281,33.0374219 C82.6826562,32.2471875 82.0969531,31.7358594 81.3439062,31.7358594 Z M52.5421875,30.1182031 L51.1941406,30.1182031 L51.1941406,32.4517188 L52.430625,32.4517188 C53.2580469,32.4517188 53.695,31.9125 53.695,31.2710156 C53.695,30.6295313 53.2766406,30.1182031 52.5421875,30.1182031 Z" id="Powered-by-Got-It" fill="#6B778C"></path>
            <path d="M60.4061711,23.7523822 L50,23.7523822 L50,8.09014091 L60.4061711,8.09014091 L60.4061711,10.8029513 L52.9035549,10.8029513 L52.9035549,14.4906779 L59.8339377,14.4906779 L59.8339377,17.1822945 L52.9035549,17.1822945 L52.9035549,21.0395718 L60.4061711,21.0395718 L60.4061711,23.7523822 Z M80.7430518,11.968612 C82.3749768,11.968612 83.731382,12.5620393 84.8122674,13.7277 C85.8931528,14.8933607 86.4229986,16.3133474 86.4229986,17.9876601 C86.4229986,19.6831666 85.871959,21.1243471 84.7910736,22.2900078 C83.7101882,23.4556686 82.353783,24.027902 80.721858,24.027902 C79.2594836,24.027902 78.0090476,23.4556686 77.0129375,22.3112017 L77.0129375,28.4786066 L74.2365456,28.4786066 L74.2365456,12.2441318 L76.9917437,12.2441318 L76.9917437,13.7700877 C77.9878537,12.5620393 79.2382898,11.968612 80.7430518,11.968612 Z M93.3681771,11.968612 C95.0424898,11.968612 96.398895,12.4984578 97.4585865,13.5369555 C98.5394719,14.5754533 99.0693177,15.9742461 99.0693177,17.754528 C99.0693177,18.0724354 99.0481239,18.4751182 98.9845424,18.9837702 L90.2102962,18.9837702 C90.5705914,20.5733075 91.7574459,21.6329991 93.7284722,21.6329991 C95.1272651,21.6329991 96.398895,21.2303163 97.522168,20.4461445 L98.6242472,22.4171708 C97.2042605,23.4768624 95.5299479,24.0067082 93.6225031,24.0067082 C89.2989615,24.0067082 87.3915167,21.0395718 87.3915167,17.9876601 C87.3915167,16.2497659 87.9425563,14.8085854 89.0446355,13.6853124 C90.1679086,12.5408455 91.6090891,11.968612 93.3681771,11.968612 Z M65.2383647,12.2441318 L67.336554,15.8894708 L69.5619062,12.2441318 L72.6985933,12.2441318 L69.0532543,17.9452724 L72.8045624,23.7523822 L69.6254877,23.7523822 L67.2729725,19.8527173 L64.8568757,23.7523822 L61.6566072,23.7523822 L65.5138845,17.8604971 L62.05929,12.2441318 L65.2383647,12.2441318 Z M80.2979814,14.5118718 C79.3018713,14.5118718 78.4965057,14.8509731 77.8818846,15.5291757 C77.2672635,16.2073783 76.949356,17.0339377 76.949356,18.0088539 C76.949356,19.004964 77.2672635,19.8315234 77.8818846,20.509726 C78.4965057,21.1667348 79.3018713,21.5058361 80.2979814,21.5058361 C81.2940914,21.5058361 82.099457,21.1667348 82.7140781,20.509726 C83.3286992,19.8315234 83.6466067,19.004964 83.6466067,18.0088539 C83.6466067,17.0127439 83.3286992,16.1861844 82.7140781,15.5291757 C82.099457,14.8509731 81.2940914,14.5118718 80.2979814,14.5118718 Z M93.3681771,14.2787396 C91.7574459,14.2787396 90.5705914,15.2748497 90.2102962,16.8855809 L96.3565073,16.8855809 C96.1233752,15.2748497 94.9577144,14.2787396 93.3681771,14.2787396 Z M103.565209,23.7523822 L100.810011,23.7523822 L100.810011,12.2441318 L103.45924,12.2441318 L103.45924,13.8336692 C104.158636,12.5832331 105.239522,11.9474182 106.659508,11.9474182 C107.146967,11.9474182 107.613231,12.0321935 108.037107,12.1805503 L107.803975,14.8297792 C107.337711,14.6814224 106.892641,14.5966471 106.468764,14.5966471 C104.752064,14.5966471 103.565209,15.741114 103.565209,18.1360169 L103.565209,23.7523822 Z M113.981377,14.6301648 L116.980504,14.6301648 L116.980504,12.2138052 L113.981377,12.2138052 L113.981377,8.15692147 L111.178112,8.15692147 L111.178112,12.2138052 L109.382716,12.2138052 L109.382716,14.6301648 L111.178112,14.6301648 L111.178112,20.5417662 C111.178112,22.4114093 112.687876,23.952324 114.564881,23.952324 L116.980504,23.952324 L116.980504,21.5359644 L115.164706,21.5359644 C114.511835,21.5359644 113.981377,21.0017806 113.981377,20.3443237 L113.981377,14.6301648 Z M122.872789,24.0490958 C121.007732,24.0490958 119.312226,23.2649241 118.23134,21.7601621 L119.799684,20.0646556 C120.562662,21.0819595 121.77071,21.6965806 122.893983,21.6965806 C123.890093,21.6965806 124.58949,21.1667348 124.58949,20.4885322 C124.58949,20.0434617 124.292776,19.6619728 123.720543,19.386453 C123.529798,19.2804838 123.063534,19.0897393 122.32175,18.8142195 C121.601159,18.5386997 121.113701,18.3267614 120.859375,18.1995984 C119.566552,17.5637835 118.930737,16.5888672 118.930737,15.2748497 C118.930737,14.2787396 119.312226,13.4521802 120.075204,12.8163653 C120.838182,12.1805503 121.855485,11.8626429 123.105922,11.8626429 C124.737847,11.8626429 126.051864,12.4348763 127.047974,13.5581494 L125.606794,15.3172374 C124.86501,14.5330656 123.996062,14.1303828 123.021146,14.1303828 C122.152199,14.1303828 121.622353,14.5966471 121.622353,15.2112682 C121.622353,15.7199202 121.961455,16.1014091 122.618463,16.3345413 C124.271582,16.99155 125.204111,17.373039 125.394855,17.4790082 C126.687679,18.1784046 127.344688,19.1533208 127.344688,20.4037569 C127.344688,21.4422546 126.942005,22.3112017 126.115446,23.0105981 C125.288886,23.7099945 124.208001,24.0490958 122.872789,24.0490958 Z M148.277795,11.9474182 C150.079271,11.9474182 151.541645,12.5408455 152.686112,13.7065062 C153.851773,14.8721669 154.424006,16.2921536 154.424006,17.9876601 C154.424006,19.7043604 153.851773,21.145541 152.686112,22.3112017 C151.541645,23.4768624 150.079271,24.0490958 148.277795,24.0490958 C146.476319,24.0490958 145.013945,23.4768624 143.848284,22.3112017 C142.703817,21.145541 142.131584,19.7043604 142.131584,17.9876601 C142.131584,16.2921536 142.703817,14.8721669 143.848284,13.7065062 C145.013945,12.5408455 146.476319,11.9474182 148.277795,11.9474182 Z M139.776269,7.2 C140.814767,7.2 141.853265,7.45432597 142.870569,7.98417176 L142.001622,10.1459425 C141.281031,9.82803507 140.66641,9.67967826 140.157758,9.67967826 C138.737772,9.67967826 137.9536,10.4214623 137.9536,11.7778675 L137.9536,12.2441318 L141.556551,12.2441318 L141.556551,14.5754533 L137.9536,14.5754533 L137.9536,23.7523822 L135.198402,23.7523822 L135.198402,14.5754533 L133.375732,14.5754533 L133.375732,12.2441318 L135.198402,12.2441318 L135.198402,11.7142861 C135.198402,8.81073117 137.042265,7.2 139.776269,7.2 Z M148.277795,14.5118718 C147.324072,14.5118718 146.539901,14.8509731 145.882892,15.5291757 C145.225883,16.2073783 144.907976,17.0339377 144.907976,17.9876601 C144.907976,18.9625763 145.225883,19.7891358 145.882892,20.4673384 C146.539901,21.145541 147.324072,21.4846423 148.277795,21.4846423 C149.231517,21.4846423 150.015689,21.145541 150.672698,20.4673384 C151.329707,19.7891358 151.647614,18.9625763 151.647614,17.9876601 C151.647614,17.0339377 151.329707,16.2073783 150.672698,15.5291757 C150.015689,14.8509731 149.231517,14.5118718 148.277795,14.5118718 Z M186.867763,11.9474182 C188.669238,11.9474182 190.131613,12.5408455 191.27608,13.7065062 C192.44174,14.8721669 193.013974,16.2921536 193.013974,17.9876601 C193.013974,19.7043604 192.44174,21.145541 191.27608,22.3112017 C190.131613,23.4768624 188.669238,24.0490958 186.867763,24.0490958 C185.066287,24.0490958 183.603913,23.4768624 182.438252,22.3112017 C181.293785,21.145541 180.721552,19.7043604 180.721552,17.9876601 C180.721552,16.2921536 181.293785,14.8721669 182.438252,13.7065062 C183.603913,12.5408455 185.066287,11.9474182 186.867763,11.9474182 Z M161.835449,11.9474182 C162.322907,11.9474182 162.789171,12.0321935 163.213048,12.1805503 L162.979916,14.8297792 C162.513651,14.6814224 162.068581,14.5966471 161.644704,14.5966471 C159.928004,14.5966471 158.741149,15.741114 158.741149,18.1360169 L158.741149,23.7523822 L155.985951,23.7523822 L155.985951,12.2441318 L158.63518,12.2441318 L158.63518,13.8336692 C159.334577,12.5832331 160.415462,11.9474182 161.835449,11.9474182 Z M174.824068,8.09014091 C176.625544,8.09014091 177.960755,8.59879286 178.87209,9.59490293 C179.783425,10.591013 180.228495,11.7778675 180.228495,13.1978542 C180.228495,14.6178409 179.762231,15.8258893 178.808509,16.7796117 C177.87598,17.7333341 176.477187,18.2207922 174.590936,18.2207922 L172.047676,18.2207922 L172.047676,23.7523822 L169.165315,23.7523822 L169.165315,8.09014091 L174.824068,8.09014091 Z M186.867763,14.5118718 C185.91404,14.5118718 185.129869,14.8509731 184.47286,15.5291757 C183.815851,16.2073783 183.497944,17.0339377 183.497944,17.9876601 C183.497944,18.9625763 183.815851,19.7891358 184.47286,20.4673384 C185.129869,21.145541 185.91404,21.4846423 186.867763,21.4846423 C187.821485,21.4846423 188.605657,21.145541 189.262666,20.4673384 C189.919674,19.7891358 190.237582,18.9625763 190.237582,17.9876601 C190.237582,17.0339377 189.919674,16.2073783 189.262666,15.5291757 C188.605657,14.8509731 187.821485,14.5118718 186.867763,14.5118718 Z M174.88765,10.7817575 L172.047676,10.7817575 L172.047676,15.5715633 L174.675711,15.5715633 C176.371218,15.5715633 177.282553,14.4906779 177.282553,13.1554666 C177.282553,11.8202552 176.392412,10.7817575 174.88765,10.7817575 Z M217.334495,11.968612 C219.008808,11.968612 220.365213,12.4984578 221.424904,13.5369555 C222.50579,14.5754533 223.035636,15.9742461 223.035636,17.754528 C223.035636,18.0724354 223.014442,18.4751182 222.95086,18.9837702 L214.176614,18.9837702 C214.536909,20.5733075 215.723764,21.6329991 217.69479,21.6329991 C219.093583,21.6329991 220.365213,21.2303163 221.488486,20.4461445 L222.590565,22.4171708 C221.170578,23.4768624 219.496266,24.0067082 217.588821,24.0067082 C213.265279,24.0067082 211.357835,21.0395718 211.357835,17.9876601 C211.357835,16.2497659 211.908874,14.8085854 213.010953,13.6853124 C214.134226,12.5408455 215.575407,11.968612 217.334495,11.968612 Z M196.05029,12.2441318 L198.466387,20.0434617 L201.200391,12.2441318 L203.12903,12.2441318 L205.926615,20.0434617 L208.279131,12.2441318 L211.161492,12.2441318 L207.304214,23.7311884 L204.909312,23.7311884 L202.175307,16.2073783 L199.483691,23.7311884 L197.088788,23.7311884 L193.167929,12.2441318 L196.05029,12.2441318 Z M217.334495,14.2787396 C215.723764,14.2787396 214.536909,15.2748497 214.176614,16.8855809 L220.322825,16.8855809 C220.089693,15.2748497 218.924032,14.2787396 217.334495,14.2787396 Z M251.834453,11.9474182 C253.635929,11.9474182 255.098303,12.5408455 256.24277,13.7065062 C257.408431,14.8721669 257.980664,16.2921536 257.980664,17.9876601 C257.980664,19.7043604 257.408431,21.145541 256.24277,22.3112017 C255.098303,23.4768624 253.635929,24.0490958 251.834453,24.0490958 C250.032978,24.0490958 248.570603,23.4768624 247.404943,22.3112017 C246.260476,21.145541 245.688242,19.7043604 245.688242,17.9876601 C245.688242,16.2921536 246.260476,14.8721669 247.404943,13.7065062 C248.570603,12.5408455 250.032978,11.9474182 251.834453,11.9474182 Z M230.825768,11.9474182 C231.313226,11.9474182 231.779491,12.0321935 232.203367,12.1805503 L231.970235,14.8297792 C231.503971,14.6814224 231.0589,14.5966471 230.635024,14.5966471 C228.918323,14.5966471 227.731469,15.741114 227.731469,18.1360169 L227.731469,23.7523822 L224.976271,23.7523822 L224.976271,12.2441318 L227.6255,12.2441318 L227.6255,13.8336692 C228.324896,12.5832331 229.405781,11.9474182 230.825768,11.9474182 Z M239.790759,8.09014091 C241.592234,8.09014091 242.927446,8.59879286 243.838781,9.59490293 C244.750115,10.591013 245.195186,11.7778675 245.195186,13.1978542 C245.195186,14.6178409 244.728921,15.8258893 243.775199,16.7796117 C242.84267,17.7333341 241.443878,18.2207922 239.557627,18.2207922 L237.014367,18.2207922 L237.014367,23.7523822 L234.132006,23.7523822 L234.132006,8.09014091 L239.790759,8.09014091 Z M262.761273,12.2441318 L262.761273,23.7523822 L259.984881,23.7523822 L259.984881,12.2441318 L262.761273,12.2441318 Z M251.834453,14.5118718 C250.880731,14.5118718 250.096559,14.8509731 249.43955,15.5291757 C248.782542,16.2073783 248.464634,17.0339377 248.464634,17.9876601 C248.464634,18.9625763 248.782542,19.7891358 249.43955,20.4673384 C250.096559,21.145541 250.880731,21.4846423 251.834453,21.4846423 C252.788176,21.4846423 253.572347,21.145541 254.229356,20.4673384 C254.886365,19.7891358 255.204272,18.9625763 255.204272,17.9876601 C255.204272,17.0339377 254.886365,16.2073783 254.229356,15.5291757 C253.572347,14.8509731 252.788176,14.5118718 251.834453,14.5118718 Z M239.85434,10.7817575 L237.014367,10.7817575 L237.014367,15.5715633 L239.642402,15.5715633 C241.337908,15.5715633 242.249243,14.4906779 242.249243,13.1554666 C242.249243,11.8202552 241.359102,10.7817575 239.85434,10.7817575 Z M261.404868,7.39074448 C262.400978,7.39074448 263.142762,8.13252857 263.142762,9.12863864 C263.142762,10.1459425 262.400978,10.8665328 261.404868,10.8665328 C260.387564,10.8665328 259.624586,10.1459425 259.624586,9.12863864 C259.624586,8.13252857 260.408758,7.39074448 261.404868,7.39074448 Z M282.000873,8.15692147 L282.000873,12.2138052 L285,12.2138052 L285,14.6301648 L282.000873,14.6301648 L282.000873,20.3443237 C282.000873,21.0017806 282.531331,21.5359644 283.184202,21.5359644 L283.184202,21.5359644 L285,21.5359644 L285,23.952324 L282.584377,23.952324 C280.707372,23.952324 279.197607,22.4114093 279.197607,20.5417662 L279.197607,20.5417662 L279.197607,14.6301648 L277.402211,14.6301648 L277.402211,12.2138052 L279.197607,12.2138052 L279.197607,8.15692147 L282.000873,8.15692147 Z M271.853426,11.9474182 C273.103863,11.9474182 274.184748,12.3712948 275.053695,13.1978542 C275.922642,14.0244137 276.367713,15.1900744 276.367713,16.7372241 L276.367713,23.7523822 L273.591321,23.7523822 L273.591321,17.500202 C273.591321,15.5715633 272.595211,14.4694841 271.069255,14.4694841 C269.43733,14.4694841 268.271669,15.741114 268.271669,17.5425896 L268.271669,23.7523822 L265.516471,23.7523822 L265.516471,12.2441318 L268.229281,12.2441318 L268.229281,13.854863 C268.843902,12.6892023 270.179114,11.9474182 271.853426,11.9474182 Z" id="Experts-for-PowerPoint" fill="#091D42"></path>
            <g id="Icon">
                <path d="M9.72009516,39.9961582 C4.32667079,39.8479317 0,35.4292399 0,30 L0,30 L0,10 L0.00384179753,9.72009516 C0.149512653,4.41966086 4.41966086,0.149512653 9.72009516,0.00384179753 L10,0 L30,0 C35.4292399,0 39.8479317,4.32667079 39.9961582,9.72009516 L40,10 L40,40 L10,40 Z" id="Chat-shape" fill="#375DE7"></path>
                <path d="M18,12 L18,22 L18,22 L28,22 C28,27.5228475 23.5228475,32 18,32 C12.4771525,32 8,27.5228475 8,22 C8,16.4771525 12.4771525,12 18,12 L18,12 Z M20,8 C26.627417,8 32,13.372583 32,20 L32,20 L20,20 L20,20 Z" id="Product-icon" fill="#FFFFFF"></path>
            </g>
        </g>
    </g>
</svg>