<?xml version="1.0" encoding="UTF-8"?>
<svg width="285px" height="40px" viewBox="0 0 285 40" version="1.1" xmlns="http://www.w3.org/2000/svg" xmlns:xlink="http://www.w3.org/1999/xlink">
    <!-- Generator: Sketch 58 (84663) - https://sketch.com -->
    <title>Logos/Experts for PowerPoint/Spot Hero/Original</title>
    <desc>Created with Sketch.</desc>
    <g id="Logos/Experts-for-PowerPoint/Spot-Hero/Original" stroke="none" stroke-width="1" fill="none" fill-rule="evenodd">
        <g id="Logo/Experts-for-PowerPoint/Spot-Hero/Original">
            <path d="M59.9229218,27.7287631 L49.6,27.7287631 L49.6,12.1918198 L59.9229218,12.1918198 L59.9229218,14.8829277 L52.4803264,14.8829277 L52.4803264,18.5411525 L59.3552662,18.5411525 L59.3552662,21.2112362 L52.4803264,21.2112362 L52.4803264,25.0376552 L59.9229218,25.0376552 L59.9229218,27.7287631 Z M80.0971074,16.0392631 C81.715977,16.0392631 83.061531,16.627943 84.1337693,17.7842784 C85.2060076,18.9406139 85.7316146,20.3492407 85.7316146,22.0101588 C85.7316146,23.6921013 85.1849833,25.1217523 84.112745,26.2780878 C83.0405067,27.4344232 81.6949527,28.0020788 80.0760831,28.0020788 C78.6254078,28.0020788 77.3849752,27.4344232 76.396834,26.2991121 L76.396834,32.4171777 L73.6426533,32.4171777 L73.6426533,16.3125788 L76.3758097,16.3125788 L76.3758097,17.826327 C77.3639509,16.627943 78.6043835,16.0392631 80.0971074,16.0392631 Z M92.6212317,16.0392631 C94.2821498,16.0392631 95.6277038,16.5648701 96.6789178,17.5950599 C97.7511561,18.6252496 98.2767632,20.0128522 98.2767632,21.7788917 C98.2767632,22.0942559 98.2557389,22.4937173 98.192666,22.9983 L89.4886139,22.9983 C89.8460266,24.5751211 91.0233864,25.6263351 92.9786444,25.6263351 C94.366247,25.6263351 95.6277038,25.2268738 96.7419907,24.4489754 L97.8352533,26.4042335 C96.4266265,27.4554475 94.7657083,27.9810545 92.873523,27.9810545 C88.5845698,27.9810545 86.6923845,25.0376552 86.6923845,22.0101588 C86.6923845,20.2861678 87.2390158,18.8565167 88.3322784,17.7422299 C89.4465653,16.6069187 90.8762164,16.0392631 92.6212317,16.0392631 Z M64.7164577,16.3125788 L66.7978615,19.928755 L69.005411,16.3125788 L72.1170045,16.3125788 L68.5008283,21.9681103 L72.2221259,27.7287631 L69.0684838,27.7287631 L66.7347887,23.8602955 L64.3380207,27.7287631 L61.1633543,27.7287631 L64.9897734,21.8840131 L61.5628157,16.3125788 L64.7164577,16.3125788 Z M79.6555975,18.5621768 C78.6674563,18.5621768 77.8685337,18.8985653 77.2588295,19.5713423 C76.6491254,20.2441193 76.3337612,21.0640662 76.3337612,22.0311831 C76.3337612,23.0193243 76.6491254,23.8392712 77.2588295,24.5120482 C77.8685337,25.1638009 78.6674563,25.5001894 79.6555975,25.5001894 C80.6437387,25.5001894 81.4426614,25.1638009 82.0523655,24.5120482 C82.6620696,23.8392712 82.9774338,23.0193243 82.9774338,22.0311831 C82.9774338,21.0430419 82.6620696,20.223095 82.0523655,19.5713423 C81.4426614,18.8985653 80.6437387,18.5621768 79.6555975,18.5621768 Z M92.6212317,18.3309097 C91.0233864,18.3309097 89.8460266,19.3190509 89.4886139,20.9168962 L95.5856552,20.9168962 C95.3543882,19.3190509 94.1980527,18.3309097 92.6212317,18.3309097 Z M102.736687,27.7287631 L100.003531,27.7287631 L100.003531,16.3125788 L102.631566,16.3125788 L102.631566,17.8893998 C103.325367,16.6489673 104.397606,16.0182389 105.806232,16.0182389 C106.289791,16.0182389 106.752325,16.102336 107.172811,16.2495059 L106.941544,18.877541 C106.479009,18.730371 106.037499,18.6462739 105.617014,18.6462739 C103.914047,18.6462739 102.736687,19.7815851 102.736687,22.1573288 L102.736687,27.7287631 Z M113.069526,18.6795235 L116.04466,18.6795235 L116.04466,16.2824947 L113.069526,16.2824947 L113.069526,12.2580661 L110.288687,12.2580661 L110.288687,16.2824947 L108.507654,16.2824947 L108.507654,18.6795235 L110.288687,18.6795235 L110.288687,24.5438321 C110.288687,26.3985181 111.786373,27.9271054 113.648362,27.9271054 L116.04466,27.9271054 L116.04466,25.5300766 L114.243389,25.5300766 C113.595741,25.5300766 113.069526,25.0001664 113.069526,24.3479691 L113.069526,18.6795235 Z M121.889807,28.0231031 C120.03967,28.0231031 118.357728,27.2452047 117.28549,25.7524808 L118.841286,24.0705383 C119.59816,25.0797038 120.796544,25.6894079 121.910831,25.6894079 C122.898973,25.6894079 123.592774,25.1638009 123.592774,24.4910239 C123.592774,24.049514 123.298434,23.671077 122.730778,23.3977613 C122.54156,23.2926399 122.079026,23.1034214 121.343176,22.8301058 C120.62835,22.5567901 120.144792,22.3465473 119.8925,22.2204016 C118.610019,21.5896732 117.979291,20.6225563 117.979291,19.3190509 C117.979291,18.3309097 118.357728,17.5109628 119.114602,16.8802344 C119.871476,16.2495059 120.880642,15.9341417 122.121074,15.9341417 C123.739944,15.9341417 125.043449,16.5017973 126.03159,17.6160842 L124.601939,19.3610995 C123.866089,18.5832011 123.004094,18.1837398 122.036977,18.1837398 C121.174982,18.1837398 120.649374,18.6462739 120.649374,19.2559781 C120.649374,19.7605608 120.985763,20.1389978 121.637516,20.3702649 C123.27741,21.0220176 124.202478,21.4004547 124.391696,21.5055761 C125.674178,22.1993773 126.32593,23.1664943 126.32593,24.4069268 C126.32593,25.4371166 125.926469,26.2991121 125.106522,26.9929133 C124.286575,27.6867146 123.214337,28.0231031 121.889807,28.0231031 Z M147.091573,16.0182389 C148.878636,16.0182389 150.329312,16.6069187 151.464623,17.7632541 C152.620958,18.9195896 153.188614,20.3282164 153.188614,22.0101588 C153.188614,23.7131255 152.620958,25.1427766 151.464623,26.2991121 C150.329312,27.4554475 148.878636,28.0231031 147.091573,28.0231031 C145.304509,28.0231031 143.853833,27.4554475 142.697498,26.2991121 C141.562187,25.1427766 140.994531,23.7131255 140.994531,22.0101588 C140.994531,20.3282164 141.562187,18.9195896 142.697498,17.7632541 C143.853833,16.6069187 145.304509,16.0182389 147.091573,16.0182389 Z M138.658059,11.3088 C139.688249,11.3088 140.718439,11.5610914 141.727604,12.0866984 L140.865609,14.231175 C140.150783,13.9158108 139.541079,13.7686408 139.036496,13.7686408 C137.627869,13.7686408 136.849971,14.5044907 136.849971,15.8500446 L136.849971,16.3125788 L140.424099,16.3125788 L140.424099,18.6252496 L136.849971,18.6252496 L136.849971,27.7287631 L134.116815,27.7287631 L134.116815,18.6252496 L132.308726,18.6252496 L132.308726,16.3125788 L134.116815,16.3125788 L134.116815,15.7869718 C134.116815,12.9066453 135.945927,11.3088 138.658059,11.3088 Z M147.091573,18.5621768 C146.14548,18.5621768 145.367582,18.8985653 144.715829,19.5713423 C144.064076,20.2441193 143.748712,21.0640662 143.748712,22.0101588 C143.748712,22.9772757 144.064076,23.7972227 144.715829,24.4699997 C145.367582,25.1427766 146.14548,25.4791651 147.091573,25.4791651 C148.037665,25.4791651 148.815564,25.1427766 149.467316,24.4699997 C150.119069,23.7972227 150.434433,22.9772757 150.434433,22.0101588 C150.434433,21.0640662 150.119069,20.2441193 149.467316,19.5713423 C148.815564,18.8985653 148.037665,18.5621768 147.091573,18.5621768 Z M185.372821,16.0182389 C187.159884,16.0182389 188.61056,16.6069187 189.745871,17.7632541 C190.902206,18.9195896 191.469862,20.3282164 191.469862,22.0101588 C191.469862,23.7131255 190.902206,25.1427766 189.745871,26.2991121 C188.61056,27.4554475 187.159884,28.0231031 185.372821,28.0231031 C183.585757,28.0231031 182.135081,27.4554475 180.978746,26.2991121 C179.843435,25.1427766 179.275779,23.7131255 179.275779,22.0101588 C179.275779,20.3282164 179.843435,18.9195896 180.978746,17.7632541 C182.135081,16.6069187 183.585757,16.0182389 185.372821,16.0182389 Z M160.540765,16.0182389 C161.024324,16.0182389 161.486858,16.102336 161.907343,16.2495059 L161.676076,18.877541 C161.213542,18.730371 160.772032,18.6462739 160.351547,18.6462739 C158.64858,18.6462739 157.47122,19.7815851 157.47122,22.1573288 L157.47122,27.7287631 L154.738064,27.7287631 L154.738064,16.3125788 L157.366099,16.3125788 L157.366099,17.8893998 C158.0599,16.6489673 159.132138,16.0182389 160.540765,16.0182389 Z M173.425476,12.1918198 C175.21254,12.1918198 176.537069,12.6964025 177.441113,13.6845437 C178.345157,14.6726849 178.786667,15.8500446 178.786667,17.2586714 C178.786667,18.6672982 178.324133,19.8656822 177.37804,20.8117748 C176.452972,21.7578675 175.06537,22.2414259 173.194209,22.2414259 L170.671295,22.2414259 L170.671295,27.7287631 L167.811993,27.7287631 L167.811993,12.1918198 L173.425476,12.1918198 Z M185.372821,18.5621768 C184.426728,18.5621768 183.64883,18.8985653 182.997077,19.5713423 C182.345324,20.2441193 182.02996,21.0640662 182.02996,22.0101588 C182.02996,22.9772757 182.345324,23.7972227 182.997077,24.4699997 C183.64883,25.1427766 184.426728,25.4791651 185.372821,25.4791651 C186.318913,25.4791651 187.096812,25.1427766 187.748564,24.4699997 C188.400317,23.7972227 188.715681,22.9772757 188.715681,22.0101588 C188.715681,21.0640662 188.400317,20.2441193 187.748564,19.5713423 C187.096812,18.8985653 186.318913,18.5621768 185.372821,18.5621768 Z M173.488549,14.8619034 L170.671295,14.8619034 L170.671295,19.6133908 L173.278306,19.6133908 C174.960248,19.6133908 175.864292,18.5411525 175.864292,17.2166228 C175.864292,15.8920932 174.981272,14.8619034 173.488549,14.8619034 Z M215.595819,16.0392631 C217.256737,16.0392631 218.602291,16.5648701 219.653505,17.5950599 C220.725743,18.6252496 221.251351,20.0128522 221.251351,21.7788917 C221.251351,22.0942559 221.230326,22.4937173 221.167253,22.9983 L212.463201,22.9983 C212.820614,24.5751211 213.997974,25.6263351 215.953232,25.6263351 C217.340834,25.6263351 218.602291,25.2268738 219.716578,24.4489754 L220.809841,26.4042335 C219.401214,27.4554475 217.740296,27.9810545 215.84811,27.9810545 C211.559157,27.9810545 209.666972,25.0376552 209.666972,22.0101588 C209.666972,20.2861678 210.213603,18.8565167 211.306866,17.7422299 C212.421153,16.6069187 213.850804,16.0392631 215.595819,16.0392631 Z M194.481888,16.3125788 L196.878656,24.049514 L199.590788,16.3125788 L201.503997,16.3125788 L204.279202,24.049514 L206.612898,16.3125788 L209.4722,16.3125788 L205.645781,27.7077389 L203.270037,27.7077389 L200.557905,20.2441193 L197.887821,27.7077389 L195.512077,27.7077389 L191.622586,16.3125788 L194.481888,16.3125788 Z M215.595819,18.3309097 C213.997974,18.3309097 212.820614,19.3190509 212.463201,20.9168962 L218.560243,20.9168962 C218.328975,19.3190509 217.17264,18.3309097 215.595819,18.3309097 Z M249.819778,16.0182389 C251.606842,16.0182389 253.057517,16.6069187 254.192828,17.7632541 C255.349163,18.9195896 255.916819,20.3282164 255.916819,22.0101588 C255.916819,23.7131255 255.349163,25.1427766 254.192828,26.2991121 C253.057517,27.4554475 251.606842,28.0231031 249.819778,28.0231031 C248.032714,28.0231031 246.582038,27.4554475 245.425703,26.2991121 C244.290392,25.1427766 243.722736,23.7131255 243.722736,22.0101588 C243.722736,20.3282164 244.290392,18.9195896 245.425703,17.7632541 C246.582038,16.6069187 248.032714,16.0182389 249.819778,16.0182389 Z M228.979162,16.0182389 C229.46272,16.0182389 229.925255,16.102336 230.34574,16.2495059 L230.114473,18.877541 C229.651939,18.730371 229.210429,18.6462739 228.789943,18.6462739 C227.086977,18.6462739 225.909617,19.7815851 225.909617,22.1573288 L225.909617,27.7287631 L223.176461,27.7287631 L223.176461,16.3125788 L225.804496,16.3125788 L225.804496,17.8893998 C226.498297,16.6489673 227.570535,16.0182389 228.979162,16.0182389 Z M237.872433,12.1918198 C239.659497,12.1918198 240.984026,12.6964025 241.88807,13.6845437 C242.792114,14.6726849 243.233624,15.8500446 243.233624,17.2586714 C243.233624,18.6672982 242.77109,19.8656822 241.824997,20.8117748 C240.899929,21.7578675 239.512327,22.2414259 237.641166,22.2414259 L235.118252,22.2414259 L235.118252,27.7287631 L232.25895,27.7287631 L232.25895,12.1918198 L237.872433,12.1918198 Z M260.659183,16.3125788 L260.659183,27.7287631 L257.905002,27.7287631 L257.905002,16.3125788 L260.659183,16.3125788 Z M249.819778,18.5621768 C248.873685,18.5621768 248.095787,18.8985653 247.444034,19.5713423 C246.792281,20.2441193 246.476917,21.0640662 246.476917,22.0101588 C246.476917,22.9772757 246.792281,23.7972227 247.444034,24.4699997 C248.095787,25.1427766 248.873685,25.4791651 249.819778,25.4791651 C250.76587,25.4791651 251.543769,25.1427766 252.195521,24.4699997 C252.847274,23.7972227 253.162638,22.9772757 253.162638,22.0101588 C253.162638,21.0640662 252.847274,20.2441193 252.195521,19.5713423 C251.543769,18.8985653 250.76587,18.5621768 249.819778,18.5621768 Z M237.935506,14.8619034 L235.118252,14.8619034 L235.118252,19.6133908 L237.725263,19.6133908 C239.407205,19.6133908 240.311249,18.5411525 240.311249,17.2166228 C240.311249,15.8920932 239.428229,14.8619034 237.935506,14.8619034 Z M259.313629,11.4980185 C260.30177,11.4980185 261.03762,12.2338683 261.03762,13.2220095 C261.03762,14.231175 260.30177,14.9460005 259.313629,14.9460005 C258.304463,14.9460005 257.547589,14.231175 257.547589,13.2220095 C257.547589,12.2338683 258.325488,11.4980185 259.313629,11.4980185 Z M279.744866,12.2580661 L279.744866,16.2824947 L282.72,16.2824947 L282.72,18.6795235 L279.744866,18.6795235 L279.744866,24.3479691 C279.744866,25.0001664 280.27108,25.5300766 280.918728,25.5300766 L280.918728,25.5300766 L282.72,25.5300766 L282.72,27.9271054 L280.323702,27.9271054 C278.461713,27.9271054 276.964026,26.3985181 276.964026,24.5438321 L276.964026,24.5438321 L276.964026,18.6795235 L275.182994,18.6795235 L275.182994,16.2824947 L276.964026,16.2824947 L276.964026,12.2580661 L279.744866,12.2580661 Z M269.678599,16.0182389 C270.919032,16.0182389 271.99127,16.4387245 272.853265,17.2586714 C273.715261,18.0786184 274.156771,19.2349538 274.156771,20.7697263 L274.156771,27.7287631 L271.40259,27.7287631 L271.40259,21.5266004 C271.40259,19.6133908 270.414449,18.5201282 268.900701,18.5201282 C267.281831,18.5201282 266.125496,19.7815851 266.125496,21.5686489 L266.125496,27.7287631 L263.392339,27.7287631 L263.392339,16.3125788 L266.083447,16.3125788 L266.083447,17.9104241 C266.693151,16.7540887 268.017681,16.0182389 269.678599,16.0182389 Z" id="Experts-for-PowerPoint" fill="#091D42"></path>
            <g id="Icon">
                <path d="M29.76,0 C35.145806,0 39.5291483,4.29205742 39.6761889,9.64233439 L39.68,9.92 L39.68,9.92 L39.68,29.76 L39.68,29.76 L39.68,39.68 L29.76,39.68 L29.76,39.68 L9.92,39.68 C4.44133528,39.68 0,35.2386647 0,29.76 L0,29.76 L0,9.92 L0.00381106315,9.64233439 C0.148316552,4.38430358 4.38430358,0.148316552 9.64233439,0.00381106315 L9.92,0 L29.76,0 Z" id="Chat-shape" fill="#375DE7"></path>
                <path d="M17.856,11.904 L17.856,21.824 L17.856,21.824 L27.776,21.824 C27.776,27.3026647 23.3346647,31.744 17.856,31.744 C12.3773353,31.744 7.936,27.3026647 7.936,21.824 C7.936,16.3453353 12.3773353,11.904 17.856,11.904 L17.856,11.904 Z M19.84,7.936 C26.4143977,7.936 31.744,13.2656023 31.744,19.84 L31.744,19.84 L19.84,19.84 L19.84,19.84 Z" id="Product-icon" fill="#FFFFFF"></path>
            </g>
        </g>
    </g>
</svg>