<?xml version="1.0" encoding="UTF-8"?>
<svg width="40px" height="40px" viewBox="0 0 40 40" version="1.1" xmlns="http://www.w3.org/2000/svg" xmlns:xlink="http://www.w3.org/1999/xlink">
    <!-- Generator: Sketch 58 (84663) - https://sketch.com -->
    <title>Logos/Experts for PowerPoint/Spot/White</title>
    <desc>Created with Sketch.</desc>
    <g id="Logos/Experts-for-PowerPoint/Spot/White" stroke="none" stroke-width="1" fill="none" fill-rule="evenodd">
        <path d="M30,0 C35.4292399,0 39.8479317,4.32667079 39.9961582,9.72009516 L40,10 L40,40 L10,40 L9.72009516,39.9961582 C4.41966086,39.8504873 0.149512653,35.5803391 0.00384179753,30.2799048 L0,30 L0,10 L0.00384179753,9.72009516 C0.149512653,4.41966086 4.41966086,0.149512653 9.72009516,0.00384179753 L10,0 L30,0 Z M18,12 C12.4771525,12 8,16.4771525 8,22 C8,27.5228475 12.4771525,32 18,32 C23.5228475,32 28,27.5228475 28,22 L18,22 L18,22 L18,12 L18,12 Z M20,8 L20,20 L32,20 C32,13.372583 26.627417,8 20,8 Z" id="Logo/Experts-for-PowerPoint/Spot/White" fill="#FFFFFF"></path>
    </g>
</svg>