<?xml version="1.0" encoding="UTF-8"?>
<svg width="285px" height="40px" viewBox="0 0 285 40" version="1.1" xmlns="http://www.w3.org/2000/svg" xmlns:xlink="http://www.w3.org/1999/xlink">
    <!-- Generator: Sketch 58 (84663) - https://sketch.com -->
    <title>Logos/Experts for PowerPoint/Spot Hero/Black</title>
    <desc>Created with Sketch.</desc>
    <g id="Logos/Experts-for-PowerPoint/Spot-Hero/Black" stroke="none" stroke-width="1" fill="none" fill-rule="evenodd">
        <path d="M29.7894737,0 C35.1806137,0 39.5682971,4.32667079 39.7154834,9.72009516 L39.7192982,10 L39.7192982,40 L9.92982456,40 L9.65188396,39.9961582 C4.3886457,39.8504873 0.148463442,35.5803391 0.00381483755,30.2799048 L0,30 L0,10 L0.00381483755,9.72009516 C0.148463442,4.41966086 4.3886457,0.149512653 9.65188396,0.00384179753 L9.92982456,0 L29.7894737,0 Z M80.1764339,16.168612 C81.7969068,16.168612 83.1437934,16.7620393 84.2170936,17.9277 C85.2903938,19.0933607 85.8165214,20.5133474 85.8165214,22.1876601 C85.8165214,23.8831666 85.2693487,25.3243471 84.1960485,26.4900078 C83.1227483,27.6556686 81.7758617,28.227902 80.1553888,28.227902 C78.7032767,28.227902 77.4616157,27.6556686 76.4724958,26.5112017 L76.4724958,32.6786066 L73.7155874,32.6786066 L73.7155874,16.4441318 L76.4514507,16.4441318 L76.4514507,17.9700877 C77.4405706,16.7620393 78.6822316,16.168612 80.1764339,16.168612 Z M17.8736842,12 C12.3895935,12 7.94385965,16.4771525 7.94385965,22 C7.94385965,27.5228475 12.3895935,32 17.8736842,32 C23.3577749,32 27.8035088,27.5228475 27.8035088,22 L17.8736842,22 L17.8736842,12 Z M250.067194,16.1474182 C251.856028,16.1474182 253.30814,16.7408455 254.444575,17.9065062 C255.602056,19.0721669 256.170274,20.4921536 256.170274,22.1876601 C256.170274,23.9043604 255.602056,25.345541 254.444575,26.5112017 C253.30814,27.6768624 251.856028,28.2490958 250.067194,28.2490958 C248.27836,28.2490958 246.826248,27.6768624 245.668768,26.5112017 C244.532332,25.345541 243.964114,23.9043604 243.964114,22.1876601 C243.964114,20.4921536 244.532332,19.0721669 245.668768,17.9065062 C246.826248,16.7408455 248.27836,16.1474182 250.067194,16.1474182 Z M185.55641,16.1474182 C187.345244,16.1474182 188.797356,16.7408455 189.933791,17.9065062 C191.091272,19.0721669 191.65949,20.4921536 191.65949,22.1876601 C191.65949,23.9043604 191.091272,25.345541 189.933791,26.5112017 C188.797356,27.6768624 187.345244,28.2490958 185.55641,28.2490958 C183.767576,28.2490958 182.315464,27.6768624 181.157984,26.5112017 C180.021548,25.345541 179.45333,23.9043604 179.45333,22.1876601 C179.45333,20.4921536 180.021548,19.0721669 181.157984,17.9065062 C182.315464,16.7408455 183.767576,16.1474182 185.55641,16.1474182 Z M147.237249,16.1474182 C149.026083,16.1474182 150.478195,16.7408455 151.61463,17.9065062 C152.772111,19.0721669 153.340329,20.4921536 153.340329,22.1876601 C153.340329,23.9043604 152.772111,25.345541 151.61463,26.5112017 C150.478195,27.6768624 149.026083,28.2490958 147.237249,28.2490958 C145.448415,28.2490958 143.996303,27.6768624 142.838823,26.5112017 C141.702387,25.345541 141.134169,23.9043604 141.134169,22.1876601 C141.134169,20.4921536 141.702387,19.0721669 142.838823,17.9065062 C143.996303,16.7408455 145.448415,16.1474182 147.237249,16.1474182 Z M122.24202,16.0626429 C123.862493,16.0626429 125.16729,16.6348763 126.156409,17.7581494 L124.725342,19.5172374 C123.988764,18.7330656 123.125915,18.3303828 122.15784,18.3303828 C121.294991,18.3303828 120.768863,18.7966471 120.768863,19.4112682 C120.768863,19.9199202 121.105585,20.3014091 121.757983,20.5345413 C123.399501,21.19155 124.325485,21.573039 124.514891,21.6790082 C125.798643,22.3784046 126.451041,23.3533208 126.451041,24.6037569 C126.451041,25.6422546 126.051184,26.5112017 125.230425,27.2105981 C124.409666,27.9099945 123.336366,28.2490958 122.010524,28.2490958 C120.158555,28.2490958 118.474947,27.4649241 117.401647,25.9601621 L118.958984,24.2646556 C119.716608,25.2819595 120.916179,25.8965806 122.031569,25.8965806 C123.020689,25.8965806 123.715177,25.3667348 123.715177,24.6885322 C123.715177,24.2434617 123.420546,23.8619728 122.852328,23.586453 C122.662922,23.4804838 122.19993,23.2897393 121.463352,23.0142195 C120.747818,22.7386997 120.263781,22.5267614 120.011239,22.3995984 C118.727488,21.7637835 118.096135,20.7888672 118.096135,19.4748497 C118.096135,18.4787396 118.474947,17.6521802 119.232571,17.0163653 C119.990194,16.3805503 121.000359,16.0626429 122.24202,16.0626429 Z M215.809341,16.168612 C217.471904,16.168612 218.81879,16.6984578 219.871045,17.7369555 C220.944346,18.7754533 221.470473,20.1742461 221.470473,21.954528 C221.470473,22.2724354 221.449428,22.6751182 221.386293,23.1837702 L212.67362,23.1837702 C213.031387,24.7733075 214.209913,25.8329991 216.167107,25.8329991 C217.556084,25.8329991 218.81879,25.4303163 219.934181,24.6461445 L221.028526,26.6171708 C219.618504,27.6768624 217.955941,28.2067082 216.061882,28.2067082 C211.768681,28.2067082 209.874622,25.2395718 209.874622,22.1876601 C209.874622,20.4497659 210.421794,19.0085854 211.51614,17.8853124 C212.63153,16.7408455 214.062597,16.168612 215.809341,16.168612 Z M92.7129618,16.168612 C94.3755249,16.168612 95.7224115,16.6984578 96.7746666,17.7369555 C97.8479668,18.7754533 98.3740944,20.1742461 98.3740944,21.954528 C98.3740944,22.2724354 98.3530493,22.6751182 98.289914,23.1837702 L89.5772415,23.1837702 C89.9350083,24.7733075 91.113534,25.8329991 93.0707286,25.8329991 C94.4597053,25.8329991 95.7224115,25.4303163 96.8378019,24.6461445 L97.9321473,26.6171708 C96.5221254,27.6768624 94.8595623,28.2067082 92.965503,28.2067082 C88.6723021,28.2067082 86.7782429,25.2395718 86.7782429,22.1876601 C86.7782429,20.4497659 87.3254155,19.0085854 88.4197609,17.8853124 C89.5351513,16.7408455 90.9662183,16.168612 92.7129618,16.168612 Z M113.181508,12.3569215 L113.181508,16.4138052 L116.159589,16.4138052 L116.159589,18.8301648 L113.181508,18.8301648 L113.181508,24.5443237 C113.181508,25.2017806 113.708243,25.7359644 114.356533,25.7359644 L114.356533,25.7359644 L116.159589,25.7359644 L116.159589,28.152324 L113.760917,28.152324 C111.897084,28.152324 110.397914,26.6114093 110.397914,24.7417662 L110.397914,24.7417662 L110.397914,18.8301648 L108.615118,18.8301648 L108.615118,16.4138052 L110.397914,16.4138052 L110.397914,12.3569215 L113.181508,12.3569215 Z M280.021919,12.3569215 L280.021919,16.4138052 L283,16.4138052 L283,18.8301648 L280.021919,18.8301648 L280.021919,24.5443237 C280.021919,25.1606896 280.48487,25.6687099 281.076914,25.7298047 L281.196944,25.7359644 L283,25.7359644 L283,28.152324 L280.601328,28.152324 C278.799623,28.152324 277.338676,26.7124249 277.243281,24.9275899 L277.238326,24.7417662 L277.238326,18.8301648 L275.455529,18.8301648 L275.455529,16.4138052 L277.238326,16.4138052 L277.238326,12.3569215 L280.021919,12.3569215 Z M59.9822682,12.2901409 L59.9822682,15.0029513 L52.5323019,15.0029513 L52.5323019,18.6906779 L59.4140504,18.6906779 L59.4140504,21.3822945 L52.5323019,21.3822945 L52.5323019,25.2395718 L59.9822682,25.2395718 L59.9822682,27.9523822 L49.6491228,27.9523822 L49.6491228,12.2901409 L59.9822682,12.2901409 Z M269.945683,16.1474182 C271.187344,16.1474182 272.260644,16.5712948 273.123494,17.3978542 C273.986343,18.2244137 274.42829,19.3900744 274.42829,20.9372241 L274.42829,27.9523822 L271.671382,27.9523822 L271.671382,21.700202 C271.671382,19.7715633 270.682262,18.6694841 269.167014,18.6694841 C267.546541,18.6694841 266.389061,19.941114 266.389061,21.7425896 L266.389061,27.9523822 L263.653197,27.9523822 L263.653197,16.4441318 L266.346971,16.4441318 L266.346971,18.054863 C266.957279,16.8892023 268.28312,16.1474182 269.945683,16.1474182 Z M160.699761,16.1474182 C161.183799,16.1474182 161.646791,16.2321935 162.067693,16.3805503 L161.836197,19.0297792 C161.373205,18.8814224 160.931258,18.7966471 160.510355,18.7966471 C158.805702,18.7966471 157.627176,19.941114 157.627176,22.3360169 L157.627176,27.9523822 L154.891313,27.9523822 L154.891313,16.4441318 L157.521951,16.4441318 L157.521951,18.0336692 C158.216439,16.7832331 159.28974,16.1474182 160.699761,16.1474182 Z M173.597233,12.2901409 C175.386066,12.2901409 176.711908,12.7987929 177.616847,13.7949029 C178.521787,14.791013 178.963734,15.9778675 178.963734,17.3978542 C178.963734,18.8178409 178.500742,20.0258893 177.553712,20.9796117 C176.627727,21.9333341 175.238751,22.4207922 173.365737,22.4207922 L170.840324,22.4207922 L170.840324,27.9523822 L167.97819,27.9523822 L167.97819,12.2901409 L173.597233,12.2901409 Z M238.108017,12.2901409 C239.89685,12.2901409 241.222692,12.7987929 242.127631,13.7949029 C243.032571,14.791013 243.474518,15.9778675 243.474518,17.3978542 C243.474518,18.8178409 243.011526,20.0258893 242.064496,20.9796117 C241.138511,21.9333341 239.749535,22.4207922 237.87652,22.4207922 L235.351108,22.4207922 L235.351108,27.9523822 L232.488974,27.9523822 L232.488974,12.2901409 L238.108017,12.2901409 Z M138.795383,11.4 C139.826593,11.4 140.857803,11.654326 141.867968,12.1841718 L141.005119,14.3459425 C140.289586,14.0280351 139.679278,13.8796783 139.174195,13.8796783 C137.764173,13.8796783 136.985504,14.6214623 136.985504,15.9778675 L136.985504,16.4441318 L140.563172,16.4441318 L140.563172,18.7754533 L136.985504,18.7754533 L136.985504,27.9523822 L134.249641,27.9523822 L134.249641,18.7754533 L132.439762,18.7754533 L132.439762,16.4441318 L134.249641,16.4441318 L134.249641,15.9142861 C134.249641,13.0107312 136.080565,11.4 138.795383,11.4 Z M105.911021,16.1474182 C106.395058,16.1474182 106.85805,16.2321935 107.278952,16.3805503 L107.047456,19.0297792 C106.584464,18.8814224 106.142517,18.7966471 105.721615,18.7966471 C104.016961,18.7966471 102.838436,19.941114 102.838436,22.3360169 L102.838436,27.9523822 L100.102572,27.9523822 L100.102572,16.4441318 L102.73321,16.4441318 L102.73321,18.0336692 C103.427699,16.7832331 104.500999,16.1474182 105.911021,16.1474182 Z M64.7805516,16.4441318 L66.8640167,20.0894708 L69.0737525,16.4441318 L72.1884277,16.4441318 L68.56867,22.1452724 L72.2936532,27.9523822 L69.1368878,27.9523822 L66.8008814,24.0527173 L64.4017397,27.9523822 L61.2239292,27.9523822 L65.0541379,22.0604971 L61.6237862,16.4441318 L64.7805516,16.4441318 Z M229.205938,16.1474182 C229.689976,16.1474182 230.152968,16.2321935 230.57387,16.3805503 L230.342374,19.0297792 C229.879381,18.8814224 229.437434,18.7966471 229.016532,18.7966471 C227.311879,18.7966471 226.133353,19.941114 226.133353,22.3360169 L226.133353,27.9523822 L223.39749,27.9523822 L223.39749,16.4441318 L226.028128,16.4441318 L226.028128,18.0336692 C226.722616,16.7832331 227.795916,16.1474182 229.205938,16.1474182 Z M260.917334,16.4441318 L260.917334,27.9523822 L258.160426,27.9523822 L258.160426,16.4441318 L260.917334,16.4441318 Z M194.674499,16.4441318 L197.07364,24.2434617 L199.788458,16.4441318 L201.703563,16.4441318 L204.481516,24.2434617 L206.817523,16.4441318 L209.679657,16.4441318 L205.849448,27.9311884 L203.471351,27.9311884 L200.756533,20.4073783 L198.083805,27.9311884 L195.705709,27.9311884 L191.812365,16.4441318 L194.674499,16.4441318 Z M79.7344867,18.7118718 C78.7453669,18.7118718 77.945653,19.0509731 77.3353451,19.7291757 C76.7250371,20.4073783 76.4093605,21.2339377 76.4093605,22.2088539 C76.4093605,23.204964 76.7250371,24.0315234 77.3353451,24.709726 C77.945653,25.3667348 78.7453669,25.7058361 79.7344867,25.7058361 C80.7236066,25.7058361 81.5233205,25.3667348 82.1336284,24.709726 C82.7439364,24.0315234 83.059613,23.204964 83.059613,22.2088539 C83.059613,21.2127439 82.7439364,20.3861844 82.1336284,19.7291757 C81.5233205,19.0509731 80.7236066,18.7118718 79.7344867,18.7118718 Z M147.237249,18.7118718 C146.290219,18.7118718 145.511551,19.0509731 144.859152,19.7291757 C144.206754,20.4073783 143.891078,21.2339377 143.891078,22.1876601 C143.891078,23.1625763 144.206754,23.9891358 144.859152,24.6673384 C145.511551,25.345541 146.290219,25.6846423 147.237249,25.6846423 C148.184279,25.6846423 148.962947,25.345541 149.615346,24.6673384 C150.267744,23.9891358 150.58342,23.1625763 150.58342,22.1876601 C150.58342,21.2339377 150.267744,20.4073783 149.615346,19.7291757 C148.962947,19.0509731 148.184279,18.7118718 147.237249,18.7118718 Z M185.55641,18.7118718 C184.60938,18.7118718 183.830712,19.0509731 183.178313,19.7291757 C182.525915,20.4073783 182.210239,21.2339377 182.210239,22.1876601 C182.210239,23.1625763 182.525915,23.9891358 183.178313,24.6673384 C183.830712,25.345541 184.60938,25.6846423 185.55641,25.6846423 C186.50344,25.6846423 187.282108,25.345541 187.934507,24.6673384 C188.586905,23.9891358 188.902581,23.1625763 188.902581,22.1876601 C188.902581,21.2339377 188.586905,20.4073783 187.934507,19.7291757 C187.282108,19.0509731 186.50344,18.7118718 185.55641,18.7118718 Z M250.067194,18.7118718 C249.120164,18.7118718 248.341496,19.0509731 247.689097,19.7291757 C247.036699,20.4073783 246.721023,21.2339377 246.721023,22.1876601 C246.721023,23.1625763 247.036699,23.9891358 247.689097,24.6673384 C248.341496,25.345541 249.120164,25.6846423 250.067194,25.6846423 C251.014224,25.6846423 251.792892,25.345541 252.445291,24.6673384 C253.097689,23.9891358 253.413365,23.1625763 253.413365,22.1876601 C253.413365,21.2339377 253.097689,20.4073783 252.445291,19.7291757 C251.792892,19.0509731 251.014224,18.7118718 250.067194,18.7118718 Z M92.7129618,18.4787396 C91.113534,18.4787396 89.9350083,19.4748497 89.5772415,21.0855809 L95.6803213,21.0855809 C95.4488252,19.4748497 94.2913445,18.4787396 92.7129618,18.4787396 Z M215.809341,18.4787396 C214.209913,18.4787396 213.031387,19.4748497 212.67362,21.0855809 L218.7767,21.0855809 C218.545204,19.4748497 217.387723,18.4787396 215.809341,18.4787396 Z M19.8596491,8 L19.8596491,20 L31.7754386,20 C31.7754386,13.372583 26.4405579,8 19.8596491,8 Z M173.660368,14.9817575 L170.840324,14.9817575 L170.840324,19.7715633 L173.449917,19.7715633 C175.133525,19.7715633 176.038465,18.6906779 176.038465,17.3554666 C176.038465,16.0202552 175.15457,14.9817575 173.660368,14.9817575 Z M238.171152,14.9817575 L235.351108,14.9817575 L235.351108,19.7715633 L237.960701,19.7715633 C239.644309,19.7715633 240.549249,18.6906779 240.549249,17.3554666 C240.549249,16.0202552 239.665354,14.9817575 238.171152,14.9817575 Z M259.570448,11.5907445 C260.559567,11.5907445 261.296146,12.3325286 261.296146,13.3286386 C261.296146,14.3459425 260.559567,15.0665328 259.570448,15.0665328 C258.560283,15.0665328 257.802659,14.3459425 257.802659,13.3286386 C257.802659,12.3325286 258.581328,11.5907445 259.570448,11.5907445 Z" id="Logo/Experts-for-PowerPoint/Spot-Hero/Black" fill="#000000"></path>
    </g>
</svg>