<?xml version="1.0" encoding="UTF-8"?>
<svg width="40px" height="40px" viewBox="0 0 40 40" version="1.1" xmlns="http://www.w3.org/2000/svg" xmlns:xlink="http://www.w3.org/1999/xlink">
    <!-- Generator: Sketch 58 (84663) - https://sketch.com -->
    <title>Logos/Experts for PowerPoint/Spot/Original</title>
    <desc>Created with Sketch.</desc>
    <g id="Logos/Experts-for-PowerPoint/Spot/Original" stroke="none" stroke-width="1" fill="none" fill-rule="evenodd">
        <g id="Logo/Experts-for-PowerPoint/Spot/Original">
            <g id="Icon">
                <path d="M29.76,0 C35.145806,0 39.5291483,4.29205742 39.6761889,9.64233439 L39.68,9.92 L39.68,9.92 L39.68,29.76 L39.68,29.76 L39.68,39.68 L29.76,39.68 L29.76,39.68 L9.92,39.68 C4.44133528,39.68 0,35.2386647 0,29.76 L0,29.76 L0,9.92 L0.00381106315,9.64233439 C0.148316552,4.38430358 4.38430358,0.148316552 9.64233439,0.00381106315 L9.92,0 L29.76,0 Z" id="Chat-shape" fill="#375DE7"></path>
                <path d="M17.856,11.904 L17.856,21.824 L17.856,21.824 L27.776,21.824 C27.776,27.3026647 23.3346647,31.744 17.856,31.744 C12.3773353,31.744 7.936,27.3026647 7.936,21.824 C7.936,16.3453353 12.3773353,11.904 17.856,11.904 L17.856,11.904 Z M19.84,7.936 C26.4143977,7.936 31.744,13.2656023 31.744,19.84 L31.744,19.84 L19.84,19.84 L19.84,19.84 Z" id="Product-icon" fill="#FFFFFF"></path>
            </g>
        </g>
    </g>
</svg>